<?xml version="1.0" encoding="UTF-8"?>
<svg width="52px" height="52px" viewBox="0 0 52 52" version="1.1" xmlns="http://www.w3.org/2000/svg" xmlns:xlink="http://www.w3.org/1999/xlink">
    <title>Group 3</title>
    <g id="Dsk" stroke="none" stroke-width="1" fill="none" fill-rule="evenodd">
        <g id="registres-consult" transform="translate(-1523.000000, -1962.000000)">
            <g id="Group-3" transform="translate(1523.000000, 1962.000000)">
                <circle id="Oval" fill="#303030" cx="26" cy="26" r="26"></circle>
                <path d="M21.7454545,14.1818182 L21.7454545,20.7474747 L21.7454545,14.1818182 L21.7454545,32.5656566 L21.7454545,14.1818182 Z M16.4929293,40.4444444 C15.7707071,40.4444444 15.1522222,40.1870707 14.6374747,39.6736364 C14.1240404,39.1588889 13.8666667,38.540404 13.8666667,37.8181818 L13.8666667,19.4343434 L16.4929293,19.4343434 L16.4929293,37.8181818 L30.9373737,37.8181818 L30.9373737,40.4444444 L16.4929293,40.4444444 Z M29.6242424,20.7474747 L29.6242424,14.1818182 L21.7454545,14.1818182 L21.7454545,32.5656566 L36.189899,32.5656566 L36.189899,20.7474747 L29.6242424,20.7474747 Z M36.189899,35.1919192 L21.7454545,35.1919192 C21.0232323,35.1919192 20.4047475,34.9345455 19.89,34.4211111 C19.3765657,33.9063636 19.1191919,33.2878788 19.1191919,32.5656566 L19.1191919,14.1818182 C19.1191919,13.459596 19.3765657,12.8411111 19.89,12.3263636 C20.4047475,11.8129293 21.0232323,11.5555556 21.7454545,11.5555556 L30.9373737,11.5555556 L38.8161616,19.4343434 L38.8161616,32.5656566 C38.8161616,33.2878788 38.5587879,33.9063636 38.0453535,34.4211111 C37.5306061,34.9345455 36.9121212,35.1919192 36.189899,35.1919192 L36.189899,35.1919192 Z" id="Fill-1" fill="#FFFFFF"></path>
            </g>
        </g>
    </g>
</svg>