<?xml version="1.0" encoding="UTF-8"?>
<svg width="40px" height="40px" viewBox="0 0 40 40" version="1.1" xmlns="http://www.w3.org/2000/svg" xmlns:xlink="http://www.w3.org/1999/xlink">
    <title>Group 6</title>
    <g id="Dsk" stroke="none" stroke-width="1" fill="none" fill-rule="evenodd">
        <g id="registres" transform="translate(-529.000000, -659.000000)">
            <g id="Group-6" transform="translate(529.000000, 659.000000)">
                <circle id="Oval" fill="#939393" cx="20" cy="20" r="20"></circle>
                <path d="M19.6491228,30.877193 C16.9590643,30.877193 14.6152047,29.9859649 12.6175439,28.2011696 C10.6187135,26.4175439 9.47368421,24.1906433 9.18128655,21.5204678 L11.5789474,21.5204678 C11.851462,23.5473684 12.7532164,25.2245614 14.2842105,26.5497076 C15.8140351,27.8748538 17.6023392,28.5380117 19.6491228,28.5380117 C21.9298246,28.5380117 23.8643275,27.7438596 25.4526316,26.154386 C27.0421053,24.5660819 27.8362573,22.6315789 27.8362573,20.3508772 C27.8362573,18.0701754 27.0421053,16.1356725 25.4526316,14.5473684 C23.8643275,12.9578947 21.9298246,12.1637427 19.6491228,12.1637427 C18.3040936,12.1637427 17.0467836,12.4760234 15.877193,13.0994152 C14.7076023,13.722807 13.722807,14.5812865 12.9239766,15.6725146 L16.1403509,15.6725146 L16.1403509,18.0116959 L9.12280702,18.0116959 L9.12280702,10.994152 L11.4619883,10.994152 L11.4619883,13.7426901 C12.4561404,12.4947368 13.6690058,11.5298246 15.102924,10.8479532 C16.5345029,10.1660819 18.0502924,9.8245614 19.6491228,9.8245614 C21.1111111,9.8245614 22.4807018,10.102924 23.7567251,10.6573099 C25.0339181,11.2140351 26.1450292,11.9637427 27.0912281,12.9087719 C28.0362573,13.8549708 28.7859649,14.9660819 29.3426901,16.2432749 C29.897076,17.5192982 30.1754386,18.8888889 30.1754386,20.3508772 C30.1754386,21.8128655 29.897076,23.1824561 29.3426901,24.4584795 C28.7859649,25.7356725 28.0362573,26.8467836 27.0912281,27.7929825 C26.1450292,28.7380117 25.0339181,29.4888889 23.7567251,30.0444444 C22.4807018,30.5988304 21.1111111,30.877193 19.6491228,30.877193" id="Fill-1" fill="#FFFFFF"></path>
            </g>
        </g>
    </g>
</svg>