<?xml version="1.0" encoding="UTF-8"?>
<svg width="47px" height="48px" viewBox="0 0 47 48" version="1.1" xmlns="http://www.w3.org/2000/svg" xmlns:xlink="http://www.w3.org/1999/xlink">
    <!-- Generator: Sketch 63.1 (92452) - https://sketch.com -->
    <title>Group 15</title>
    <desc>Created with Sketch.</desc>
    <defs>
        <polygon id="path-1" points="0.51010303 0.1575 16.6553636 0.1575 16.6553636 24.7479 0.51010303 24.7479"></polygon>
        <polygon id="path-3" points="0.445313725 0.4894 25.5954706 0.4894 25.5954706 15 0.445313725 15"></polygon>
    </defs>
    <g id="Page-1" stroke="none" stroke-width="1" fill="none" fill-rule="evenodd">
        <g id="HOME---tableau-01" transform="translate(-48.000000, -10.000000)">
            <g id="Group-19">
                <g id="Group-15" transform="translate(48.000000, 10.000000)">
                    <path d="M31,18 L31,25 L35,25 C34.9687703,24.6359148 34.9115159,24.1681434 34.8402082,23.6658099 C34.3571893,20.183091 32.8581653,18.6415286 31,18" id="Fill-1" fill="#FFFFFF"></path>
                    <g id="Group-5" transform="translate(30.000000, 0.000000)">
                        <mask id="mask-2" fill="white">
                            <use xlink:href="#path-1"></use>
                        </mask>
                        <g id="Clip-4"></g>
                        <path d="M0.51010303,0.1574 L0.51010303,16.6419 C1.89843636,17.0409 2.92564848,17.5699 4.07237576,17.5699 C4.92752727,17.5699 4.92495152,16.8854 5.09134545,16.8854 C5.28349697,16.8854 5.66522424,16.9594 5.66522424,17.0849 C5.66522424,17.2979 5.5148,19.6139 5.5148,21.1944 C5.5148,22.8634 5.57558788,24.0459 5.62092121,24.7479 L16.6554667,24.7479 L16.6554667,0.1574 L0.51010303,0.1574 Z" id="Fill-3" fill="#FFFFFF" mask="url(#mask-2)"></path>
                    </g>
                    <path d="M25,18 C22.184662,19.306556 21,23.01361 21,29.4846473 C21,29.6574274 21.0020182,29.8282158 21.0030272,30 L25,30 L25,18 Z" id="Fill-6" fill="#FFFFFF"></path>
                    <path d="M15.9051698,29.432408 C15.9051698,22.2486019 20.4987261,18.0117537 25,16.7705857 L25,15 L0,15 L0,30 L15.9182097,30 C15.9116898,29.8121421 15.9051698,29.6237819 15.9051698,29.432408" id="Fill-8" fill="#FFFFFF"></path>
                    <path d="M28.1689322,40 C33.7192702,40 34.7053863,35.5997844 35,33 L21,33 C21.4548957,37.2422566 23.0409246,40 28.1689322,40" id="Fill-10" fill="#FFFFFF"></path>
                    <g id="Group-14" transform="translate(17.000000, 33.000000)">
                        <mask id="mask-4" fill="white">
                            <use xlink:href="#path-3"></use>
                        </mask>
                        <g id="Clip-13"></g>
                        <path d="M19.2667647,3.6159 C19.2667647,5.3824 19.4329608,7.5549 19.4329608,7.7814 C19.4329608,7.9224 18.943549,8.1064 18.7890784,8.1064 C18.5586471,8.1064 18.1977059,6.8329 17.1969608,6.8329 C15.8434314,6.8329 14.3344118,8.2379 11.2597843,8.2379 C6.65268627,8.2379 2.56456863,6.1869 0.445313725,2.5174 L0.445313725,15.0004 L25.5954706,15.0004 L25.5954706,0.4894 L19.3911569,0.4894 C19.3442549,1.1474 19.2667647,2.2919 19.2667647,3.6159" id="Fill-12" fill="#FFFFFF" mask="url(#mask-4)"></path>
                    </g>
                </g>
            </g>
        </g>
    </g>
</svg>