<?xml version="1.0" encoding="UTF-8"?>
<svg width="35.0580353px" height="61.4175px" viewBox="0 0 35.0580353 61.4175" version="1.1" xmlns="http://www.w3.org/2000/svg" xmlns:xlink="http://www.w3.org/1999/xlink">
    <title>Group 21</title>
    <g id="Symbols" stroke="none" stroke-width="1" fill="none" fill-rule="evenodd">
        <g id="Group-21" transform="translate(1.417577, 1.417500)">
            <path d="M3.07219318,49.863861 L5.76429923,40.0976565 C5.76429923,40.0976565 -0.766023908,32.3074478 0.0747363732,25.8549263 C0.915496655,19.4032415 16.111925,9.48561645 16.111925,9.48561645 C16.111925,9.48561645 31.3075168,19.4032415 32.1491137,25.8549263 C32.989874,32.3074478 26.3658542,40.1177343 26.3658542,40.1177343 L29.1575129,49.863861" id="Fill-1" fill="#000000"></path>
            <path d="M5.76388094,40.0978238 L5.76388094,40.0978238 C6.1503797,38.6965566 10.352508,37.4659513 16.011954,37.4659513 C21.6722367,37.4659513 26.2608637,38.6438523 26.2608637,40.0978238 L26.2725758,40.1371429" id="Stroke-3" stroke="#FFFFFF" stroke-width="2.835"></path>
            <line x1="16.1117577" y1="18.9711492" x2="16.1117577" y2="30.8279606" id="Stroke-5" stroke="#FFFFFF" stroke-width="2.835"></line>
            <line x1="10.1832683" y1="24.8997223" x2="22.0400798" y2="24.8997223" id="Stroke-7" stroke="#FFFFFF" stroke-width="2.835"></line>
            <path d="M3.06901418,49.8639446 C3.06901418,48.4225218 8.9083244,47.2538232 16.1120923,47.2538232 C23.3150237,47.2538232 29.1543339,48.4225218 29.1543339,49.8639446" id="Stroke-9" stroke="#000000" stroke-width="2.835"></path>
            <path d="M3.07219318,49.863861 L5.76429923,40.0976565 C5.76429923,40.0976565 -0.766023908,32.3074478 0.0747363732,25.8549263 C0.915496655,19.4032415 16.111925,9.48561645 16.111925,9.48561645 C16.111925,9.48561645 31.3075168,19.4032415 32.1491137,25.8549263 C32.989874,32.3074478 26.3658542,40.1177343 26.3658542,40.1177343 L29.1575129,49.863861" id="Stroke-11" stroke="#000000" stroke-width="2.835"></path>
            <path d="M16.1117577,0 C18.7310815,0 20.854315,2.12323343 20.854315,4.74255725 C20.854315,7.36188107 18.7310815,9.48595108 16.1117577,9.48595108 C13.4924339,9.48595108 11.3692005,7.36188107 11.3692005,4.74255725 C11.3692005,2.12323343 13.4924339,0 16.1117577,0" id="Fill-13" fill="#FFFFFF"></path>
            <path d="M16.1117577,0 C18.7310815,0 20.854315,2.12323343 20.854315,4.74255725 C20.854315,7.36188107 18.7310815,9.48595108 16.1117577,9.48595108 C13.4924339,9.48595108 11.3692005,7.36188107 11.3692005,4.74255725 C11.3692005,2.12323343 13.4924339,0 16.1117577,0 Z" id="Stroke-15" stroke="#000000" stroke-width="2.835"></path>
            <line x1="11.2736633" y1="48.5587166" x2="11.2736633" y2="59.999749" id="Stroke-17" stroke="#000000" stroke-width="6"></line>
            <line x1="20.9489319" y1="47.5391797" x2="20.9489319" y2="60" id="Stroke-19" stroke="#000000" stroke-width="6"></line>
        </g>
    </g>
</svg>