<?xml version="1.0" encoding="UTF-8"?>
<svg width="73.8352458px" height="136.5px" viewBox="0 0 73.8352458 136.5" version="1.1" xmlns="http://www.w3.org/2000/svg" xmlns:xlink="http://www.w3.org/1999/xlink">
    <title>Group 21 Copy 2</title>
    <g id="Dsk" stroke="none" stroke-width="1" fill="none" fill-rule="evenodd">
        <g id="PERSONNES" transform="translate(-866.582380, -400.500000)">
            <g id="Group-21-Copy-2" transform="translate(868.000000, 404.000000)">
                <path d="M6.76928138,111 L12.7010774,89.2318817 C12.7010774,89.2318817 -1.6878598,71.8681059 0.164674391,57.4859321 C2.01720859,43.105623 35.5010729,21 35.5010729,21 C35.5010729,21 68.9830939,43.105623 70.8374715,57.4859321 C72.6900057,71.8681059 58.0946168,89.2766337 58.0946168,89.2766337 L64.2457677,111" id="Fill-1" fill="#000000"></path>
                <path d="M7,111 C7,107.686538 19.9835477,105 36.0009301,105 C52.0164523,105 65,107.686538 65,111" id="Stroke-9" stroke="#000000" stroke-width="2.835"></path>
                <path d="M6.76928138,111 L12.7010774,89.2318817 C12.7010774,89.2318817 -1.6878598,71.8681059 0.164674391,57.4859321 C2.01720859,43.105623 35.5010729,21 35.5010729,21 C35.5010729,21 68.9830939,43.105623 70.8374715,57.4859321 C72.6900057,71.8681059 58.0946168,89.2766337 58.0946168,89.2766337 L64.2457677,111" id="Stroke-11" stroke="#000000" stroke-width="2.835"></path>
                <path d="M35.5,0 C41.2991709,0 46,4.7004145 46,10.499074 C46,16.2977335 41.2991709,21 35.5,21 C29.7008291,21 25,16.2977335 25,10.499074 C25,4.7004145 29.7008291,0 35.5,0" id="Fill-13" fill="#FFFFFF"></path>
                <path d="M35.5,0 C41.2991709,0 46,4.7004145 46,10.499074 C46,16.2977335 41.2991709,21 35.5,21 C29.7008291,21 25,16.2977335 25,10.499074 C25,4.7004145 29.7008291,0 35.5,0 Z" id="Stroke-15" stroke="#000000" stroke-width="7"></path>
                <line x1="25" y1="108" x2="25" y2="133" id="Stroke-17" stroke="#000000" stroke-width="9"></line>
                <line x1="46" y1="105" x2="46" y2="133" id="Stroke-19" stroke="#000000" stroke-width="9"></line>
            </g>
        </g>
    </g>
</svg>