<?xml version="1.0" encoding="UTF-8"?>
<svg width="222.817287px" height="45px" viewBox="0 0 222.817287 45" version="1.1" xmlns="http://www.w3.org/2000/svg" xmlns:xlink="http://www.w3.org/1999/xlink">
    <title>logo Archives Nationales</title>
    <g id="Symbols" stroke="none" stroke-width="1" fill="none" fill-rule="evenodd">
        <g id="PdP" transform="translate(-1188.000000, -336.000000)" fill="#CACACA" fill-rule="nonzero">
            <g id="logo-Archives-Nationales" transform="translate(1188.000000, 336.000000)">
                <path d="M15.5661926,0 L19.3161926,3.75 C19.5623632,3.99617068 19.7921225,4.26695842 20.0075219,4.56441466 C20.2208698,4.8618709 20.3275438,5.27215536 20.3275438,5.7993709 L20.3275438,20.3295952 L11.25,20.3295952 L11.25,16.4811269 L9.10421225,16.4811269 L9.10421225,20.3295952 L0,20.3295952 L0,5.7993709 C0,5.27215536 0.106673961,4.8618709 0.320021882,4.56441466 C0.533369803,4.26695842 0.763129103,3.99617068 1.0113512,3.75 L4.7613512,0 L15.5661926,0 Z M11.25,9.64578775 L11.25,5.79731947 L9.10421225,5.79731947 L9.10421225,9.64578775 L11.25,9.64578775 Z" id="Shape"></path>
                <path d="M22.4979486,0 L40.8027899,0 C41.3607768,0 41.8387582,0.196936543 42.2326313,0.59286105 C42.6285558,0.986734136 42.8254923,1.47292123 42.8254923,2.04731947 L42.8254923,12.5321389 C42.8254923,13.0921772 42.6285558,13.5681072 42.2326313,13.9640317 C41.8387582,14.3579048 41.3607768,14.5548414 40.8027899,14.5548414 L39.8406729,14.5548414 L42.8254923,18.4033096 L42.8254923,20.3275438 L35.2762582,20.3275438 L32.1683534,16.0605853 L31.6001094,16.0605853 L31.6001094,20.3275438 L22.4958972,20.3275438 L22.4958972,0 L22.4979486,0 Z M35.4485777,5.77270241 L31.6001094,5.77270241 L31.6001094,7.91849015 L35.4485777,7.91849015 L35.4485777,5.77270241 Z" id="Shape"></path>
                <path d="M45.5887582,0.59286105 C45.9846827,0.196936543 46.4606127,0 47.020651,0 L65.3254923,0 L65.3254923,5.77270241 L61.4770241,5.77270241 L61.4770241,14.5322757 L65.3254923,14.5322757 L65.3254923,20.3295952 L47.020651,20.3295952 C46.4606127,20.3295952 45.9846827,20.1326586 45.5887582,19.7387856 C45.1948851,19.3428611 44.9979486,18.8587254 44.9979486,18.2822757 L44.9979486,2.02270241 C44.9979486,1.46471554 45.1948851,0.986734136 45.5887582,0.59286105 Z" id="Path"></path>
                <polygon id="Path" points="78.7458972 3.85051969 78.7458972 0 87.8234409 0 87.8234409 20.3275438 78.7458972 20.3275438 78.7458972 16.4790755 76.6001094 16.4790755 76.6001094 20.3275438 67.4958972 20.3275438 67.4958972 0 76.6001094 0 76.6001094 3.85051969"></polygon>
                <polygon id="Path" points="110.321389 14.5548414 110.321389 20.3275438 89.9938457 20.3275438 89.9938457 14.5548414 93.842314 14.5548414 93.842314 5.7993709 89.9938457 5.7993709 89.9938457 0 110.321389 0 110.321389 5.7993709 106.448304 5.7993709 106.448304 14.5568928 110.321389 14.5568928"></polygon>
                <path d="M117.253146,20.3275438 L113.503146,16.5775438 C113.256975,16.3313731 113.025164,16.0646882 112.811816,15.7754376 C112.598468,15.4882385 112.491794,15.0820569 112.491794,14.5548414 L112.491794,0 L120.508753,0 L122.65454,3.85051969 L124.800328,0 L132.817287,0 L132.817287,14.5548414 C132.817287,15.0820569 132.710613,15.4882385 132.497265,15.7754376 C132.283917,16.0646882 132.054158,16.3293217 131.805935,16.5775438 L128.055935,20.3275438 L117.251094,20.3275438 L117.253146,20.3275438 Z" id="Path"></path>
                <path d="M151.47087,5.7993709 L151.47087,7.92054158 L155.319338,7.92054158 L155.319338,12.411105 L151.47087,12.411105 L151.47087,14.5568928 L155.319338,14.5568928 L155.319338,20.3295952 L137.014497,20.3295952 C136.454458,20.3295952 135.978528,20.1326586 135.582604,19.7387856 C135.188731,19.3428611 134.991794,18.8669311 134.991794,18.3068928 L134.991794,0 L155.319338,0 L155.319338,5.7993709 L151.47087,5.7993709 Z" id="Path"></path>
                <path d="M160.425328,12.4090536 L160.302243,12.4090536 C159.90837,12.3926422 159.537062,12.2982768 159.192423,12.1259573 C158.845733,11.9536379 158.546225,11.7320842 158.291849,11.4592451 C158.037473,11.1884573 157.838485,10.8766411 157.698988,10.5217451 C157.559491,10.1689004 157.489743,9.78528446 157.489743,9.375 L157.489743,2.04731947 C157.489743,1.47292123 157.686679,0.986734136 158.080553,0.59286105 C158.474426,0.196936543 158.952407,0 159.512445,0 L177.817287,0 L177.817287,5.77270241 L174.758616,5.77270241 L174.758616,7.91849015 L174.881701,7.91849015 C175.291986,7.93695295 175.67355,8.02516411 176.028446,8.19132932 C176.383342,8.35544311 176.691056,8.57699672 176.955689,8.85599015 C177.218271,9.13703501 177.427516,9.45705689 177.583425,9.82015864 C177.739333,10.181209 177.817287,10.5689278 177.817287,10.9792123 L177.817287,18.3068928 C177.817287,18.8669311 177.62035,19.3428611 177.226477,19.7387856 C176.832604,20.1326586 176.354623,20.3295952 175.794584,20.3295952 L157.489743,20.3295952 L157.489743,14.5568928 L160.423277,14.5568928 L160.423277,12.411105 L160.425328,12.4090536 Z" id="Path"></path>
                <polygon id="Path" points="6.75943654 40.7063731 5.77270241 40.7063731 5.77270241 44.9979486 0 44.9979486 0 24.6704048 11.1761488 24.6704048 13.5681072 28.9640317 14.5548414 28.9640317 14.5548414 24.6704048 20.3275438 24.6704048 20.3275438 44.9979486 9.1267779 44.9979486"></polygon>
                <path d="M38.0641411,24.6704048 L41.8141411,28.4204048 C42.0603118,28.6665755 42.2900711,28.9373632 42.5054705,29.2348195 C42.7188184,29.5322757 42.8254923,29.9425602 42.8254923,30.4697757 L42.8254923,45 L33.7479486,45 L33.7479486,41.1515317 L31.6021608,41.1515317 L31.6021608,45 L22.4979486,45 L22.4979486,30.4697757 C22.4979486,29.9425602 22.6046225,29.5322757 22.8179705,29.2348195 C23.0313184,28.9373632 23.2610777,28.6665755 23.5092998,28.4204048 L27.2592998,24.6704048 L38.0641411,24.6704048 L38.0641411,24.6704048 Z M33.7479486,34.3161926 L33.7479486,30.4677243 L31.6021608,30.4677243 L31.6021608,34.3161926 L33.7479486,34.3161926 Z" id="Shape"></path>
                <polygon id="Path" points="48.8443654 44.9979486 48.8443654 39.2252462 44.9958972 39.2252462 44.9958972 24.6704048 65.3234409 24.6704048 65.3234409 39.2252462 61.4749726 39.2252462 61.4749726 44.9979486 48.8443654 44.9979486"></polygon>
                <polygon id="Path" points="87.8234409 39.2252462 87.8234409 44.9979486 67.4958972 44.9979486 67.4958972 39.2252462 71.3443654 39.2252462 71.3443654 30.4677243 67.4958972 30.4677243 67.4958972 24.6683534 87.8234409 24.6683534 87.8234409 30.4677243 83.9503556 30.4677243 83.9503556 39.2252462 87.8234409 39.2252462"></polygon>
                <path d="M89.9938457,26.6931072 C89.9938457,26.118709 90.1907823,25.6366247 90.5846554,25.2509573 C90.9805799,24.8652899 91.4647155,24.6704048 92.0411652,24.6704048 L108.298687,24.6704048 C108.856674,24.6704048 109.334655,24.8652899 109.728528,25.2509573 C110.124453,25.6366247 110.321389,26.118709 110.321389,26.6931072 L110.321389,42.9506291 C110.321389,43.5270788 110.124453,44.0112144 109.728528,44.4071389 C109.334655,44.801012 108.856674,44.9979486 108.298687,44.9979486 L92.0411652,44.9979486 C91.4647155,44.9979486 90.9805799,44.801012 90.5846554,44.4071389 C90.1907823,44.0112144 89.9938457,43.5270788 89.9938457,42.9506291 L89.9938457,26.6931072 L89.9938457,26.6931072 Z M101.243846,36.7594365 L101.243846,32.8863512 L99.098058,32.8863512 L99.098058,36.7594365 L101.243846,36.7594365 Z" id="Shape"></path>
                <polygon id="Path" points="119.251231 40.7063731 118.264497 40.7063731 118.264497 44.9979486 112.491794 44.9979486 112.491794 24.6704048 123.667943 24.6704048 126.061953 28.9640317 127.046636 28.9640317 127.046636 24.6704048 132.819338 24.6704048 132.819338 44.9979486 121.618572 44.9979486"></polygon>
                <path d="M150.555935,24.6704048 L154.305935,28.4204048 C154.552106,28.6665755 154.783917,28.9373632 154.997265,29.2348195 C155.210613,29.5322757 155.317287,29.9425602 155.317287,30.4697757 L155.317287,45 L146.239743,45 L146.239743,41.1515317 L144.093955,41.1515317 L144.093955,45 L134.989743,45 L134.989743,30.4697757 C134.989743,29.9425602 135.096417,29.5322757 135.309765,29.2348195 C135.523113,28.9373632 135.752872,28.6665755 136.001094,28.4204048 L139.749043,24.6704048 L150.553884,24.6704048 L150.555935,24.6704048 Z M146.239743,34.3161926 L146.239743,30.4677243 L144.093955,30.4677243 L144.093955,34.3161926 L146.239743,34.3161926 Z" id="Shape"></path>
                <path d="M159.512445,44.9979486 C158.952407,44.9979486 158.476477,44.801012 158.080553,44.4071389 C157.686679,44.0112144 157.489743,43.5352845 157.489743,42.9752462 L157.489743,24.6704048 L173.968818,24.6704048 L173.968818,39.2252462 L177.817287,39.2252462 L177.817287,44.9979486 L159.512445,44.9979486 L159.512445,44.9979486 Z" id="Path"></path>
                <path d="M196.466767,30.4677243 L196.466767,32.588895 L200.317287,32.588895 L200.317287,37.0794584 L196.466767,37.0794584 L196.466767,39.2252462 L200.317287,39.2252462 L200.317287,44.9979486 L182.012445,44.9979486 C181.452407,44.9979486 180.976477,44.801012 180.580553,44.4071389 C180.186679,44.0112144 179.989743,43.5352845 179.989743,42.9752462 L179.989743,24.6704048 L200.317287,24.6704048 L200.317287,30.4697757 L196.466767,30.4697757 L196.466767,30.4677243 Z" id="Path"></path>
                <path d="M205.423277,37.0794584 L205.300191,37.0794584 C204.906318,37.063047 204.535011,36.9686816 204.190372,36.7963621 C203.845733,36.6240427 203.544174,36.4024891 203.289798,36.1296499 C203.035421,35.8588621 202.838485,35.547046 202.698988,35.1921499 C202.559491,34.8393053 202.489743,34.4556893 202.489743,34.0454048 L202.489743,26.7177243 C202.489743,26.143326 202.686679,25.6571389 203.080553,25.2632659 C203.474426,24.8693928 203.952407,24.6704048 204.512445,24.6704048 L222.817287,24.6704048 L222.817287,30.4431072 L219.758616,30.4431072 L219.758616,32.588895 L219.881701,32.588895 C220.291986,32.6073578 220.675602,32.6955689 221.028446,32.8617341 C221.381291,33.0258479 221.691056,33.2474015 221.953638,33.526395 C222.21622,33.8074398 222.425465,34.1274617 222.583425,34.4905635 C222.739333,34.8516138 222.817287,35.2393326 222.817287,35.6496171 L222.817287,42.9772976 C222.817287,43.5373359 222.62035,44.0132659 222.224426,44.4091904 C221.828501,44.8051149 221.352571,45 220.794584,45 L202.489743,45 L202.489743,39.2272976 L205.425328,39.2272976 L205.425328,37.0815098 L205.423277,37.0794584 Z" id="Path"></path>
            </g>
        </g>
    </g>
</svg>