<?xml version="1.0" encoding="UTF-8"?>
<svg width="187.078015px" height="45px" viewBox="0 0 187.078015 45" version="1.1" xmlns="http://www.w3.org/2000/svg" xmlns:xlink="http://www.w3.org/1999/xlink">
    <title>logo ANR</title>
    <defs>
        <polygon id="path-1" points="0 0 6.60333081 0 6.60333081 7.29607824 0 7.29607824"></polygon>
        <polygon id="path-3" points="0 -3.85727336e-15 7.04201838 -3.85727336e-15 7.04201838 10.6758888 0 10.6758888"></polygon>
        <polygon id="path-5" points="0 -3.85727336e-15 6.461155 -3.85727336e-15 6.461155 7.2958611 0 7.2958611"></polygon>
        <polygon id="path-7" points="0 -3.85727336e-15 6.461155 -3.85727336e-15 6.461155 7.2958611 0 7.2958611"></polygon>
    </defs>
    <g id="Symbols" stroke="none" stroke-width="1" fill="none" fill-rule="evenodd">
        <g id="PdP" transform="translate(-1689.000000, -64.000000)">
            <g id="logo-ANR" transform="translate(1689.000000, 64.000000)">
                <path d="M86.6675837,1.08466619 C86.0226625,1.08466619 85.3815414,1.22798201 84.7822206,1.51298507 C83.7203807,2.01784763 82.9191149,2.90542857 82.5255393,4.01232616 C82.1314208,5.11976661 82.1927643,6.31406513 82.697084,7.37536222 C83.2019466,8.43720218 84.0889846,9.23901078 85.1964251,9.63258643 C86.3044084,10.0267049 87.4987069,9.96644715 88.5594611,9.46104173 C90.7504561,8.4192877 91.685809,5.7896595 90.6445978,3.59812172 C90.1397352,2.53682462 89.2521543,1.73501602 88.1452567,1.34144037 C87.6626515,1.17043854 87.1648462,1.08466619 86.6675837,1.08466619 M86.6746409,10.9778009 C86.0546914,10.9778009 85.4331133,10.8713997 84.832164,10.6575117 C83.4505778,10.1662207 82.3442231,9.16681001 81.714502,7.84276724 C80.4159738,5.10999507 81.5825863,1.83001704 84.3148156,0.530945966 C87.0475878,-0.767582245 90.3281087,0.39794454 91.6266369,3.1307167 C92.9251651,5.86457459 91.7590955,9.14455263 89.0268662,10.4436237 C88.278801,10.7986561 87.478621,10.9778009 86.6746409,10.9778009" id="Fill-1" fill="#CACACA"></path>
                <path d="M86.6692123,3.48835482 C86.3766092,3.48835482 86.0850918,3.55295552 85.8131174,3.68269977 C84.8185925,4.15553341 84.3935308,5.34983193 84.8663644,6.34489974 C85.3386552,7.33996756 86.5340394,7.76340067 87.5280215,7.29165275 C88.0100838,7.06256458 88.3743449,6.6592174 88.5529468,6.1565263 C88.7320916,5.65383519 88.7044056,5.11151509 88.4747745,4.62945278 L88.4747745,4.62890991 C88.2462292,4.14739046 87.842882,3.78367228 87.3407338,3.6045275 C87.1214172,3.52635523 86.8950433,3.48835482 86.6692123,3.48835482 M86.6757267,8.57226649 C85.5210571,8.57226649 84.4114452,7.92191666 83.8837824,6.81176189 C83.1541746,5.27491684 83.8099531,3.43081135 85.3457124,2.7001178 C86.0905204,2.34671401 86.9270722,2.30328497 87.7049948,2.57960222 C88.4812889,2.85646233 89.1039527,3.4183255 89.4573565,4.16259063 C89.8113031,4.90685575 89.8541893,5.74449331 89.5778721,6.52078734 C89.3015548,7.29708138 88.7396917,7.92028807 87.9954265,8.27423472 C87.5687362,8.47617974 87.1187028,8.57226649 86.6757267,8.57226649" id="Fill-3" fill="#CACACA"></path>
                <path d="M14.4379834,27.4729635 C13.8511485,27.8317959 13.2149131,28.0109407 12.5298201,28.0109407 C11.2893782,28.0109407 10.3105963,27.5712217 9.59238858,26.6896122 C8.87472374,25.8090885 8.51534846,24.6831907 8.51534846,23.3130046 C8.51534846,22.3993662 8.70317905,21.592129 9.07884022,20.8896643 C9.45395853,20.1888282 10.0331933,19.666594 10.8165446,19.3235046 C11.5988101,18.9809581 12.5786778,18.8425281 13.7528903,18.9082145 C14.079151,18.9407863 14.4054116,18.9646722 14.7316723,18.9809581 C14.8201589,18.9858439 14.8923597,19.0064727 14.9770463,19.0146156 L14.9770463,25.7602308 C14.9770463,26.195064 15.0052752,26.6054684 15.0503328,27.0012156 C14.851645,27.1809032 14.6491571,27.3437621 14.4379834,27.4729635 L14.4379834,27.4729635 Z M26.2827104,27.7172518 C25.1084978,28.2726006 24.3001749,28.2802007 23.8604559,27.7427664 C23.4196512,27.2037034 23.1992488,26.1353491 23.1992488,24.5360748 L23.1992488,15.2856899 C23.1992488,12.7087194 22.4321834,10.6604975 20.8991384,9.14319547 C19.3650077,7.62643634 16.967182,6.86697106 13.7034898,6.86697106 C12.2676173,6.86697106 10.5147128,7.021687 8.44260483,7.33166175 C6.36941116,7.64272223 4.22455959,8.05855526 2.00642152,8.58024657 L2.00642152,15.8236671 L2.25070985,15.8236671 C4.53453434,13.9643615 6.68807172,12.3900589 8.71186486,11.1013022 C10.7345723,9.81200264 12.2361312,9.16816716 13.2149131,9.16816716 C13.8674344,9.16816716 14.3234393,9.58400019 14.5850993,10.4151234 C14.8462164,11.2478752 14.9770463,12.6756048 14.9770463,14.698855 L14.9770463,17.4527989 C14.8565308,17.4066555 14.7371009,17.3599693 14.6095281,17.3170831 C13.8750345,17.0717091 13.124255,16.8855071 12.3582754,16.7541342 C11.59121,16.62439 10.8659451,16.5576178 10.1797663,16.5576178 C8.38451849,16.4609882 6.70435761,16.7291625 5.13874082,17.3664837 C3.57203831,18.002719 2.32508208,18.9483863 1.39407209,20.2040284 C0.464690698,21.461299 0,22.9047716 0,24.5360748 C0,25.8747749 0.300746082,27.1467028 0.905495425,28.3534872 C1.50861618,29.5613573 2.41465447,30.5401392 3.62089597,31.2909187 C4.82768034,32.0411553 6.26463861,32.4168165 7.9285136,32.4168165 C9.49413039,32.4168165 10.8659451,32.0981559 12.0396148,31.4619205 C13.2149131,30.8256851 14.1356087,30.0586198 14.8055016,29.1618101 C15.0025609,28.8974359 15.1703055,28.639576 15.3239358,28.3849732 C15.5834243,29.269297 15.9867714,30.0287623 16.5426631,30.6546833 C17.5865886,31.828353 19.0392899,32.4168165 20.8991384,32.4168165 C22.4978698,32.4168165 23.7784836,31.9922976 24.7409796,31.14326 C25.7034756,30.295308 26.2501387,29.2025249 26.3809686,27.8643677 L26.2827104,27.7172518 Z" id="Fill-5" fill="#CACACA"></path>
                <path d="M54.7683045,31.2415725 C54.3769003,29.7731281 54.0669255,28.5006573 53.8389231,27.4236172 C53.6098349,26.34712 53.4963766,25.1897361 53.4963766,23.9487514 L53.4963766,15.0414559 C53.4963766,12.4644854 52.7293112,10.4569781 51.1951805,9.02056272 C49.6610497,7.58523305 47.7366005,6.86702534 45.4202042,6.86702534 C43.29761,6.86702534 41.495305,7.44626013 40.0116605,8.60527256 C38.9753351,9.41359551 38.1545263,10.3315768 37.5394626,11.3543306 L37.5394626,7.16071421 L29.3661178,7.16071421 L27.9953888,7.16071421 L27.9953888,7.35668774 L28.1419618,7.89466494 C28.533366,9.36365212 28.8357407,10.63558 29.0474572,11.7126202 C29.2602595,12.7896603 29.3661178,13.9481299 29.3661178,15.187486 L29.3661178,23.9487514 C29.3661178,25.1897361 29.2602595,26.34712 29.0474572,27.4236172 C28.8357407,28.5006573 28.533366,29.7731281 28.1419618,31.2415725 L27.9953888,31.7806354 L27.9953888,31.976066 L29.3661178,31.976066 L37.5394626,31.976066 L38.9585064,31.976066 L38.9585064,31.7806354 L38.8124762,31.2415725 C38.421072,29.7731281 38.1100116,28.5006573 37.8820091,27.4236172 C37.6540067,26.34712 37.5394626,25.1897361 37.5394626,23.9487514 L37.5394626,13.0502345 C38.8955343,12.2603689 40.1853767,11.859736 41.4057326,11.859736 C42.5484592,11.8923078 43.4865264,12.2516831 44.2210199,12.9367762 C44.9555135,13.6218692 45.321946,14.6989093 45.321946,16.1662679 L45.321946,23.9487514 C45.321946,25.1897361 45.2160878,26.34712 45.0043712,27.4236172 C44.7915689,28.5006573 44.4891942,29.7731281 44.0988758,31.2415725 L43.9512171,31.7806354 L43.9512171,31.976066 L45.321946,31.976066 L53.4963766,31.976066 L54.9154203,31.976066 L54.9154203,31.7806354 L54.7683045,31.2415725 Z" id="Fill-7" fill="#CACACA"></path>
                <path d="M72.4120023,6.79395599 C70.9924156,7.23476072 69.8100601,8.00942617 68.8638499,9.11903807 C68.1038418,10.0098762 67.4540348,11.0543445 66.9052004,12.2388715 L66.9052004,7.16038849 L58.7323984,7.16038849 L57.3616694,7.16038849 L57.3616694,7.35690488 L57.5082424,7.89488208 C57.8996466,9.3633264 58.2020213,10.6357972 58.4137379,11.7122944 C58.6265401,12.7893346 58.7323984,13.9478041 58.7323984,15.1877031 L58.7323984,23.9489685 C58.7323984,25.1894104 58.6265401,26.3467942 58.4137379,27.4238344 C58.2020213,28.5008745 57.8996466,29.7728024 57.5082424,31.2417896 L57.3616694,31.7803097 L57.3616694,31.9757403 L58.7323984,31.9757403 L66.9052004,31.9757403 L68.324787,31.9757403 L68.324787,31.7803097 L68.1787569,31.2417896 C67.7868098,29.7728024 67.4762922,28.5008745 67.2477469,27.4238344 C67.0197444,26.3467942 66.9052004,25.1894104 66.9052004,23.9489685 L66.9052004,13.4679133 C67.8709536,12.8903071 68.8415926,12.6042183 69.8187459,12.6183327 C70.9761297,12.6357044 72.0607699,12.9364504 73.0732094,13.5238282 C74.0834773,14.110663 74.9976586,14.8625282 75.8141245,15.7756237 L76.0584128,15.7756237 L77.3314265,7.06321602 C75.4715779,6.44380938 73.8315889,6.35315126 72.4120023,6.79395599" id="Fill-9" fill="#CACACA"></path>
                <path d="M86.18677,30.8454996 C85.9272815,31.0344159 85.6466213,31.1283312 85.3453324,31.1283312 C84.9495853,31.1283312 84.6244104,30.9937012 84.3692648,30.7255269 C84.1146621,30.4568098 83.9870893,30.1104632 83.9870893,29.6864872 C83.9870893,29.3748839 84.0744902,29.0974809 84.2487492,28.8521068 C84.4235511,28.6067328 84.685211,28.4297594 85.0337291,28.3217297 C85.3827899,28.2137 85.7969944,28.1974141 86.2785138,28.272872 C86.3615719,28.2853579 86.4316012,28.2826436 86.5043448,28.2826436 L86.5043448,30.5062103 C86.5043448,30.5203247 86.5065163,30.5317248 86.5070591,30.5458393 C86.4060866,30.6587548 86.3013141,30.7624416 86.18677,30.8454996 M88.4988234,31.0441875 C88.3571361,30.9122718 88.2860211,30.6478975 88.2860211,30.2521504 L88.2860211,27.084545 C88.2860211,26.3777374 88.064533,25.8213029 87.6215568,25.4163271 C87.1785806,25.0102656 86.5282308,24.8088635 85.6705073,24.8088635 C85.2649887,24.8088635 84.7954122,24.8555497 84.2634065,24.949465 C83.7308579,25.044466 83.1863664,25.1763817 82.6299318,25.3452121 L82.6299318,27.1556601 L82.7010469,27.1556601 C83.2384812,26.6459117 83.7656012,26.2246501 84.285121,25.8897036 C84.8035552,25.5547572 85.231874,25.3880983 85.5711634,25.3880983 C85.8637665,25.3880983 86.091769,25.515671 86.2567993,25.7697309 C86.4223725,26.0237908 86.5043448,26.4341952 86.5043448,26.9993155 L86.5043448,27.8673534 C86.4039152,27.8320673 86.2958854,27.7989527 86.1726556,27.7707238 C85.9880821,27.7283805 85.7969944,27.7023231 85.5999351,27.6925515 C84.9865,27.6084078 84.4137795,27.6474939 83.881231,27.8125243 C83.3486824,27.9780975 82.9241636,28.2446432 82.6093031,28.6121614 C82.2928139,28.9796796 82.1353837,29.4128843 82.1353837,29.9128611 C82.1353837,30.2901508 82.2227846,30.6457261 82.3975865,30.9795868 C82.5707598,31.3145332 82.8329626,31.5832504 83.1820235,31.7857383 C83.5299986,31.988769 83.940403,32.0902844 84.4116081,32.0902844 C84.8828131,32.0902844 85.295389,31.9931119 85.6487928,31.8003956 C86.0021966,31.6071364 86.2828567,31.3715338 86.4902304,31.0930451 C86.5179164,31.0561305 86.5331166,31.0219301 86.5580883,30.9855583 C86.6156317,31.2504754 86.7187757,31.4757635 86.8794631,31.6516511 C87.1280944,31.9257969 87.4755267,32.0620555 87.9185028,32.0620555 C88.2577922,32.0620555 88.5400809,31.9746546 88.7669977,31.8003956 C88.9928287,31.6255937 89.1394017,31.3921626 89.2045452,31.1006452 L89.1774021,31.0583019 C88.8652559,31.1804461 88.6394249,31.1761032 88.4988234,31.0441875" id="Fill-11" fill="#CACACA"></path>
                <path d="M91.8068674,32.3871762 L94.1818929,32.3871762 C94.549954,32.3871762 94.8224712,32.4582912 95.0027017,32.5988927 C95.1818465,32.74058 95.270876,32.9240676 95.270876,33.1509844 C95.270876,33.4902737 95.0613309,33.7589909 94.6416978,33.9560501 C94.2226076,34.154738 93.6868019,34.2529962 93.036452,34.2529962 C92.2737296,34.2529962 91.7031806,34.1026231 91.3258908,33.8013342 C90.9491439,33.4989595 90.7651134,33.1032124 90.7748849,32.6130072 C90.7748849,32.47892 90.7906279,32.368176 90.8085424,32.2601462 C91.0783453,32.3421185 91.4073203,32.3871762 91.8068674,32.3871762 M91.8350963,25.8614205 C92.0511557,25.4993309 92.3578733,25.3169289 92.7541633,25.3169289 C93.1499104,25.3169289 93.4587994,25.5015023 93.6802875,25.8690206 C93.9017756,26.2370816 94.0130625,26.7169725 94.0130625,27.3103217 C94.0130625,27.9052995 93.9017756,28.3851904 93.6802875,28.7527086 C93.4587994,29.1202268 93.1499104,29.3048003 92.7541633,29.3048003 C92.3578733,29.3048003 92.0511557,29.1229412 91.8350963,28.7603087 C91.6179511,28.3971334 91.5099214,27.9139853 91.5099214,27.3103217 C91.5099214,26.7082867 91.6179511,26.2245958 91.8350963,25.8614205 M89.7282451,33.1650988 C89.7282451,33.7872198 90.0555915,34.2155386 90.7102842,34.451684 C91.3660627,34.6872865 92.0853561,34.8050878 92.8676216,34.8050878 C93.8284891,34.8050878 94.6634123,34.6465718 95.3702199,34.3317113 C96.0775703,34.0152222 96.4309741,33.4479304 96.4309741,32.6271216 C96.4309741,32.0142293 96.2344577,31.535967 95.8441393,31.1923348 C95.4521922,30.8476168 94.9174722,30.676615 94.2388935,30.676615 L91.9333545,30.676615 C91.6136082,30.676615 91.3638912,30.6456718 91.1847464,30.5848711 C91.0050588,30.5224419 90.9154864,30.3981263 90.9154864,30.20921 C90.9154864,29.9920648 91.0430592,29.8210629 91.2976619,29.6934901 C91.3839772,29.6500611 91.4746353,29.6245465 91.5642077,29.5963177 C91.9501832,29.7304048 92.3448446,29.8134629 92.7541633,29.8134629 C93.2351399,29.8134629 93.7063449,29.7173761 94.1677784,29.5241169 C94.6297548,29.3308577 95.009216,29.0431403 95.3061621,28.6609648 C95.6025653,28.2793321 95.7523954,27.8244129 95.7523954,27.2962073 C95.7523954,26.7690873 95.6047367,26.3185111 95.3137622,25.94665 C95.124303,25.7056188 94.8859861,25.5156168 94.6254119,25.3495007 C94.8441857,25.2653569 95.0597023,25.217585 95.270876,25.217585 C95.6101653,25.217585 95.9255687,25.2984716 96.2181719,25.459159 L96.2464007,25.4450446 L96.5151179,24.045001 C95.9309973,23.9597715 95.4478493,24.0547725 95.0662166,24.3272897 C94.7703563,24.5395492 94.5374681,24.8316094 94.3632091,25.2007562 C94.300237,25.1692702 94.248665,25.1258412 94.1818929,25.0976123 C93.7204594,24.9043531 93.2438257,24.8088092 92.7541633,24.8088092 C92.263958,24.8088092 91.7905815,24.9043531 91.3334909,25.0976123 C90.8764003,25.2908715 90.5007391,25.5769603 90.2086788,25.9531643 C89.9171614,26.3304541 89.7711313,26.7777732 89.7711313,27.2962073 C89.7711313,27.8244129 89.9171614,28.2793321 90.2086788,28.6609648 C90.4551386,28.9834254 90.774342,29.2239137 91.1386031,29.4117443 C90.8926862,29.4774307 90.6690266,29.563203 90.4779389,29.6793757 C90.033877,29.94755 89.8134746,30.3601259 89.8134746,30.9165604 C89.8134746,31.3410792 89.9616762,31.6923116 90.2586222,31.9702574 C90.2738224,31.9843718 90.2960798,31.9941434 90.3123657,32.007715 C90.2483078,32.0625441 90.1728499,32.1043446 90.116935,32.1678595 C89.8574465,32.4648056 89.7282451,32.7975806 89.7282451,33.1650988" id="Fill-13" fill="#CACACA"></path>
                <path d="M98.7081214,27.9088281 C98.7081214,27.897428 98.70595,27.8881993 98.70595,27.8767992 C98.6967213,27.1509914 98.8172369,26.5456992 99.0669538,26.0598369 C99.3166708,25.5745174 99.7004749,25.3313148 100.218909,25.3313148 C100.680343,25.3313148 101.022889,25.5343455 101.24492,25.9387784 C101.465865,26.3448399 101.585838,26.88716 101.604838,27.5657387 L98.7081214,27.9088281 Z M103.047225,26.5196418 C102.821394,26.0012077 102.470162,25.5853747 101.994071,25.2743142 C101.517437,24.9632537 100.936031,24.8085378 100.247138,24.8085378 C99.5783307,24.8085378 98.9795529,24.9572822 98.4513472,25.2536854 C97.9231416,25.5506314 97.51328,25.9751503 97.2217626,26.5261562 C96.9297023,27.0782478 96.7831293,27.7161118 96.7831293,28.4419196 C96.7831293,29.2057278 96.9438168,29.8658491 97.2646488,30.4211979 C97.5838522,30.9776325 98.0083711,31.3978084 98.5365767,31.6800972 C99.0647824,31.9629288 99.6299027,32.104616 100.233023,32.104616 C100.742772,32.104616 101.204205,32.0074435 101.618953,31.8141843 C102.0337,31.621468 102.387104,31.3668652 102.679164,31.0503761 C102.971767,30.7355156 103.188912,30.3978548 103.329514,30.0401081 L103.273056,29.9977648 C102.877852,30.3272826 102.498391,30.5650566 102.134672,30.7110868 C101.771497,30.8576598 101.397465,30.9304034 101.010946,30.9304034 C100.501741,30.9304034 100.07505,30.8006592 99.7314181,30.5422564 C99.3877858,30.282225 99.1299259,29.9244783 98.9610956,29.4673877 C98.8291799,29.1128982 98.7640363,28.7008652 98.7341788,28.2584319 L103.386514,28.2584319 C103.386514,27.6167679 103.273056,27.0375331 103.047225,26.5196418 L103.047225,26.5196418 Z" id="Fill-15" fill="#CACACA"></path>
                <path d="M111.043542,30.7603787 C110.991427,30.4694042 110.964827,30.1626866 110.964827,29.8418546 L110.964827,27.1981119 C110.964827,26.4158464 110.743339,25.8214115 110.300363,25.4164357 C109.857387,25.0103742 109.306381,24.8084292 108.646259,24.8084292 C108.089825,24.8084292 107.602334,24.9571736 107.183244,25.2535768 C106.861326,25.4815793 106.599666,25.787754 106.369492,26.1346434 L106.369492,24.8925729 L104.603016,24.8925729 L104.263727,24.8925729 L104.263727,24.9495735 L104.319099,25.1477185 C104.404328,25.4962366 104.473272,25.8170686 104.524301,26.1091288 C104.576959,26.401732 104.603016,26.7084496 104.603016,27.027653 L104.603016,29.8418546 C104.603016,30.1626866 104.576959,30.4694042 104.524301,30.7603787 C104.473272,31.0529819 104.404328,31.3738139 104.319099,31.7228748 L104.263727,31.919934 L104.263727,31.9769346 L104.603016,31.9769346 L106.369492,31.9769346 L106.695753,31.9769346 L106.695753,31.919934 L106.652867,31.7228748 C106.56818,31.3738139 106.499236,31.0529819 106.448207,30.7603787 C106.39555,30.4694042 106.369492,30.1626866 106.369492,29.8418546 L106.369492,26.5607908 C106.878155,26.1455007 107.373789,25.9245554 107.854222,25.9245554 C108.240741,25.934327 108.563744,26.0624426 108.823233,26.306731 C109.081636,26.552105 109.211923,26.9239662 109.211923,27.4239429 L109.211923,29.8418546 C109.211923,30.1626866 109.185322,30.4694042 109.134293,30.7603787 C109.081636,31.0529819 109.008892,31.3738139 108.914977,31.7228748 L108.87209,31.919934 L108.87209,31.9769346 L109.211923,31.9769346 L110.964827,31.9769346 L111.304116,31.9769346 L111.304116,31.919934 L111.261773,31.7228748 C111.167858,31.3738139 111.095114,31.0529819 111.043542,30.7603787" id="Fill-17" fill="#CACACA"></path>
                <path d="M116.854565,31.8285159 C117.255197,31.6439425 117.596658,31.3996541 117.878947,31.0929366 C118.162864,30.7867619 118.378924,30.4550726 118.529297,30.0956973 L118.488039,30.0674684 C117.770917,30.643446 117.040224,30.9306205 116.295959,30.9306205 C115.796525,30.9306205 115.374177,30.8063049 115.030545,30.556588 C114.686913,30.3063281 114.426881,29.9594387 114.252622,29.5164625 C114.077821,29.0734863 113.99042,28.5507093 113.99042,27.9475886 C113.981734,27.466612 114.038734,27.0301501 114.160879,26.6392888 C114.283023,26.2478846 114.465425,25.9324812 114.70537,25.6925358 C114.945316,25.4515046 115.249862,25.3309891 115.61738,25.3309891 C116.088585,25.3309891 116.543504,25.5427056 116.981052,25.9672245 C117.419685,26.3917433 117.804032,26.8776057 118.134635,27.4237258 L118.204122,27.4237258 L118.175893,25.4732192 C118.06352,25.4346759 117.926176,25.3782181 117.766574,25.3027602 C117.370827,25.1523872 117.002766,25.0324144 116.663477,24.942842 C116.324187,24.8532697 115.961012,24.8087549 115.575037,24.8087549 C114.886143,24.8087549 114.27868,24.9515279 113.750474,25.2397881 C113.222268,25.5275055 112.810236,25.9444242 112.513289,26.4910872 C112.216343,27.0377502 112.068142,27.6881001 112.068142,28.4421367 C112.068142,29.2238594 112.228286,29.891038 112.549118,30.4431296 C112.868865,30.9935927 113.293384,31.4094257 113.821589,31.6868287 C114.349252,31.9647745 114.914915,32.1048331 115.518036,32.1048331 C116.007698,32.1048331 116.453389,32.0120036 116.854565,31.8285159" id="Fill-19" fill="#CACACA"></path>
                <path d="M121.46434,26.0599997 C121.714057,25.5746803 122.098404,25.3314776 122.616295,25.3314776 C123.078271,25.3314776 123.420818,25.5339655 123.642306,25.9389413 C123.863794,26.3450028 123.983767,26.8873229 124.002224,27.5659016 L121.105507,27.908991 C121.105507,27.8975909 121.103336,27.8878193 121.103336,27.8769621 C121.09465,27.1511543 121.214623,26.5458621 121.46434,26.0599997 M120.933963,31.68026 C121.462168,31.9625488 122.027289,32.1047789 122.630952,32.1047789 C123.140158,32.1047789 123.601591,32.0076064 124.016339,31.8143472 C124.431086,31.621088 124.78449,31.3670281 125.077093,31.050539 C125.369153,30.7351356 125.586298,30.3980177 125.7269,30.040271 L125.670442,29.9979277 C125.275238,30.3274455 124.895777,30.5652195 124.532601,30.7112496 C124.168883,30.8572798 123.79485,30.9305663 123.408875,30.9305663 C122.899127,30.9305663 122.472436,30.800822 122.128804,30.5424192 C121.785172,30.2823879 121.527855,29.9246412 121.358481,29.4675506 C121.226566,29.1130611 121.161422,28.7010281 121.132108,28.2585947 L125.7839,28.2585947 C125.7839,27.6169307 125.670442,27.0376959 125.444611,26.5192618 C125.21878,26.0013705 124.867548,25.5855375 124.391457,25.274477 C123.914823,24.9634166 123.333417,24.8087006 122.645067,24.8087006 C121.97626,24.8087006 121.376939,24.9569022 120.848733,25.2538482 C120.32107,25.5507943 119.910666,25.9747703 119.619149,26.5257762 C119.327088,27.0778678 119.180515,27.7162746 119.180515,28.4420824 C119.180515,29.2058906 119.341203,29.866012 119.662035,30.4208179 C119.981781,30.9777953 120.405757,31.3974284 120.933963,31.68026" id="Fill-21" fill="#CACACA"></path>
                <path d="M134.726319,30.7603787 C134.674204,31.0529819 134.600918,31.3738139 134.507002,31.7228748 L134.464659,31.919934 L134.464659,31.9769346 L134.803949,31.9769346 L136.556853,31.9769346 L136.896685,31.9769346 L136.896685,31.919934 L136.853799,31.7228748 C136.759884,31.3738139 136.68714,31.0529819 136.635568,30.7603787 C136.583453,30.4694042 136.556853,30.1626866 136.556853,29.8418546 L136.556853,27.1981119 C136.556853,26.4158464 136.335908,25.8214115 135.892389,25.4164357 C135.449955,25.0103742 134.89895,24.8084292 134.238828,24.8084292 C133.682394,24.8084292 133.19436,24.9571736 132.77527,25.2535768 C132.453352,25.4815793 132.191692,25.787754 131.961518,26.1346434 L131.961518,24.8925729 L130.195042,24.8925729 L129.855753,24.8925729 L129.855753,24.9495735 L129.911667,25.1477185 C129.996354,25.4962366 130.065298,25.8170686 130.116327,26.1091288 C130.168985,26.401732 130.195042,26.7084496 130.195042,27.027653 L130.195042,29.8418546 C130.195042,30.1626866 130.168985,30.4694042 130.116327,30.7603787 C130.065298,31.0529819 129.996354,31.3738139 129.911667,31.7228748 L129.855753,31.919934 L129.855753,31.9769346 L130.195042,31.9769346 L131.961518,31.9769346 L132.287779,31.9769346 L132.287779,31.919934 L132.245435,31.7228748 C132.160206,31.3738139 132.091262,31.0529819 132.040233,30.7603787 C131.987575,30.4694042 131.961518,30.1626866 131.961518,29.8418546 L131.961518,26.5607908 C132.470181,26.1455007 132.965815,25.9245554 133.446791,25.9245554 C133.832767,25.934327 134.15577,26.0624426 134.415259,26.306731 C134.674204,26.552105 134.803949,26.9239662 134.803949,27.4239429 L134.803949,29.8418546 C134.803949,30.1626866 134.777348,30.4694042 134.726319,30.7603787" id="Fill-23" fill="#CACACA"></path>
                <path d="M141.754983,30.8454996 C141.495495,31.0344159 141.214834,31.1283312 140.913545,31.1283312 C140.517798,31.1283312 140.192623,30.9937012 139.937478,30.7255269 C139.682875,30.4568098 139.555302,30.1104632 139.555302,29.6864872 C139.555302,29.3748839 139.642703,29.0974809 139.817505,28.8521068 C139.991764,28.6067328 140.253424,28.4297594 140.601942,28.3217297 C140.951003,28.2137 141.36575,28.1974141 141.846727,28.272872 C141.929785,28.2853579 142.000357,28.2826436 142.072558,28.2826436 L142.072558,30.5062103 C142.072558,30.5203247 142.074729,30.5317248 142.075272,30.5458393 C141.9743,30.6587548 141.869527,30.7624416 141.754983,30.8454996 M143.486716,32.0620555 C143.826005,32.0620555 144.108294,31.9746546 144.335211,31.8003956 C144.561042,31.6255937 144.707615,31.3921626 144.772758,31.1006452 L144.745615,31.0583019 C144.433469,31.1804461 144.207638,31.1761032 144.067036,31.0441875 C143.925349,30.9122718 143.854234,30.6478975 143.854234,30.2521504 L143.854234,27.084545 C143.854234,26.3777374 143.632746,25.8213029 143.18977,25.4163271 C142.746794,25.0102656 142.096444,24.8088635 141.23872,24.8088635 C140.833202,24.8088635 140.363625,24.8555497 139.83162,24.949465 C139.299071,25.044466 138.754579,25.1763817 138.198145,25.3452121 L138.198145,27.1556601 L138.26926,27.1556601 C138.807237,26.6459117 139.333814,26.2246501 139.853334,25.8897036 C140.371768,25.5547572 140.800087,25.3880983 141.139919,25.3880983 C141.43198,25.3880983 141.659982,25.515671 141.825012,25.7697309 C141.990586,26.0237908 142.072558,26.4341952 142.072558,26.9993155 L142.072558,27.8673534 C141.972128,27.8320673 141.864099,27.7989527 141.740869,27.7707238 C141.556295,27.7283805 141.36575,27.7023231 141.168148,27.6925515 C140.554713,27.6084078 139.981993,27.6474939 139.449444,27.8125243 C138.916895,27.9780975 138.492919,28.2446432 138.177516,28.6121614 C137.861027,28.9796796 137.70414,29.4128843 137.70414,29.9128611 C137.70414,30.2901508 137.790998,30.6457261 137.9658,30.9795868 C138.138973,31.3145332 138.401176,31.5832504 138.750237,31.7857383 C139.098212,31.988769 139.508616,32.0902844 139.979821,32.0902844 C140.451026,32.0902844 140.863602,31.9931119 141.217006,31.8003956 C141.57041,31.6071364 141.85107,31.3715338 142.058443,31.0930451 C142.086129,31.0561305 142.10133,31.0219301 142.126301,30.9855583 C142.183845,31.2504754 142.286989,31.4757635 142.447676,31.6516511 C142.69685,31.9257969 143.04374,32.0620555 143.486716,32.0620555" id="Fill-25" fill="#CACACA"></path>
                <path d="M147.833365,30.6404603 C147.658564,30.4569726 147.572791,30.1768553 147.572791,29.7990227 L147.572791,25.4729477 L149.509183,25.4729477 L149.509183,24.8926272 L147.572791,24.8926272 L147.572791,22.659289 L147.459333,22.659289 C147.138501,23.1874947 146.77044,23.6445853 146.356235,24.0305608 C145.941488,24.4170793 145.413282,24.7335684 144.772704,24.9778567 L144.772704,25.4729477 L145.295481,25.4729477 L145.805229,25.4729477 L145.805229,29.9835961 C145.805229,30.6524033 145.964288,31.1740946 146.28512,31.5459557 C146.605952,31.9178168 147.048928,32.1045617 147.614049,32.1045617 C148.132483,32.1045617 148.568945,31.960703 148.922348,31.6724428 C149.275752,31.3858111 149.546098,31.0155786 149.735014,30.5628309 C149.320267,30.7984334 148.929949,30.9162347 148.56243,30.9162347 C148.25137,30.9162347 148.008167,30.8250337 147.833365,30.6404603" id="Fill-27" fill="#CACACA"></path>
                <path d="M151.686987,23.6062049 C151.998047,23.6062049 152.268393,23.4960037 152.499653,23.2745156 C152.730912,23.0530275 152.847085,22.781596 152.847085,22.460764 C152.847085,22.1497035 152.733627,21.8831578 152.507796,21.6622126 C152.280336,21.4401816 152.007819,21.3305233 151.686987,21.3305233 C151.366155,21.3305233 151.093637,21.4401816 150.866721,21.6622126 C150.64089,21.8831578 150.527431,22.1497035 150.527431,22.460764 C150.527431,22.781596 150.64089,23.0530275 150.866721,23.2745156 C151.093637,23.4960037 151.366155,23.6062049 151.686987,23.6062049" id="Fill-29" fill="#CACACA"></path>
                <path d="M152.634065,29.841746 L152.634065,24.8924644 L150.880618,24.8924644 L150.541329,24.8924644 L150.541329,24.949465 L150.598329,25.1481528 C150.683016,25.496128 150.750874,25.81696 150.803532,26.1090203 C150.854561,26.4016234 150.880618,26.708341 150.880618,27.0275444 L150.880618,29.841746 C150.880618,30.162578 150.854561,30.4692956 150.803532,30.7602701 C150.750874,31.0528733 150.677587,31.3737053 150.584215,31.7227662 L150.541329,31.9203683 L150.541329,31.9768261 L150.880618,31.9768261 L152.634065,31.9768261 L152.973355,31.9768261 L152.973355,31.9203683 L152.916897,31.7227662 C152.832753,31.3737053 152.76381,31.0528733 152.712781,30.7602701 C152.660123,30.4692956 152.634065,30.162578 152.634065,29.841746" id="Fill-31" fill="#CACACA"></path>
                <path d="M155.964041,26.8652284 C156.081842,26.4081378 156.264244,26.0384481 156.508533,25.7556165 C156.753907,25.4733277 157.055196,25.3310976 157.414028,25.3310976 C157.771775,25.3310976 158.073064,25.4733277 158.318438,25.7556165 C158.563812,26.0384481 158.745128,26.4081378 158.862929,26.8652284 C158.980731,27.322319 159.039903,27.8385817 159.039903,28.4134736 C159.039903,28.998137 158.980731,29.5263426 158.862929,29.9980905 C158.745128,30.4692956 158.560555,30.8476711 158.311923,31.1359313 C158.062207,31.4236487 157.762003,31.5669645 157.414028,31.5669645 C157.04651,31.5669645 156.741964,31.4236487 156.502018,31.1359313 C156.262073,30.8476711 156.081842,30.4714671 155.964041,30.004062 C155.84624,29.5382856 155.787068,29.0079085 155.787068,28.4134736 C155.787068,27.8385817 155.84624,27.322319 155.964041,26.8652284 M155.596523,31.6728228 C156.138843,31.9605402 156.744135,32.1043988 157.414028,32.1043988 C158.064378,32.1043988 158.665327,31.9605402 159.216333,31.6728228 C159.767339,31.3856483 160.205972,30.9633009 160.531147,30.4079521 C160.856322,29.8515175 161.019181,29.1870533 161.019181,28.4134736 C161.019181,27.6594369 160.856322,27.0112585 160.531147,26.4694813 C160.205972,25.927704 159.769511,25.515671 159.222848,25.2317537 C158.676185,24.949465 158.073064,24.8088635 157.414028,24.8088635 C156.744135,24.8088635 156.138843,24.9472935 155.596523,25.2252394 C155.055289,25.5037281 154.62317,25.9141325 154.303423,26.4553668 C153.982591,26.9971441 153.822447,27.6496654 153.822447,28.4134736 C153.822447,29.1870533 153.982591,29.8515175 154.303423,30.4079521 C154.62317,30.9633009 155.055289,31.3856483 155.596523,31.6728228" id="Fill-33" fill="#CACACA"></path>
                <path d="M164.201607,31.9769346 L164.201607,31.919934 L164.159263,31.7228748 C164.074034,31.3738139 164.00509,31.0529819 163.954061,30.7603787 C163.901403,30.4688613 163.875346,30.1626866 163.875346,29.8418546 L163.875346,26.5607908 C164.384009,26.1455007 164.879642,25.9245554 165.360076,25.9245554 C165.746595,25.934327 166.069598,26.0624426 166.329087,26.306731 C166.588032,26.552105 166.717776,26.9239662 166.717776,27.4239429 L166.717776,29.8418546 C166.717776,30.1626866 166.691176,30.4688613 166.640147,30.7603787 C166.588032,31.0529819 166.514746,31.3738139 166.42083,31.7228748 L166.378487,31.919934 L166.378487,31.9769346 L166.717776,31.9769346 L168.471224,31.9769346 L168.810513,31.9769346 L168.810513,31.919934 L168.767627,31.7228748 C168.673712,31.3738139 168.600968,31.0529819 168.549396,30.7603787 C168.497281,30.4688613 168.471224,30.1626866 168.471224,29.8418546 L168.471224,27.1981119 C168.471224,26.4158464 168.249736,25.8214115 167.80676,25.4164357 C167.363241,25.0103742 166.812777,24.8084292 166.152656,24.8084292 C165.596222,24.8084292 165.108188,24.9571736 164.689098,25.2535768 C164.36718,25.4815793 164.10552,25.787754 163.875346,26.1346434 L163.875346,24.8925729 L162.10887,24.8925729 L161.769581,24.8925729 L161.769581,24.9495735 L161.824953,25.1477185 C161.910182,25.4956937 161.979126,25.8165257 162.030155,26.1091288 C162.082812,26.401732 162.10887,26.7079067 162.10887,27.027653 L162.10887,29.8418546 C162.10887,30.1626866 162.082812,30.4688613 162.030155,30.7603787 C161.979126,31.0529819 161.910182,31.3738139 161.824953,31.7228748 L161.769581,31.919934 L161.769581,31.9769346 L162.10887,31.9769346 L163.875346,31.9769346 L164.201607,31.9769346 Z" id="Fill-35" fill="#CACACA"></path>
                <path d="M171.729976,28.8521068 C171.904778,28.6067328 172.166438,28.4297594 172.514413,28.3217297 C172.863474,28.2137 173.278221,28.1974141 173.759198,28.272872 C173.842799,28.2853579 173.912828,28.2826436 173.985029,28.2826436 L173.985029,30.5062103 C173.985029,30.5203247 173.987743,30.5317248 173.987743,30.5458393 C173.887313,30.6587548 173.781998,30.7624416 173.667997,30.8454996 C173.407965,31.0344159 173.127848,31.1283312 172.826559,31.1283312 C172.430269,31.1283312 172.105094,30.9937012 171.849949,30.7255269 C171.595889,30.4568098 171.468316,30.1104632 171.468316,29.6864872 C171.468316,29.3748839 171.555174,29.0974809 171.729976,28.8521068 M171.892292,32.0902844 C172.36404,32.0902844 172.776616,31.9931119 173.13002,31.8003956 C173.483423,31.6071364 173.763541,31.3715338 173.970914,31.0930451 C173.9986,31.0561305 174.0138,31.0219301 174.038772,30.9855583 C174.096316,31.2504754 174.200002,31.4757635 174.36069,31.6516511 C174.609321,31.9257969 174.956211,32.0620555 175.399187,32.0620555 C175.738476,32.0620555 176.021308,31.9746546 176.248224,31.8003956 C176.474055,31.6255937 176.620086,31.3921626 176.685772,31.1006452 L176.658629,31.0583019 C176.346483,31.1804461 176.120652,31.1761032 175.979507,31.0441875 C175.83782,30.9122718 175.766705,30.6478975 175.766705,30.2521504 L175.766705,27.084545 C175.766705,26.3777374 175.545217,25.8213029 175.102241,25.4163271 C174.659807,25.0102656 174.009458,24.8083206 173.151734,24.8083206 C172.745673,24.8083206 172.276639,24.8555497 171.74409,24.949465 C171.211542,25.044466 170.66705,25.1763817 170.110616,25.3452121 L170.110616,27.1556601 L170.181731,27.1556601 C170.719708,26.6459117 171.246828,26.2246501 171.765805,25.8897036 C172.284239,25.5547572 172.713101,25.3880983 173.05239,25.3880983 C173.344993,25.3880983 173.572996,25.515671 173.737483,25.7697309 C173.903599,26.0237908 173.985029,26.4341952 173.985029,26.9993155 L173.985029,27.8673534 C173.884599,27.8320673 173.777112,27.7989527 173.653339,27.7707238 C173.469309,27.7283805 173.278221,27.7023231 173.080619,27.6925515 C172.467727,27.6084078 171.894463,27.6474939 171.362458,27.8125243 C170.829909,27.9780975 170.40539,28.2446432 170.089987,28.6121614 C169.773498,28.9796796 169.61661,29.4128843 169.61661,29.9128611 C169.61661,30.2901508 169.704011,30.6457261 169.87827,30.9795868 C170.051987,31.3145332 170.313646,31.5832504 170.662707,31.7857383 C171.011225,31.988769 171.421087,32.0902844 171.892292,32.0902844" id="Fill-37" fill="#CACACA"></path>
                <path d="M179.478802,30.7603787 C179.426687,30.4694042 179.400087,30.1626866 179.400087,29.8418546 L179.400087,21.4285644 L177.577153,21.6554811 L177.237864,21.7119388 L177.251978,21.7678537 C177.260664,21.7960826 177.28455,21.8585118 177.321464,21.9524271 C177.406694,22.2444874 177.47998,22.539262 177.540781,22.836208 C177.602125,23.1326112 177.633611,23.4556147 177.633611,23.8035898 L177.633611,29.8418546 C177.633611,30.1626866 177.607553,30.4694042 177.555438,30.7603787 C177.503866,31.0529819 177.43058,31.3738139 177.336122,31.7228748 L177.294321,31.919934 L177.294321,31.9769346 L177.633611,31.9769346 L179.400087,31.9769346 L179.740462,31.9769346 L179.740462,31.919934 L179.684004,31.7228748 C179.598775,31.3738139 179.529831,31.0529819 179.478802,30.7603787" id="Fill-39" fill="#CACACA"></path>
                <g id="Group-43" transform="translate(180.474684, 24.808701)">
                    <mask id="mask-2" fill="white">
                        <use xlink:href="#path-1"></use>
                    </mask>
                    <g id="Clip-42"></g>
                    <path d="M2.28382449,1.25129913 C2.53354146,0.765979643 2.91788843,0.522777035 3.4357797,0.522777035 C3.89775609,0.522777035 4.24030262,0.725264921 4.46179071,1.13024069 C4.6832788,1.53630219 4.80325151,2.07862229 4.82170885,2.757201 L1.92499207,3.10029039 C1.92499207,3.08889027 1.92282062,3.07911874 1.92282062,3.06826148 C1.91413481,2.34245369 2.03410753,1.73716149 2.28382449,1.25129913 M5.35208597,5.90254901 C4.98836778,6.04857915 4.6143352,6.12186565 4.22835963,6.12186565 C3.71861131,6.12186565 3.29192102,5.9921214 2.94828876,5.73371863 C2.6046565,5.47368727 2.34733946,5.11594058 2.17796621,4.65884996 C2.04605051,4.30436045 1.98090696,3.89232746 1.95159236,3.44989414 L6.6033851,3.44989414 C6.6033851,2.80823012 6.48992674,2.22899533 6.26409575,1.7105612 C6.03826476,1.19266993 5.68703242,0.776836902 5.2109416,0.465776424 C4.73430791,0.154715945 4.15290168,0 3.46455144,0 C2.79574427,0 2.19642355,0.148201589 1.66821789,0.445147631 C1.14055509,0.742093673 0.730150687,1.16606965 0.438633275,1.71707556 C0.146573,2.26916719 0,2.90757404 0,3.63338182 C0,4.39719001 0.160687438,5.05731138 0.48151945,5.61211733 C0.801265736,6.16909473 1.22524171,6.5887278 1.75344738,6.87155941 C2.28165304,7.15384815 2.84677339,7.29607824 3.44989414,7.29607824 C3.95964246,7.29607824 4.42107598,7.19890577 4.83582329,7.00564656 C5.25057059,6.81238734 5.60397438,6.55832748 5.89657752,6.24183837 C6.1886378,5.92643498 6.40578298,5.58931708 6.54638449,5.23157039 L6.48992674,5.18922708 C6.0947225,5.5187449 5.71526129,5.75651888 5.35208597,5.90254901" id="Fill-41" fill="#CACACA" mask="url(#mask-2)"></path>
                </g>
                <g id="Group-46" transform="translate(82.078600, 34.324111)">
                    <mask id="mask-4" fill="white">
                        <use xlink:href="#path-3"></use>
                    </mask>
                    <g id="Clip-45"></g>
                    <path d="M4.47590514,9.48110168 C4.19741644,9.66458936 3.89775609,9.7563332 3.5780098,9.7563332 C3.01180373,9.7563332 2.59488497,9.49521611 2.32671067,8.97135335 C2.0579935,8.44911918 1.92282062,7.78682636 1.92282062,6.98501777 C1.92282062,6.47635517 1.9890499,6.02577891 2.12150847,5.63491757 C2.25342417,5.24351337 2.44668338,4.9367958 2.70074325,4.71530771 C2.95480312,4.49381962 3.26694932,4.38361844 3.63446755,4.38361844 C3.96398537,4.38361844 4.26527431,4.47319083 4.53942011,4.65179274 C4.68002162,4.74462231 4.81139446,4.8531949 4.93516721,4.97588193 L4.93516721,8.7096934 C4.93516721,8.84323769 4.94331016,8.96266755 4.95308169,9.07829736 C4.79565143,9.23464189 4.63713544,9.37361481 4.47590514,9.48110168 M6.78035843,9.33181436 C6.72770072,9.04029695 6.70272902,8.73357937 6.70272902,8.41329023 L6.70272902,-3.85727336e-15 L4.87870946,0.226373856 L4.42596175,0.296403179 L4.44007619,0.339289353 C4.44984772,0.37728976 4.46396216,0.423975975 4.4824195,0.480976587 C4.78370844,1.11286908 4.93516721,1.74421871 4.93516721,2.37502547 L4.93516721,4.42216171 C4.77230832,4.18384487 4.57687765,3.97972839 4.34181799,3.81741237 C3.91729915,3.52589495 3.44066547,3.37986482 2.91354553,3.37986482 C2.39402567,3.37986482 1.91413481,3.51829487 1.47115863,3.79678357 C1.02818245,4.07472941 0.672607213,4.48947672 0.40280432,5.04048263 C0.134630015,5.59257426 0,6.25920998 0,7.04147551 C0,7.81505524 0.132458563,8.47409088 0.396289964,9.02075388 C0.660121365,9.56850261 1.00646794,9.98107847 1.43478682,10.2579386 C1.86364856,10.5364273 2.33322502,10.6759431 2.84243048,10.6759431 C3.32232134,10.6759431 3.77778337,10.5461988 4.20610225,10.2861675 C4.51661987,10.0994226 4.78479417,9.82907684 5.0144252,9.48055881 C5.01659666,9.49141607 5.01768238,9.50553051 5.0203967,9.51584491 C5.07576872,9.73299009 5.1566553,9.95447818 5.26034213,10.1803092 C5.288571,10.2470813 5.3135427,10.3105963 5.33797153,10.3713969 C5.3618575,10.4327405 5.38248629,10.4913697 5.40094363,10.5483703 L6.70272902,10.5483703 L7.04201838,10.5483703 L7.04201838,10.4913697 L6.98556063,10.2937675 C6.90033114,9.94470665 6.83138755,9.62387464 6.78035843,9.33181436" id="Fill-44" fill="#CACACA" mask="url(#mask-4)"></path>
                </g>
                <path d="M91.8507307,40.8042121 C91.8507307,40.792812 91.8485593,40.7835834 91.8485593,40.7721832 C91.8398735,40.0463754 91.9598462,39.4410832 92.2095632,38.9552209 C92.4592801,38.4699014 92.8436271,38.2266988 93.3615184,38.2266988 C93.8229519,38.2266988 94.1660413,38.4297295 94.3875294,38.8341624 C94.6090175,39.2402239 94.7289902,39.782544 94.7474475,40.4611228 L91.8507307,40.8042121 Z M96.1898344,39.4150258 C95.9640034,38.8965917 95.6127711,38.4807587 95.1366803,38.1696982 C94.6600466,37.8591806 94.0786403,37.7039218 93.3902901,37.7039218 C92.7214829,37.7039218 92.1221622,37.8526662 91.5939565,38.1490694 C91.0662937,38.4460154 90.6558893,38.8705343 90.3643719,39.4215402 C90.0723117,39.9736318 89.9257387,40.6114958 89.9257387,41.3373036 C89.9257387,42.1011118 90.0864261,42.7612331 90.4072581,43.3165819 C90.7264615,43.8730165 91.1509804,44.2931924 91.679186,44.5754812 C92.2073917,44.8583128 92.772512,45 93.3756328,45 C93.8853811,45 94.3468146,44.9028275 94.7615619,44.7095683 C95.1763093,44.516852 95.529713,44.2622492 95.8223162,43.9457601 C96.1143765,43.6308996 96.3315216,43.2937817 96.4721231,42.9354921 L96.4156654,42.8931488 C96.0204612,43.2226667 95.641,43.4604406 95.2772818,43.6064708 C94.9141064,43.7530438 94.5400739,43.8257874 94.1535554,43.8257874 C93.64435,43.8257874 93.2176597,43.6960432 92.8740274,43.4376404 C92.5303952,43.177609 92.2730781,42.8198623 92.1037049,42.3627717 C91.9717892,42.0082822 91.9066456,41.5962492 91.8767882,41.1538159 L96.5291238,41.1538159 C96.5291238,40.5126947 96.4156654,39.9329171 96.1898344,39.4150258 L96.1898344,39.4150258 Z" id="Fill-47" fill="#CACACA"></path>
                <path d="M102.786325,43.6557627 C102.73421,43.3647882 102.70761,43.0580706 102.70761,42.7372386 L102.70761,34.3239484 L100.884676,34.5508651 L100.545387,34.6073228 L100.559501,34.6632377 C100.568187,34.6914666 100.592073,34.7538958 100.629531,34.8472683 C100.714217,35.1398714 100.787504,35.434646 100.848304,35.7310492 C100.909648,36.0279952 100.941134,36.3509987 100.941134,36.6989738 L100.941134,42.7372386 C100.941134,43.0580706 100.915077,43.3647882 100.862962,43.6557627 C100.81139,43.9483659 100.738646,44.2691979 100.643645,44.6182588 L100.601845,44.815318 L100.601845,44.8723186 L100.941134,44.8723186 L102.70761,44.8723186 L103.047985,44.8723186 L103.047985,44.815318 L102.991527,44.6182588 C102.906298,44.2691979 102.837354,43.9483659 102.786325,43.6557627" id="Fill-49" fill="#CACACA"></path>
                <path d="M107.749613,43.7408836 C107.490124,43.9298 107.209464,44.0231724 106.908175,44.0231724 C106.512428,44.0231724 106.187253,43.8890852 105.932107,43.6209109 C105.677505,43.3521938 105.549932,43.0053043 105.549932,42.5818712 C105.549932,42.2702679 105.637333,41.9928649 105.811592,41.7474908 C105.986394,41.5021168 106.248054,41.3251434 106.596572,41.2171137 C106.945633,41.109084 107.359837,41.0927981 107.841357,41.1682561 C107.924415,41.1807419 107.994444,41.1780276 108.067187,41.1780276 L108.067187,43.4015943 C108.067187,43.4157087 108.069359,43.4271088 108.069902,43.4412233 C107.968929,43.5541388 107.864157,43.6578256 107.749613,43.7408836 M110.061666,43.9395715 C109.919979,43.8076558 109.848864,43.5432815 109.848864,43.1475344 L109.848864,39.979929 C109.848864,39.2731214 109.627376,38.7166869 109.184399,38.3117111 C108.741423,37.9056496 108.091073,37.7042475 107.23335,37.7042475 C106.827831,37.7042475 106.358255,37.7509337 105.826249,37.844849 C105.293701,37.93985 104.749209,38.0717657 104.192775,38.2405961 L104.192775,40.0510441 L104.263347,40.0510441 C104.801324,39.5412957 105.328444,39.1200341 105.847964,38.7850876 C106.365855,38.4501412 106.794717,38.2834823 107.134006,38.2834823 C107.426609,38.2834823 107.654612,38.4110551 107.819642,38.6651149 C107.985215,38.9191748 108.067187,39.3295792 108.067187,39.8946995 L108.067187,40.7627374 C107.966758,40.7274513 107.858728,40.6943367 107.735498,40.6661078 C107.550925,40.6237645 107.359837,40.5977071 107.162778,40.5873927 C106.549343,40.5037918 105.976622,40.5428779 105.444074,40.7079083 C104.911525,40.8734815 104.487549,41.1400272 104.172146,41.5075454 C103.855657,41.8750636 103.698226,42.3082683 103.698226,42.8082451 C103.698226,43.1855348 103.785627,43.5411101 103.960429,43.8749708 C104.133602,44.2099172 104.395805,44.4786344 104.744866,44.6811223 C105.092841,44.884153 105.503246,44.9856684 105.974451,44.9856684 C106.445656,44.9856684 106.858232,44.8884959 107.211635,44.6957796 C107.565039,44.5025204 107.845699,44.2669179 108.053073,43.9884292 C108.080759,43.9515145 108.095959,43.9173141 108.120931,43.8803994 C108.178474,44.1458594 108.281618,44.3711475 108.442306,44.5470351 C108.690937,44.8211809 109.038369,44.9574395 109.481346,44.9574395 C109.820635,44.9574395 110.102924,44.8700386 110.32984,44.6957796 C110.555671,44.5209777 110.702244,44.2875466 110.767388,43.9960292 L110.740245,43.9536859 C110.428099,44.0758301 110.202268,44.0714872 110.061666,43.9395715" id="Fill-51" fill="#CACACA"></path>
                <path d="M118.219485,37.703976 C117.813423,37.8163487 117.46762,38.0215509 117.179902,38.3184969 C116.9671,38.5378136 116.797727,38.8049021 116.649525,39.094791 L116.649525,37.7881198 L114.883049,37.7881198 L114.54376,37.7881198 L114.54376,37.8445776 L114.599132,38.0432654 C114.684361,38.3912406 114.753305,38.7120726 114.804334,39.0046757 C114.856992,39.296736 114.883049,39.6034536 114.883049,39.9231998 L114.883049,42.7368586 C114.883049,43.0576906 114.856992,43.3644082 114.804334,43.6559256 C114.753305,43.9479859 114.684361,44.2688179 114.599132,44.6178788 L114.54376,44.8154809 L114.54376,44.8724815 L114.883049,44.8724815 L116.649525,44.8724815 L116.975786,44.8724815 L116.975786,44.8154809 L116.9329,44.6178788 C116.848213,44.2688179 116.779269,43.9479859 116.72824,43.6559256 C116.675583,43.3644082 116.649525,43.0576906 116.649525,42.7368586 L116.649525,39.4509091 C116.904128,39.241364 117.167959,39.1083625 117.441562,39.0611335 C117.772166,39.0046757 118.089741,39.0372475 118.396458,39.1593917 C118.702633,39.2826215 118.977865,39.4617663 119.223239,39.6973688 L119.280239,39.6973688 L119.548413,37.7740054 C119.068523,37.6144037 118.624461,37.5905177 118.219485,37.703976" id="Fill-53" fill="#CACACA"></path>
                <path d="M121.86937,40.8042121 C121.86937,40.792812 121.867198,40.7835834 121.867198,40.7721832 C121.85797,40.0463754 121.978485,39.4410832 122.228202,38.9552209 C122.477919,38.4699014 122.862266,38.2266988 123.380157,38.2266988 C123.841591,38.2266988 124.184137,38.4297295 124.406168,38.8341624 C124.627657,39.2402239 124.747629,39.782544 124.766087,40.4611228 L121.86937,40.8042121 Z M126.208473,39.4150258 C125.982642,38.8965917 125.63141,38.4807587 125.155319,38.1696982 C124.678686,37.8591806 124.097279,37.7039218 123.408386,37.7039218 C122.740122,37.7039218 122.140801,37.8526662 121.612596,38.1490694 C121.084933,38.4460154 120.674528,38.8705343 120.383011,39.4215402 C120.090951,39.9736318 119.944378,40.6114958 119.944378,41.3373036 C119.944378,42.1011118 120.105065,42.7612331 120.425354,43.3165819 C120.745643,43.8730165 121.169619,44.2931924 121.697825,44.5754812 C122.226031,44.8583128 122.791151,45 123.394272,45 C123.90402,45 124.365454,44.9028275 124.780201,44.7095683 C125.194948,44.516852 125.548352,44.2622492 125.840412,43.9457601 C126.133016,43.6308996 126.350161,43.2937817 126.490762,42.9354921 L126.434304,42.8931488 C126.0391,43.2226667 125.659639,43.4604406 125.295921,43.6064708 C124.932746,43.7530438 124.558713,43.8257874 124.172194,43.8257874 C123.662989,43.8257874 123.236299,43.6960432 122.892666,43.4376404 C122.549034,43.177609 122.291174,42.8198623 122.122344,42.3627717 C121.990428,42.0082822 121.925285,41.5962492 121.895427,41.1538159 L126.547763,41.1538159 C126.547763,40.5126947 126.434304,39.9329171 126.208473,39.4150258 L126.208473,39.4150258 Z" id="Fill-55" fill="#CACACA"></path>
                <g id="Group-59" transform="translate(127.409721, 37.704139)">
                    <mask id="mask-6" fill="white">
                        <use xlink:href="#path-5"></use>
                    </mask>
                    <g id="Clip-58"></g>
                    <path d="M4.22781677,6.12186565 C3.72783998,6.12186565 3.30603545,5.99755003 2.96186033,5.74783307 C2.61822808,5.49757324 2.35873958,5.15068381 2.18393771,4.70770763 C2.00967869,4.26473145 1.92227776,3.74195441 1.92227776,3.13883366 C1.91359195,2.65785707 1.97059256,2.22139525 2.09273673,1.83053392 C2.2148809,1.43912972 2.39673999,1.12372634 2.63722828,0.883780906 C2.87717371,0.642206887 3.18117697,0.522234172 3.54923806,0.522234172 C4.02044312,0.522234172 4.47536228,0.733950728 4.91290983,1.15846957 C5.3515431,1.5829884 5.73589008,2.0683079 6.06649363,2.6149709 L6.13598009,2.6149709 L6.10775121,0.664464269 C5.99537858,0.625920998 5.85803425,0.56946325 5.69843254,0.494005298 C5.30268544,0.343632257 4.93462435,0.223659541 4.595335,0.134087152 C4.25604564,0.0445147631 3.89287032,-3.85727336e-15 3.50635189,-3.85727336e-15 C2.81800165,-3.85727336e-15 2.21053799,0.14277296 1.68233233,0.430490331 C1.15412666,0.718750565 0.74155081,1.13566932 0.445147631,1.68233233 C0.148201589,2.22899533 0,2.87934516 0,3.63283896 C0,4.41510449 0.160144575,5.08228307 0.480976587,5.63437471 C0.800722873,6.18483776 1.22524171,6.60067079 1.75344738,6.87807376 C2.28111018,7.1560196 2.84623052,7.29607824 3.44989414,7.29607824 C3.93955653,7.29607824 4.38470416,7.20324868 4.78642276,7.01976099 C5.18705563,6.83518759 5.52851643,6.59089925 5.81080517,6.28418168 C6.0947225,5.97800697 6.31078196,5.64631769 6.461155,5.28694241 L6.41989742,5.25871354 C5.70277544,5.83469114 4.97208189,6.12186565 4.22781677,6.12186565" id="Fill-57" fill="#CACACA" mask="url(#mask-6)"></path>
                </g>
                <path d="M141.457168,43.6557627 C141.405596,43.3647882 141.379539,43.0580706 141.379539,42.7372386 L141.379539,40.093496 C141.379539,39.3112304 141.158051,38.7162526 140.715075,38.3118197 C140.272099,37.9057582 139.720007,37.7038132 139.060971,37.7038132 C138.514308,37.7038132 138.028989,37.8503862 137.60447,38.1413607 C137.301552,38.3498201 137.029035,38.6212516 136.784204,38.9502266 L136.784204,34.3239484 L134.974842,34.5508651 L134.635552,34.6073228 L134.65021,34.6632377 C134.658896,34.6914666 134.682781,34.7538958 134.719696,34.8472683 C134.804926,35.1398714 134.878212,35.434646 134.939013,35.7310492 C135.000356,36.0279952 135.030757,36.3509987 135.030757,36.6989738 L135.030757,42.7372386 C135.030757,43.0580706 135.005785,43.3647882 134.953127,43.6557627 C134.902098,43.9483659 134.828812,44.2691979 134.733811,44.6182588 L134.691467,44.815318 L134.691467,44.8723186 L135.030757,44.8723186 L136.784204,44.8723186 L137.123493,44.8723186 L137.123493,44.815318 L137.081693,44.6182588 C136.987235,44.2691979 136.913948,43.9483659 136.862376,43.6557627 C136.810261,43.3647882 136.784204,43.0580706 136.784204,42.7372386 L136.784204,39.392117 C137.266809,39.0273131 137.742357,38.8340539 138.212476,38.8340539 C138.617995,38.8340539 138.955113,38.9578266 139.22383,39.202115 C139.492004,39.447489 139.626092,39.8193502 139.626092,40.3193269 L139.626092,42.7372386 C139.626092,43.0580706 139.600034,43.3647882 139.549005,43.6557627 C139.496347,43.9483659 139.423604,44.2691979 139.329688,44.6182588 L139.286802,44.815318 L139.286802,44.8723186 L139.626092,44.8723186 L141.379539,44.8723186 L141.718828,44.8723186 L141.718828,44.815318 L141.676485,44.6182588 C141.58257,44.2691979 141.509283,43.9483659 141.457168,43.6557627" id="Fill-60" fill="#CACACA"></path>
                <path d="M144.43488,40.8042121 C144.43488,40.792812 144.432709,40.7835834 144.432709,40.7721832 C144.42348,40.0463754 144.543996,39.4410832 144.793713,38.9552209 C145.04343,38.4699014 145.427777,38.2266988 145.945668,38.2266988 C146.407102,38.2266988 146.749648,38.4297295 146.971136,38.8341624 C147.192624,39.2402239 147.31314,39.782544 147.331597,40.4611228 L144.43488,40.8042121 Z M148.773984,39.4150258 C148.548153,38.8965917 148.196921,38.4807587 147.72083,38.1696982 C147.244196,37.8591806 146.66279,37.7039218 145.973897,37.7039218 C145.30509,37.7039218 144.706312,37.8526662 144.178106,38.1490694 C143.649901,38.4460154 143.240039,38.8705343 142.948522,39.4215402 C142.655918,39.9736318 142.509888,40.6114958 142.509888,41.3373036 C142.509888,42.1011118 142.670576,42.7612331 142.991408,43.3165819 C143.310611,43.8730165 143.73513,44.2931924 144.263336,44.5754812 C144.791541,44.8583128 145.356662,45 145.959782,45 C146.469531,45 146.930964,44.9028275 147.345712,44.7095683 C147.760459,44.516852 148.113863,44.2622492 148.405923,43.9457601 C148.698526,43.6308996 148.915671,43.2937817 149.056273,42.9354921 L148.999815,42.8931488 C148.604611,43.2226667 148.22515,43.4604406 147.861431,43.6064708 C147.498256,43.7530438 147.124223,43.8257874 146.737705,43.8257874 C146.2285,43.8257874 145.801809,43.6960432 145.458177,43.4376404 C145.114545,43.177609 144.856685,42.8198623 144.687855,42.3627717 C144.555939,42.0082822 144.490795,41.5962492 144.460938,41.1538159 L149.113273,41.1538159 C149.113273,40.5126947 148.999815,39.9329171 148.773984,39.4150258 L148.773984,39.4150258 Z" id="Fill-62" fill="#CACACA"></path>
                <path d="M153.666211,37.703976 C153.260149,37.8163487 152.914346,38.0215509 152.626628,38.3184969 C152.413826,38.5378136 152.244453,38.8049021 152.096251,39.094791 L152.096251,37.7881198 L150.329775,37.7881198 L149.990486,37.7881198 L149.990486,37.8445776 L150.045858,38.0432654 C150.131087,38.3912406 150.200031,38.7120726 150.25106,39.0046757 C150.303718,39.296736 150.329775,39.6034536 150.329775,39.9231998 L150.329775,42.7368586 C150.329775,43.0576906 150.303718,43.3644082 150.25106,43.6559256 C150.200031,43.9479859 150.131087,44.2688179 150.045858,44.6178788 L149.990486,44.8154809 L149.990486,44.8724815 L150.329775,44.8724815 L152.096251,44.8724815 L152.422512,44.8724815 L152.422512,44.8154809 L152.379626,44.6178788 C152.294939,44.2688179 152.225995,43.9479859 152.174966,43.6559256 C152.122309,43.3644082 152.096251,43.0576906 152.096251,42.7368586 L152.096251,39.4509091 C152.350311,39.241364 152.614685,39.1083625 152.888288,39.0611335 C153.218892,39.0046757 153.536467,39.0372475 153.843184,39.1593917 C154.149359,39.2826215 154.42459,39.4617663 154.669964,39.6973688 L154.726965,39.6973688 L154.995139,37.7740054 C154.515248,37.6144037 154.071187,37.5905177 153.666211,37.703976" id="Fill-64" fill="#CACACA"></path>
                <g id="Group-68" transform="translate(155.392352, 37.704139)">
                    <mask id="mask-8" fill="white">
                        <use xlink:href="#path-7"></use>
                    </mask>
                    <g id="Clip-67"></g>
                    <path d="M4.22781677,6.12186565 C3.72783998,6.12186565 3.30603545,5.99755003 2.9624032,5.74783307 C2.61822808,5.49757324 2.35873958,5.15068381 2.18448057,4.70770763 C2.00967869,4.26473145 1.92227776,3.74195441 1.92227776,3.13883366 C1.91359195,2.65785707 1.97059256,2.22139525 2.09273673,1.83053392 C2.2148809,1.43912972 2.39728285,1.12372634 2.63722828,0.883780906 C2.87717371,0.642206887 3.18171984,0.522234172 3.54923806,0.522234172 C4.02044312,0.522234172 4.47536228,0.733950728 4.91290983,1.15846957 C5.3515431,1.5829884 5.73589008,2.0683079 6.06649363,2.6149709 L6.13598009,2.6149709 L6.10775121,0.664464269 C5.99537858,0.625920998 5.85803425,0.56946325 5.69843254,0.494005298 C5.30268544,0.343632257 4.93462435,0.223659541 4.595335,0.134087152 C4.25604564,0.0445147631 3.89287032,-3.85727336e-15 3.50635189,-3.85727336e-15 C2.81800165,-3.85727336e-15 2.21053799,0.14277296 1.68233233,0.430490331 C1.15412666,0.718750565 0.742093673,1.13566932 0.445147631,1.68233233 C0.148201589,2.22899533 0,2.87934516 0,3.63283896 C0,4.41510449 0.160144575,5.08228307 0.480976587,5.63437471 C0.800722873,6.18483776 1.22524171,6.60067079 1.75344738,6.87807376 C2.28111018,7.1560196 2.84677339,7.29607824 3.44989414,7.29607824 C3.93955653,7.29607824 4.38470416,7.20324868 4.78642276,7.01976099 C5.18705563,6.83518759 5.52851643,6.59089925 5.81080517,6.28418168 C6.0947225,5.97800697 6.31078196,5.64631769 6.461155,5.28694241 L6.41989742,5.25871354 C5.70277544,5.83469114 4.97208189,6.12186565 4.22781677,6.12186565" id="Fill-66" fill="#CACACA" mask="url(#mask-8)"></path>
                </g>
                <path d="M169.438714,43.6557627 C169.387685,43.3647882 169.361085,43.0580706 169.361085,42.7372386 L169.361085,40.093496 C169.361085,39.3112304 169.139597,38.7162526 168.696621,38.3118197 C168.253644,37.9057582 167.701553,37.7038132 167.042517,37.7038132 C166.495854,37.7038132 166.010535,37.8503862 165.586016,38.1413607 C165.283098,38.350363 165.010581,38.6212516 164.76575,38.9502266 L164.76575,34.3239484 L162.95693,34.5508651 L162.617098,34.6073228 L162.631756,34.6632377 C162.640441,34.6914666 162.664327,34.7538958 162.701242,34.8472683 C162.786471,35.1398714 162.859758,35.434646 162.920559,35.7310492 C162.981902,36.0279952 163.012302,36.3509987 163.012302,36.6989738 L163.012302,42.7372386 C163.012302,43.0580706 162.987331,43.3647882 162.934673,43.6557627 C162.883644,43.9483659 162.810357,44.2691979 162.715356,44.6182588 L162.673013,44.815318 L162.673013,44.8723186 L163.012302,44.8723186 L164.76575,44.8723186 L165.105039,44.8723186 L165.105039,44.815318 L165.063782,44.6182588 C164.968781,44.2691979 164.895494,43.9483659 164.844465,43.6557627 C164.791807,43.3647882 164.76575,43.0580706 164.76575,42.7372386 L164.76575,39.392117 C165.248355,39.0273131 165.723903,38.8340539 166.194022,38.8340539 C166.599541,38.8340539 166.936659,38.9578266 167.205376,39.202115 C167.47355,39.447489 167.607637,39.8193502 167.607637,40.3193269 L167.607637,42.7372386 C167.607637,43.0580706 167.58158,43.3647882 167.530551,43.6557627 C167.477893,43.9483659 167.40515,44.2691979 167.311234,44.6182588 L167.268348,44.815318 L167.268348,44.8723186 L167.607637,44.8723186 L169.361085,44.8723186 L169.700374,44.8723186 L169.700374,44.815318 L169.658031,44.6182588 C169.564116,44.2691979 169.490829,43.9483659 169.438714,43.6557627" id="Fill-69" fill="#CACACA"></path>
                <path d="M172.417566,40.8042121 C172.417566,40.792812 172.415395,40.7835834 172.415395,40.7721832 C172.406709,40.0463754 172.526682,39.4410832 172.776399,38.9552209 C173.026116,38.4699014 173.410463,38.2266988 173.928354,38.2266988 C174.389787,38.2266988 174.732334,38.4297295 174.954365,38.8341624 C175.175853,39.2402239 175.295826,39.782544 175.314283,40.4611228 L172.417566,40.8042121 Z M176.75667,39.4150258 C176.530839,38.8965917 176.179607,38.4807587 175.703516,38.1696982 C175.226882,37.8591806 174.645476,37.7039218 173.957126,37.7039218 C173.288318,37.7039218 172.688998,37.8526662 172.160792,38.1490694 C171.633129,38.4460154 171.222725,38.8705343 170.931207,39.4215402 C170.639147,39.9736318 170.492574,40.6114958 170.492574,41.3373036 C170.492574,42.1011118 170.653262,42.7612331 170.974094,43.3165819 C171.29384,43.8730165 171.717816,44.2931924 172.246021,44.5754812 C172.774227,44.8583128 173.339347,45 173.942468,45 C174.452217,45 174.91365,44.9028275 175.328397,44.7095683 C175.743145,44.516852 176.096548,44.2622492 176.388609,43.9457601 C176.681212,43.6308996 176.898357,43.2937817 177.038959,42.9354921 L176.982501,42.8931488 C176.587297,43.2226667 176.207835,43.4604406 175.84466,43.6064708 C175.480942,43.7530438 175.106909,43.8257874 174.720391,43.8257874 C174.211185,43.8257874 173.784495,43.6960432 173.440863,43.4376404 C173.097231,43.177609 172.839371,42.8198623 172.67054,42.3627717 C172.538625,42.0082822 172.473481,41.5962492 172.443624,41.1538159 L177.095959,41.1538159 C177.095959,40.5126947 176.982501,39.9329171 176.75667,39.4150258 L176.75667,39.4150258 Z" id="Fill-71" fill="#CACACA"></path>
            </g>
        </g>
    </g>
</svg>