<?xml version="1.0" encoding="UTF-8"?>
<svg width="273.394772px" height="73px" viewBox="0 0 273.394772 73" version="1.1" xmlns="http://www.w3.org/2000/svg" xmlns:xlink="http://www.w3.org/1999/xlink">
    <title>Logo ENC + PSL</title>
    <defs>
        <polygon id="path-1" points="0 73 273.394772 73 273.394772 0 0 0"></polygon>
    </defs>
    <g id="Symbols" stroke="none" stroke-width="1" fill="none" fill-rule="evenodd">
        <g id="PdP" transform="translate(-1360.000000, -50.000000)">
            <g id="Logo-ENC-+-PSL" transform="translate(1360.000000, 50.000000)">
                <polygon id="Fill-1" fill="#CACACA" points="141.632413 61.409896 142.674003 61.409896 142.674003 27.9556424 141.632413 27.9556424"></polygon>
                <polygon id="Fill-2" fill="#CACACA" points="240.051308 28.0851666 255.661288 43.7013149 255.721425 43.6411786 240.106818 28.0250304"></polygon>
                <polygon id="Fill-3" fill="#CACACA" points="240.086542 44.637667 240.086542 44.7224745 255.806001 44.705513 255.806001 44.6207055"></polygon>
                <g id="Group-64">
                    <path d="M246.950708,57.9568422 C246.67624,58.8766183 246.5259,59.8534467 246.5259,60.8649691 C246.5259,60.9975772 246.529754,61.1363532 246.533609,61.2705032 L246.700911,61.2705032 C246.697057,61.1363532 246.694744,60.9975772 246.694744,60.8649691 C246.694744,59.8973924 246.83352,58.9591128 247.089484,58.0732598" id="Fill-4" fill="#CACACA"></path>
                    <path d="M266.166859,58.0730285 C266.422823,58.9588816 266.563141,59.8979321 266.563141,60.8631959 C266.563141,61.0012008 266.557744,61.1361219 266.550805,61.2718139 L266.718878,61.2718139 C266.725046,61.1361219 266.728901,61.0012008 266.728901,60.8631959 C266.728901,59.8855965 266.588583,58.9372942 266.335703,58.0421894" id="Fill-6" fill="#CACACA"></path>
                    <polygon id="Fill-8" fill="#CACACA" points="240.051308 61.2343444 240.106818 61.2944806 256.15934 45.245043 256.095349 45.1849068"></polygon>
                    <polygon id="Fill-10" fill="#CACACA" points="258.388698 46.4315002 273.146749 61.1941765 273.205343 61.1301854 258.450377 46.371364"></polygon>
                    <polygon id="Fill-12" fill="#CACACA" points="257.502306 44.7057443 273.28113 44.7242478 273.28113 44.6417532 257.502306 44.6209368"></polygon>
                    <mask id="mask-2" fill="white">
                        <use xlink:href="#path-1"></use>
                    </mask>
                    <g id="Clip-15"></g>
                    <polygon id="Fill-14" fill="#CACACA" mask="url(#mask-2)" points="256.617532 61.2703491 256.704652 61.2703491 256.704652 50.9299995 256.617532 50.9299995"></polygon>
                    <path d="M239.9729,61.3852247 L273.394772,61.3852247 L273.394772,27.9610392 L239.9729,27.9610392 L239.9729,61.3852247 Z M240.262016,61.0945662 L273.105656,61.0945662 L273.105656,28.2493848 L240.262016,28.2493848 L240.262016,61.0945662 Z" id="Fill-16" fill="#CACACA" mask="url(#mask-2)"></path>
                    <path d="M256.692162,28.3974125 C251.412509,28.3974125 246.440475,30.9717062 243.394343,35.2760733 C240.886354,38.8241115 239.914922,43.1369594 240.650435,47.4166552 C241.382092,51.7002059 243.742054,55.4363627 247.287779,57.9466653 C250.050963,59.8995511 253.292923,60.929577 256.663636,60.929577 L256.665178,60.929577 C261.944832,60.929577 266.914552,58.3575962 269.956059,54.0516872 C272.467132,50.502107 273.442419,46.1908011 272.706906,41.9095633 C271.969081,37.6283255 269.613745,33.8898558 266.063393,31.3787823 C263.302523,29.4282093 260.062876,28.3974125 256.692162,28.3974125 M256.665178,61.2186936 L256.663636,61.2186936 C253.232787,61.2186936 249.933003,60.1663093 247.126645,58.1810424 C243.516929,55.629107 241.113021,51.8243333 240.361318,47.4683107 C239.61347,43.1099752 240.608802,38.7192586 243.159195,35.1095422 C246.256983,30.7257644 251.316908,28.1082959 256.692162,28.1082959 C260.122241,28.1082959 263.422025,29.1599092 266.233008,31.14826 C269.841183,33.6978825 272.242007,37.5041981 272.989855,41.8602207 C273.742329,46.2162433 272.746226,50.605418 270.196603,54.2174473 C267.100358,58.5996832 262.03812,61.2186936 256.665178,61.2186936" id="Fill-17" fill="#CACACA" mask="url(#mask-2)"></path>
                    <path d="M264.883567,36.6050071 C267.40235,36.6050071 269.656688,37.7684121 271.138507,39.582522 L271.353609,39.582522 C269.840952,37.6712689 267.507974,36.437705 264.883567,36.437705 C262.962291,36.437705 261.199065,37.1015166 259.797428,38.2063273 L259.85371,38.3782553 C261.232217,37.2703607 262.980023,36.6050071 264.883567,36.6050071" id="Fill-18" fill="#CACACA" mask="url(#mask-2)"></path>
                    <path d="M264.583888,52.8948355 C264.683344,52.8971484 264.786655,52.9010033 264.883798,52.9010033 C269.423313,52.9010033 273.116295,49.2103343 273.116295,44.6700481 C273.116295,42.9237841 272.570443,41.3039605 271.634476,39.9709405 L271.501868,40.0703966 C272.410851,41.3741194 272.948222,42.9592491 272.948222,44.6700481 C272.948222,49.115504 269.333109,52.7337012 264.883798,52.7337012 C264.765067,52.7337012 264.647879,52.7298463 264.527606,52.7229075" id="Fill-19" fill="#CACACA" mask="url(#mask-2)"></path>
                    <path d="M272.171616,39.5854518 L271.353609,39.5854518 C271.450752,39.7088082 271.545583,39.8383324 271.638871,39.9693985 L272.171616,39.5854518 Z" id="Fill-20" fill="#CACACA" mask="url(#mask-2)"></path>
                    <path d="M271.502254,40.0706279 L271.634862,39.9711718 C271.545429,39.8385637 271.448285,39.7090394 271.353455,39.5856831 L271.138352,39.5856831 C271.266335,39.7398785 271.386607,39.9025548 271.502254,40.0706279" id="Fill-21" fill="#CACACA" mask="url(#mask-2)"></path>
                    <path d="M264.579956,52.8868173 C264.565307,52.8367038 264.546804,52.7850483 264.534468,52.7333928 L264.579956,52.8868173 Z" id="Fill-22" fill="#CACACA" mask="url(#mask-2)"></path>
                    <path d="M265.924926,56.9120135 L264.585738,52.896763 C263.766189,52.8636109 262.976708,52.7124993 262.234257,52.4603897 C263.856393,53.5505518 265.150093,55.0940487 265.924926,56.9120135" id="Fill-23" fill="#CACACA" mask="url(#mask-2)"></path>
                    <path d="M260.22987,39.5854518 L259.853633,38.3781011 C258.006371,39.8576068 256.82292,42.1289064 256.82292,44.6677351 C256.82292,48.9960025 260.252999,52.534789 264.528069,52.7252205 L262.492688,46.621392 L271.502331,40.0688546 C271.386684,39.9007815 271.262557,39.7419602 271.13843,39.5854518 L260.22987,39.5854518 Z" id="Fill-24" fill="#CACACA" mask="url(#mask-2)"></path>
                    <path d="M256.628171,50.7599218 C257.864048,50.7599218 259.045957,50.9835053 260.139203,51.3905814 C258.033663,49.8979691 256.652843,47.4416349 256.652843,44.669971 C256.652843,42.0517315 257.884094,39.7125859 259.79766,38.204554 L256.665178,28.2774484 L253.046981,39.5853747 L241.237148,39.5853747 L250.788017,46.5696594 L247.341748,56.8845667 C248.886787,53.285644 252.46258,50.7599218 256.628171,50.7599218" id="Fill-25" fill="#CACACA" mask="url(#mask-2)"></path>
                    <path d="M266.232931,57.83603 L266.115743,57.9185246 C264.864446,53.869351 261.087428,50.929614 256.628094,50.929614 C252.191119,50.929614 248.432604,53.8392829 247.157407,57.8568464 L247.050241,57.7697259 L246.97006,58.007187 L256.663559,50.929614 L266.316197,58.0727201 L266.232931,57.83603 Z" id="Fill-26" fill="#CACACA" mask="url(#mask-2)"></path>
                    <path d="M247.015162,57.7464424 L247.049856,57.7695717 L247.342056,56.8868026 C247.223326,57.1643544 247.114618,57.4511581 247.015162,57.7464424" id="Fill-27" fill="#CACACA" mask="url(#mask-2)"></path>
                    <path d="M266.259761,57.8168327 C266.16416,57.5076707 266.050826,57.2093024 265.926699,56.9117051 L266.232777,57.83842 L266.259761,57.8168327 Z" id="Fill-28" fill="#CACACA" mask="url(#mask-2)"></path>
                    <polygon id="Fill-29" fill="#CACACA" mask="url(#mask-2)" points="257.876307 43.4015589 257.938756 43.463237 273.341343 28.0652754 273.279665 28.0066811"></polygon>
                    <path d="M164.812929,31.5258848 L164.812929,43.8730887 L172.329959,43.8730887 C176.62893,43.8730887 178.852429,41.2941691 178.852429,37.6983303 C178.852429,34.1572308 176.62893,31.5258848 172.329959,31.5258848 L164.812929,31.5258848 Z M182.853031,37.6443618 C182.853031,43.3164429 178.852429,47.4141881 172.427873,47.4141881 L164.812929,47.4141881 L164.812929,61.3812156 L160.963439,61.3812156 L160.963439,27.9840144 L172.427873,27.9840144 C178.852429,27.9840144 182.853031,32.032417 182.853031,37.6443618 L182.853031,37.6443618 Z" id="Fill-30" fill="#CACACA" mask="url(#mask-2)"></path>
                    <path d="M207.556767,33.0945926 L204.740387,35.270291 C203.008771,32.5857475 200.23942,31.0692348 197.276554,31.0692348 C194.263574,31.0692348 191.492681,32.637403 191.492681,35.9271638 C191.492681,38.9648149 193.76321,40.0765644 196.735328,41.5460474 L200.338876,43.3162116 C205.085784,45.6422506 207.947653,48.1232561 207.947653,52.6303902 C207.947653,58.244648 203.455167,61.939943 197.42304,61.939943 C192.238987,61.939943 187.936162,59.1574853 185.415066,54.7528912 L188.283873,52.5764218 C190.259117,55.6634155 193.174954,58.2939906 197.375239,58.2939906 C201.227813,58.2939906 203.950906,56.1182922 203.950906,52.7298463 C203.950906,49.6420816 201.723552,48.4270212 198.507805,46.858853 L194.852601,45.0886888 C191.047827,43.2159846 187.489766,40.8367482 187.489766,36.1299308 C187.489766,30.8171252 192.03622,27.4255954 197.325896,27.4255954 C201.772894,27.4255954 205.529867,29.8048318 207.556767,33.0945926" id="Fill-31" fill="#CACACA" mask="url(#mask-2)"></path>
                    <polygon id="Fill-32" fill="#CACACA" mask="url(#mask-2)" points="214.795629 27.9842457 214.795629 61.3829889 234.118637 61.3829889 234.118637 57.8380345 218.651287 57.8380345 218.651287 27.9842457"></polygon>
                    <path d="M110.063353,67.2639278 C110.161267,67.2639278 110.232197,67.1097323 110.290021,67.1097323 C110.333966,67.1097323 110.383309,67.1822042 110.383309,67.2107303 C110.383309,67.2253789 110.322402,67.5838834 110.322402,67.8144057 C110.322402,68.1320484 110.337821,68.3471511 110.337821,68.3741353 C110.337821,68.4342715 110.322402,68.4489201 110.282311,68.4489201 C110.152016,68.4489201 110.131199,68.4342715 110.11578,68.3325025 C109.984714,67.7172625 109.568386,67.1166711 108.896864,67.1166711 C108.264663,67.1166711 107.902303,67.5769446 107.902303,68.0711412 C107.902303,68.6162222 108.264663,68.9246132 108.726478,69.0965412 L109.617728,69.4288324 C110.552153,69.7719174 111.012426,70.1890162 111.012426,71.0833501 C111.012426,72.0740561 110.165893,72.895918 109.172874,72.895918 C108.378767,72.895918 107.892281,72.5011776 107.567699,72.5011776 C107.397313,72.5011776 107.280896,72.7648519 107.215363,72.7648519 C107.174501,72.7648519 107.113593,72.7139674 107.113593,72.6946929 C107.113593,72.6098854 107.184523,72.0887047 107.184523,71.7155516 C107.184523,71.3400855 107.155997,70.9106511 107.155997,70.8366373 C107.155997,70.8073401 107.184523,70.7803559 107.215363,70.7803559 C107.341032,70.7803559 107.362619,70.7950045 107.379581,70.8674764 C107.448198,71.1681576 107.620126,71.7062998 107.880716,72.0409041 C108.196817,72.4479801 108.624709,72.6877541 109.158226,72.6877541 C109.806618,72.6877541 110.263036,72.2436711 110.263036,71.6985901 C110.263036,71.2498812 110.02172,70.6670222 109.274643,70.3925543 L108.378767,70.061034 C107.634003,69.786566 107.198401,69.340941 107.198401,68.5075144 C107.198401,67.700301 107.790512,66.9401172 108.896864,66.9401172 C109.539089,66.9401172 109.889112,67.2639278 110.063353,67.2639278" id="Fill-33" fill="#CACACA" mask="url(#mask-2)"></path>
                    <path d="M105.837703,68.9731848 C105.837703,69.6315995 105.737476,69.6678355 105.665004,69.6678355 L102.124676,69.6678355 C102.124676,71.8342821 102.519416,72.7016317 103.706721,72.7016317 C104.671985,72.7016317 105.379742,72.0447589 105.680424,71.3986798 C105.711263,71.3431695 105.737476,71.325437 105.781422,71.325437 C105.868542,71.325437 105.909404,71.427206 105.909404,71.528975 C105.909404,71.701674 105.248676,72.9398638 103.72137,72.9398638 C101.982816,72.9398638 101.016781,71.528975 101.016781,70.0317368 C101.016781,67.9855627 102.312023,66.8961715 103.706721,66.8961715 C104.890172,66.8961715 105.837703,67.8336801 105.837703,68.9731848 L105.837703,68.9731848 Z M104.580239,69.4889687 C104.688176,69.4889687 104.759105,69.1836616 104.759105,68.6640228 C104.759105,68.0325923 104.641917,67.118984 103.664317,67.118984 C102.843997,67.118984 102.195605,67.7874215 102.124676,69.4889687 L104.580239,69.4889687 Z" id="Fill-34" fill="#CACACA" mask="url(#mask-2)"></path>
                    <path d="M100.295609,71.3380039 C100.255518,71.3380039 100.240098,71.3619042 100.222366,71.4351471 C100.061231,72.0303417 99.6449036,72.5445836 99.1453102,72.5445836 C98.7814089,72.5445836 98.6557396,72.2978708 98.6557396,71.6934245 L98.6557396,67.3489666 L99.6873074,67.3489666 C99.7736569,67.3489666 99.7805957,67.3374019 99.7805957,67.164703 C99.7805957,67.1068797 99.7805957,67.093773 99.7482146,67.093773 L98.6557396,67.1091926 C98.6557396,65.7568981 98.6703881,65.2966246 98.6703881,65.0930866 C98.6703881,65.0661023 98.6557396,65.0522247 98.6272134,65.0522247 C98.5686191,65.0522247 98.4468047,65.110819 98.1715657,65.1686423 C97.9849892,65.2118171 97.580226,65.3035634 97.580226,65.352135 C97.580226,65.4176681 97.6072102,66.6342705 97.6072102,67.1091926 L96.6357786,67.093773 C96.6072525,67.093773 96.6018556,67.1045667 96.6018556,67.164703 C96.6018556,67.3489666 96.6172752,67.3489666 96.6936019,67.3489666 L97.6072102,67.3489666 L97.6072102,71.1244432 C97.6072102,72.2200021 98.0960099,72.8252194 98.9764662,72.8252194 C100.008034,72.8252194 100.455201,71.8298875 100.455201,71.4852606 C100.455201,71.4228114 100.343409,71.3380039 100.295609,71.3380039" id="Fill-35" fill="#CACACA" mask="url(#mask-2)"></path>
                    <path d="M94.3095084,67.2280773 C93.7844727,67.2280773 92.9865111,67.9504832 92.9865111,69.2518931 C92.9865111,69.8139357 92.9865111,72.4938533 93.0289148,72.4938533 L93.9332714,72.4861435 C93.9702783,72.4861435 93.9702783,72.4961662 93.9702783,72.5516766 C93.9702783,72.7259175 93.9602556,72.7382532 93.87699,72.7382532 C93.3735417,72.7382532 93.0690057,72.7189787 92.4799789,72.7189787 C91.9048297,72.7189787 91.7652828,72.7382532 91.246415,72.7382532 C91.1693172,72.7382532 91.1515847,72.7382532 91.1515847,72.5516766 C91.1515847,72.4938533 91.1592945,72.4861435 91.1885916,72.4861435 L91.9048297,72.4938533 C91.9341268,72.4938533 91.9341268,70.5278608 91.9341268,70.0513967 C91.9341268,68.6112109 91.8670518,67.3198236 91.8331288,67.3198236 C91.7760765,67.3198236 91.2078661,67.3244495 91.0212895,67.3244495 C90.9603823,67.3244495 90.9411079,67.3098009 90.9411079,67.2180546 C90.9411079,67.1039499 90.9411079,67.0869884 90.9657792,67.0869884 C90.9657792,67.0869884 91.9148524,67.1039499 92.4344912,67.1039499 C92.679662,67.1039499 92.8207509,67.068485 92.8793452,67.068485 C92.9032455,67.068485 92.9178941,67.0846755 92.9178941,67.1170566 C92.9325426,67.2427259 92.9425653,67.5619105 92.9425653,68.1463115 L92.9471912,68.1463115 C93.1229741,67.5719333 93.6595744,66.9227702 94.4976269,66.9227702 C95.210781,66.9227702 95.79364,67.3676242 95.79364,68.0861752 C95.79364,68.5487617 95.4960427,68.8078101 95.040395,68.8078101 C94.765156,68.8078101 94.5647019,68.6235465 94.5647019,68.5217775 C94.5647019,68.4716639 94.7844305,68.1879442 94.7844305,67.8309817 C94.7844305,67.3707081 94.6040218,67.2280773 94.3095084,67.2280773" id="Fill-36" fill="#CACACA" mask="url(#mask-2)"></path>
                    <path d="M87.9420827,71.8325088 C87.7724677,72.2927824 87.2505159,72.8255278 86.5604911,72.8255278 C85.4510545,72.8255278 84.8335016,72.0252532 84.8335016,71.2218947 C84.8335016,70.6444326 85.0694207,70.2805312 85.5913724,70.0677415 C86.0308296,69.8857908 86.5897882,69.8618905 87.1633955,69.7192597 C87.7385446,69.5735449 87.8827174,69.3584422 87.8827174,69.2443375 L87.8827174,68.543519 C87.8827174,67.4070983 87.4964577,67.1596145 86.9652543,67.1596145 C86.5150034,67.1596145 86.2359096,67.4410213 86.2359096,67.9136305 C86.2359096,68.3176226 86.3862502,68.4471469 86.3862502,68.5627935 C86.3862502,68.6360363 86.1248888,68.7809801 85.8242076,68.7809801 C85.537404,68.7809801 85.2374938,68.5928616 85.2374938,68.1025199 C85.2374938,67.451044 85.9359994,66.9398859 86.9914675,66.9398859 C87.9929672,66.9398859 88.9189111,67.4942187 88.9189111,68.8657876 C88.9189111,70.1332745 88.8926979,71.4007615 88.8926979,71.4007615 C88.8926979,72.2781338 88.8988657,72.5664794 89.2697059,72.5664794 C89.4778698,72.5664794 89.6667593,72.4839848 89.7006823,72.4839848 C89.7299794,72.4839848 89.7515988,72.4886107 89.7515988,72.5317854 C89.7515988,72.6073412 89.7538797,72.6505159 89.7191857,72.680584 C89.6482558,72.7438042 89.4817247,72.8255278 89.1926081,72.8255278 C88.5311095,72.8255278 88.1209495,72.3506057 87.966754,71.8325088 L87.9420827,71.8325088 Z M87.8827174,71.3005344 L87.8827174,69.5666061 C87.7238961,69.7115499 87.5357776,69.8210287 87.1024883,69.9351333 C86.7879295,70.0222538 86.4633479,70.1109162 86.289107,70.2319597 C86.0069293,70.424704 85.8989924,70.7076527 85.8989924,71.1710102 C85.8989924,71.894958 86.0423943,72.5950055 86.7208544,72.5950055 C87.2929197,72.5950055 87.8827174,71.8926451 87.8827174,71.3005344 L87.8827174,71.3005344 Z" id="Fill-37" fill="#CACACA" mask="url(#mask-2)"></path>
                    <path d="M79.320319,69.4593632 L79.320319,70.2773702 C79.320319,70.8363289 79.3056704,72.4939304 79.3496161,72.4939304 L80.3156508,72.4862206 C80.3526578,72.4862206 80.3526578,72.4962433 80.3526578,72.5540666 C80.3526578,72.7236817 80.343406,72.7367883 80.2593695,72.7367883 C79.7566922,72.7367883 79.3935618,72.7159719 78.8006801,72.7159719 C78.2278439,72.7159719 77.8747362,72.7367883 77.3566394,72.7367883 C77.2749158,72.7367883 77.2648931,72.7367883 77.2648931,72.5540666 C77.2648931,72.4939304 77.2695189,72.4862206 77.2995871,72.4862206 L78.2278439,72.4939304 C78.2563701,72.4939304 78.2563701,70.4192301 78.2563701,69.943537 L78.2563701,65.7864266 L78.2563701,63.1666452 C78.1962338,63.1666452 77.5293383,63.173584 77.3419908,63.173584 C77.2803126,63.173584 77.2648931,63.1566225 77.2648931,63.0671891 C77.2648931,62.9507715 77.2648931,62.9361229 77.2857095,62.9361229 C77.2857095,62.9361229 78.2424925,62.9507715 78.7598183,62.9507715 C79.0057602,62.9507715 79.2786862,62.8929482 79.3334256,62.8929482 C79.3634937,62.8929482 79.3773713,62.9075968 79.3773713,62.9361229 C79.3773713,63.140432 79.320319,66.8526884 79.320319,68.2042119 L79.3403644,68.2042119 C79.6865332,67.276726 80.4451751,66.8935502 81.1752907,66.8935502 C82.0341596,66.8935502 83.114299,67.446341 83.114299,69.1471173 L83.114299,70.6859883 C83.114299,71.2480308 83.114299,72.4939304 83.1597867,72.4939304 L83.9777937,72.4862206 C84.0117167,72.4862206 84.0117167,72.4962433 84.0117167,72.5540666 C84.0117167,72.7236817 84.0070909,72.7367883 83.9207414,72.7367883 C83.4188351,72.7367883 83.0703533,72.7159719 82.4828685,72.7159719 C81.9084903,72.7159719 81.5337952,72.7367883 81.0133854,72.7367883 C80.9332038,72.7367883 80.9208681,72.7367883 80.9208681,72.5540666 C80.9208681,72.4939304 80.927036,72.4862206 80.9532492,72.4862206 L82.0341596,72.4939304 C82.0665406,72.4939304 82.0665406,70.4146042 82.0665406,69.9350562 L82.0665406,68.3884755 C82.0665406,67.4602186 81.6610065,67.1433469 81.0642699,67.1433469 C80.1121128,67.1433469 79.320319,68.335278 79.320319,69.4593632" id="Fill-38" fill="#CACACA" mask="url(#mask-2)"></path>
                    <path d="M74.5289254,73 C72.7842034,73 71.8451529,71.4680678 71.8451529,70.02634 C71.8451529,68.0495538 73.2629804,66.8236996 74.5705582,66.8236996 C75.5782257,66.8236996 76.3083413,67.4027037 76.3083413,68.1998944 C76.3083413,68.6817553 75.9953245,68.9847494 75.4965021,68.9847494 C75.1965919,68.9847494 74.8804911,68.861393 74.8804911,68.6748165 C74.8804911,68.6432064 74.8943687,68.6092834 74.919811,68.5437503 C74.9699245,68.41731 75.0624418,68.178307 75.0624418,67.8922744 C75.0624418,67.425833 74.9267497,67.2639278 74.5389481,67.2639278 C73.6392174,67.2639278 73.1835697,68.1821619 73.1835697,69.9970428 C73.1835697,71.7641231 73.6268818,72.5875271 74.5705582,72.5875271 C75.6545525,72.5875271 76.2281597,71.5752337 76.3939198,70.9792681 C76.4031716,70.9430322 76.4324687,70.8096531 76.5527412,70.8096531 C76.6591361,70.8096531 76.8387738,70.9337804 76.8387738,71.0617627 C76.8387738,71.5320589 76.1456651,73 74.5289254,73" id="Fill-39" fill="#CACACA" mask="url(#mask-2)"></path>
                    <path d="M93.0825749,55.4068342 C93.1843439,55.4068342 93.2514189,55.2495548 93.3092422,55.2495548 C93.3531879,55.2495548 93.4025305,55.3235687 93.4025305,55.3513239 C93.4025305,55.3652015 93.3431652,55.7267899 93.3431652,55.9565412 C93.3431652,56.2741839 93.3578138,56.4877446 93.3578138,56.5162708 C93.3578138,56.5748651 93.3431652,56.5895137 93.3030744,56.5895137 C93.1743212,56.5895137 93.1496499,56.5748651 93.1350013,56.475409 C93.009332,55.860169 92.5914622,55.2595775 91.9191699,55.2595775 C91.2831135,55.2595775 90.922296,55.7190801 90.922296,56.2094218 C90.922296,56.7568158 91.2831135,57.0636648 91.7472419,57.2363637 L92.6369499,57.567884 C93.5767714,57.9148239 94.0331901,58.3319227 94.0331901,59.2231726 C94.0331901,60.2169626 93.1858858,61.0357406 92.1913249,61.0357406 C91.401073,61.0357406 90.9107314,60.6410002 90.5915467,60.6410002 C90.4157638,60.6410002 90.3001172,60.9069874 90.2376681,60.9069874 C90.1960353,60.9069874 90.13667,60.8545609 90.13667,60.8391414 C90.13667,60.7527919 90.206058,60.2316111 90.206058,59.858458 C90.206058,59.482221 90.1767608,59.0512447 90.1767608,58.9787728 C90.1767608,58.9494756 90.206058,58.9224914 90.2376681,58.9224914 C90.3633374,58.9224914 90.3849248,58.9348271 90.3995733,59.0080699 C90.4697323,59.3102931 90.6393473,59.8461224 90.9014796,60.1830396 C91.2206643,60.5908866 91.6454729,60.8275767 92.1782183,60.8275767 C92.8250684,60.8275767 93.282258,60.3858066 93.282258,59.8368707 C93.282258,59.3904747 93.043255,58.8060738 92.2961779,58.5323768 L91.401073,58.2031695 C90.6539959,57.9271595 90.2230195,57.4830765 90.2230195,56.647337 C90.2230195,55.8401236 90.8112753,55.0799398 91.9191699,55.0799398 C92.5621651,55.0799398 92.9121888,55.4068342 93.0825749,55.4068342" id="Fill-40" fill="#CACACA" mask="url(#mask-2)"></path>
                    <path d="M88.9775054,57.1132386 C88.9775054,57.7747373 88.8757364,57.8102022 88.8040355,57.8102022 L85.2606231,57.8102022 C85.2606231,59.9758779 85.6584475,60.8416856 86.8449818,60.8416856 C87.8110165,60.8416856 88.5180029,60.1902096 88.819455,59.5402757 C88.8456683,59.4824523 88.8757364,59.4678038 88.921995,59.4678038 C89.0075735,59.4678038 89.0476644,59.5695728 89.0476644,59.6713418 C89.0476644,59.8440408 88.3877077,61.0791466 86.8596304,61.0791466 C85.1172213,61.0791466 84.1550415,59.6713418 84.1550415,58.1717907 C84.1550415,56.1287004 85.4502836,55.0362254 86.8449818,55.0362254 C88.0284322,55.0362254 88.9775054,55.973734 88.9775054,57.1132386 L88.9775054,57.1132386 Z M87.7184992,57.6282516 C87.8233522,57.6282516 87.8950531,57.3237155 87.8950531,56.8071606 C87.8950531,56.1718752 87.7817194,55.2574959 86.801807,55.2574959 C85.9838,55.2574959 85.3361789,55.9328722 85.2606231,57.6282516 L87.7184992,57.6282516 Z" id="Fill-41" fill="#CACACA" mask="url(#mask-2)"></path>
                    <path d="M81.5809019,58.0260759 C81.5809019,56.3260707 80.8315119,55.3168612 80.0551376,55.3168612 C78.7128658,55.3168612 78.4114136,56.8364577 78.4114136,58.193378 C78.4114136,59.7731108 78.7583535,60.8131594 79.8832096,60.8131594 C81.0921022,60.8131594 81.5809019,59.3976448 81.5809019,58.0260759 M81.6510609,60.8925701 C81.6194508,60.8925701 81.6433511,60.5325236 81.6248477,59.5888472 L81.5909246,59.5888472 C81.3681122,60.315879 80.7860242,61.0359719 79.7382658,61.0359719 C78.2117305,61.0359719 77.2480087,59.7422717 77.2480087,58.159455 C77.2480087,56.620584 78.2402566,55.0647515 79.868561,55.0647515 C80.7860242,55.0647515 81.2755949,55.6422137 81.5084301,56.2497439 L81.5346433,56.2497439 L81.5346433,53.9291018 L81.5346433,51.3070074 C81.4783619,51.3070074 80.5632117,51.3139462 80.3743222,51.3139462 C80.312644,51.3139462 80.2941406,51.2969847 80.2941406,51.2052384 C80.2941406,51.0911338 80.2941406,51.0764852 80.3188118,51.0764852 C80.3188118,51.0764852 81.5192237,51.0911338 82.0396335,51.0911338 C82.2848044,51.0911338 82.5577304,51.0356234 82.6132407,51.0356234 C82.6425379,51.0356234 82.6594994,51.050272 82.6594994,51.0764852 C82.6594994,51.2792523 82.6001341,54.8064741 82.6001341,56.1579976 L82.6001341,58.4185035 C82.6001341,58.9782331 82.5877985,60.6358346 82.6278893,60.6358346 L83.5314749,60.6288958 C83.5638559,60.6288958 83.5638559,60.6381475 83.5638559,60.6944289 C83.5638559,60.8663569 83.5576881,60.8779215 83.4713386,60.8779215 C82.9725162,60.8779215 82.8560986,60.8586471 82.263217,60.8586471 C82.0989988,60.8586471 81.682671,60.8925701 81.6510609,60.8925701" id="Fill-42" fill="#CACACA" mask="url(#mask-2)"></path>
                    <path d="M126.731423,45.2389523 C126.731423,45.9027639 126.628883,45.9359159 126.557182,45.9359159 L123.019938,45.9359159 C123.019938,48.1023626 123.411594,48.9704832 124.598129,48.9704832 C125.563392,48.9704832 126.271921,48.3136104 126.574144,47.6659893 C126.600357,47.607395 126.628883,47.5935175 126.675913,47.5935175 C126.759949,47.5935175 126.800811,47.6952865 126.800811,47.7970555 C126.800811,47.9697544 126.140854,49.2079442 124.612777,49.2079442 C122.874223,49.2079442 121.908959,47.7970555 121.908959,46.3021302 C121.908959,44.257498 123.204201,43.1619391 124.598129,43.1619391 C125.779266,43.1619391 126.731423,44.0994476 126.731423,45.2389523 L126.731423,45.2389523 Z M125.471646,45.7593621 C125.57727,45.7593621 125.650513,45.4517421 125.650513,44.9336452 C125.650513,44.2975888 125.534095,43.3870645 124.555725,43.3870645 C123.736176,43.3870645 123.087013,44.0585858 123.019938,45.7593621 L125.471646,45.7593621 Z" id="Fill-43" fill="#CACACA" mask="url(#mask-2)"></path>
                    <path d="M120.071643,39.2045118 C120.071643,39.4049659 120.016903,42.9314168 120.016903,44.2837113 L120.016903,46.5442171 C120.016903,47.1039468 119.999942,48.7569224 120.043117,48.7569224 L120.94516,48.7515256 C120.980625,48.7515256 120.980625,48.7615483 120.980625,48.8224555 C120.980625,48.9943835 120.971374,49.0059481 120.885795,49.0059481 C120.383118,49.0059481 120.087833,48.9843608 119.498036,48.9843608 C118.921344,48.9843608 118.713181,49.0059481 118.195084,49.0059481 C118.114902,49.0059481 118.104879,49.0059481 118.104879,48.8224555 C118.104879,48.7615483 118.109505,48.7515256 118.139573,48.7515256 L118.921344,48.7569224 C118.953726,48.7569224 118.953726,46.6876189 118.953726,46.2119259 L118.953726,42.0540445 L118.953726,39.4350341 C118.891276,39.4350341 118.225923,39.4427438 118.037804,39.4427438 C117.972271,39.4427438 117.959936,39.4250114 117.959936,39.335578 C117.959936,39.2191604 117.959936,39.2045118 117.982294,39.2045118 C117.982294,39.2045118 118.939077,39.2191604 119.451777,39.2191604 C119.699261,39.2191604 119.976042,39.16365 120.033094,39.16365 C120.058536,39.16365 120.071643,39.1759856 120.071643,39.2045118" id="Fill-44" fill="#CACACA" mask="url(#mask-2)"></path>
                    <path d="M115.152113,48.100358 C114.977872,48.5598606 114.45592,49.0910641 113.765895,49.0910641 C112.656459,49.0910641 112.039677,48.2961863 112.039677,47.4889729 C112.039677,46.9130528 112.272512,46.5491514 112.799861,46.3363616 C113.237005,46.1567239 113.795192,46.1305106 114.371884,45.9871088 C114.948575,45.844478 115.089664,45.6262914 115.089664,45.5121867 L115.089664,44.8167651 C115.089664,43.6803443 114.701091,43.4282347 114.171429,43.4282347 C113.721179,43.4282347 113.446711,43.7096414 113.446711,44.1814796 C113.446711,44.5862428 113.594738,44.717309 113.594738,44.8337266 C113.594738,44.9015726 113.334919,45.0465163 113.031154,45.0465163 C112.742808,45.0465163 112.442898,44.8622527 112.442898,44.3703691 C112.442898,43.7188932 113.142946,43.2077351 114.196872,43.2077351 C115.199913,43.2077351 116.125857,43.7620679 116.125857,45.1359497 C116.125857,46.4018947 116.09656,47.6686107 116.09656,47.6686107 C116.09656,48.5490669 116.101186,48.8343286 116.479736,48.8343286 C116.683274,48.8343286 116.874476,48.7541469 116.910712,48.7541469 C116.937697,48.7541469 116.961597,48.7587728 116.961597,48.8027185 C116.961597,48.8751904 116.961597,48.9191361 116.925361,48.9499752 C116.855973,49.0108824 116.688671,49.0910641 116.398012,49.0910641 C115.738056,49.0910641 115.330209,48.6161419 115.172929,48.100358 L115.152113,48.100358 Z M115.089664,47.5699255 L115.089664,45.8344553 C114.932384,45.9793991 114.744266,46.0865649 114.313289,46.2022115 C113.993334,46.290103 113.668752,46.3818493 113.49374,46.5005798 C113.213105,46.6948661 113.10671,46.9755019 113.10671,47.4380884 C113.10671,48.1628072 113.247798,48.8659386 113.926259,48.8659386 C114.499866,48.8659386 115.089664,48.1597233 115.089664,47.5699255 L115.089664,47.5699255 Z" id="Fill-45" fill="#CACACA" mask="url(#mask-2)"></path>
                    <path d="M106.529964,44.4870951 C106.832958,43.6798817 107.460533,43.1324877 108.322486,43.1324877 C109.229156,43.1324877 110.323173,43.7238274 110.323173,45.4222908 L110.323173,46.9634747 C110.323173,47.5232043 110.323173,48.7667909 110.367889,48.7667909 L110.979274,48.7621651 C111.012426,48.7621651 111.012426,48.7714168 111.012426,48.8300111 C111.012426,49.0003971 111.003175,49.0158167 110.921451,49.0158167 C110.416461,49.0158167 110.282311,48.9919164 109.689429,48.9919164 C109.115822,48.9919164 108.976275,49.0158167 108.458949,49.0158167 C108.378767,49.0158167 108.361806,49.0158167 108.361806,48.8300111 C108.361806,48.7691039 108.3726,48.7621651 108.400355,48.7621651 L109.244575,48.7667909 C109.273872,48.7667909 109.273872,46.6874648 109.273872,46.2148556 L109.273872,44.799341 C109.273872,43.8379321 108.870651,43.3845973 108.179855,43.3845973 C107.258537,43.3845973 106.569283,44.423875 106.569283,45.7353076 C106.569283,46.2950372 106.569283,48.7667909 106.607061,48.7667909 L107.349513,48.7621651 C107.383436,48.7621651 107.383436,48.7714168 107.383436,48.8300111 C107.383436,49.0003971 107.376497,49.0158167 107.291689,49.0158167 C106.78747,49.0158167 106.651007,48.9919164 106.059667,48.9919164 C105.485289,48.9919164 105.348055,49.0158167 104.828416,49.0158167 C104.751319,49.0158167 104.732044,49.0158167 104.732044,48.8300111 C104.732044,48.7691039 104.741296,48.7621651 104.771364,48.7621651 L105.489915,48.7667909 C105.515357,48.7667909 105.512273,46.8038823 105.512273,46.3289602 C105.512273,44.8895453 105.449824,43.5958452 105.41513,43.5958452 C105.358849,43.5958452 104.934811,43.600471 104.746693,43.600471 C104.684244,43.600471 104.666511,43.5827386 104.666511,43.4940761 C104.666511,43.3799715 104.666511,43.3653229 104.688869,43.3653229 C104.688869,43.3653229 105.498396,43.3799715 106.015722,43.3799715 C106.262434,43.3799715 106.403523,43.3483614 106.459034,43.3483614 C106.485247,43.3483614 106.501437,43.36301 106.501437,43.3892232 C106.513002,43.5202894 106.523025,43.9026942 106.523025,44.4870951 L106.529964,44.4870951 Z" id="Fill-46" fill="#CACACA" mask="url(#mask-2)"></path>
                    <path d="M103.750667,46.1684427 C103.750667,47.9571104 102.355969,49.1929873 101.019094,49.1929873 C99.2913334,49.1929873 98.2836658,47.8406928 98.2836658,46.1684427 C98.2836658,44.3705233 99.6667994,43.149295 101.019094,43.149295 C102.615017,43.149295 103.750667,44.586397 103.750667,46.1684427 M102.60114,46.1861752 C102.60114,44.1384591 102.351343,43.4014047 101.019094,43.4014047 C99.783217,43.4014047 99.4331932,44.2471669 99.4331932,46.1861752 C99.4331932,48.2022812 99.9960068,48.9670909 101.019094,48.9670909 C102.12853,48.9670909 102.60114,48.143687 102.60114,46.1861752" id="Fill-47" fill="#CACACA" mask="url(#mask-2)"></path>
                    <path d="M96.3932291,43.3654 C96.3932291,43.5635412 96.3700998,44.4648139 96.3700998,45.8171083 L96.3700998,46.5510788 C96.3700998,47.1138924 96.3554512,48.769181 96.398626,48.769181 L97.1403063,48.7614712 C97.1788552,48.7614712 97.1788552,48.7738068 97.1788552,48.8293172 C97.1788552,49.0035581 97.1665195,49.0128098 97.080941,49.0128098 C96.5782637,49.0128098 96.4418007,48.9943064 95.852003,48.9943064 C95.2760828,48.9943064 94.9669208,49.0128098 94.448824,49.0128098 C94.3686423,49.0128098 94.3539938,49.0128098 94.3539938,48.8293172 C94.3539938,48.7714939 94.3601616,48.7614712 94.3925426,48.7614712 L95.2760828,48.769181 C95.303067,48.769181 95.303067,46.6975646 95.303067,46.2195585 L95.303067,46.2118488 L95.303067,43.5951513 C95.2452437,43.5951513 94.5775772,43.6028611 94.3925426,43.6028611 C94.3270096,43.6028611 94.3092771,43.5858996 94.3092771,43.4964662 C94.3092771,43.3800486 94.3092771,43.3654 94.3347193,43.3654 C94.3347193,43.3654 95.2915023,43.3800486 95.8080572,43.3800486 C96.05477,43.3800486 96.2906891,43.3214543 96.3500544,43.3214543 C96.3747257,43.3214543 96.3932291,43.3353319 96.3932291,43.3654 M95.8219348,39.3031198 C95.4896436,39.3031198 95.1434747,39.5799007 95.1434747,39.9677024 C95.1434747,40.3262069 95.4194846,40.6407657 95.8219348,40.6407657 C96.1519132,40.6407657 96.4980821,40.356275 96.4980821,39.9677024 C96.4980821,39.6354111 96.2243851,39.3031198 95.8219348,39.3031198" id="Fill-48" fill="#CACACA" mask="url(#mask-2)"></path>
                    <path d="M93.5345989,47.6075492 C93.4914242,47.6075492 93.4783176,47.6268237 93.4575012,47.7054634 C93.2971379,48.299116 92.8800391,48.812587 92.3812167,48.812587 C92.0165443,48.812587 91.892417,48.5651032 91.892417,47.9621989 L91.892417,43.61697 L92.9286107,43.61697 C93.0080213,43.61697 93.0157311,43.6054053 93.0157311,43.4334773 C93.0157311,43.374883 93.0157311,43.3656313 92.9833501,43.3656313 L91.892417,43.3795089 C91.892417,42.0279854 91.9055236,41.564628 91.9055236,41.3610899 C91.9055236,41.3325638 91.8962718,41.3194571 91.8623488,41.3194571 C91.8037546,41.3194571 91.6819401,41.3780514 91.4067012,41.4358747 C91.2232085,41.4790495 90.8145905,41.5723378 90.8145905,41.6224513 C90.8145905,41.6856714 90.8446586,42.9045868 90.8446586,43.3795089 L89.872456,43.3656313 C89.8416169,43.3656313 89.8369911,43.374883 89.8369911,43.4334773 C89.8369911,43.61697 89.8508687,43.61697 89.9279664,43.61697 L90.8446586,43.61697 L90.8446586,47.3947595 C90.8446586,48.4880055 91.3319164,49.0909099 92.2123726,49.0909099 C93.2485663,49.0909099 93.6918783,48.0978909 93.6918783,47.753264 C93.6918783,47.6908148 93.5777737,47.6075492 93.5345989,47.6075492" id="Fill-49" fill="#CACACA" mask="url(#mask-2)"></path>
                    <path d="M87.6945218,48.100358 C87.5225939,48.5598606 87.004497,49.0910641 86.3113883,49.0910641 C85.2034937,49.0910641 84.5836278,48.2961863 84.5836278,47.4889729 C84.5836278,46.9130528 84.8210889,46.5491514 85.3445826,46.3363616 C85.7824978,46.1567239 86.3414564,46.1305106 86.9158346,45.9871088 C87.4909838,45.844478 87.6374695,45.6262914 87.6374695,45.5121867 L87.6374695,44.8167651 C87.6374695,43.6803443 87.2488969,43.4282347 86.7184644,43.4282347 C86.2697555,43.4282347 85.9914326,43.7096414 85.9914326,44.1814796 C85.9914326,44.5862428 86.1386893,44.717309 86.1386893,44.8337266 C86.1386893,44.9015726 85.8804119,45.0465163 85.5766468,45.0465163 C85.2875302,45.0465163 84.9899329,44.8622527 84.9899329,44.3703691 C84.9899329,43.7188932 85.6884385,43.2077351 86.7454486,43.2077351 C87.7454063,43.2077351 88.6721212,43.7620679 88.6721212,45.1359497 C88.6721212,46.4018947 88.645137,47.6686107 88.645137,47.6686107 C88.645137,48.5490669 88.6505339,48.8343286 89.022916,48.8343286 C89.2303089,48.8343286 89.4199694,48.7541469 89.4531214,48.7541469 C89.4816476,48.7541469 89.5055581,48.7587728 89.5055581,48.8027185 C89.5055581,48.8751904 89.5070898,48.9191361 89.4723958,48.9499752 C89.4006949,49.0108824 89.2349348,49.0910641 88.9450473,49.0910641 C88.2835486,49.0910641 87.8733886,48.6161419 87.7184221,48.100358 L87.6945218,48.100358 Z M87.6374695,47.5699255 L87.6374695,45.8344553 C87.4763352,45.9793991 87.2882167,46.0865649 86.8572403,46.2022115 C86.5403686,46.290103 86.2157871,46.3818493 86.0423172,46.5005798 C85.7585975,46.6948661 85.6483477,46.9755019 85.6483477,47.4380884 C85.6483477,48.1628072 85.7948334,48.8659386 86.4732936,48.8659386 C87.0453588,48.8659386 87.6374695,48.1597233 87.6374695,47.5699255 L87.6374695,47.5699255 Z" id="Fill-50" fill="#CACACA" mask="url(#mask-2)"></path>
                    <path d="M79.0975836,44.4870951 C79.3982648,43.6798817 80.0281534,43.1324877 80.8901061,43.1324877 C81.7967756,43.1324877 82.8907926,43.7238274 82.8907926,45.4222908 L82.8907926,46.9634747 C82.8907926,47.5232043 82.8907926,48.7667909 82.9293415,48.7667909 L83.5453525,48.7621651 C83.5800465,48.7621651 83.5800465,48.7714168 83.5800465,48.8300111 C83.5800465,49.0003971 83.5723367,49.0158167 83.4867582,49.0158167 C82.9848519,49.0158167 82.8460759,48.9919164 82.2570492,48.9919164 C81.680358,48.9919164 81.543124,49.0158167 81.0242562,49.0158167 C80.9440746,49.0158167 80.9332809,49.0158167 80.9332809,48.8300111 C80.9332809,48.7691039 80.9379067,48.7621651 80.9672039,48.7621651 L81.8114242,48.7667909 C81.8399504,48.7667909 81.8399504,46.6874648 81.8399504,46.2148556 L81.8399504,44.799341 C81.8399504,43.8379321 81.4375001,43.3845973 80.7443914,43.3845973 C79.8246153,43.3845973 79.1353615,44.423875 79.1353615,45.7353076 C79.1353615,46.2950372 79.1353615,48.7667909 79.1793072,48.7667909 L79.9171326,48.7621651 C79.9495137,48.7621651 79.9495137,48.7714168 79.9495137,48.8300111 C79.9495137,49.0003971 79.9410329,49.0158167 79.8577673,49.0158167 C79.356632,49.0158167 79.218627,48.9919164 78.6272873,48.9919164 C78.0498252,48.9919164 77.9125912,49.0158167 77.3937234,49.0158167 C77.3143127,49.0158167 77.3012061,49.0158167 77.3012061,48.8300111 C77.3012061,48.7691039 77.3066029,48.7621651 77.337442,48.7621651 L78.0552221,48.7667909 C78.0845192,48.7667909 78.0798933,46.8038823 78.0798933,46.3289602 C78.0798933,44.8895453 78.0143602,43.5958452 77.9842921,43.5958452 C77.9272398,43.5958452 77.5024312,43.600471 77.3143127,43.600471 C77.2503216,43.600471 77.2310472,43.5827386 77.2310472,43.4940761 C77.2310472,43.3799715 77.2310472,43.3653229 77.2549475,43.3653229 C77.2549475,43.3653229 78.0652448,43.3799715 78.5825706,43.3799715 C78.8285124,43.3799715 78.9711433,43.3483614 79.0274246,43.3483614 C79.0513249,43.3483614 79.0682864,43.36301 79.0682864,43.3892232 C79.0775382,43.5202894 79.0921867,43.9026942 79.0921867,44.4870951 L79.0975836,44.4870951 Z" id="Fill-51" fill="#CACACA" mask="url(#mask-2)"></path>
                    <path d="M105.55167,32.6619971 C105.55167,33.3242668 105.449901,33.3581898 105.375887,33.3581898 L101.837101,33.3581898 C101.837101,35.5238654 102.234154,36.3919861 103.42146,36.3919861 C104.385181,36.3919861 105.092939,35.7351133 105.394391,35.0882632 C105.422917,35.0296689 105.451443,35.0142494 105.495389,35.0142494 C105.582509,35.0142494 105.620287,35.1175603 105.620287,35.2193294 C105.620287,35.3912573 104.961873,36.63176 103.436108,36.63176 C101.690615,36.63176 100.731519,35.2193294 100.731519,33.7236331 C100.731519,31.6782299 102.024448,30.5834419 103.42146,30.5834419 C104.5972,30.5834419 105.55167,31.5240344 105.55167,32.6619971 L105.55167,32.6619971 Z M104.288038,33.180865 C104.399059,33.180865 104.473844,32.8740159 104.473844,32.3574611 C104.473844,31.7198627 104.356655,30.8077964 103.378285,30.8077964 C102.558736,30.8077964 101.910344,31.4793177 101.837101,33.180865 L104.288038,33.180865 Z" id="Fill-52" fill="#CACACA" mask="url(#mask-2)"></path>
                    <path d="M98.9665206,26.6287902 C98.9665206,26.8300153 98.9110102,30.3549242 98.9110102,31.7072187 L98.9110102,33.9684955 C98.9110102,34.5259122 98.8971326,36.1835138 98.9387654,36.1835138 L99.839267,36.175804 C99.8770449,36.175804 99.8770449,36.1858267 99.8770449,36.24365 C99.8770449,36.415578 99.8662513,36.4256007 99.7806728,36.4256007 C99.2764535,36.4256007 98.9811691,36.4063262 98.3929133,36.4063262 C97.8177642,36.4063262 97.6096003,36.4256007 97.0915034,36.4256007 C97.0097798,36.4256007 96.9997571,36.4256007 96.9997571,36.24365 C96.9997571,36.1858267 97.004383,36.175804 97.0267413,36.175804 L97.8177642,36.1835138 C97.8432064,36.1835138 97.8432064,34.1095844 97.8432064,33.6338913 L97.8432064,29.4760099 L97.8432064,26.8569995 C97.7853831,26.8569995 97.1208005,26.8639383 96.934224,26.8639383 C96.867149,26.8639383 96.8501875,26.8469768 96.8501875,26.7552305 C96.8501875,26.6411258 96.8501875,26.6264773 96.8733168,26.6264773 C96.8733168,26.6264773 97.8324127,26.6411258 98.3466547,26.6411258 C98.5941385,26.6411258 98.8647515,26.5833025 98.9218039,26.5833025 C98.951872,26.5833025 98.9665206,26.5964091 98.9665206,26.6287902" id="Fill-53" fill="#CACACA" mask="url(#mask-2)"></path>
                    <path d="M96.3700227,33.5651201 C96.3700227,35.348391 94.9737825,36.5865808 93.6361367,36.5865808 C91.9083762,36.5865808 90.9014796,35.2342863 90.9014796,33.5651201 C90.9014796,31.7672007 92.2792163,30.5428885 93.6361367,30.5428885 C95.232831,30.5428885 96.3700227,31.9823034 96.3700227,33.5651201 M95.2197243,33.5797687 C95.2197243,31.5289687 94.9683857,30.7926852 93.6361367,30.7926852 C92.4002598,30.7926852 92.051007,31.6376765 92.051007,33.5797687 C92.051007,35.5958747 92.6122786,36.3637683 93.6361367,36.3637683 C94.7455732,36.3637683 95.2197243,35.5372805 95.2197243,33.5797687" id="Fill-54" fill="#CACACA" mask="url(#mask-2)"></path>
                    <path d="M89.540319,31.8506205 C89.540319,32.310894 89.2350119,32.5414163 88.8179131,32.5414163 C88.5449871,32.5414163 88.2998162,32.4273116 88.2998162,32.3278555 C88.2998162,32.2700322 88.4833089,31.9570154 88.4833089,31.5406875 C88.4833089,31.1089402 88.3715171,30.8213656 87.863443,30.8213656 C86.9914675,30.8213656 86.4147764,31.6108465 86.4147764,33.6508528 C86.4147764,35.0972065 86.6930992,36.3361673 87.898137,36.3361673 C89.0229931,36.3361673 89.6274394,35.320019 89.810932,34.6562074 C89.8271226,34.5868195 89.844855,34.5544384 89.8749232,34.5544384 C89.948166,34.5544384 90.0676675,34.6461847 90.0676675,34.7148017 C90.0676675,35.0902677 89.4678471,36.5582088 87.8534203,36.5582088 C86.2312837,36.5582088 85.264478,35.1750752 85.264478,33.68015 C85.264478,31.7365158 86.6699699,30.5715689 87.898137,30.5715689 C88.8911559,30.5715689 89.540319,31.1282146 89.540319,31.8506205" id="Fill-55" fill="#CACACA" mask="url(#mask-2)"></path>
                    <path d="M83.4798965,27.6158726 C83.4798965,27.6852606 83.4344088,28.3914759 83.4344088,28.6119755 C83.4344088,28.8440397 83.462935,29.416105 83.462935,29.6065364 C83.462935,29.689802 83.4498284,29.7036796 83.3904631,29.7036796 C83.1930929,29.7036796 83.223161,29.6759244 83.2092834,29.5957427 C83.051233,28.4747415 82.4467867,27.636689 81.035898,27.636689 C80.5023816,27.636689 79.1038285,27.6204985 79.1038285,27.6505666 C79.1038285,27.8795469 79.0907219,28.8625432 79.0907219,29.1377821 L79.0907219,31.3705328 L80.1161219,31.3705328 C80.6766225,31.3705328 81.3651053,30.9989217 81.6133601,29.9349728 C81.6264667,29.8532492 81.5933147,29.824723 81.7505941,29.824723 C81.8107303,29.824723 81.820753,29.8393716 81.820753,29.9218662 C81.820753,30.1122976 81.7683266,31.1484913 81.7683266,31.5864065 C81.7683266,31.8161578 81.7937688,32.8939843 81.7937688,33.0867286 C81.7937688,33.1669103 81.7791202,33.1807879 81.7236099,33.1807879 C81.5524529,33.1807879 81.58175,33.1561166 81.5686434,33.0720801 C81.409822,32.1592428 80.8030628,31.5409188 80.144648,31.5409188 C79.6119026,31.5409188 79.0907219,31.5547964 79.0907219,31.5547964 L79.0907219,34.0951671 C79.0907219,34.6279126 79.0753023,36.2168971 79.1161641,36.2168971 C79.1454613,36.2168971 80.6195702,36.2307747 81.1515446,36.2307747 C82.8931827,36.2307747 83.4398057,34.6394772 83.5377198,33.6333516 C83.5377198,33.5500861 83.5215293,33.5231019 83.7242964,33.5231019 C83.7790358,33.5231019 83.7967682,33.5369795 83.7967682,33.619474 C83.7967682,33.8106765 83.769784,35.0087754 83.769784,35.2847853 C83.769784,35.5538565 83.7967682,36.2932238 83.7967682,36.3626118 C83.7967682,36.425832 83.7790358,36.4397096 83.7242964,36.4397096 C81.8361726,36.4397096 79.7522205,36.4011607 78.3259122,36.4011607 C77.7376564,36.4011607 77.30668,36.425832 76.8016898,36.425832 C76.7199662,36.425832 76.7145694,36.4088705 76.7145694,36.2747204 C76.7145694,36.2053324 76.7199662,36.1899129 76.7461794,36.1899129 L77.6913978,36.2030195 C77.7230079,36.2030195 77.7230079,34.2331721 77.7230079,33.7806083 L77.7230079,29.8393716 L77.7230079,27.6613603 C77.651307,27.6613603 76.9111686,27.6752379 76.7430955,27.6752379 C76.659059,27.6752379 76.659059,27.6636732 76.659059,27.5742398 C76.659059,27.467074 76.659059,27.4524254 76.7053176,27.4524254 C76.7053176,27.4524254 77.8078154,27.467074 78.3259122,27.467074 C79.7522205,27.467074 81.4506838,27.4254412 83.3349527,27.4254412 C83.3904631,27.4254412 83.4798965,27.5487976 83.4798965,27.6158726" id="Fill-56" fill="#CACACA" mask="url(#mask-2)"></path>
                    <path d="M47.0221461,26.5189259 L47.0221461,37.9170566 L52.9471078,37.9170566 C52.9000782,37.3249459 52.8160416,36.5632202 52.7104177,35.7452131 C51.9949506,30.0739029 49.7745356,27.5636004 47.0221461,26.5189259" id="Fill-57" fill="#CACACA" mask="url(#mask-2)"></path>
                    <path d="M47.0221461,-0.000231293235 L47.0221461,25.4181243 C49.0999303,26.0333643 50.6372593,26.8490585 52.3534551,26.8490585 C53.6332777,26.8490585 53.6294228,25.7935903 53.8784485,25.7935903 C54.1660231,25.7935903 54.7373174,25.907695 54.7373174,26.1012103 C54.7373174,26.4296467 54.512192,30.0008143 54.512192,32.437874 C54.512192,35.0113967 54.6031673,36.8347584 54.6710134,37.9172108 L71.1853504,37.9172108 L71.1853504,-0.000231293235 L47.0221461,-0.000231293235 Z" id="Fill-58" fill="#CACACA" mask="url(#mask-2)"></path>
                    <path d="M38.4312985,26.6768992 C34.1300153,28.699944 32.3189893,34.4398712 32.3189893,44.4594941 C32.3189893,44.7270233 32.3220732,44.9914686 32.3236151,45.2574558 L38.4312985,45.2574558 L38.4312985,26.6768992 Z" id="Fill-59" fill="#CACACA" mask="url(#mask-2)"></path>
                    <path d="M24.4504705,44.530424 C24.4504705,33.5046755 31.511853,27.0007097 38.4313756,25.0956244 L38.4313756,22.3779289 L-0.000308390981,22.3779289 L-0.000308390981,45.4016286 L24.4705159,45.4016286 C24.4604932,45.114054 24.4504705,44.8241664 24.4504705,44.530424" id="Fill-60" fill="#CACACA" mask="url(#mask-2)"></path>
                    <path d="M43.4377177,61.3526123 C51.8475397,61.3526123 53.341694,54.6088726 53.78809,50.6252321 L32.5754164,50.6252321 C33.2646702,57.126114 35.6678069,61.3526123 43.4377177,61.3526123" id="Fill-61" fill="#CACACA" mask="url(#mask-2)"></path>
                    <path d="M55.3502445,55.4463083 C55.3502445,58.1709426 55.6015831,61.5200686 55.6015831,61.8693214 C55.6015831,62.0867371 54.8614448,62.3704568 54.6278386,62.3704568 C54.2793568,62.3704568 53.7335048,60.4067772 52.220076,60.4067772 C50.1731309,60.4067772 47.8910377,62.5732238 43.2412726,62.5732238 C36.2739494,62.5732238 30.0922522,59.4099034 26.886528,53.7524708 L26.886528,72.9999229 L64.9211586,72.9999229 L64.9211586,50.6253863 L55.538363,50.6253863 C55.4674331,51.6392216 55.3502445,53.403989 55.3502445,55.4463083" id="Fill-62" fill="#CACACA" mask="url(#mask-2)"></path>
                    <path d="M79.7739621,26.4610255 C79.7022612,26.5296425 79.6829867,26.5404362 79.4925553,26.4702772 C79.4509225,26.4540867 79.4447547,26.4348123 79.4563194,26.4047442 C79.4609452,26.3931795 79.4987231,26.3261045 79.5280203,26.2875556 L80.9358251,24.2814723 C81.0722881,24.0748503 81.4893869,23.9854169 81.8263041,24.1103153 C81.9211158,24.1457802 81.9357829,24.186642 81.9095696,24.255259" id="Fill-63" fill="#CACACA" mask="url(#mask-2)"></path>
                </g>
            </g>
        </g>
    </g>
</svg>