<?xml version="1.0" encoding="UTF-8"?>
<svg width="160.879434px" height="60px" viewBox="0 0 160.879434 60" version="1.1" xmlns="http://www.w3.org/2000/svg" xmlns:xlink="http://www.w3.org/1999/xlink">
    <title>logo BNF</title>
    <defs>
        <polygon id="path-1" points="0 0 160.881218 0 160.881218 60 0 60"></polygon>
    </defs>
    <g id="Symbols" stroke="none" stroke-width="1" fill="none" fill-rule="evenodd">
        <g id="PdP" transform="translate(-1467.000000, -328.000000)">
            <g id="logo-BNF" transform="translate(1467.000000, 328.000000)">
                <g id="g16-Clipped" transform="translate(80.440609, 30.000000) scale(-1, 1) rotate(-180.000000) translate(-80.440609, -30.000000) ">
                    <mask id="mask-2" fill="white">
                        <use xlink:href="#path-1"></use>
                    </mask>
                    <g id="path20"></g>
                    <g id="g16" mask="url(#mask-2)" fill="#CACACA" fill-rule="nonzero">
                        <path d="M7.30907524,30.0007431 L11.1325641,33.4002784 C11.4737066,33.6553104 11.5586876,34.0803638 11.5586876,34.3339096 C11.8126198,38.3282225 12.4080215,47.5911165 16.4016209,60.0017834 L8.49827353,60.0017834 C7.90414997,60.0017834 7.56488009,59.5749466 7.47882907,59.2346067 C7.47882907,59.149596 2.71928345,46.0624105 2.46418901,32.3798531 L0,30.0007431 L2.46418901,27.6198794 C2.71928345,13.937322 7.47882907,0.850154317 7.47882907,0.765045552 C7.56488009,0.425077159 7.90414997,0 8.49827353,0 L16.4016209,0 C12.4080215,12.4088538 11.8126198,21.6714803 11.5586876,25.6660904 C11.5586876,25.9214196 11.4737066,26.344422 11.1325641,26.6014753 L7.30907524,30.0007431 Z M62.4650124,18.2701616 C62.4650124,10.0280198 56.9416963,8.83929713 49.2928162,8.83929713 L42.4090321,8.83929713 L42.4090321,27.7050982 L47.9323481,27.7050982 C54.8161322,27.7050982 62.4650124,26.9397048 62.4650124,18.2701616 M42.4090321,34.8454599 L42.4090321,51.1624566 L48.5277201,51.1624566 C53.7115879,51.1624566 59.2366874,49.9720099 59.2366874,43.3432579 C59.2366874,36.032637 53.8816093,34.8454599 46.7419014,34.8454599 L42.4090321,34.8454599 L42.4090321,34.8454599 Z M33.8247373,58.3862834 L33.8247373,1.61345804 L49.7169779,1.61345804 C60.256221,1.61345804 71.5587768,3.90754841 71.5587768,18.2701616 C71.5587768,25.4961284 66.4596224,30.8511471 58.556602,32.0398104 C64.9309164,33.6553104 67.9892201,38.0731904 67.9892201,44.6187152 C67.9892201,54.1366413 60.0853079,58.3862834 50.5682736,58.3862834 L33.8247373,58.3862834 Z M79.3770838,46.319226 C80.7372546,43.5982899 80.9072759,37.3080943 80.9072759,32.975225 L80.9072759,1.61345804 L89.490679,1.61345804 L89.490679,23.1169293 C89.490679,29.9157324 90.4246075,32.975225 91.9565831,35.2690271 C93.9106397,38.0731904 96.7998137,39.6036798 100.199349,39.6036798 C103.17502,39.6036798 105.297314,38.5832545 106.742793,36.9695378 C108.27358,35.2690271 108.953665,32.8049064 108.953665,26.9397048 L108.953665,1.61345804 L117.53796,1.61345804 L117.53796,28.7252263 C117.53796,36.3741659 116.262503,40.0287332 113.881906,42.7478859 C111.419569,45.5523465 107.763219,47.1678465 102.918204,47.1678465 C96.6280089,47.1678465 91.6150542,44.6187152 88.8973878,40.0287332 C88.8973878,42.8331938 88.5555616,44.8719638 87.9622703,46.319226 L79.3770838,46.319226 L79.3770838,46.319226 Z M137.169184,34.4189203 L137.169184,50.9071273 L160.879434,50.9071273 L160.879434,58.3862834 L128.414273,58.3862834 L128.414273,1.61345804 L137.423919,1.61345804 L137.423919,26.8547239 L158.840664,26.8547239 L158.840664,34.4189203 L137.169184,34.4189203" id="path22"></path>
                    </g>
                </g>
            </g>
        </g>
    </g>
</svg>