<?xml version="1.0" encoding="UTF-8"?>
<svg width="175.309495px" height="51px" viewBox="0 0 175.309495 51" version="1.1" xmlns="http://www.w3.org/2000/svg" xmlns:xlink="http://www.w3.org/1999/xlink">
    <title>logo Paris Cité</title>
    <g id="Symbols" stroke="none" stroke-width="1" fill="none" fill-rule="evenodd">
        <g id="PdP" transform="translate(-1653.550562, -199.000000)" fill="#CACACA" fill-rule="nonzero">
            <g id="logo-Paris-Cité" transform="translate(1653.550562, 199.000000)">
                <g id="Group" transform="translate(-0.000000, 0.000000)">
                    <path d="M42.2629082,10.8022264 L50.4752391,10.8022264 L50.4752391,11.5465304 L47.9246148,11.5465304 L47.9246148,26.8056567 C47.9246148,31.1947306 47.1535372,35.8658184 45.2776047,38.9001539 L43.7283121,36.7814748 C45.2686808,33.227734 44.8224564,28.7690488 44.8528015,26.8056567 L44.8528015,11.5465304 L42.2629082,11.5465304 L42.2629082,10.8022264 Z" id="Path"></path>
                    <path d="M29.2509726,12.7674033 L29.5686853,12.7674033 C30.4218682,21.306374 32.1889195,28.6601699 38.2022558,37.0706277 C41.9434102,42.3039624 46.9714806,49.7505709 46.9714806,49.7505709 L52.1976734,49.7505709 C52.1976734,49.7505709 44.6457506,40.1959893 41.7488565,35.8658184 C34.9091123,25.6454707 32.5548284,17.3867294 32.1710716,0.56759858 L32.1710716,0 L27.774859,0 L27.774859,0.56759858 C27.9140812,14.4969731 26.3344431,20.5638548 24.2157644,25.7561344 C22.7539296,29.3348631 19.8713134,33.9077838 16.362196,37.4472426 C16.365766,38.0719594 16.6727691,39.4695359 16.942289,40.3816191 C19.3715408,37.2205618 23.4143435,35.4767109 26.9627285,35.4767109 C29.5454817,35.4767109 31.9176163,36.1442654 34.0380802,38.0737415 C34.8805539,38.8412504 36.3370339,40.5726042 38.7627138,44.5797084 C36.1656833,47.3106117 32.5351939,49.1365647 28.2103751,49.1365647 C22.1577726,49.1365647 19.398314,46.8858039 17.3403222,43.9603514 C15.4608206,41.2847829 14.4916188,37.3080191 14.4916188,31.1376138 L14.4916188,11.5465304 L16.8191309,11.5465304 L16.8191309,10.8004416 L0,10.8004416 L0,11.5465304 L2.4114026,11.5465304 L2.4114026,25.8810778 C2.4114026,34.0237996 4.17131612,38.5592348 7.02715918,42.4931609 C9.9401191,46.5056204 16.0105704,51 27.3161389,51 C33.2884191,51 37.3972645,48.3904768 39.6694463,46.0933052 C40.2763107,47.1321193 41.0348957,48.4493757 41.7452878,49.7505709 L45.680996,49.7505709 C45.680996,49.7505709 43.0536203,45.7845177 39.1321914,40.1317351 C34.9608739,34.1201855 30.9430596,33.3348286 26.9680834,33.3348286 C24.8618991,33.3348286 22.3773156,34.3147392 20.9440393,35.3303501 L20.8244507,35.2107611 C23.4375472,32.2228341 25.1135702,28.6619547 26.1595225,25.9953115 C27.2625921,23.1823061 29.043924,17.2671409 29.2509726,12.7674033" id="Path"></path>
                </g>
                <g id="Group" transform="translate(68.938264, 10.172156)">
                    <path d="M7.30560753,18.2845352 C11.9534898,18.2845352 14.5148247,16.0891056 14.5148247,12.1034198 L14.5148247,0.599727043 L11.9124388,0.599727043 L11.9124388,12.0552273 C11.9124388,14.773633 10.3363698,16.2086942 7.35379589,16.2086942 C4.3712265,16.2086942 2.79515754,14.773633 2.79515754,12.0552273 L2.79515754,0.599727043 L-1.29868707e-14,0.599727043 L-1.29868707e-14,12.1034198 C-1.29868707e-14,16.0891056 2.59346648,18.2845352 7.30560753,18.2845352" id="Path"></path>
                    <path d="M28.754771,18.0453581 L28.754771,8.36405014 C28.754771,6.53809537 27.3982455,5.49214308 25.0332511,5.49214308 C22.7717798,5.49214308 20.9083445,6.3560356 20.0622975,7.19672452 L20.0622975,5.65456926 L17.6044904,5.75987813 L17.6044904,18.0453581 L20.1818865,18.0453581 L20.1818865,8.85668307 C20.9618881,7.80359117 22.657546,7.25384138 23.9426754,7.25384138 C25.4473483,7.25384138 26.1773749,7.78217235 26.1773749,8.86739271 L26.1773749,18.0453581 L28.754771,18.0453581 Z" id="Path"></path>
                    <polygon id="Path" points="31.6516696 3.85003332 34.204076 3.85003332 34.204076 1.48682318 31.6516696 1.48682318"></polygon>
                    <polygon id="Path" points="31.6516696 18.0453581 34.204076 18.0453581 34.204076 5.68134245 31.6516696 5.73310495"></polygon>
                    <polygon id="Path" points="43.1053824 18.0453581 47.8550058 5.88660629 47.9156959 5.7313197 45.682783 5.7313197 42.0219486 15.5589899 38.4592821 5.80628581 38.4325103 5.7313197 35.7176728 5.7313197 40.4298138 18.0453581"></polygon>
                    <path d="M50.9357476,10.3113782 C51.4533681,7.38413911 53.1918637,6.94326822 54.1914087,6.94326822 C56.7937946,6.94326822 57.1864753,9.21009388 57.222171,10.3113782 L50.9357476,10.3113782 Z M59.4622258,16.8816021 L59.4622258,14.969972 L59.2676721,15.1627414 C58.5626352,15.862423 56.9490839,16.5692441 55.2320048,16.5692441 C52.3029837,16.5692441 50.8179453,15.0110249 50.8179453,11.9356388 L50.8179453,11.8106959 L59.646069,11.8106959 L59.6567795,11.7071713 C59.6799827,11.4626399 59.6799827,10.9521581 59.6799827,10.7611735 C59.6799827,7.41269754 57.6791059,5.49214308 54.1914087,5.49214308 C51.2302559,5.49214308 48.2405446,7.47695401 48.2405446,11.9124351 C48.2405446,15.8427894 50.6876457,18.2845352 54.6269271,18.2845352 C57.429222,18.2845352 58.9124737,17.3278278 59.4193882,16.9173001 L59.4622258,16.8816021 Z" id="Shape"></path>
                    <path d="M64.5010022,9.46533451 C65.0775261,8.10166945 66.4447621,7.61439134 67.5335511,7.61439134 C68.1671919,7.61439134 68.7669189,7.72327024 69.0239448,7.88391164 L69.198864,7.99457533 L69.198864,5.91337993 L69.159595,5.87946668 C68.8847213,5.6385048 68.3938727,5.51534669 67.7031151,5.51534669 C66.4394068,5.51534669 65.1703387,6.28642431 64.3546414,7.53585565 L64.3546414,5.65456926 L61.9236061,5.75987813 L61.9236061,18.0453581 L64.5010022,18.0453581 L64.5010022,9.46533451 Z" id="Path"></path>
                    <path d="M75.1015352,10.845064 C73.5343902,10.3274422 72.5883933,10.0150843 72.5883933,8.79421139 C72.5883933,7.78574192 73.5290349,7.15924124 75.0408497,7.15924124 C76.224238,7.15924124 77.5075807,7.58404812 78.2536732,8.00706976 L78.4250237,8.10345469 L78.4250237,6.35782039 L78.3696889,6.32390714 C77.7539006,5.94015357 76.4437815,5.49214308 74.7748999,5.49214308 C72.0011589,5.49214308 70.2769471,6.85759293 70.2769471,9.05837687 C70.2769471,11.1984744 71.944042,12.0570121 73.7432232,12.6674488 L74.0984215,12.7923917 C75.6030944,13.3260775 76.5972842,13.677703 76.5972842,14.9092856 C76.5972842,16.0908904 75.7316073,16.6656291 73.9520561,16.6656291 C72.5294899,16.6656291 71.064086,16.0159248 70.2448154,15.3715753 L70.0591856,15.2252131 L70.0591856,17.0708019 L70.0984546,17.1047147 C70.7642224,17.6901625 72.3849157,18.2845352 74.1930207,18.2845352 C77.2523415,18.2845352 79.0051163,16.9762018 79.0051163,14.6933126 C79.0051163,12.3283172 77.1595289,11.5233268 75.1015352,10.845064" id="Path"></path>
                    <polygon id="Path" points="83.9707146 1.48682318 81.4165171 1.48682318 81.4165171 3.85003332 83.9707146 3.85003332"></polygon>
                    <polygon id="Path" points="83.9707146 5.68134245 81.4165171 5.73310495 81.4165171 18.0453581 83.9707146 18.0453581"></polygon>
                    <path d="M91.096043,18.2845352 C92.5078987,18.2845352 93.7144901,17.8472339 94.1767803,17.4135031 L94.2142626,17.3795898 L94.2142626,15.64645 L94.0250642,15.8053061 C93.5431395,16.210479 92.7363661,16.4728597 91.9688572,16.4728597 C90.8229513,16.4728597 90.2910517,16.0070004 90.2910517,15.0056701 L90.2910517,7.39841832 L93.9233276,7.39841832 L93.9233276,5.7313197 L90.2910517,5.7313197 L90.2910517,2.43460621 L87.7868337,3.51625654 L87.7868337,5.72239531 L86.0429828,5.98656079 L86.0429828,7.39841832 L87.7618439,7.39841832 L87.7618439,15.4840238 C87.7618439,17.2903445 88.9470188,18.2845352 91.096043,18.2845352" id="Path"></path>
                    <polygon id="Path" points="103.838454 0 101.195017 0 99.4922216 3.75364838 101.180738 3.75364838"></polygon>
                    <path d="M100.880874,6.94326822 C103.48326,6.94326822 103.875941,9.21009388 103.911636,10.3113782 L97.6252131,10.3113782 C98.1446201,7.38413911 99.8813291,6.94326822 100.880874,6.94326822 M100.880874,5.49214308 C97.9197213,5.49214308 94.93001,7.47695401 94.93001,11.9124351 C94.93001,15.8427894 97.3771111,18.2845352 101.316388,18.2845352 C104.120469,18.2845352 105.601939,17.3278278 106.108849,16.9155153 L106.151687,16.8816021 L106.151687,14.969972 L105.957133,15.1627414 C105.252096,15.862423 103.640331,16.5692441 101.92147,16.5692441 C98.9924491,16.5692441 97.5074107,15.0110249 97.5074107,11.9356388 L97.5074107,11.8106959 L106.335534,11.8106959 L106.346245,11.7071713 C106.37123,11.4626399 106.37123,10.9521581 106.37123,10.7611735 C106.37123,7.41269754 104.370358,5.49214308 100.880874,5.49214308" id="Shape"></path>
                    <path d="M2.79515754,23.9391054 L5.58674642,23.9391054 C8.0195683,23.9391054 9.15297702,25.0225391 9.15297702,27.3500512 C9.15297702,29.6133091 7.95352293,30.759215 5.58674642,30.759215 L2.79515754,30.759215 L2.79515754,23.9391054 Z M6.21503189,22.1274289 L-1.29868707e-14,22.1274289 L-1.29868707e-14,39.5730595 L2.79515754,39.5730595 L2.79515754,32.5940919 L6.11864605,32.5940919 C9.75805934,32.5940919 12.0195306,30.5842958 12.0195306,27.3500512 C12.0195306,24.0801109 9.84908991,22.1274289 6.21503189,22.1274289" id="Shape"></path>
                    <path d="M17.4045814,38.2897168 C16.6245799,38.2897168 15.3162473,38.0416148 15.3162473,36.3887945 C15.3162473,34.7930911 16.5513972,34.3754252 17.6419728,34.0041656 C17.7383587,33.9720385 17.8329579,33.9399114 17.9275571,33.9077797 C18.9074677,33.5597278 19.6357077,33.1706158 20.0033986,32.7993562 L20.0033986,36.8368055 C19.4465092,37.7595992 18.5022944,38.2897168 17.4045814,38.2897168 M23.4339789,38.2415239 C22.8360385,38.2415239 22.5308197,37.9238125 22.5308197,37.3008777 L22.5308197,29.6275884 C22.5308197,27.8730269 21.0439947,27.0198472 17.9864606,27.0198472 C16.0444873,27.0198472 14.4184388,27.5785187 13.7276812,28.0979257 L13.6830615,28.1318394 L13.6830615,29.7525281 L13.8544121,29.6543602 C14.8825156,29.0689123 16.0766144,28.7583383 17.3081956,28.7583383 C19.2216104,28.7583383 20.0033986,29.1278158 20.0033986,30.0345437 L20.0033986,30.7056668 C20.0033986,31.6391711 18.9503053,32.0354205 16.9333673,32.7083256 L16.8012857,32.7493812 C14.8878709,33.3473217 12.9084106,33.9666832 12.9084106,36.5333733 C12.9084106,38.4949811 14.4237941,39.8122375 16.6781235,39.8122375 C18.7789548,39.8122375 19.8266927,38.9733325 20.3443132,38.2147475 C20.5317296,39.2053686 21.3831272,39.8122375 22.6111397,39.8122375 C23.4910958,39.8122375 24.2461076,39.5659222 24.6316464,39.151825 L24.6619915,39.1196933 L24.6619915,37.8541984 L24.4852856,37.9720008 C24.2889453,38.1023004 23.8766346,38.2415239 23.4339789,38.2415239" id="Shape"></path>
                    <path d="M31.9354673,27.0430504 C30.6699725,27.0430504 29.4009043,27.814128 28.5869891,29.0635571 L28.5869891,27.1822693 L26.1541717,27.2875791 L26.1541717,39.5730595 L28.7315678,39.5730595 L28.7315678,30.9930378 C29.3098783,29.6293704 30.6753277,29.142095 31.7659034,29.142095 C32.3995395,29.142095 32.9974845,29.2509735 33.2545104,29.4134001 L33.4294297,29.5222786 L33.4294297,27.4410818 L33.3919473,27.4071681 C33.1152869,27.1662081 32.6262249,27.0430504 31.9354673,27.0430504" id="Path"></path>
                    <polygon id="Path" points="35.0661842 25.3777375 37.618595 25.3777375 37.618595 23.0145251 35.0661842 23.0145251"></polygon>
                    <polygon id="Path" points="35.0661842 39.5730595 37.618595 39.5730595 37.618595 27.2090457 35.0661842 27.2625939"></polygon>
                    <path d="M45.2419094,32.3727664 C43.6747689,31.855146 42.7287675,31.5427853 42.7287675,30.3236967 C42.7287675,29.3134456 43.6694137,28.6869422 45.1812239,28.6869422 C46.3663987,28.6869422 47.6479595,29.1135366 48.3940473,29.5347712 L48.5653979,29.631157 L48.5653979,27.8855241 L48.5100677,27.8516104 C47.8960614,27.4678536 46.5841556,27.0198472 44.9152741,27.0198472 C42.1415376,27.0198472 40.4173212,28.3870787 40.4173212,30.5860778 C40.4173212,32.7243915 42.0844208,33.584713 43.8836019,34.1951506 L44.2387957,34.321877 C45.7434685,34.8537812 46.7376583,35.2054063 46.7376583,36.4369875 C46.7376583,37.6185937 45.8719815,38.1933309 44.0924348,38.1933309 C42.668082,38.1933309 41.2044647,37.5436244 40.3851941,36.8992776 L40.1995643,36.7529168 L40.1995643,38.5985042 L40.2388288,38.6324179 C40.9046012,39.2178658 42.5252898,39.8122375 44.3333949,39.8122375 C47.3927156,39.8122375 49.1454905,38.503905 49.1454905,36.2210126 C49.1454905,33.8578048 47.299903,33.0510268 45.2419094,32.3727664" id="Path"></path>
                    <path d="M66.2502084,37.8327819 C62.2198964,37.8327819 59.5104187,35.0269138 59.5104187,30.8502456 C59.5104187,26.6093187 62.1842007,23.8677093 66.3216044,23.8677093 C68.2135982,23.8677093 69.766464,24.3692639 71.0712279,25.4009406 L71.255071,25.5473014 L71.255071,23.3572262 L71.2050961,23.3233125 C70.2198302,22.6557599 68.7472844,21.8882518 66.0806398,21.8882518 C60.4349945,21.8882518 56.6438651,25.4901846 56.6438651,30.8502456 C56.6438651,36.2103066 60.3386132,39.8122375 65.8378932,39.8122375 C68.2082429,39.8122375 70.0609722,39.2785513 71.4996043,38.1826204 L71.5460106,38.1487067 L71.5460106,35.8836667 L71.3585942,36.0371694 C69.8574946,37.2633953 68.2350193,37.8327819 66.2502084,37.8327819" id="Path"></path>
                    <polygon id="Path" points="74.3947118 25.3777375 76.9471227 25.3777375 76.9471227 23.0145251 74.3947118 23.0145251"></polygon>
                    <polygon id="Path" points="74.3947118 39.5730595 76.9471227 39.5730595 76.9471227 27.2090457 74.3947118 27.2625939"></polygon>
                    <path d="M84.9452699,38.0005592 C83.801146,38.0005592 83.2674598,37.5347004 83.2674598,36.5333733 L83.2674598,28.9261202 L86.8997357,28.9261202 L86.8997357,27.2590207 L83.2674598,27.2590207 L83.2674598,23.9623085 L80.7632418,25.0457423 L80.7632418,27.2518833 L79.0193955,27.5142645 L79.0193955,28.9261202 L80.7382566,28.9261202 L80.7382566,37.0117247 C80.7382566,38.8180477 81.9234315,39.8122375 84.0742377,39.8122375 C85.4825248,39.8122375 86.6891162,39.3749371 87.1549796,38.9429875 L87.1906753,38.9090783 L87.1906753,37.1741514 L87.0032589,37.3330094 C86.5195522,37.7381827 85.7127788,38.0005592 84.9452699,38.0005592" id="Path"></path>
                    <polygon id="Path" points="94.1589324 25.2813516 96.8148665 21.5294867 94.171425 21.5294867 92.4704163 25.2813516"></polygon>
                    <path d="M93.8572823,28.4709719 C96.4614547,28.4709719 96.8523488,30.7377939 96.8880491,31.8390801 L90.6034078,31.8390801 C91.1210282,28.911841 92.8577372,28.4709719 93.8572823,28.4709719 M93.8572823,27.0198472 C90.896134,27.0198472 87.9082048,29.0046582 87.9082048,33.4401389 C87.9082048,37.3704917 90.3553059,39.8122375 94.2928006,39.8122375 C97.0950955,39.8122375 98.5801339,38.8555301 99.0870483,38.4432149 L99.1298859,38.4093058 L99.1298859,36.4994596 L98.9353322,36.6922267 C98.2285088,37.3901262 96.6167441,38.0969451 94.8978829,38.0969451 C91.9688572,38.0969451 90.4838188,36.5387286 90.4838188,33.463342 L90.4838188,33.3383977 L99.3119425,33.3383977 L99.3226531,33.2348746 C99.3476428,32.9903413 99.3476428,32.4798582 99.3476428,32.2888777 C99.3476428,28.9403994 97.3467661,27.0198472 93.8572823,27.0198472" id="Shape"></path>
                </g>
            </g>
        </g>
    </g>
</svg>