<?xml version="1.0" encoding="UTF-8"?>
<svg width="81px" height="81px" viewBox="0 0 81 81" version="1.1" xmlns="http://www.w3.org/2000/svg" xmlns:xlink="http://www.w3.org/1999/xlink">
    <title>logo CNRS</title>
    <g id="Symbols" stroke="none" stroke-width="1" fill="none" fill-rule="evenodd">
        <g id="PdP" transform="translate(-1514.550562, -187.400000)" fill="#CACACA" fill-rule="nonzero">
            <g id="logo-CNRS" transform="translate(1514.550562, 187.400000)">
                <path d="M36.5523466,0 C37.2833935,0 38.0144404,0 38.7454874,0.146209386 C47.9566787,0.584837545 57.7527076,4.67870036 68.133574,12.1353791 C76.6137184,18.1299639 81,26.6101083 81,36.2599278 C81,40.2075812 80.2689531,44.4476534 78.8068592,48.6877256 C74.1281588,62.1389892 61.9927798,74.566787 49.4187726,78.9530686 C45.4711191,80.4151625 41.6696751,81 37.868231,81 C30.5577617,80.8537906 23.6859206,78.368231 17.5451264,73.2509025 C9.50361011,66.5252708 3.65523466,57.16787 1.75451264,47.5180505 C0.731046931,42.400722 0,38.0144404 0,34.066787 C0,26.6101083 2.33935018,20.3231047 9.64981949,12.7202166 C17.5451264,4.2400722 26.6101083,0 36.5523466,0 Z M36.2599278,22.5162455 C34.3592058,22.5162455 32.4584838,23.2472924 31.1425993,24.4169675 L31.1425993,22.9548736 L28.6570397,22.9548736 C27.9259928,22.9548736 27.633574,23.3935018 27.633574,23.9783394 L27.633574,48.2490975 C27.633574,48.9801444 28.0722022,49.2725632 28.6570397,49.2725632 L31.1425993,49.2725632 L31.1425993,30.265343 C31.1425993,27.7797834 33.1895307,25.732852 35.6750903,25.732852 C38.1606498,25.732852 40.2075812,27.7797834 40.2075812,30.265343 L40.2075812,49.4187726 L42.6931408,49.4187726 C43.4241877,49.4187726 43.7166065,48.9801444 43.7166065,48.3953069 C43.8246743,48.2872391 43.8528659,38.354398 43.8602202,33.1794005 L43.8609929,32.5934075 C43.8611068,32.4996936 43.8612136,32.4080289 43.8613138,32.3185231 L43.8618381,31.8082766 C43.8619133,31.7278467 43.8619827,31.6497958 43.8620468,31.5742336 L43.8628159,30.1191336 C43.8628159,26.0252708 40.5,22.5162455 36.2599278,22.5162455 Z M16.9602888,22.3700361 C10.8194946,22.3700361 7.60288809,27.0487365 7.60288809,35.8212996 C7.60288809,44.5938628 10.8194946,49.2725632 16.9602888,49.2725632 C24.2707581,49.2725632 25.1480144,43.2779783 25.2942238,41.5234657 C25.2942238,41.2310469 25.1480144,41.0848375 25.0018051,40.7924188 C24.8555957,40.6462094 24.5631769,40.5 24.2707581,40.5 L21.4927798,40.5 L21.4927798,40.6462094 C21.4927798,41.2310469 21.200361,45.9097473 16.9602888,45.9097473 C13.1588448,45.9097473 11.2581227,42.5469314 11.2581227,35.8212996 C11.2581227,29.0956679 13.1588448,25.732852 16.9602888,25.732852 C21.1120262,25.732852 21.4788823,30.4989988 21.492366,30.9721089 L21.4927798,31.1425993 L24.2707581,31.1425993 C24.5631769,31.1425993 24.8555957,30.9963899 25.0018051,30.8501805 C25.1480144,30.7039711 25.2942238,30.4115523 25.2942238,30.265343 C25.2942238,28.9494585 24.5631769,22.3700361 16.9602888,22.3700361 Z M55.7005616,22.3704372 L55.4133574,22.3700361 C53.5126354,22.3700361 51.6119134,23.101083 50.2960289,24.2707581 L50.2960289,22.8086643 L47.8104693,22.8086643 C47.0794224,22.8086643 46.7870036,23.2472924 46.7870036,23.83213 L46.7870036,48.2490975 C46.7870036,48.9801444 47.2256318,49.2725632 47.8104693,49.2725632 L50.2960289,49.2725632 L50.2960289,30.1191336 C50.2960289,27.633574 52.3429603,25.5866426 54.8285199,25.5866426 C55.4133574,25.5866426 56.1444043,25.732852 56.7292419,26.0252708 L58.1913357,24.1245487 C58.3375451,23.9783394 58.3375451,23.83213 58.3375451,23.5397112 C58.3375451,23.101083 58.0451264,22.8086643 57.7527076,22.6624549 C57.0216606,22.3700361 56.2906137,22.3700361 55.4133574,22.3700361 Z M66.0866426,22.2238267 C61.5541516,22.2238267 58.1913357,25.2942238 58.1913357,29.3880866 C58.1913357,33.2772563 60.4345532,34.9232085 63.0406442,36.2062872 L63.4548736,36.4061372 L65.9404332,37.4296029 C68.4259928,38.4530686 69.5956679,39.4765343 69.5956679,41.8158845 C69.5956679,45.032491 66.6714801,45.9097473 64.9169675,45.9097473 C63.4548736,45.9097473 61.8465704,45.6173285 59.799639,43.2779783 L59.6534296,43.131769 L58.4837545,44.4476534 C57.7527076,45.032491 57.7527076,45.6173285 58.4837545,46.3483755 C60.3844765,48.6877256 63.0162455,49.1263538 64.9169675,49.1263538 C69.0108303,49.1263538 73.2509025,46.6407942 73.2509025,41.6696751 C73.2509025,37.6781588 71.0270578,35.7714971 67.6634926,34.3235033 L67.4025271,34.2129964 L65.0631769,33.1895307 C62.7238267,32.166065 61.9927798,31.1425993 61.9927798,29.3880866 C61.9927798,27.0487365 63.601083,25.5866426 66.232852,25.5866426 C67.6949458,25.5866426 68.8646209,25.8790614 70.3267148,27.3411552 L70.4729242,27.4873646 L71.6425993,26.3176895 C72.3736462,25.5866426 72.2274368,25.0018051 71.7888087,24.5631769 C70.6191336,23.101083 68.5722022,22.2238267 66.0866426,22.2238267 Z" id="Combined-Shape"></path>
            </g>
        </g>
    </g>
</svg>