<?xml version="1.0" standalone="no"?>
<!DOCTYPE svg PUBLIC "-//W3C//DTD SVG 20010904//EN"
 "http://www.w3.org/TR/2001/REC-SVG-20010904/DTD/svg10.dtd">
<svg version="1.0" xmlns="http://www.w3.org/2000/svg"
 width="728.000000pt" height="996.000000pt" viewBox="0 0 728.000000 996.000000"
 preserveAspectRatio="xMidYMid meet">

<g transform="translate(0.000000,996.000000) scale(0.100000,-0.100000)"
fill="#000000" stroke="none">
<path d="M3775 9034 c-27 -8 -95 -19 -150 -25 -55 -6 -140 -21 -190 -34 -49
-13 -114 -27 -143 -30 -34 -5 -64 -16 -85 -33 -109 -87 -199 -200 -224 -280
-27 -88 -19 -480 13 -644 9 -46 -23 -35 -81 27 -42 45 -57 55 -84 55 -18 0
-46 -9 -62 -21 -47 -33 -67 -84 -79 -205 -13 -124 -31 -199 -66 -264 -27 -50
-30 -97 -12 -166 11 -40 10 -49 -6 -77 -10 -18 -47 -88 -81 -157 -34 -69 -76
-148 -92 -175 -28 -48 -79 -174 -163 -406 -21 -58 -43 -141 -49 -185 -6 -43
-23 -164 -37 -269 -14 -104 -30 -239 -34 -300 -5 -60 -14 -155 -20 -210 -22
-211 -91 -1099 -99 -1280 -4 -104 -8 -345 -10 -535 -1 -228 -7 -377 -16 -440
-7 -52 -16 -129 -20 -170 -4 -41 -20 -156 -36 -255 -17 -99 -32 -216 -33 -260
-3 -48 -10 -92 -20 -110 -9 -16 -16 -53 -16 -82 0 -29 -18 -161 -40 -295 -22
-134 -42 -256 -45 -273 -6 -36 2 -50 33 -59 12 -4 29 -20 37 -36 17 -32 14
-48 -30 -235 -18 -73 -27 -143 -28 -208 -2 -96 -1 -99 26 -122 40 -35 85 -45
252 -55 272 -16 439 -32 485 -45 25 -7 123 -16 219 -19 155 -5 177 -8 195 -25
32 -30 94 -36 175 -16 47 11 86 15 118 10 27 -3 89 -7 138 -9 58 -1 115 -10
160 -24 86 -27 127 -27 184 -2 87 40 187 54 516 75 119 8 134 3 233 -71 168
-126 300 -174 481 -174 98 0 140 11 190 48 42 31 61 76 61 146 0 72 -10 97
-76 183 -31 40 -69 105 -86 145 -17 40 -55 108 -85 150 -70 100 -105 197 -111
309 -4 89 -5 86 44 128 27 23 14 174 -25 281 -34 95 -87 277 -131 450 -16 63
-36 135 -45 160 -27 75 -43 155 -74 370 -17 113 -42 282 -57 375 -21 136 -27
219 -31 413 -4 168 -2 242 5 242 6 0 52 -38 102 -85 101 -95 114 -99 198 -67
107 41 145 122 182 394 12 83 24 156 26 160 8 13 33 9 102 -14 58 -19 71 -20
130 -10 84 14 188 65 206 100 39 76 48 408 16 572 -17 89 -22 171 -30 545 -13
568 -23 740 -54 896 -22 109 -76 278 -107 332 -5 10 -14 37 -18 60 -5 23 -15
63 -22 89 -11 41 -11 57 4 120 30 127 25 141 -56 183 -68 34 -122 107 -207
278 -61 123 -79 168 -75 188 4 15 -2 47 -15 78 -11 28 -20 67 -20 86 0 32 3
35 29 35 33 0 46 13 55 57 9 37 -1 45 -64 53 l-45 5 -6 48 c-6 52 -19 67 -61
67 -28 0 -28 0 -28 -70 0 -55 -3 -70 -15 -70 -26 0 -63 -22 -68 -40 -7 -27 4
-37 52 -45 l43 -7 -6 -51 c-4 -27 -14 -62 -22 -76 -23 -41 -30 -54 -50 -93
-10 -20 -41 -75 -67 -123 -27 -47 -57 -108 -67 -134 -10 -27 -40 -82 -68 -123
-61 -87 -82 -135 -82 -183 0 -46 14 -72 59 -112 l36 -31 -25 -49 c-18 -34 -41
-59 -82 -86 -34 -22 -58 -45 -58 -55 0 -35 20 -86 45 -112 l25 -27 -9 -179
c-6 -98 -13 -189 -17 -201 -3 -13 -22 -32 -40 -44 -42 -25 -42 -39 -5 -99 23
-38 61 -135 61 -158 0 -2 -10 -2 -22 0 -38 5 -199 245 -259 386 -15 37 -51
125 -79 197 -28 71 -72 164 -98 205 -76 121 -67 152 95 338 45 51 63 80 61 95
-2 16 -28 36 -93 73 -83 48 -136 99 -117 115 4 3 29 12 56 19 63 17 80 46 95
163 7 51 19 116 27 146 12 42 13 67 5 119 -8 54 -7 79 10 149 25 108 35 126
95 171 71 54 96 109 97 218 0 70 -4 90 -20 112 -30 41 -131 120 -193 151 -135
69 -231 84 -335 55z m190 -39 c117 -31 254 -114 294 -178 54 -88 21 -244 -62
-288 -15 -9 -17 -7 -11 15 4 16 2 26 -5 26 -21 0 -11 19 12 22 14 2 23 11 25
26 l3 22 -67 -25 c-136 -51 -368 -95 -505 -95 -88 0 -109 -15 -179 -129 -73
-118 -81 -124 -259 -157 -108 -19 -129 -27 -148 -49 -13 -14 -23 -37 -23 -51
0 -13 -5 -24 -11 -24 -18 0 -4 78 18 102 20 23 94 62 168 90 l50 18 -55 -6
c-30 -3 -75 -14 -99 -25 -24 -10 -46 -17 -48 -15 -8 7 77 57 131 77 50 19 50
19 11 13 -21 -3 -68 -19 -103 -35 -36 -16 -66 -29 -67 -29 -2 0 5 18 16 40 22
46 91 90 181 118 65 19 79 35 21 21 -56 -12 -123 -37 -161 -59 -18 -11 -38
-20 -44 -20 -22 0 17 32 86 70 81 45 69 52 -23 14 -35 -14 -65 -23 -68 -20 -5
5 16 19 97 65 64 36 59 38 -29 11 -35 -11 -66 -18 -68 -16 -3 2 28 23 69 46
60 34 67 40 38 34 -19 -3 -47 -13 -62 -20 -31 -16 -38 -17 -38 -6 0 4 29 25
65 46 36 21 64 40 62 43 -3 2 -29 -5 -58 -17 -30 -11 -58 -20 -63 -20 -15 0
44 42 108 77 68 36 55 45 -18 12 -89 -39 -69 -13 30 40 85 45 92 56 22 35 -10
-3 -18 -1 -18 5 0 19 43 39 145 66 98 26 182 61 172 72 -3 3 -41 -7 -84 -21
-43 -14 -109 -35 -147 -45 -115 -32 -56 2 84 49 101 34 149 44 245 52 66 6
154 16 195 23 103 17 108 17 175 0z m175 -450 c0 -14 -4 -25 -10 -25 -5 0 -10
11 -10 25 0 14 5 25 10 25 6 0 10 -11 10 -25z m-90 -45 c0 -16 0 -33 1 -37 0
-5 -10 -10 -23 -14 -31 -7 -28 -30 21 -163 23 -60 41 -122 41 -137 0 -28 -2
-29 -48 -29 -27 0 -57 6 -68 15 -25 19 -54 19 -54 -1 0 -30 21 -54 48 -55 42
0 97 -23 97 -39 0 -20 -68 -30 -113 -18 -28 8 -37 7 -44 -6 -5 -9 -15 -13 -25
-9 -14 6 -14 3 3 -19 18 -25 23 -26 82 -21 63 6 77 -2 47 -27 -12 -10 -21 -10
-41 -1 -32 14 -34 14 -34 -4 0 -15 20 -22 75 -27 25 -3 31 -8 33 -31 5 -39
-22 -77 -54 -77 -36 0 -89 24 -106 49 -15 21 -15 21 -33 1 -23 -25 -32 -25
-86 0 -60 27 -72 38 -113 100 -44 67 -46 53 -6 -43 30 -69 33 -73 86 -96 64
-28 94 -62 74 -86 -15 -18 -86 -39 -106 -31 -8 3 -21 3 -29 0 -18 -7 -20 -31
-3 -36 6 -2 8 -10 4 -16 -9 -15 -136 114 -192 194 -20 28 -46 57 -60 64 -25
14 -32 30 -14 30 6 0 24 -7 40 -15 37 -19 38 -10 3 27 -32 33 -27 44 13 24 40
-22 44 -9 6 20 -42 33 -41 47 3 28 40 -17 45 -17 45 -5 0 5 -18 24 -40 41 -36
29 -43 31 -72 21 -26 -9 -33 -8 -44 7 -12 15 -13 13 -14 -22 0 -47 -9 -41 -32
22 l-18 47 6 -45 c8 -56 19 -79 53 -107 38 -31 18 -40 -32 -13 -62 34 -66 38
-72 79 -14 86 -17 90 -29 41 -17 -65 -40 -60 -44 9 -5 90 -1 96 70 109 35 7
86 15 114 18 58 7 81 29 103 97 7 21 15 36 17 34 3 -2 7 -31 10 -63 5 -53 3
-63 -20 -93 -38 -51 -35 -96 7 -121 17 -11 43 -20 57 -20 25 0 25 0 -5 18 -16
11 -36 26 -44 35 -12 15 -11 17 12 17 21 0 24 4 19 22 -5 19 -2 21 27 15 29
-6 32 -5 26 13 -7 23 -2 24 26 10 12 -7 19 -7 19 -1 0 16 -22 25 -52 23 -33
-3 -40 27 -8 35 19 5 50 81 50 124 0 9 7 22 15 29 15 13 21 40 8 40 -11 0 -43
-33 -43 -45 0 -21 -22 -36 -37 -24 -10 9 -13 5 -13 -19 0 -38 -9 -64 -21 -56
-12 7 -11 76 1 108 6 16 26 33 55 46 25 11 45 25 45 30 0 15 30 12 36 -3 4
-11 19 -10 77 5 64 16 272 55 305 57 7 1 12 -11 12 -29z m4 -66 c18 -7 12 -24
-10 -24 -8 0 -14 7 -14 15 0 17 2 18 24 9z m820 -10 c10 -4 16 -18 16 -39 0
-32 3 -34 43 -42 54 -11 56 -34 2 -45 -49 -11 -55 -20 -55 -85 0 -66 -17 -69
-25 -5 -3 26 -7 54 -8 62 -1 9 -16 17 -36 20 -42 6 -52 27 -16 36 28 7 45 38
45 80 0 25 7 28 34 18z m-754 -34 c0 -5 -4 -10 -10 -10 -5 0 -10 5 -10 10 0 6
5 10 10 10 6 0 10 -4 10 -10z m-962 -255 c4 -62 -5 -105 -19 -84 -14 23 -12
142 4 137 7 -3 13 -26 15 -53z m-58 -11 c0 -8 -5 -12 -10 -9 -6 4 -8 11 -5 16
9 14 15 11 15 -7z m1820 -24 c0 -23 -80 -26 -88 -2 -2 8 10 12 42 12 25 0 46
-4 46 -10z m-9 -92 c32 -35 104 -175 144 -282 26 -68 24 -76 -22 -90 -26 -8
-29 1 -8 28 23 30 18 45 -22 83 -31 30 -35 38 -25 54 16 25 -3 26 -30 2 -27
-25 -22 -49 17 -72 40 -23 49 -61 15 -61 -25 0 -26 -15 -2 -25 35 -16 -49 -23
-159 -14 -130 10 -153 20 -146 57 31 156 136 352 188 352 11 0 34 -15 50 -32z
m-174 -86 c-23 -45 -45 -82 -49 -82 -4 0 -5 8 -1 18 10 27 84 154 88 150 2 -2
-15 -41 -38 -86z m-1929 -19 l-3 -98 50 -89 c80 -142 168 -221 500 -450 321
-220 505 -402 637 -628 75 -128 159 -358 131 -358 -14 0 -53 87 -53 120 0 35
-28 110 -41 110 -5 0 -9 13 -9 28 0 28 -47 112 -63 112 -5 0 -7 -7 -3 -15 3
-8 1 -15 -4 -15 -6 0 -10 -10 -10 -22 0 -16 -10 -7 -37 36 -33 53 -35 62 -25
89 10 26 9 36 -6 61 -16 26 -24 31 -53 28 -27 -2 -41 4 -59 23 -24 26 -54 33
-65 15 -4 -6 5 -31 20 -55 32 -56 17 -59 -26 -5 -18 22 -35 38 -37 35 -3 -2
11 -26 32 -51 37 -48 44 -77 26 -104 -9 -13 -14 -11 -35 13 -14 15 -25 37 -25
48 0 23 -66 91 -112 115 -18 9 -71 42 -118 72 -143 93 -341 216 -420 262 -122
71 -251 160 -283 196 -84 96 -86 107 -37 210 18 38 36 79 41 92 7 18 39 33 39
18 0 -2 3 -12 6 -20 5 -12 2 -15 -10 -10 -29 11 -4 -32 58 -101 31 -36 54 -65
50 -65 -4 0 -34 26 -67 57 -39 37 -62 53 -65 44 -2 -7 1 -18 7 -24 18 -18 12
-28 -10 -16 -20 10 -21 9 -14 -23 4 -21 24 -50 56 -81 27 -27 49 -50 49 -53 0
-14 -25 2 -74 47 -31 28 -56 45 -56 37 0 -8 6 -20 12 -26 10 -10 10 -14 0 -21
-9 -5 3 -22 41 -58 79 -75 151 -106 159 -67 2 12 14 8 53 -20 27 -20 57 -36
65 -36 8 0 35 -12 59 -25 52 -30 66 -27 22 5 -27 19 -46 61 -21 45 6 -3 10 -3
10 2 0 4 -16 19 -36 33 -36 24 -71 66 -62 75 3 3 31 -13 63 -36 32 -22 70 -48
84 -57 26 -16 26 -16 8 5 -16 18 -16 21 -2 26 27 11 17 30 -12 24 -33 -6 -68
11 -107 52 -32 34 -29 56 4 26 11 -10 22 -16 25 -13 5 5 -21 30 -149 147 -26
24 -67 74 -92 110 -43 65 -44 70 -50 161 -5 84 -3 99 15 128 11 17 23 32 26
32 3 0 4 -44 3 -97z m446 42 c76 -33 93 -46 232 -183 100 -98 169 -176 208
-233 57 -86 58 -88 64 -174 3 -60 2 -86 -5 -82 -6 4 -14 24 -18 44 -14 79 -37
144 -62 173 -21 25 -32 30 -71 30 l-47 0 -52 108 c-29 59 -69 125 -90 147 -46
48 -150 130 -215 168 -27 15 -48 30 -48 32 0 11 25 3 104 -30z m-304 -10 c26
-19 29 -25 15 -25 -19 0 -55 27 -55 42 0 12 2 11 40 -17z m-50 -25 c0 -5 -2
-10 -4 -10 -3 0 -8 5 -11 10 -3 6 -1 10 4 10 6 0 11 -4 11 -10z m342 -37 c43
-26 76 -49 74 -51 -3 -2 -14 2 -26 8 -47 25 -28 0 32 -43 82 -59 102 -82 104
-118 l2 -29 -32 20 c-33 22 -162 90 -171 90 -19 0 2 -21 44 -44 27 -14 87 -56
133 -93 46 -36 85 -68 87 -70 2 -2 2 -5 -1 -8 -3 -3 -34 17 -69 43 -35 27 -80
57 -99 67 l-35 17 45 -46 c48 -50 161 -127 253 -172 40 -20 57 -34 57 -48 0
-18 -1 -18 -18 -3 -10 9 -57 34 -104 56 -64 30 -113 63 -194 134 -60 51 -115
102 -123 111 -8 10 -41 31 -73 47 -32 16 -58 32 -58 36 0 3 10 32 23 64 15 41
27 59 40 59 9 0 17 5 17 10 0 17 11 12 92 -37z m1448 -52 c0 -5 -6 -14 -14
-20 -12 -10 -13 -8 -9 8 5 21 23 30 23 12z m-1743 -25 c31 -27 27 -44 -6 -27
-23 13 -47 51 -32 51 5 0 23 -11 38 -24z m1704 -99 c-17 -17 -22 -2 -9 29 11
28 12 29 16 5 2 -13 -1 -28 -7 -34z m-1584 10 c52 -19 309 -267 276 -267 -4 0
-39 25 -77 55 -38 31 -71 53 -74 50 -3 -2 17 -30 44 -62 39 -46 43 -53 19 -36
-16 12 -50 42 -75 68 -25 26 -73 65 -107 87 -62 39 -83 66 -43 53 11 -3 20 -2
20 3 0 5 -9 17 -20 27 -38 34 -22 43 37 22z m130 -46 c26 -21 77 -64 113 -96
36 -31 85 -68 110 -82 132 -75 230 -135 236 -144 14 -23 -6 -18 -57 12 -30 17
-83 46 -119 63 -102 50 -138 76 -250 184 -106 102 -123 135 -33 63z m721 7
c17 -13 48 -36 70 -53 22 -16 54 -38 71 -47 17 -9 31 -24 31 -32 0 -9 -35 -56
-77 -104 -43 -49 -92 -106 -108 -127 -28 -35 -32 -37 -53 -24 -22 14 -30 39
-12 39 6 0 19 9 30 20 19 19 19 20 0 30 -25 13 -30 13 -30 -5 0 -8 -4 -15 -9
-15 -14 0 -29 149 -15 162 3 3 26 -1 51 -8 54 -16 77 -18 68 -4 -3 5 -29 17
-58 25 -29 8 -59 19 -67 25 -24 15 -3 23 31 11 18 -6 48 -11 68 -10 l36 1 -37
10 c-20 5 -45 19 -55 30 -18 21 -18 21 7 14 58 -17 63 -16 28 6 -41 25 -51 43
-18 33 23 -7 28 10 5 19 -8 3 -15 10 -15 16 0 17 25 11 58 -12z m1224 -55 c2
-21 15 -32 61 -55 52 -27 57 -32 57 -62 0 -24 -7 -38 -30 -54 -16 -12 -31 -22
-34 -22 -2 0 -10 15 -17 33 l-13 32 -4 -35 c-4 -37 -19 -63 -32 -55 -4 3 -11
21 -14 40 -9 46 -22 45 -31 -2 l-7 -38 -18 23 c-22 27 -30 28 -30 2 0 -27 -16
-25 -31 2 l-12 22 -15 -22 c-19 -28 -26 -28 -40 3 -6 14 -16 25 -21 25 -5 0
-12 -11 -15 -25 -4 -14 -10 -25 -15 -25 -4 0 -13 11 -19 25 -15 32 -28 32 -36
-1 -9 -35 -30 -25 -36 17 l-5 34 -20 -33 c-24 -40 -40 -36 -40 11 0 48 -11 47
-26 -3 -7 -22 -16 -40 -21 -40 -11 0 -10 97 1 105 5 3 45 8 88 11 199 13 294
24 325 39 l33 15 -35 -5 c-141 -20 -269 -23 -354 -9 -92 16 -146 36 -146 55 0
7 14 9 38 6 213 -31 356 -32 422 -4 19 9 47 16 62 16 22 1 27 -4 30 -26z
m-2091 -31 c24 -16 51 -37 59 -47 12 -15 7 -14 -28 6 -52 29 -101 68 -86 69 5
0 30 -13 55 -28z m-171 -37 c7 -8 8 -15 2 -15 -5 0 -15 7 -22 15 -7 8 -8 15
-2 15 5 0 15 -7 22 -15z m1650 -66 c0 -31 -4 -48 -10 -44 -17 11 -12 95 7 95
2 0 3 -23 3 -51z m106 3 c-12 -11 -18 7 -10 30 l8 23 4 -23 c2 -13 1 -26 -2
-30z m-59 1 c-3 -10 -5 -4 -5 12 0 17 2 24 5 18 2 -7 2 -21 0 -30z m-1733 -8
c38 -22 45 -24 56 -10 22 26 40 18 40 -19 0 -22 9 -45 25 -64 24 -28 32 -52
19 -52 -3 0 -19 11 -36 25 -34 29 -41 30 -58 10 -23 -28 -42 -18 -35 18 6 30
2 38 -29 68 -57 53 -49 63 18 24z m366 -35 c0 -14 -14 -12 -28 2 -19 19 -14
30 8 18 11 -6 20 -15 20 -20z m-420 -54 c7 -9 8 -16 3 -16 -14 0 -53 30 -53
41 0 12 32 -4 50 -25z m619 -16 c46 -5 91 -16 100 -23 9 -8 42 -28 73 -46 102
-57 151 -121 93 -121 -14 0 -25 -4 -25 -10 0 -19 -17 -10 -29 16 -9 21 -14 24
-26 14 -12 -10 -17 -7 -27 14 -6 15 -17 25 -24 22 -13 -5 -38 19 -46 44 -4 11
-8 9 -17 -9 l-13 -23 -24 38 c-15 25 -23 33 -24 22 0 -26 -15 -22 -35 8 -13
21 -19 23 -31 13 -10 -8 -18 -9 -22 -3 -4 5 -19 15 -34 21 -16 7 -28 17 -28
23 0 12 31 13 139 0z m1275 -178 c8 -111 20 -193 43 -272 12 -43 17 -51 23
-35 5 14 17 -14 45 -100 21 -66 49 -142 62 -169 45 -90 137 -398 212 -706 16
-69 44 -174 61 -235 18 -60 36 -128 42 -150 12 -47 5 -137 -13 -180 -12 -29
-13 -27 -21 45 -4 41 -21 113 -37 160 -26 76 -127 397 -241 768 -22 74 -63
189 -89 256 -54 134 -103 295 -121 396 -14 77 -19 309 -7 328 20 30 35 -10 41
-106z m179 25 c20 -48 52 -109 71 -136 49 -67 73 -123 150 -358 71 -218 104
-378 150 -723 31 -230 48 -283 42 -125 -3 76 -2 99 4 74 12 -47 59 -484 63
-569 l2 -65 -31 -3 c-60 -6 -68 23 -89 333 -41 617 -88 881 -189 1070 -44 82
-93 204 -187 470 -24 68 -38 138 -25 124 2 -2 20 -43 39 -92z m-277 5 c-12
-11 -18 7 -10 30 l8 23 4 -23 c2 -13 1 -26 -2 -30z m-719 12 c-3 -3 -12 -4
-19 -1 -8 3 -5 6 6 6 11 1 17 -2 13 -5z m-1122 -24 c3 -5 2 -10 -4 -10 -5 0
-13 5 -16 10 -3 6 -2 10 4 10 5 0 13 -4 16 -10z m-88 -6 c-3 -3 -12 -4 -19 -1
-8 3 -5 6 6 6 11 1 17 -2 13 -5z m-19 -43 c3 -8 -1 -12 -9 -9 -7 2 -15 10 -17
17 -3 8 1 12 9 9 7 -2 15 -10 17 -17z m352 -21 c0 -5 -4 -10 -10 -10 -5 0 -10
5 -10 10 0 6 5 10 10 10 6 0 10 -4 10 -10z m1590 1 c0 -12 -77 -21 -114 -14
-26 6 -28 7 -11 14 28 11 125 11 125 0z m-872 -23 c18 -18 15 -38 -6 -38 -21
0 -42 18 -42 37 0 16 32 17 48 1z m97 -60 c35 -78 41 -108 21 -108 -19 0 -50
63 -61 123 -11 55 12 47 40 -15z m101 -33 c25 -52 30 -90 15 -99 -5 -3 -13 0
-18 7 -15 18 -63 145 -63 164 0 28 40 -15 66 -72z m-982 38 c-120 -277 -167
-431 -198 -653 -36 -250 -41 -347 -39 -750 1 -607 0 -569 19 -597 16 -26 12
-34 -20 -46 -5 -2 -1 -18 10 -35 15 -26 16 -35 6 -41 -10 -6 -11 -13 -1 -34 9
-21 9 -30 -1 -42 -8 -10 -9 -19 -2 -27 16 -20 26 -62 13 -54 -8 5 -9 -11 -5
-56 3 -35 7 -81 8 -103 2 -23 8 -51 15 -63 9 -17 10 -27 1 -37 -8 -10 -8 -19
2 -36 10 -17 10 -23 1 -26 -15 -6 -17 -39 -3 -48 6 -3 10 -13 10 -21 0 -8 -4
-13 -9 -9 -15 9 -6 -92 9 -110 12 -14 12 -18 -1 -26 -8 -5 -18 -9 -23 -9 -5 0
1 -12 15 -26 23 -25 23 -26 5 -39 -18 -14 -18 -15 -1 -41 13 -20 14 -28 5 -34
-9 -6 -9 -13 1 -31 16 -29 19 -79 6 -96 -6 -9 -4 -21 6 -36 14 -21 13 -25 -1
-35 -13 -9 -14 -14 -4 -18 17 -8 15 -25 -5 -40 -17 -12 -16 -15 11 -43 28 -30
29 -31 8 -31 -26 0 -29 -25 -5 -39 15 -8 15 -11 4 -25 -12 -14 -12 -21 0 -42
11 -21 11 -27 -1 -34 -11 -7 -11 -14 0 -39 7 -17 10 -38 6 -46 -3 -9 0 -25 7
-37 9 -16 9 -22 0 -25 -18 -6 -16 -28 2 -43 8 -7 15 -16 15 -21 0 -5 -7 -9
-15 -9 -18 0 -18 -5 -4 -31 7 -15 7 -24 -1 -35 -10 -11 -9 -19 3 -38 18 -26
13 -36 -16 -36 -19 0 -19 -1 -2 -20 16 -18 17 -28 6 -108 -14 -109 -13 -206 2
-339 12 -101 6 -167 -12 -133 -25 47 -36 259 -46 920 -5 320 -29 1027 -40
1165 -2 33 -7 294 -11 580 -7 540 2 815 32 980 30 166 30 173 0 184 -32 13
-33 24 -5 43 20 12 20 16 8 37 -12 19 -12 23 4 32 12 7 15 17 11 35 -6 22 -3
24 25 24 25 0 31 4 31 23 0 31 71 237 113 330 23 48 42 77 52 77 14 0 14 -4
-1 -37z m1666 18 c0 -18 -94 -29 -104 -12 -4 5 0 12 6 14 22 9 98 7 98 -2z
m-1503 -51 c-5 -39 -5 -39 18 -24 31 20 36 8 17 -50 -15 -46 -14 -57 11 -215
15 -91 39 -283 52 -426 29 -302 36 -344 75 -485 61 -216 104 -528 136 -970 34
-463 39 -729 25 -1183 -15 -460 -25 -603 -55 -782 -14 -77 -29 -219 -36 -315
-6 -96 -18 -238 -26 -315 -17 -155 -77 -483 -94 -514 -13 -24 -41 -41 -69 -41
-18 0 -21 6 -21 43 0 23 7 89 16 147 15 107 32 520 21 509 -4 -3 -18 -144 -33
-315 -28 -340 -39 -407 -67 -412 -31 -6 -50 18 -44 58 3 19 21 145 41 280 27
189 40 328 56 605 11 198 25 441 30 540 6 99 13 288 15 420 l4 240 -14 -131
c-7 -73 -18 -242 -25 -375 -19 -423 -111 -1225 -161 -1412 l-10 -38 -47 7
c-57 8 -56 7 -43 32 12 23 44 160 66 288 23 132 92 836 115 1169 11 160 27
535 35 835 8 300 20 624 25 720 13 205 10 629 -3 648 -5 6 -7 25 -4 41 3 16 1
33 -6 40 -9 9 -9 16 1 32 7 11 9 25 5 32 -4 7 -9 48 -10 92 -7 210 -58 887
-65 845 -3 -25 -7 -81 -7 -126 -1 -50 -6 -87 -14 -99 -12 -15 -12 -23 1 -47
11 -22 13 -55 9 -137 -4 -72 -2 -112 6 -120 7 -7 5 -16 -8 -31 -18 -20 -18
-21 5 -45 18 -20 21 -28 12 -37 -7 -7 -12 -22 -12 -34 0 -13 -5 -26 -10 -29
-8 -5 -7 -12 2 -22 7 -9 13 -26 14 -37 1 -12 4 -28 8 -38 5 -12 1 -18 -15 -23
l-23 -8 27 -19 c23 -17 26 -23 15 -36 -10 -12 -10 -16 0 -19 19 -7 14 -29 -10
-41 l-23 -11 23 -7 c28 -8 30 -44 2 -44 -11 0 -20 -4 -20 -9 0 -5 9 -13 20
-16 11 -3 20 -11 20 -16 0 -5 0 -12 1 -16 0 -5 -10 -11 -23 -14 -22 -6 -22 -7
-3 -14 39 -16 41 -45 4 -45 -10 0 -19 -4 -19 -10 0 -5 6 -10 14 -10 7 0 19 -6
25 -14 10 -12 7 -17 -15 -29 -27 -14 -27 -15 -6 -21 28 -9 29 -36 2 -36 -26 0
-25 -14 3 -34 22 -15 22 -16 3 -31 -16 -12 -17 -15 -4 -15 17 0 31 -24 21 -34
-4 -3 -15 -6 -25 -6 -24 0 -23 -17 2 -30 11 -6 20 -17 20 -24 0 -8 -9 -16 -20
-19 -11 -3 -20 -10 -20 -15 0 -6 9 -14 20 -17 29 -9 25 -35 -5 -35 -34 0 -31
-13 5 -27 44 -16 37 -33 -14 -33 l-43 0 -7 48 c-4 26 -11 299 -16 607 -5 308
-9 562 -10 565 -5 11 -18 -99 -19 -156 -1 -65 -10 -77 -46 -64 -46 18 -69 70
-29 70 19 0 18 19 -1 26 -20 8 -19 41 1 52 11 6 13 11 5 16 -6 4 -11 30 -11
57 l0 50 49 -7 c45 -6 49 -5 54 17 9 34 8 156 -1 142 -6 -10 -16 -8 -42 5 -33
16 -35 20 -34 64 0 26 3 51 7 54 3 4 20 1 37 -6 21 -9 30 -19 30 -36 0 -12 4
-25 9 -28 10 -6 17 29 26 134 8 93 26 203 35 220 9 15 15 -1 23 -60 2 -14 7
16 11 65 8 87 31 165 50 165 5 0 6 -18 3 -40z m-79 13 c7 -11 4 -33 -8 -67 -9
-28 -23 -81 -29 -117 -7 -36 -16 -71 -21 -79 -10 -16 -60 -5 -60 13 0 25 40
157 64 211 26 58 39 67 54 39z m992 -158 c29 -85 54 -155 57 -155 3 0 3 18 0
40 -10 79 31 12 69 -110 29 -93 29 -90 0 -90 -32 0 -43 18 -21 34 16 11 14 14
-15 26 l-33 14 21 17 c22 17 22 17 -18 33 -42 17 -40 12 -80 171 -11 44 -26
101 -34 128 -8 26 -11 47 -7 47 5 0 32 -70 61 -155z m570 125 c0 -5 -13 -10
-30 -10 -16 0 -30 5 -30 10 0 6 14 10 30 10 17 0 30 -4 30 -10z m-2000 -4 c0
-11 -19 -15 -25 -6 -3 5 1 10 9 10 9 0 16 -2 16 -4z m110 0 c0 -3 -4 -8 -10
-11 -5 -3 -10 -1 -10 4 0 6 5 11 10 11 6 0 10 -2 10 -4z m558 -46 c16 -15 22
-32 22 -63 0 -79 21 -187 184 -947 35 -162 78 -365 95 -450 17 -85 42 -195 54
-245 21 -88 22 -105 22 -655 -1 -395 -5 -597 -14 -670 -13 -114 -29 -188 -41
-195 -4 -2 -6 201 -4 453 3 491 -6 471 -26 -58 -22 -598 -30 -768 -40 -875
-10 -101 -82 -430 -101 -465 -15 -26 -10 68 10 205 22 147 36 346 51 745 22
548 27 825 17 838 -5 7 -7 28 -4 46 4 24 1 39 -9 47 -26 21 -16 39 21 39 19 0
35 4 35 8 0 5 -16 17 -35 28 -48 25 -47 52 3 56 l37 3 -42 28 c-43 27 -61 66
-25 52 27 -11 82 -18 82 -11 0 3 -25 20 -55 37 -30 17 -55 38 -55 46 0 16 14
15 79 -3 39 -12 16 13 -34 35 l-45 20 0 60 c0 34 1 61 3 61 2 0 24 -7 50 -16
59 -20 83 -13 39 12 -80 46 -92 54 -92 68 0 12 6 12 47 0 83 -25 82 -11 -3 37
-55 31 -73 57 -31 45 12 -4 40 -9 62 -12 l40 -5 -24 21 c-13 11 -43 25 -67 31
-24 6 -44 15 -44 19 0 5 -12 77 -26 162 -27 161 -49 260 -89 393 -42 136 -63
261 -85 495 -11 124 -27 279 -35 345 -25 199 -18 255 28 255 13 0 33 -9 45
-20z m-698 -12 c0 -13 -32 -6 -37 9 -3 7 3 9 16 6 12 -3 21 -10 21 -15z m110
7 c7 -9 11 -18 8 -21 -8 -7 -58 14 -58 26 0 15 36 12 50 -5z m1915 -6 c-8 -12
-45 -12 -45 0 0 10 30 20 43 14 4 -3 5 -9 2 -14z m-1232 -42 c12 -27 22 -35
66 -46 67 -17 78 -35 107 -169 31 -146 74 -285 130 -422 45 -112 47 -118 55
-264 5 -82 10 -151 13 -153 2 -2 7 56 10 129 8 148 8 149 -62 298 -42 90 -80
227 -111 403 -13 74 -15 107 -7 104 13 -4 29 -35 88 -167 24 -52 86 -174 138
-270 87 -162 94 -179 92 -225 -1 -27 -4 -378 -6 -780 -5 -839 -4 -817 -16
-790 -5 11 -16 130 -25 265 -27 386 -34 378 -29 -30 5 -350 3 -393 -21 -639
-33 -337 -66 -528 -159 -931 -111 -478 -241 -998 -252 -1009 -8 -9 -4 60 11
161 8 57 21 159 29 228 8 69 28 184 45 255 36 146 81 391 111 600 23 158 41
227 76 297 24 48 25 52 35 486 6 240 9 536 6 657 l-5 220 -50 215 c-68 288
-127 569 -152 712 -11 65 -33 168 -49 230 -54 205 -116 603 -101 643 12 33 17
32 33 -8z m-813 -8 c0 -5 -9 -9 -20 -9 -19 0 -27 20 -13 33 7 8 33 -11 33 -24z
m117 -25 c-10 -10 -48 27 -41 38 4 6 16 1 27 -11 12 -11 18 -24 14 -27z m1923
31 c0 -10 -41 -25 -52 -19 -8 5 -5 10 8 15 22 9 44 11 44 4z m-610 -20 c0 -8
-9 -15 -20 -15 -22 0 -27 15 -7 23 21 9 27 7 27 -8z m-1520 -20 c0 -8 -4 -23
-9 -33 -22 -44 -79 -209 -88 -257 -3 -16 -10 -35 -14 -41 -5 -6 -7 -19 -3 -28
3 -9 1 -23 -6 -32 -10 -10 -10 -18 -2 -26 6 -6 9 -16 7 -22 -2 -6 -6 -23 -9
-38 -4 -19 -13 -28 -26 -28 -25 0 -25 -5 0 -30 22 -22 19 -43 -5 -33 -17 6
-21 -12 -5 -22 16 -10 12 -45 -5 -45 -20 0 -19 -10 2 -25 15 -11 15 -13 -6
-24 -21 -12 -22 -14 -6 -31 11 -12 15 -31 13 -57 -3 -33 -6 -38 -25 -35 -13 2
-23 -1 -23 -6 0 -5 10 -17 23 -26 12 -9 18 -19 12 -22 -37 -17 -40 -22 -22
-42 18 -20 14 -34 -9 -25 -19 7 -18 -24 2 -45 15 -14 15 -17 -2 -29 -18 -13
-18 -15 -1 -24 23 -14 22 -39 -3 -39 -24 0 -26 -13 -4 -31 14 -12 14 -14 -5
-21 -27 -9 -27 -28 -1 -35 25 -7 25 -12 3 -29 -15 -11 -16 -16 -5 -33 19 -32
15 -43 -15 -39 -28 3 -28 4 -30 81 -1 42 2 77 7 77 4 0 11 37 15 83 24 302 75
610 126 769 30 95 100 258 110 258 5 0 9 -7 9 -15z m260 -16 c0 -5 -7 -9 -15
-9 -15 0 -20 12 -9 23 8 8 24 -1 24 -14z m-206 5 c20 -8 21 -24 1 -24 -17 0
-20 -25 -5 -35 17 -10 11 -25 -9 -25 -28 0 -34 15 -21 55 13 38 12 38 34 29z
m121 -7 c11 -9 14 -16 8 -20 -6 -4 -22 2 -34 13 -18 14 -20 19 -8 20 8 0 23
-6 34 -13z m1950 3 c4 -6 -5 -10 -19 -10 -14 0 -26 5 -26 10 0 6 9 10 19 10
11 0 23 -4 26 -10z m-590 -10 c-3 -5 -10 -10 -16 -10 -5 0 -9 5 -9 10 0 6 7
10 16 10 8 0 12 -4 9 -10z m-1295 -40 c0 -5 -4 -10 -10 -10 -5 0 -10 5 -10 10
0 6 5 10 10 10 6 0 10 -4 10 -10z m2015 -103 c16 -53 26 -100 22 -103 -3 -4
-17 -4 -30 0 -17 4 -26 15 -31 37 -9 47 -7 185 2 174 5 -6 22 -54 37 -108z
m-2095 88 c7 -9 10 -18 7 -21 -7 -8 -47 14 -47 26 0 15 26 12 40 -5z m1960 -5
c0 -5 -9 -10 -20 -10 -11 0 -20 5 -20 10 0 6 9 10 20 10 11 0 20 -4 20 -10z
m-764 -11 c3 -6 17 -8 31 -4 23 5 25 4 19 -18 -3 -14 1 -41 10 -62 18 -44 13
-53 -18 -31 -12 9 -32 16 -43 16 -18 0 -20 6 -20 55 0 53 6 67 21 44z m-1118
-35 c-10 -10 -28 6 -28 24 0 15 1 15 17 -1 9 -9 14 -19 11 -23z m257 14 c25
-11 26 -15 20 -56 -12 -80 -17 -84 -59 -51 -34 27 -33 39 4 39 17 0 30 5 30
10 0 6 -9 10 -20 10 -16 0 -20 7 -20 30 0 33 7 36 45 18z m-467 -21 c2 -12 -3
-17 -19 -17 l-22 0 22 -24 c23 -24 21 -60 -2 -37 -15 15 -27 14 -27 -3 0 -8 7
-16 15 -20 21 -8 19 -26 -3 -26 -32 0 -41 18 -30 58 22 80 57 116 66 69z m108
9 c10 -8 16 -17 12 -21 -11 -11 -48 5 -48 21 0 18 11 18 36 0z m1989 -16 c4
-6 -5 -10 -19 -10 -14 0 -26 5 -26 10 0 6 9 10 19 10 11 0 23 -4 26 -10z
m-1905 -26 c0 -14 -3 -14 -15 -4 -8 7 -15 14 -15 16 0 2 7 4 15 4 8 0 15 -7
15 -16z m-80 -36 c0 -17 -20 -16 -41 0 -31 26 -16 48 16 25 14 -10 25 -21 25
-25z m1984 3 c7 -11 -31 -22 -50 -14 -8 3 -14 9 -14 14 0 12 57 12 64 0z
m-693 -91 c5 0 9 7 9 16 0 29 21 2 66 -87 51 -103 88 -198 80 -206 -3 -3 -25
-8 -49 -10 -54 -6 -53 -7 -117 122 -27 55 -63 124 -80 154 -17 30 -28 57 -25
59 13 13 69 -73 129 -195 36 -73 68 -133 72 -133 3 0 3 17 0 38 l-7 37 26 -30
26 -30 -7 35 c-8 41 -63 154 -93 190 -19 23 -20 24 -21 5 0 -11 7 -31 16 -43
9 -13 14 -26 11 -28 -6 -6 -55 64 -81 113 -24 48 -19 62 10 26 14 -18 30 -33
35 -33z m-1317 44 c26 -10 18 -24 -14 -24 -33 0 -38 -11 -15 -30 8 -7 15 -19
15 -27 0 -11 -4 -11 -21 -3 -25 14 -33 33 -25 65 6 25 27 32 60 19z m2006 -13
c0 -11 -48 -24 -61 -16 -5 4 -7 11 -4 16 8 12 65 12 65 0z m-2127 -57 c-3 -16
-21 -15 -37 1 -23 23 -9 40 17 22 12 -8 21 -18 20 -23z m197 -19 c7 -9 10 -18
7 -21 -7 -8 -47 14 -47 26 0 15 26 12 40 -5z m1536 -15 c7 -34 7 -40 -3 -40
-5 0 -8 7 -8 16 0 9 -8 21 -18 28 -23 17 -22 26 3 26 15 0 22 -9 26 -30z m588
14 c14 -36 8 -37 -141 -31 -148 6 -193 12 -193 28 0 12 42 16 191 18 117 1
138 -1 143 -15z m-734 -68 c31 -90 23 -101 -10 -16 -32 79 -37 101 -20 84 5
-5 19 -36 30 -68z m-1603 39 c3 -9 3 -18 1 -21 -9 -9 -38 8 -38 22 0 19 29 18
37 -1z m94 -4 c13 -11 21 -22 18 -26 -10 -9 -59 17 -59 32 0 18 14 16 41 -6z
m117 -47 c7 -4 19 1 26 11 25 34 48 -12 30 -59 -10 -25 -27 -19 -77 27 -46 42
-55 73 -13 42 12 -8 27 -18 34 -21z m276 26 c23 -8 26 -15 26 -55 0 -33 -5
-47 -16 -52 -24 -9 -68 10 -72 31 -4 17 1 18 32 13 44 -7 48 7 6 22 -20 7 -30
17 -30 30 0 23 15 26 54 11z m1419 -95 c37 -67 38 -74 17 -85 -21 -11 -70 -4
-70 11 0 5 11 11 25 15 28 7 24 24 -5 24 -28 0 -36 20 -10 27 21 6 21 6 2 27
-11 11 -22 35 -25 51 l-5 30 24 -30 c14 -16 35 -48 47 -70z m-1913 45 c0 -13
-37 -13 -45 0 -3 6 -3 15 0 20 7 12 45 -5 45 -20z m84 9 c27 -22 35 -49 13
-49 -22 0 -57 31 -57 51 0 24 11 24 44 -2z m1309 -31 c6 -22 5 -22 -8 -4 -17
22 -20 40 -6 32 5 -3 11 -16 14 -28z m727 17 c0 -8 -4 -15 -9 -15 -13 0 -22
16 -14 24 11 11 23 6 23 -9z m54 -1 c9 -22 8 -24 -9 -24 -8 0 -15 9 -15 20 0
24 15 27 24 4z m128 -16 c-9 -9 -12 -7 -12 12 0 19 3 21 12 12 9 -9 9 -15 0
-24z m-62 7 c0 -8 -4 -15 -10 -15 -5 0 -10 7 -10 15 0 8 5 15 10 15 6 0 10 -7
10 -15z m120 0 c0 -8 -4 -15 -10 -15 -5 0 -10 7 -10 15 0 8 5 15 10 15 6 0 10
-7 10 -15z m-2186 -11 c19 -19 21 -34 3 -34 -17 0 -37 20 -37 37 0 18 15 16
34 -3z m1606 -8 c0 -8 -4 -18 -10 -21 -5 -3 -10 3 -10 14 0 12 5 21 10 21 6 0
10 -6 10 -14z m-1790 -26 c0 -12 -7 -20 -16 -20 -12 0 -14 -7 -9 -31 6 -24 4
-30 -6 -27 -9 3 -15 23 -17 51 -3 45 -2 47 22 47 19 0 26 -5 26 -20z m98 -23
l3 -27 -35 17 c-46 23 -48 45 -3 41 27 -2 33 -8 35 -31z m302 3 c0 -5 -4 -10
-10 -10 -5 0 -10 5 -10 10 0 6 5 10 10 10 6 0 10 -4 10 -10z m-226 -22 c8 -12
13 -25 10 -29 -8 -14 -54 13 -54 33 0 25 25 23 44 -4z m94 4 c2 -7 -7 -12 -22
-12 -27 0 -35 15 -13 23 17 7 30 3 35 -11z m2117 -2 c-4 -6 -52 -10 -113 -10
-73 0 -102 3 -92 10 20 13 213 13 205 0z m-2320 -32 c33 -15 32 -30 -2 -26
-17 2 -29 10 -31 21 -4 20 -1 21 33 5z m1615 2 c0 -5 -2 -10 -4 -10 -3 0 -8 5
-11 10 -3 6 -1 10 4 10 6 0 11 -4 11 -10z m-1512 -58 c5 -16 -21 -15 -36 0 -7
7 -12 18 -12 26 0 12 3 12 22 0 12 -8 24 -20 26 -26z m-207 18 c27 -15 24 -30
-6 -30 -18 0 -25 5 -25 20 0 23 4 24 31 10z m284 -1 c10 -15 -1 -23 -20 -15
-9 3 -13 10 -10 16 8 13 22 13 30 -1z m1835 -29 c80 -41 122 -117 180 -330 62
-229 89 -636 55 -827 -14 -83 -131 -510 -145 -533 -6 -9 -19 -4 -49 21 -60 50
-54 89 15 89 33 0 30 15 -6 30 -17 7 -30 20 -30 29 0 14 7 17 30 13 22 -3 30
0 30 11 0 8 -13 17 -30 21 -39 7 -38 29 1 41 41 13 42 29 1 33 -44 4 -40 32 6
44 38 10 35 23 -8 31 -35 8 -39 23 -7 33 12 3 28 11 36 17 10 9 6 14 -20 22
-44 15 -46 29 -7 40 39 12 49 35 16 35 -23 0 -48 16 -48 31 0 4 16 10 35 13
43 8 45 24 5 37 -36 13 -39 35 -5 43 34 9 32 22 -5 30 -37 7 -39 23 -3 37 28
10 23 24 -11 31 -32 5 -30 28 3 41 38 14 40 25 4 29 -37 4 -43 35 -10 47 24 9
43 28 35 36 -2 2 -46 -7 -98 -21 -115 -29 -142 -27 -69 5 123 55 139 63 139
72 0 5 -8 9 -17 9 -47 1 -53 45 -7 56 33 8 30 26 -3 24 -63 -4 -72 10 -23 38
38 21 38 32 2 32 -16 0 -36 8 -44 18 -22 25 -54 91 -63 130 -6 30 -5 33 24 38
40 8 41 34 1 34 -19 0 -33 7 -40 19 -9 17 -6 20 17 23 39 5 40 26 1 30 -38 4
-53 34 -18 40 33 5 28 23 -7 26 -36 4 -49 25 -27 43 13 11 11 14 -15 25 -36
15 -41 41 -9 46 21 3 21 3 -4 32 l-25 30 26 21 c69 58 126 68 191 35z m-2019
0 c19 -11 26 -30 10 -30 -5 0 -19 9 -32 20 -26 21 -11 27 22 10z m1629 -26
c46 -53 47 -57 90 -301 33 -187 30 -200 -48 -167 -35 15 -36 16 -18 30 11 8
23 14 28 14 16 0 7 19 -12 25 -27 9 -25 32 3 41 21 7 20 8 -13 22 l-35 14 23
15 c27 19 28 33 3 33 -32 0 -33 17 -4 41 16 12 24 23 18 26 -35 13 -40 22 -27
44 12 19 11 28 -14 76 -15 30 -32 56 -38 58 -56 15 -96 30 -96 36 0 10 49 27
81 28 19 1 37 -10 59 -35z m635 -44 c28 -20 72 -49 98 -65 27 -15 51 -34 54
-41 3 -8 11 -14 19 -14 17 0 17 4 -2 -56 -9 -27 -40 -79 -68 -117 -52 -68 -76
-76 -36 -11 31 50 19 53 -20 4 -18 -23 -34 -39 -36 -37 -3 2 16 43 42 91 25
48 45 89 42 91 -2 2 -23 -28 -48 -66 -50 -79 -66 -70 -25 13 l26 53 -31 -33
c-17 -19 -34 -32 -36 -29 -3 3 6 28 20 56 31 61 34 78 5 34 -12 -18 -25 -33
-30 -33 -12 0 -11 5 6 47 21 50 19 60 -9 34 -27 -26 -43 -21 -57 16 -7 18 -6
30 3 41 10 12 10 16 1 19 -13 5 -18 35 -7 46 9 9 35 -3 89 -43z m-2371 34 c20
-8 11 -24 -15 -24 -10 0 -19 7 -19 15 0 16 9 19 34 9z m190 0 c19 -7 22 -44 3
-44 -17 0 -37 20 -37 37 0 14 10 16 34 7z m100 -9 c4 -10 -1 -15 -14 -15 -11
0 -20 7 -20 15 0 8 6 15 14 15 8 0 16 -7 20 -15z m-184 -39 c9 -12 9 -16 1
-16 -22 0 -51 20 -51 36 0 17 28 6 50 -20z m328 -5 c3 -8 -1 -12 -9 -9 -7 2
-15 10 -17 17 -3 8 1 12 9 9 7 -2 15 -10 17 -17z m1142 4 c7 -9 39 -32 71 -52
33 -20 59 -43 59 -51 0 -8 -25 -63 -56 -121 -65 -122 -94 -199 -93 -250 0 -35
1 -35 20 19 23 66 39 85 39 47 0 -15 5 -27 10 -27 6 0 10 6 10 13 1 37 22 153
29 160 16 16 41 -38 46 -94 3 -35 2 -45 -3 -29 -7 22 -9 20 -15 -20 -4 -25
-20 -63 -36 -85 -21 -30 -31 -60 -40 -125 -13 -91 -35 -188 -53 -233 -11 -27
-45 -54 -55 -43 -3 3 0 65 6 138 7 73 15 261 17 418 6 354 9 377 44 335z
m-1292 -34 c6 -37 -7 -91 -21 -91 -19 0 -36 21 -30 36 3 8 11 14 19 14 19 0
18 10 -3 25 -21 15 -10 48 14 43 10 -2 20 -14 21 -27z m-293 8 c4 -6 5 -12 2
-15 -7 -7 -37 7 -37 17 0 13 27 11 35 -2z m196 1 c21 -12 23 -18 10 -39 -8
-12 -13 -12 -35 3 -47 30 -25 62 25 36z m-100 -20 c22 -12 26 -40 5 -40 -16 0
-46 26 -46 41 0 12 17 11 41 -1z m330 -13 c-1 -12 -15 -9 -19 4 -3 6 1 10 8 8
6 -3 11 -8 11 -12z m108 -28 c23 -8 31 -17 31 -36 0 -21 -3 -23 -22 -17 -36
11 -68 35 -68 50 0 17 16 18 59 3z m-524 -10 c4 -6 5 -13 2 -16 -8 -7 -47 7
-47 18 0 13 37 11 45 -2z m70 -11 c29 -13 34 -38 7 -38 -21 0 -42 18 -42 37 0
16 2 16 35 1z m99 6 c9 -3 16 -15 16 -26 0 -15 -5 -18 -22 -13 -31 10 -42 21
-34 34 8 12 18 14 40 5z m241 -24 c3 -5 1 -10 -4 -10 -6 0 -11 5 -11 10 0 6 2
10 4 10 3 0 8 -4 11 -10z m1495 -46 c29 -80 30 -98 2 -102 -39 -6 -52 15 -52
83 0 95 18 102 50 19z m-1922 8 c3 -9 -2 -13 -14 -10 -9 1 -19 9 -22 16 -3 9
2 13 14 10 9 -1 19 -9 22 -16z m286 0 c2 -4 1 -14 -3 -20 -10 -16 -41 -5 -41
14 0 15 35 20 44 6z m272 -2 c8 0 14 -10 14 -25 0 -23 -3 -25 -27 -19 -67 16
-96 63 -31 50 17 -3 37 -6 44 -6z m-376 -20 c28 -28 26 -44 -5 -36 -31 8 -36
-19 -5 -29 11 -4 20 -15 20 -26 0 -18 -4 -20 -30 -14 -19 4 -30 3 -30 -4 0 -6
14 -17 30 -26 46 -24 36 -52 -15 -39 -23 6 -25 10 -25 63 0 123 17 154 60 111z
m-83 -7 c7 -17 -11 -140 -21 -150 -7 -7 -36 16 -36 28 0 4 10 9 22 11 21 3 21
3 -5 34 -31 37 -33 44 -12 44 17 0 20 16 5 25 -15 9 -2 25 21 25 11 0 23 -8
26 -17z m333 -8 c0 -8 -4 -15 -10 -15 -5 0 -10 7 -10 15 0 8 5 15 10 15 6 0
10 -7 10 -15z m-446 -18 c6 -9 8 -19 4 -22 -10 -11 -46 18 -41 32 7 17 23 12
37 -10z m576 -17 c24 -13 28 -177 5 -186 -24 -9 -89 19 -93 40 -3 16 0 18 25
11 42 -11 52 -11 54 0 1 6 -16 19 -39 30 -42 19 -42 20 -42 73 l0 54 37 -7
c21 -4 45 -11 53 -15z m-283 -5 c3 -9 3 -18 0 -21 -7 -8 -47 15 -47 26 0 16
40 11 47 -5z m-287 -52 c0 -25 -45 -11 -48 15 -3 20 -1 21 22 11 14 -7 26 -19
26 -26z m440 21 c0 -8 -4 -12 -10 -9 -5 3 -10 10 -10 16 0 5 5 9 10 9 6 0 10
-7 10 -16z m-162 -36 c14 -14 16 -84 4 -92 -12 -7 -52 5 -52 16 0 5 9 12 20
15 11 3 20 11 20 18 0 7 -9 15 -20 18 -11 3 -20 12 -20 21 0 19 31 21 48 4z
m1702 3 c0 -8 -60 -41 -74 -41 -13 0 -5 23 12 36 19 15 62 19 62 5z m537 -28
c-9 -9 -19 -14 -23 -11 -10 10 6 28 24 28 15 0 15 -1 -1 -17z m-2077 -3 c0 -5
-4 -10 -10 -10 -5 0 -10 5 -10 10 0 6 5 10 10 10 6 0 10 -4 10 -10z m-464 -14
c10 -8 16 -17 12 -21 -11 -11 -48 5 -48 21 0 18 11 18 36 0z m2030 -13 c3 -10
10 -26 15 -35 7 -15 0 -22 -42 -44 -28 -14 -49 -27 -46 -30 2 -3 26 0 51 7 63
16 70 4 12 -22 -57 -25 -76 -20 -76 20 0 23 8 34 36 50 42 25 39 38 -5 23 -40
-14 -42 6 -3 30 35 22 51 22 58 1z m-1918 -36 c4 -17 2 -18 -27 -2 -38 19 -39
27 -4 23 17 -2 29 -10 31 -21z m85 -5 c22 -19 22 -32 -1 -32 -23 0 -42 19 -42
43 0 19 10 17 43 -11z m2464 6 c13 -12 23 -31 23 -42 -1 -18 -5 -16 -30 14
-44 50 -38 71 7 28z m-2205 -13 c0 -5 -5 -11 -11 -13 -6 -2 -11 4 -11 13 0 9
5 15 11 13 6 -2 11 -8 11 -13z m-454 -12 c2 -8 -6 -13 -22 -13 -17 0 -26 5
-26 16 0 19 41 16 48 -3z m305 -28 c4 -8 2 -17 -3 -20 -12 -7 -50 12 -50 25 0
16 47 11 53 -5z m295 -11 c25 -16 30 -44 7 -44 -19 0 -84 26 -102 41 -38 32
46 34 95 3z m1257 6 c0 -9 -11 -16 -27 -18 -20 -2 -28 1 -28 12 0 8 6 17 13
19 21 9 42 2 42 -13z m-1750 -1 c4 -6 5 -13 1 -16 -8 -8 -56 6 -56 17 0 13 47
13 55 -1z m1668 -36 c-8 -65 -13 -67 -13 -5 0 29 4 52 10 52 6 0 7 -19 3 -47z
m-1773 -4 c0 -23 -32 -26 -50 -4 -17 20 -5 33 25 27 16 -3 25 -11 25 -23z
m188 15 c26 -18 29 -34 5 -34 -18 0 -53 28 -53 42 0 13 24 9 48 -8z m1746 -81
c33 -139 43 -363 16 -363 -17 0 -40 12 -40 21 0 5 7 9 15 9 17 0 20 16 5 25
-15 9 -12 25 5 25 21 0 19 7 -9 40 -17 21 -25 46 -30 96 -5 45 -3 70 3 72 7 2
8 30 4 79 -8 95 8 92 31 -4z m659 41 c41 -25 65 -34 82 -30 19 5 22 3 18 -14
-3 -11 -9 -23 -14 -26 -14 -8 -88 31 -134 71 -53 45 -26 45 48 -1z m-2512 16
c18 -10 27 -40 12 -40 -10 0 -43 32 -43 42 0 11 7 10 31 -2z m216 -22 c20 -16
4 -30 -25 -23 -28 7 -44 24 -35 37 5 10 41 1 60 -14z m301 1 c24 -9 30 -37 9
-45 -13 -5 -82 20 -104 38 -34 27 28 32 95 7z m1482 10 c0 -14 -68 -41 -94
-36 -17 3 -13 7 24 25 50 24 70 27 70 11z m-225 -9 c9 -14 -5 -100 -16 -100
-16 0 -23 32 -9 40 11 7 10 13 -3 33 -9 14 -13 27 -10 31 10 9 31 7 38 -4z
m-1874 -20 c10 -6 19 -17 19 -25 0 -25 -22 -17 -49 18 -16 20 -1 23 30 7z
m1749 -4 c0 -16 -18 -31 -27 -22 -8 8 5 36 17 36 5 0 10 -6 10 -14z m-1832
-18 c18 -18 14 -28 -11 -28 -29 0 -37 7 -30 26 6 17 25 18 41 2z m176 2 c33
-12 34 -30 1 -30 -14 0 -29 8 -35 20 -12 23 -4 25 34 10z m116 -10 c8 -14 8
-20 0 -20 -18 0 -50 20 -50 30 0 18 39 10 50 -10z m1910 9 c0 -12 -53 -35 -90
-40 -43 -6 -33 13 17 31 59 21 73 23 73 9z m-1810 -19 c11 -7 12 -12 3 -21
-15 -15 -43 -5 -43 16 0 17 18 19 40 5z m276 -1 l44 -11 2 -52 c0 -28 2 -73 3
-101 3 -72 -5 -115 -22 -115 -18 0 -90 37 -99 51 -4 8 7 10 40 8 55 -5 55 8
-1 30 -50 19 -57 26 -50 45 5 13 13 13 56 1 63 -16 66 -2 6 27 -69 34 -68 51
3 42 63 -7 63 -2 -5 36 -79 42 -67 61 23 39z m1214 -56 c0 -32 -4 -53 -8 -46
-7 11 -4 103 4 103 2 0 4 -26 4 -57z m-52 23 c3 -12 -1 -17 -10 -14 -7 3 -15
13 -16 22 -3 12 1 17 10 14 7 -3 15 -13 16 -22z m-1738 -1 c17 -20 -9 -21 -36
0 -19 14 -19 14 2 15 12 0 27 -7 34 -15z m460 5 c0 -5 -4 -10 -10 -10 -5 0
-10 5 -10 10 0 6 5 10 10 10 6 0 10 -4 10 -10z m-263 -27 c8 -19 -2 -26 -26
-18 -29 9 -29 45 0 38 11 -3 23 -12 26 -20z m1931 15 c-6 -16 -65 -36 -107
-37 -41 -1 -34 8 22 30 51 20 90 24 85 7z m-2232 -15 c17 -17 17 -18 -1 -21
-9 -2 -21 2 -26 10 -20 31 -1 39 27 11z m198 1 c21 -20 20 -34 -1 -34 -18 0
-53 28 -53 42 0 14 38 9 54 -8z m197 -21 c29 -17 38 -33 19 -33 -18 0 -59 23
-64 36 -7 19 10 18 45 -3z m1572 -178 c2 -175 -10 -242 -58 -324 -40 -68 -118
-157 -145 -166 -23 -7 -60 11 -60 30 0 7 13 16 30 20 46 10 140 136 140 187 0
32 46 293 59 338 6 19 11 53 12 75 0 36 1 38 10 15 5 -13 11 -92 12 -175z
m-123 170 c0 -8 -9 -15 -20 -15 -20 0 -26 11 -13 23 12 13 33 7 33 -8z m410
-3 c0 -9 -130 -55 -138 -48 -7 7 97 55 121 55 9 1 17 -2 17 -7z m530 -11 c5
-11 10 -39 9 -63 l-1 -43 -18 50 c-10 28 -19 56 -19 63 -1 19 17 14 29 -7z
m-2690 -6 c0 -8 -4 -15 -9 -15 -5 0 -14 7 -21 15 -10 13 -9 15 9 15 12 0 21
-6 21 -15z m-95 -21 c20 -15 20 -16 -4 -12 -14 2 -26 9 -29 16 -5 16 9 15 33
-4z m180 -6 c21 -9 36 -38 20 -38 -16 0 -55 26 -55 37 0 16 2 16 35 1z m109 6
c16 -6 23 -34 9 -34 -25 1 -53 14 -53 26 0 15 18 18 44 8z m1546 -29 c0 -22
-15 -26 -36 -10 -16 12 -17 16 -5 24 18 11 41 3 41 -14z m-1426 9 c9 -3 16
-15 16 -26 0 -15 -5 -18 -22 -13 -13 4 -32 16 -43 26 -19 19 -19 19 7 19 14 0
33 -3 42 -6z m-324 -29 c16 -19 0 -19 -26 0 -16 12 -16 14 -3 15 9 0 22 -7 29
-15z m-80 -25 c0 -5 -9 -10 -20 -10 -11 0 -20 5 -20 10 0 6 9 10 20 10 11 0
20 -4 20 -10z m186 0 c8 0 14 -9 14 -20 0 -22 -12 -25 -41 -10 -23 13 -26 45
-3 36 9 -3 22 -6 30 -6z m109 -6 c9 -9 14 -19 11 -22 -8 -7 -66 19 -66 29 0
15 38 10 55 -7z m1533 -12 c3 -9 -3 -13 -19 -10 -12 1 -24 9 -27 16 -3 9 3 13
19 10 12 -1 24 -9 27 -16z m432 11 c0 -5 -29 -15 -65 -23 -72 -18 -86 -11 -27
13 39 17 92 22 92 10z m-2184 -24 c19 -21 19 -21 -6 -18 -14 2 -26 12 -28 22
-5 23 11 22 34 -4z m337 4 c15 -9 6 -23 -14 -23 -26 0 -59 17 -59 31 0 10 53
4 73 -8z m142 -4 c11 -17 -1 -21 -15 -4 -8 9 -8 15 -2 15 6 0 14 -5 17 -11z
m-559 -31 c5 -8 2 -9 -10 -5 -10 4 -22 7 -27 7 -5 0 -9 7 -9 15 0 12 4 14 19
5 11 -5 23 -15 27 -22z m3304 8 c0 -25 -26 -35 -124 -47 -83 -11 -99 -10 -107
2 -9 15 31 27 106 29 22 1 56 8 75 15 46 18 50 18 50 1z m-1042 -8 c-5 -13
-98 -46 -133 -47 -34 -1 4 26 60 43 63 18 78 19 73 4z m-2088 -13 c36 -19 39
-35 7 -35 -25 0 -62 32 -50 43 9 9 10 9 43 -8z m114 9 c16 -6 23 -44 8 -44
-13 0 -52 30 -52 41 0 10 21 12 44 3z m1533 -9 c3 -9 3 -19 -1 -22 -8 -9 -56
14 -56 27 0 16 50 12 57 -5z m1153 -15 c0 -23 -25 -27 -33 -6 -7 16 1 26 20
26 7 0 13 -9 13 -20z m-2906 -6 c17 -7 22 -34 7 -34 -21 0 -41 13 -41 26 0 15
10 17 34 8z m349 -11 c8 -5 10 -33 2 -33 -18 0 -75 31 -75 40 0 11 51 6 73 -7z
m-432 -19 l24 -26 -30 4 c-22 2 -31 9 -33 26 -4 29 9 28 39 -4z m738 1 c11
-11 12 -18 4 -26 -14 -14 -93 12 -115 38 -12 15 -8 16 41 10 30 -4 62 -13 70
-22z m2615 3 c-4 -13 -7 -52 -6 -88 3 -97 -41 -331 -59 -313 -5 5 -2 33 6 63
17 63 19 168 5 190 -7 11 -10 -2 -10 -42 0 -32 -4 -58 -8 -58 -32 0 -43 85
-20 151 11 31 12 32 17 11 10 -39 25 -26 39 30 18 73 20 78 32 78 7 0 9 -8 4
-22z m-1477 -10 c-3 -8 -6 -5 -6 6 -1 11 2 17 5 13 3 -3 4 -12 1 -19z m389 7
c-28 -21 -161 -47 -142 -27 10 9 114 39 141 40 19 1 19 1 1 -13z m-1944 -28
c4 -6 3 -16 -1 -20 -11 -11 -63 13 -69 32 -4 11 3 13 29 7 18 -3 36 -12 41
-19z m1488 7 c0 -10 -7 -14 -22 -12 -32 5 -35 28 -4 28 17 0 26 -5 26 -16z
m1060 -6 c0 -23 -38 -33 -130 -33 -71 0 -140 21 -140 43 0 4 61 7 135 7 121 0
135 -2 135 -17z m370 -44 c-5 -32 -13 -108 -16 -169 -9 -142 -23 -179 -23 -62
-1 51 -5 87 -11 87 -5 0 -10 -10 -10 -22 0 -15 -3 -19 -8 -11 -7 12 -8 37 -4
129 2 33 7 43 27 52 14 7 30 23 37 37 17 37 19 26 8 -41z m-3051 50 c33 -7 36
-11 23 -32 -11 -16 -72 4 -72 24 0 16 5 17 49 8z m-100 -27 c6 -8 8 -17 5 -20
-9 -8 -44 11 -44 23 0 15 26 12 39 -3z m346 -8 c5 -6 5 -13 -2 -20 -13 -13
-64 8 -71 28 -4 14 56 7 73 -8z m257 0 c9 -5 26 -9 37 -9 14 0 21 -6 21 -20 0
-26 -25 -26 -80 3 -53 26 -67 51 -23 41 15 -4 36 -11 45 -15z m-689 -5 c26
-10 21 -34 -8 -34 -31 0 -32 -13 -2 -33 29 -19 17 -31 -17 -16 -26 12 -32 32
-20 77 4 13 12 20 18 17 6 -3 19 -8 29 -11z m1790 -6 c26 -13 9 -31 -22 -23
-29 7 -51 23 -51 36 0 10 44 2 73 -13z m287 7 c0 -17 -2 -18 -24 -9 -23 9 -20
24 4 24 11 0 20 -7 20 -15z m195 6 c-6 -5 -40 -18 -77 -31 -78 -25 -104 -47
-42 -36 88 16 124 19 124 7 0 -6 -10 -13 -22 -16 -145 -33 -148 -33 -148 4 0
34 15 49 72 66 50 16 107 19 93 6z m849 -93 c-3 -57 -10 -120 -15 -140 -5 -21
-9 -66 -8 -102 2 -61 -5 -91 -19 -82 -4 2 -4 62 -1 133 3 70 4 130 2 132 -8
10 -15 -12 -28 -85 l-14 -79 3 130 3 130 -18 -40 c-17 -38 -18 -38 -18 -12 -1
37 30 109 36 84 4 -16 7 -15 28 7 13 15 31 26 40 26 14 0 15 -13 9 -102z
m-2820 69 c10 -7 17 -21 15 -30 -4 -16 -7 -15 -36 5 -18 13 -33 26 -33 31 0
12 35 8 54 -6z m2616 -18 c-11 -36 -20 -49 -20 -28 0 25 12 59 20 59 5 0 5
-14 0 -31z m-2716 -10 c16 -15 -3 -23 -31 -13 -39 13 -44 39 -7 30 16 -4 33
-12 38 -17z m2745 -69 c-7 -44 -16 -80 -21 -80 -10 0 -10 1 2 80 12 75 18 95
26 87 4 -3 1 -42 -7 -87z m32 -9 c-20 -84 -31 -111 -31 -75 0 20 27 139 36
164 16 39 12 -15 -5 -89z m-2892 75 c9 -11 8 -15 -5 -20 -20 -8 -34 1 -34 20
0 18 24 18 39 0z m1980 -12 c3 -16 1 -17 -13 -5 -19 16 -21 34 -3 29 6 -3 14
-13 16 -24z m-300 5 c35 -12 41 -29 10 -29 -25 0 -59 17 -59 30 0 13 10 13 49
-1z m-1350 -10 c37 -13 41 -29 7 -29 -35 0 -56 10 -56 26 0 17 7 17 49 3z
m2208 -21 c-3 -7 -5 -2 -5 12 0 14 2 19 5 13 2 -7 2 -19 0 -25z m-1875 1 c24
-13 19 -33 -9 -37 -21 -3 -123 42 -123 55 0 9 109 -6 132 -18z m1914 -16 c-10
-10 -19 5 -10 18 6 11 8 11 12 0 2 -7 1 -15 -2 -18z m-2365 7 c19 -11 27 -40
10 -40 -6 0 -23 11 -38 25 -23 20 -25 24 -10 25 10 0 27 -5 38 -10z m-106 -20
c18 -19 17 -20 -6 -20 -25 0 -49 16 -49 32 0 16 37 8 55 -12z m2090 9 c10 -16
3 -19 -53 -23 -28 -3 -60 -9 -71 -15 -11 -6 -30 -11 -42 -11 -17 0 -19 3 -10
14 13 16 85 36 158 45 6 0 15 -4 18 -10z m-2189 -21 c4 -5 -4 -8 -17 -6 -12 1
-24 8 -26 15 -5 14 34 6 43 -9z m1691 7 c3 -9 3 -18 0 -22 -11 -10 -57 7 -57
22 0 20 49 20 57 0z m-1795 -12 c25 -23 22 -36 -7 -29 -15 4 -25 2 -25 -4 0
-6 11 -15 25 -20 14 -5 25 -16 25 -25 0 -16 -12 -18 -47 -9 -24 7 -29 34 -17
82 7 26 21 28 46 5z m2567 -107 c-9 -8 -10 0 -5 38 3 27 7 58 8 70 1 12 3 -6
5 -38 3 -37 0 -63 -8 -70z m158 77 c-3 -10 -5 -2 -5 17 0 19 2 27 5 18 2 -10
2 -26 0 -35z m-2012 17 c38 -11 73 -20 76 -20 4 0 9 9 12 20 6 24 44 27 72 7
24 -19 10 -40 -21 -33 -35 9 -29 -10 7 -23 46 -16 32 -36 -24 -32 -59 3 -61
-13 -4 -31 31 -9 43 -19 45 -35 2 -13 -1 -23 -6 -23 -17 0 -148 48 -205 74
-88 42 -70 63 26 30 73 -25 77 -11 6 20 -60 27 -78 41 -79 59 0 11 19 9 95
-13z m-261 -10 c16 -16 0 -22 -35 -13 -46 12 -53 38 -8 29 18 -3 38 -11 43
-16z m1836 -4 c0 -16 -9 -20 -95 -36 -33 -6 -68 -14 -77 -16 -29 -8 -20 13 10
25 23 9 132 38 155 40 4 1 7 -5 7 -13z m-1979 -6 c12 0 19 -7 19 -20 0 -24 -4
-25 -41 -3 -31 18 -40 39 -13 29 9 -3 24 -6 35 -6z m2325 -66 c-4 -13 -11 -24
-17 -24 -10 0 -6 38 9 85 6 17 7 16 10 -9 2 -15 1 -39 -2 -52z m54 32 c0 -18
-7 -41 -15 -52 -14 -18 -14 -18 -15 7 0 42 12 89 21 83 5 -3 9 -20 9 -38z
m-2475 13 c5 -6 5 -13 -2 -20 -9 -9 -18 -8 -37 5 -35 22 -34 40 2 31 15 -3 31
-11 37 -16z m1569 12 c3 -5 -1 -14 -9 -21 -12 -10 -18 -10 -30 0 -18 15 -11
30 15 30 10 0 21 -4 24 -9z m-1679 -31 c-3 -4 -14 -6 -25 -3 -20 5 -25 15 -14
26 9 9 46 -12 39 -23z m314 -1 c34 -12 42 -29 12 -29 -30 0 -51 11 -51 26 0
17 -1 17 39 3z m2302 -56 c-9 -16 -10 -15 -11 9 0 14 3 35 8 45 6 15 8 14 10
-9 2 -15 -1 -35 -7 -45z m296 30 c-3 -10 -5 -4 -5 12 0 17 2 24 5 18 2 -7 2
-21 0 -30z m-729 16 c-2 -6 -35 -20 -73 -29 -39 -10 -87 -25 -107 -34 -45 -19
-81 -21 -76 -3 6 17 41 32 133 55 94 23 128 26 123 11z m473 -52 c-13 -13 -15
11 -4 40 7 16 8 15 11 -6 2 -13 -1 -28 -7 -34z m-2460 33 c30 -17 22 -30 -11
-19 -16 6 -30 15 -30 20 0 12 17 11 41 -1z m2977 -56 c-3 -30 -8 -57 -11 -61
-14 -14 -18 7 -11 66 8 75 28 71 22 -5z m-3289 45 c42 -15 43 -44 0 -35 -25 5
-30 3 -27 -12 2 -9 13 -21 26 -27 12 -5 22 -15 22 -22 0 -16 1 -16 -39 -2 -29
10 -31 14 -31 60 0 53 2 54 49 38z m107 -4 c18 -15 18 -15 -5 -13 -14 2 -26 9
-29 16 -5 17 10 15 34 -3z m98 -1 c18 -7 22 -34 5 -34 -17 0 -49 20 -49 30 0
11 21 13 44 4z m2092 -13 c-3 -4 -46 -23 -96 -40 -49 -18 -92 -37 -95 -42 -8
-12 -1 -12 85 11 82 21 110 24 110 12 0 -5 -27 -16 -60 -26 -33 -10 -71 -26
-83 -36 -23 -18 -24 -18 -53 1 -16 10 -37 19 -46 19 -23 0 -68 21 -68 32 0 4
13 8 29 8 16 0 76 16 133 35 100 34 155 44 144 26z m-1842 -22 c16 -15 -3 -23
-31 -13 -39 13 -44 39 -7 30 16 -4 33 -12 38 -17z m297 -20 c86 -27 129 -45
129 -55 0 -23 -64 -17 -148 16 -81 31 -122 55 -122 71 0 13 -2 13 141 -32z
m2396 -6 c-3 -10 -5 -2 -5 17 0 19 2 27 5 18 2 -10 2 -26 0 -35z m-2826 7 c17
-10 28 -40 14 -40 -14 0 -65 32 -65 40 0 13 26 13 51 0z m-227 -6 c25 -9 19
-24 -9 -24 -24 0 -32 10 -18 23 8 8 8 8 27 1z m114 -16 c12 -11 17 -38 6 -38
-12 0 -64 42 -64 51 0 11 38 2 58 -13z m248 -25 c11 -12 13 -18 5 -21 -21 -7
-61 8 -61 23 0 20 35 19 56 -2z m294 -22 c89 -27 126 -42 128 -54 3 -13 -4
-17 -26 -17 -65 0 -230 67 -240 98 -5 17 -3 16 138 -27z m-740 -39 c0 -7 -6
-11 -12 -8 -7 3 -21 9 -30 12 -11 4 -18 17 -18 30 l0 25 30 -23 c17 -12 30
-28 30 -36z m317 36 c7 -6 13 -17 13 -24 0 -11 -9 -10 -40 6 -46 24 -54 46
-13 35 16 -4 34 -11 40 -17z m2553 -46 c0 -106 -20 -270 -44 -364 -21 -78 -30
-98 -60 -125 -20 -18 -43 -33 -51 -33 -22 0 -89 64 -124 119 -36 56 -114 255
-109 279 2 9 30 -48 63 -127 51 -122 68 -151 113 -197 29 -30 57 -54 63 -54
18 0 39 68 55 183 16 117 32 177 33 125 2 -58 19 -34 24 35 4 39 10 107 13
149 8 89 24 95 24 10z m-2771 32 c1 -1 0 -7 -3 -12 -9 -15 -46 -2 -46 15 0 10
6 12 23 7 12 -3 24 -8 26 -10z m2191 2 c0 -8 -16 -16 -39 -20 -57 -9 -62 -26
-7 -26 42 0 46 -2 46 -25 0 -14 -8 -29 -21 -35 -27 -15 -38 -4 -13 14 23 17
13 32 -12 18 -20 -11 -60 4 -83 31 -15 19 -7 25 58 42 61 17 71 18 71 1z
m-2099 -14 c12 -11 18 -22 13 -25 -13 -7 -56 14 -62 31 -6 18 23 15 49 -6z
m244 -14 c34 -15 32 -28 -4 -28 -25 0 -61 21 -61 36 0 8 40 4 65 -8z m300 -27
c98 -32 121 -43 123 -60 4 -28 -1 -27 -113 13 -100 36 -145 60 -145 76 0 14 3
14 135 -29z m-415 -9 c17 -11 21 -17 11 -20 -17 -6 -81 27 -81 40 0 12 37 1
70 -20z m-336 -21 c15 -16 16 -21 5 -21 -22 0 -59 29 -59 46 0 18 26 6 54 -25z
m106 14 c0 -9 -9 -15 -25 -15 -16 0 -25 6 -25 15 0 9 9 15 25 15 16 0 25 -6
25 -15z m96 -20 c18 -15 18 -15 -10 -13 -16 2 -31 9 -34 16 -5 17 20 15 44 -3z
m253 -6 c32 -11 42 -29 17 -29 -24 0 -66 19 -66 30 0 13 9 13 49 -1z m1671
-33 c0 -35 12 -51 45 -58 21 -5 17 -8 -29 -22 -8 -3 -17 -23 -21 -45 -8 -48
-25 -55 -25 -10 0 38 -16 69 -35 69 -24 0 -17 28 8 32 16 2 24 13 31 40 11 44
26 40 26 -6z m-1365 -2 c100 -35 128 -56 91 -70 -30 -11 -226 72 -226 96 0 17
25 12 135 -26z m-448 14 c21 -8 33 -19 33 -30 0 -10 -3 -18 -7 -18 -15 0 -73
40 -73 50 0 13 6 13 47 -2z m-320 -32 c15 -13 25 -27 22 -31 -8 -7 -79 34 -79
46 0 17 29 9 57 -15z m121 3 c2 -11 -7 -18 -30 -23 l-33 -7 29 -23 c16 -13 25
-29 22 -35 -21 -33 -56 9 -56 65 0 45 0 45 32 42 21 -2 34 -9 36 -19z m82 -14
c17 -9 30 -22 30 -30 0 -13 -7 -12 -40 5 -22 11 -40 25 -40 30 0 14 16 12 50
-5z m2020 5 c0 -5 -2 -10 -4 -10 -3 0 -8 5 -11 10 -3 6 -1 10 4 10 6 0 11 -4
11 -10z m-1739 -21 l24 -20 -40 6 c-22 4 -47 13 -55 21 -24 24 43 18 71 -7z
m-148 -11 c16 -6 27 -17 27 -29 0 -24 -17 -24 -57 1 -35 21 -47 58 -15 45 9
-4 29 -12 45 -17z m432 -19 c79 -29 108 -50 91 -66 -15 -16 -216 67 -216 89 0
15 38 8 125 -23z m-756 -40 c2 -8 -4 -10 -20 -6 -13 4 -30 7 -36 7 -7 0 -13
12 -13 26 l0 26 32 -21 c18 -11 34 -25 37 -32z m1801 26 c0 -8 -6 -15 -14 -15
-7 0 -19 7 -26 15 -11 13 -8 15 14 15 16 0 26 -5 26 -15z m-1332 -18 c7 -6 9
-14 4 -19 -11 -11 -69 10 -76 28 -5 13 0 14 27 9 17 -4 38 -12 45 -18z m1572
-9 c0 -4 -7 -8 -15 -8 -8 0 -15 -7 -15 -15 0 -8 9 -15 20 -15 11 0 20 -4 20
-9 0 -5 -9 -13 -20 -16 -33 -11 -23 -22 26 -29 69 -9 134 -7 134 4 0 6 -7 10
-16 10 -8 0 -12 5 -9 10 3 6 19 10 35 10 l28 0 5 -82 c6 -112 -10 -878 -24
-1158 -6 -124 -16 -231 -21 -238 -6 -7 -42 -22 -81 -34 -69 -20 -70 -21 -84
-2 -12 15 -13 39 -8 111 3 50 3 109 -1 130 l-8 38 -7 -40 c-4 -22 -9 -74 -9
-115 -1 -41 -5 -97 -9 -125 -14 -93 -23 -21 -26 198 -1 116 -6 449 -10 738 -4
289 -4 553 1 585 8 56 9 53 15 -71 4 -71 7 -204 8 -294 1 -165 12 -207 21 -83
l5 67 39 5 c36 5 40 9 51 45 13 42 19 37 29 -25 4 -24 15 -41 34 -52 25 -16
25 -17 6 -18 -25 0 -34 -17 -34 -63 0 -63 -17 -64 -35 -4 -17 59 -36 87 -60
87 -27 0 -25 -20 4 -35 26 -13 31 -23 37 -65 5 -35 13 -54 26 -61 35 -19 48
-4 48 56 l0 55 40 -6 c32 -5 40 -4 40 9 0 33 -19 65 -43 71 -20 5 -26 14 -33
58 -8 50 -11 53 -40 56 -27 3 -32 -1 -40 -30 -8 -27 -15 -34 -42 -36 l-32 -3
0 210 0 211 25 -12 c14 -6 25 -15 25 -20z m-1851 11 c30 -11 44 -39 19 -39
-19 0 -69 36 -61 43 8 9 4 9 42 -4z m1696 1 c-3 -5 -12 -7 -20 -3 -21 7 -19
13 6 13 11 0 18 -4 14 -10z m-1542 -32 c21 -11 22 -38 1 -38 -19 0 -74 38 -74
51 0 10 43 2 73 -13z m386 -2 c96 -33 122 -48 112 -64 -6 -11 -17 -11 -49 -3
-61 17 -149 60 -156 76 -8 21 13 19 93 -9z m1077 -15 c-9 -13 -46 -15 -46 -1
0 14 34 30 44 20 4 -4 5 -13 2 -19z m419 19 c-3 -5 -13 -10 -21 -10 -8 0 -14
5 -14 10 0 6 9 10 21 10 11 0 17 -4 14 -10z m-2251 -33 c18 -15 26 -28 22 -36
-6 -9 -13 -8 -27 5 -30 27 -25 -7 6 -36 23 -21 36 -57 18 -48 -65 31 -63 29
-63 85 0 29 3 53 8 53 4 0 20 -11 36 -23z m116 8 c7 -9 10 -18 7 -21 -11 -11
-57 6 -57 21 0 20 34 19 50 0z m1793 8 c-7 -2 -19 -2 -25 0 -7 3 -2 5 12 5 14
0 19 -2 13 -5z m447 -3 c0 -12 -28 -25 -36 -17 -9 9 6 27 22 27 8 0 14 -5 14
-10z m-2142 -20 c53 -32 37 -54 -21 -27 -15 6 -27 20 -27 30 0 22 8 21 48 -3z
m286 -6 c15 -15 21 -34 11 -34 -15 0 -85 34 -85 41 0 15 58 10 74 -7z m-156
-13 c44 -12 59 -41 22 -41 -31 0 -80 28 -80 46 0 8 3 13 8 11 4 -3 26 -10 50
-16z m430 -23 l82 -23 0 -40 c0 -23 -6 -49 -13 -59 -12 -17 -16 -17 -80 4 -68
22 -118 53 -105 65 3 4 46 -3 93 -15 48 -11 89 -19 92 -17 7 7 -41 33 -92 51
-56 18 -95 42 -95 57 0 6 8 8 18 5 9 -2 54 -15 100 -28z m-673 -1 c17 -13 14
-37 -5 -37 -11 0 -40 29 -40 41 0 13 23 11 45 -4z m1733 -39 c3 -44 1 -48 -20
-47 -13 0 -32 4 -43 8 -18 7 -17 10 15 26 33 17 34 18 12 26 -35 13 -25 42 13
37 16 -2 21 -12 23 -50z m77 42 c3 -5 -3 -10 -14 -10 -12 0 -21 5 -21 10 0 6
6 10 14 10 8 0 18 -4 21 -10z m453 -8 c2 -7 -3 -12 -12 -12 -9 0 -16 7 -16 16
0 17 22 14 28 -4z m-1850 -34 c-2 -5 -7 -9 -11 -9 -4 1 -16 1 -26 1 -20 0 -51
24 -51 39 0 5 20 2 45 -7 25 -8 44 -19 43 -24z m-292 -1 c15 -13 23 -26 18
-30 -15 -9 -74 21 -74 38 0 22 25 18 56 -8z m2254 19 c0 -3 -4 -8 -10 -11 -5
-3 -10 -1 -10 4 0 6 5 11 10 11 6 0 10 -2 10 -4z m-2125 -28 c21 -9 36 -38 20
-38 -14 0 -73 29 -79 39 -9 15 26 14 59 -1z m569 -90 c-4 -57 -6 -145 -5 -196
2 -88 1 -93 -21 -102 l-23 -9 23 -7 c20 -6 22 -12 21 -83 -2 -109 -12 -196
-24 -194 -6 1 -23 5 -38 8 -39 10 -34 -10 6 -22 l32 -9 -3 -214 c-3 -273 -17
-485 -42 -673 -11 -81 -24 -209 -30 -285 -11 -143 -56 -397 -91 -517 -11 -38
-32 -82 -46 -97 -27 -28 -141 -84 -151 -73 -3 3 15 92 41 198 26 106 52 219
57 252 21 135 50 419 61 589 10 175 59 574 79 646 14 54 97 562 110 675 11 95
28 191 37 208 12 22 14 -3 7 -95z m980 96 c9 -3 16 -10 16 -16 0 -14 -43 -5
-48 10 -4 13 7 15 32 6z m466 -24 c0 -5 -7 -10 -15 -10 -8 0 -15 5 -15 10 0 6
7 10 15 10 8 0 15 -4 15 -10z m-2265 -21 c4 -6 5 -12 3 -14 -7 -7 -48 7 -48
16 0 13 37 11 45 -2z m384 0 c17 -6 31 -17 31 -25 0 -17 -3 -17 -44 0 -64 27
-53 48 13 25z m-483 -13 c10 -8 16 -17 13 -21 -11 -10 -59 6 -59 21 0 18 21
18 46 0z m240 -16 c2 0 4 -9 4 -20 0 -26 -13 -25 -53 2 -18 13 -34 24 -36 25
-1 1 0 6 4 12 4 7 17 6 42 -4 19 -8 37 -15 39 -15z m112 2 c31 -20 28 -36 -5
-27 -30 7 -63 32 -63 47 0 11 37 1 68 -20z m1562 8 c0 -5 -9 -10 -20 -10 -11
0 -20 5 -20 10 0 6 9 10 20 10 11 0 20 -4 20 -10z m-86 -355 c0 -238 -4 -351
-13 -375 -8 -23 -8 -36 -1 -38 6 -2 10 -77 10 -210 0 -114 3 -217 6 -230 6
-21 10 -22 67 -16 72 8 76 -9 9 -41 -48 -22 -56 -39 -14 -31 15 3 34 2 42 -3
12 -8 12 -13 -4 -30 -11 -12 -27 -21 -37 -21 -31 0 -30 -17 1 -24 43 -8 41
-41 -5 -57 -43 -16 -44 -25 -5 -32 37 -8 39 -33 4 -49 l-25 -12 25 -13 c33
-17 33 -36 1 -53 -28 -15 -33 -30 -10 -30 19 0 19 -19 0 -58 -13 -25 -14 -38
-4 -77 6 -25 9 -66 6 -91 -5 -46 52 -367 68 -382 12 -11 -3 124 -25 228 -11
52 -20 108 -20 124 l0 28 35 -31 c20 -17 41 -31 48 -31 7 0 45 16 85 35 71 34
72 34 76 12 10 -46 50 -384 51 -422 l0 -40 -57 3 c-31 2 -97 -2 -147 -8 -49
-7 -105 -10 -125 -6 -33 6 -37 11 -50 59 -31 107 -56 362 -76 767 -14 286 -24
1065 -15 1184 l7 98 47 21 46 20 -32 9 c-36 9 -45 38 -13 38 11 0 20 5 20 10
0 6 -9 10 -19 10 -28 0 -37 21 -17 36 10 7 17 23 16 36 -3 36 -1 40 23 36 l22
-3 -1 -340z m536 335 c0 -5 -5 -10 -11 -10 -5 0 -7 5 -4 10 3 6 8 10 11 10 2
0 4 -4 4 -10z m-1611 -20 c74 -19 93 -32 84 -56 -4 -10 -13 -10 -46 1 -65 20
-112 42 -127 59 -17 21 -5 21 89 -4z m-238 -26 c7 -8 10 -17 7 -19 -7 -7 -81
20 -85 31 -5 15 65 4 78 -12z m-525 2 c10 -8 15 -18 11 -22 -4 -4 -17 2 -29
14 -25 25 -13 30 18 8z m112 -4 c3 -9 -3 -13 -19 -10 -12 1 -24 9 -27 16 -3 9
3 13 19 10 12 -1 24 -9 27 -16z m110 -2 c28 -17 45 -50 25 -50 -24 0 -83 36
-83 52 0 23 17 23 58 -2z m172 -40 c0 -15 -11 -12 -54 13 -60 34 -57 53 3 23
28 -15 51 -31 51 -36z m1530 50 c0 -13 -11 -13 -30 0 -12 8 -11 10 8 10 12 0
22 -4 22 -10z m450 -20 c0 -5 -4 -10 -10 -10 -5 0 -10 5 -10 10 0 6 5 10 10
10 6 0 10 -4 10 -10z m-1603 -31 c51 -9 63 -15 63 -30 0 -14 -7 -19 -30 -19
-33 0 -120 37 -120 51 0 12 10 11 87 -2z m-245 -15 c15 -9 8 -24 -11 -24 -31
0 -81 21 -75 32 6 9 68 3 86 -8z m1398 7 c0 -11 -39 -25 -47 -18 -3 3 -2 10 2
16 8 13 45 15 45 2z m-1930 -16 c21 -25 1 -31 -22 -7 -18 18 -19 22 -6 22 8 0
21 -7 28 -15z m108 3 c7 -7 12 -16 12 -20 0 -13 -37 -9 -49 5 -20 24 14 38 37
15z m1607 -373 c16 -960 38 -1564 65 -1747 14 -95 15 -94 -36 -122 -51 -28
-105 -34 -123 -13 -29 36 -35 175 -36 762 0 654 4 719 71 1149 19 121 34 240
34 265 0 44 9 95 15 89 2 -2 6 -174 10 -383z m-1497 364 c36 -13 51 -39 21
-39 -22 0 -69 28 -69 41 0 12 10 11 48 -2z m142 -5 c22 -9 40 -22 40 -30 0 -8
-2 -14 -5 -14 -16 0 -72 29 -84 43 -17 22 -3 22 49 1z m432 -46 c20 -6 40 -18
43 -26 5 -12 -3 -14 -46 -9 -52 6 -99 29 -99 48 0 11 32 7 102 -13z m-278 2
c30 -11 35 -30 7 -30 -30 0 -81 21 -75 31 7 12 36 11 68 -1z m1424 -7 c2 -8
-6 -13 -22 -13 -17 0 -26 5 -26 16 0 19 41 16 48 -3z m-1943 -13 c10 -11 15
-23 12 -27 -8 -7 -47 25 -47 39 0 14 16 9 35 -12z m105 5 c7 -9 10 -18 7 -21
-11 -11 -57 6 -57 21 0 20 34 19 50 0z m283 -17 c9 -5 17 -15 17 -23 0 -11 -6
-12 -24 -5 -34 13 -66 33 -66 43 0 8 45 -1 73 -15z m-158 -2 c38 -16 47 -36
16 -36 -22 0 -84 49 -63 50 7 0 28 -7 47 -14z m2105 -27 c0 -5 -7 -9 -15 -9
-15 0 -20 12 -9 23 8 8 24 -1 24 -14z m-1564 -6 c51 -14 64 -21 64 -36 0 -17
-5 -19 -35 -14 -39 6 -105 43 -105 58 0 12 1 12 76 -8z m-656 -33 c0 -15 -21
-12 -42 7 -28 25 -21 35 12 18 17 -9 30 -20 30 -25z m423 21 c6 -6 9 -13 6
-15 -8 -8 -81 12 -93 24 -14 16 71 7 87 -9z m1412 9 c3 -5 -6 -12 -20 -16 -29
-7 -41 -1 -30 15 8 14 42 14 50 1z m-1937 -27 c2 -8 -6 -13 -22 -13 -17 0 -26
5 -26 16 0 19 41 16 48 -3z m358 1 c39 -19 48 -50 12 -38 -24 7 -78 42 -78 50
0 9 34 3 66 -12z m-136 -16 c33 -21 34 -23 12 -26 -24 -4 -72 22 -72 38 0 16
23 11 60 -12z m2115 -9 c10 -15 -1 -23 -20 -15 -9 3 -13 10 -10 16 8 13 22 13
30 -1z m-1801 -21 c34 -18 -6 -30 -50 -15 -53 19 -59 42 -8 32 21 -4 47 -11
58 -17z m1406 -7 c0 -21 -16 -30 -42 -23 -35 9 -20 42 19 42 16 0 23 -6 23
-19z m-1940 -28 c0 -25 -45 -11 -48 15 -3 20 -1 21 22 11 14 -7 26 -19 26 -26z
m783 21 c23 -7 22 -34 -2 -34 -33 0 -81 22 -81 37 0 14 23 13 83 -3z m-698 -5
c4 -6 5 -13 2 -16 -8 -7 -47 7 -47 18 0 13 37 11 45 -2z m265 -5 c46 -18 57
-50 14 -40 -32 8 -74 35 -74 47 0 13 14 11 60 -7z m-132 -14 c31 -19 43 -40
22 -40 -19 0 -90 40 -90 50 0 16 33 11 68 -10z m276 -10 c26 -11 46 -26 46
-35 0 -19 -11 -19 -57 0 -35 15 -52 30 -53 48 0 11 15 8 64 -13z m1866 16 c0
-18 -15 -36 -31 -36 -18 0 -26 20 -12 33 7 8 43 10 43 3z m-1587 -48 c46 -24
0 -48 -49 -25 -46 22 -47 51 -1 42 17 -4 40 -11 50 -17z m1167 8 c0 -21 -27
-38 -50 -31 -25 8 -26 21 -2 34 25 15 52 13 52 -3z m-1860 -16 c8 -5 11 -12 8
-16 -10 -9 -58 4 -58 16 0 13 30 13 50 0z m-106 -6 c23 -9 20 -24 -4 -24 -11
0 -20 7 -20 15 0 17 2 18 24 9z m219 -7 c34 -15 64 -44 54 -53 -9 -9 -100 38
-105 54 -5 16 11 15 51 -1z m175 -13 c20 -13 30 -34 17 -34 -17 0 -72 30 -85
45 -14 17 -13 18 15 11 17 -4 40 -14 53 -22z m1992 -5 c0 -11 4 -29 10 -39 14
-27 -14 -54 -41 -40 -22 12 -24 21 -7 38 10 10 10 15 -1 21 -19 12 -6 41 19
41 14 0 20 -7 20 -21z m-1847 -10 c42 -11 49 -29 12 -29 -25 0 -85 25 -85 35
0 8 33 6 73 -6z m-456 -15 c24 -7 40 -34 19 -34 -16 0 -66 39 -51 40 6 0 20
-3 32 -6z m1883 -9 c0 -20 -39 -40 -52 -27 -6 6 -8 18 -5 26 8 20 57 21 57 1z
m-1950 -29 c0 -9 -8 -12 -25 -8 -24 4 -33 21 -19 35 10 9 44 -12 44 -27z m780
9 c0 -22 -2 -24 -26 -14 -54 20 -55 39 -3 39 24 0 29 -4 29 -25z m-553 -11
c34 -14 46 -44 18 -44 -28 0 -95 40 -95 56 0 16 13 14 77 -12z m163 -22 c13
-13 11 -14 -23 -9 -41 6 -70 24 -62 38 7 10 66 -9 85 -29z m159 -6 c22 -14 11
-28 -16 -22 -52 12 -85 29 -73 36 12 8 68 -2 89 -14z m-568 -6 c26 -14 24 -32
-3 -28 -13 2 -24 11 -26 21 -4 20 2 21 29 7z m109 -15 c10 -12 10 -15 -3 -15
-23 0 -47 11 -47 21 0 15 37 10 50 -6z m1845 -5 c0 -18 -33 -26 -47 -12 -6 6
-7 15 -3 22 10 16 50 8 50 -10z m-1690 -40 c19 -20 19 -20 0 -20 -26 1 -105
36 -105 48 0 19 14 21 49 6 20 -8 45 -24 56 -34z m525 34 c0 -10 -7 -14 -22
-12 -32 5 -35 28 -4 28 17 0 26 -5 26 -16z m1625 -8 c0 -26 -19 -31 -39 -11
-20 21 -11 37 17 33 14 -2 22 -10 22 -22z m-2030 -8 c14 -6 25 -17 25 -25 0
-21 -37 -15 -67 12 -27 23 -27 24 -6 25 12 0 34 -5 48 -12z m160 -12 c19 -8
35 -22 35 -30 0 -9 -2 -16 -5 -16 -11 0 -115 49 -115 54 0 11 51 6 85 -8z
m-449 -20 c22 -17 11 -35 -13 -20 -19 12 -29 34 -16 34 5 0 18 -6 29 -14z
m1869 -16 c0 -30 -35 -40 -54 -16 -20 24 -6 48 26 44 22 -2 28 -8 28 -28z
m405 -270 c16 -135 46 -380 65 -545 36 -304 71 -525 106 -670 10 -44 19 -109
19 -144 l0 -64 -37 9 c-35 7 -79 7 -173 1 -39 -2 -31 -18 -76 168 -15 62 -28
154 -31 211 -5 97 -5 102 16 109 12 3 37 26 57 49 26 31 42 42 55 39 25 -7 24
14 -1 22 -26 8 -25 29 3 49 22 17 22 17 -10 12 -30 -5 -33 -3 -33 20 0 19 6
26 30 31 43 8 37 23 -9 23 l-38 0 -10 93 c-11 113 -5 151 25 155 33 5 27 22
-8 22 -41 0 -38 27 5 45 18 7 19 8 2 12 -10 3 -22 15 -27 27 -8 23 5 533 17
596 l6 35 8 -30 c5 -16 22 -140 39 -275z m-2370 274 c0 -9 -5 -14 -12 -12 -18
6 -21 28 -4 28 9 0 16 -7 16 -16z m780 -3 c0 -27 -13 -33 -35 -17 -21 15 -12
36 16 36 12 0 19 -7 19 -19z m1648 -13 c-3 -25 -34 -36 -51 -19 -14 14 9 41
35 41 14 0 19 -6 16 -22z m-2197 -14 c14 -7 31 -20 38 -28 22 -27 -16 -20 -65
12 -68 42 -49 55 27 16z m324 -6 c13 -6 26 -17 30 -26 4 -12 -1 -13 -24 -9
-47 10 -101 35 -101 48 0 13 55 5 95 -13z m-161 6 c9 -3 16 -18 16 -32 0 -24
-1 -24 -18 -9 -10 10 -23 17 -29 17 -6 0 -16 7 -23 15 -11 13 -8 15 13 15 14
0 32 -3 41 -6z m-384 -40 c0 -17 -5 -17 -31 -3 -11 5 -17 14 -14 19 8 13 45 0
45 -16z m84 10 c9 -3 16 -12 16 -20 0 -17 -2 -17 -35 -2 -42 19 -25 39 19 22z
m672 -9 c3 -8 3 -19 0 -24 -10 -16 -36 -1 -36 20 0 22 28 26 36 4z m1199 -6
c11 -32 -9 -45 -39 -25 -36 23 -34 46 3 46 21 0 32 -6 36 -21z m472 -15 c5
-14 -11 -34 -27 -34 -16 0 -30 19 -24 33 8 22 43 22 51 1z m-2195 -20 c31 -16
42 -30 30 -38 -12 -7 -112 41 -112 54 0 12 42 4 82 -16z m151 4 c19 -10 23
-28 7 -28 -21 0 -80 29 -80 40 0 11 41 5 73 -12z m175 1 c23 -9 31 -39 10 -39
-24 0 -112 38 -116 49 -4 12 62 6 106 -10z m-570 -37 c3 -9 -3 -13 -19 -10
-12 1 -24 9 -27 16 -3 9 3 13 19 10 12 -1 24 -9 27 -16z m90 12 c24 -7 31 -34
8 -34 -25 0 -46 12 -46 26 0 16 5 16 38 8z m662 -34 c0 -32 -14 -40 -24 -14
-10 27 -7 44 9 44 10 0 15 -10 15 -30z m1217 14 c7 -19 -21 -44 -49 -44 -21 0
-26 45 -5 53 25 11 48 7 54 -9z m487 -11 c7 -18 -9 -33 -36 -33 -21 0 -32 16
-24 35 7 20 52 19 60 -2z m-2234 -13 c43 -22 59 -40 35 -40 -19 0 -91 36 -100
50 -10 16 23 11 65 -10z m171 -10 c13 -10 20 -19 14 -20 -20 0 -84 21 -90 30
-11 18 53 10 76 -10z m145 9 c34 -9 44 -16 44 -31 0 -17 -5 -20 -27 -15 -43 9
-103 36 -103 47 0 13 31 13 86 -1z m-562 -19 c35 -13 33 -30 -4 -30 -23 0 -30
4 -30 20 0 23 0 23 34 10z m102 -10 c19 -8 24 -14 17 -21 -12 -12 -53 5 -53
21 0 12 2 12 36 0z m1878 -16 c39 -15 -4 -62 -44 -49 -37 12 -25 35 27 54 1 1
8 -2 17 -5z m-1426 -25 c37 -12 62 -27 62 -35 0 -8 -6 -14 -12 -14 -27 0 -111
38 -120 54 -12 21 -5 20 70 -5z m1941 12 c20 -13 5 -41 -22 -41 -13 0 -32 7
-43 15 -16 13 -17 16 -4 25 19 12 50 13 69 1z m-2248 -23 c38 -21 50 -38 29
-38 -13 0 -110 49 -110 55 0 13 46 3 81 -17z m157 16 c22 -6 32 -34 12 -34
-15 0 -80 28 -80 34 0 8 39 7 68 0z m-400 -26 c19 -19 14 -30 -10 -26 -13 2
-24 11 -26 21 -4 20 18 23 36 5z m96 -11 c28 -21 16 -41 -12 -22 -22 16 -30
35 -14 35 5 0 16 -6 26 -13z m1894 -34 c-3 -24 -8 -28 -40 -31 -35 -3 -38 -1
-38 22 0 18 6 26 23 29 53 10 58 8 55 -20z m-1592 1 c22 -6 35 -34 15 -34 -25
0 -71 24 -71 37 0 10 6 13 16 9 9 -3 27 -9 40 -12z m2114 -15 c0 -24 -37 -34
-74 -19 -34 13 -29 33 10 40 41 8 64 1 64 -21z m-2269 -10 c26 -18 38 -39 24
-39 -13 0 -104 51 -111 61 -11 19 53 3 87 -22z m343 -5 c19 -15 16 -15 -44 -9
-57 7 -63 6 -52 -8 7 -8 32 -20 57 -27 46 -13 73 -34 57 -44 -6 -3 -29 1 -52
9 -23 8 -50 15 -60 15 -28 0 -33 27 -15 87 5 14 78 -1 109 -23z m-579 -9 c0
-5 -10 -11 -22 -13 -16 -2 -23 2 -23 13 0 11 7 15 23 13 12 -2 22 -7 22 -13z
m91 -9 c10 -8 16 -18 12 -22 -10 -9 -58 12 -58 26 0 14 23 12 46 -4z m325 -28
c4 -6 5 -17 2 -24 -4 -11 -12 -11 -41 2 -21 8 -44 22 -52 31 -14 14 -10 15 34
9 28 -3 53 -11 57 -18z m-201 -8 c22 -11 40 -27 40 -35 0 -20 -5 -19 -57 6
-24 11 -43 27 -43 35 0 19 14 18 60 -6z m1770 1 c0 -14 -11 -22 -37 -29 -39
-9 -35 -14 20 -26 55 -13 23 -46 -44 -46 -25 0 -27 4 -31 48 -6 59 4 72 53 72
32 0 39 -4 39 -19z m560 -88 c28 -224 99 -555 150 -701 27 -78 56 -152 64
-165 24 -37 46 -140 46 -216 0 -64 -2 -71 -19 -71 -55 0 -102 43 -68 62 25 13
21 26 -10 30 -39 4 -39 24 -1 45 l33 18 -37 3 c-45 4 -52 30 -16 54 l23 15
-33 7 c-36 9 -42 30 -12 48 29 19 24 28 -15 28 -40 0 -48 22 -15 42 26 17 25
25 -5 32 -30 8 -32 27 -5 44 28 17 16 32 -27 32 l-36 0 6 -42 c3 -24 24 -106
46 -183 45 -154 48 -177 27 -194 -20 -17 -31 6 -56 115 -25 105 -70 378 -69
414 1 24 1 24 10 -5 25 -74 26 -75 59 -64 36 13 39 29 6 29 -35 0 -43 20 -18
41 28 22 28 39 2 39 -27 0 -38 30 -17 42 23 12 21 28 -3 28 -25 0 -26 26 -3
52 15 17 14 18 -15 24 -40 8 -44 41 -7 50 34 8 32 21 -5 29 -38 8 -41 40 -5
49 34 9 31 21 -7 32 -43 13 -47 32 -9 47 35 13 41 27 12 27 -33 0 -51 11 -51
31 0 14 7 19 25 19 35 0 31 16 -5 24 -33 6 -40 29 -12 46 16 10 15 12 -5 26
-29 21 -29 41 -1 50 l23 7 -23 8 c-13 5 -22 17 -22 29 0 17 6 20 44 20 l44 0
12 -97z m-2559 77 c5 0 9 -7 9 -15 0 -16 -27 -20 -49 -6 -17 11 -4 34 16 27 8
-3 19 -6 24 -6z m110 -36 c7 -8 9 -17 6 -21 -8 -7 -57 24 -57 36 0 13 37 2 51
-15z m268 0 c40 -16 63 -44 36 -44 -21 0 -95 31 -95 39 0 8 11 21 16 21 2 0
21 -7 43 -16z m1210 -140 c-12 -153 -13 -585 -3 -934 8 -258 10 -250 -79 -258
-82 -7 -81 -9 -74 251 4 122 11 242 16 267 6 25 15 97 21 160 12 137 27 235
45 310 8 30 23 115 35 189 17 117 34 171 47 158 2 -2 -1 -67 -8 -143z m-1001
115 c20 -8 32 -39 15 -39 -9 0 -127 32 -132 36 -1 1 0 8 4 14 7 12 68 6 113
-11z m-597 -9 c23 -19 23 -19 4 -20 -21 0 -45 17 -45 32 0 14 17 9 41 -12z
m233 6 c47 -19 54 -36 17 -36 -33 0 -101 49 -68 50 10 0 33 -6 51 -14z m-128
-38 c4 -5 -4 -8 -17 -6 -12 1 -24 8 -26 15 -5 14 34 6 43 -9z m278 2 c46 -19
61 -40 29 -40 -23 0 -83 36 -83 50 0 13 1 13 54 -10z m155 -11 c21 -6 48 -19
62 -30 l24 -19 -30 0 c-35 0 -115 34 -115 50 0 13 14 13 59 -1z m1479 -16 c4
-24 -26 -38 -69 -31 -33 4 -32 40 1 49 42 12 65 6 68 -18z m-1780 -13 l44 -20
-7 -42 c-4 -24 -9 -46 -12 -50 -6 -11 -74 19 -98 42 -19 20 -19 20 0 20 11 0
35 -4 53 -9 45 -13 40 3 -10 31 -77 43 -53 66 30 28z m-241 -7 c3 -7 -3 -9
-16 -6 -12 3 -21 10 -21 15 0 13 32 6 37 -9z m87 -9 c15 -6 23 -34 10 -34 -13
0 -44 21 -44 30 0 11 11 13 34 4z m306 -20 c43 -17 58 -51 18 -38 -51 15 -88
34 -88 43 0 15 23 14 70 -5z m-389 -30 c9 -11 8 -14 -8 -14 -19 0 -43 17 -43
31 0 11 38 -2 51 -17z m602 -3 c40 -16 36 -42 -5 -34 -41 8 -118 40 -118 49 0
9 88 -2 123 -15z m-528 -13 c23 -10 35 -28 18 -28 -25 1 -53 14 -53 26 0 17 2
17 35 2z m298 -24 c45 -15 65 -44 31 -44 -27 0 -84 31 -84 46 0 17 -3 17 53
-2z m-397 -18 c10 -8 16 -17 13 -20 -3 -4 -17 2 -30 13 -27 23 -13 28 17 7z
m226 -2 c48 -16 69 -41 43 -50 -8 -3 -27 1 -42 9 -15 9 -36 18 -45 21 -18 5
-26 36 -10 36 5 0 29 -7 54 -16z m378 -8 c21 -6 36 -19 38 -30 3 -16 0 -18
-25 -12 -46 12 -113 44 -113 55 0 11 41 6 100 -13z m-505 -16 c22 -15 25 -20
12 -20 -23 0 -57 18 -57 30 0 15 12 12 45 -10z m138 -51 c20 -11 37 -26 37
-34 0 -12 -8 -11 -50 5 -82 32 -71 -3 13 -41 26 -12 38 -39 17 -39 -6 0 -33
11 -60 25 -52 26 -58 40 -44 93 7 25 21 24 87 -9z m-223 6 c10 -12 10 -15 -3
-15 -25 0 -47 11 -41 21 8 14 30 11 44 -6z m571 3 c22 -6 39 -17 39 -25 0 -7
-4 -13 -8 -13 -20 0 -112 31 -117 40 -8 14 39 13 86 -2z m-157 -4 c9 -3 16
-15 16 -26 0 -15 -4 -18 -22 -12 -30 9 -78 33 -78 39 0 7 66 6 84 -1z m-330
-10 c14 -5 24 -34 12 -34 -16 0 -56 21 -56 30 0 11 20 13 44 4z m2161 -15
c-43 -20 -80 -25 -70 -9 7 11 61 28 90 28 13 0 6 -6 -20 -19z m65 -90 c0 -26
11 -80 25 -121 27 -79 33 -152 13 -146 -7 3 -16 20 -22 39 l-9 34 -9 -42 c-10
-48 -28 -58 -28 -15 0 15 -4 34 -10 42 -7 11 -11 9 -19 -13 -6 -16 -11 -33
-11 -38 0 -6 -4 -7 -10 -4 -5 3 -10 22 -10 41 0 19 -4 34 -10 34 -6 0 -10 -27
-10 -62 0 -84 -19 -64 -30 32 -8 76 -15 94 -26 66 -6 -17 -2 -68 12 -148 6
-34 4 -38 -15 -38 -14 0 -23 8 -27 26 -8 30 2 247 12 282 4 13 2 22 -4 22 -14
0 -23 -65 -31 -219 -7 -125 -7 -126 -20 -81 -11 37 -12 69 -2 175 13 149 18
156 104 175 29 6 66 17 82 24 40 18 55 0 55 -65z m-2322 59 c7 -7 12 -15 12
-19 0 -11 -38 2 -51 17 -9 11 -8 14 8 14 10 0 24 -5 31 -12z m588 -8 c18 -7
24 -14 17 -21 -13 -13 -98 8 -115 29 -12 13 -8 15 29 9 23 -4 54 -12 69 -17z
m-195 -1 c45 -16 62 -30 50 -42 -11 -11 -101 27 -101 42 0 14 9 14 51 0z
m-317 -9 c35 -13 33 -31 -4 -28 -21 2 -30 7 -30 20 0 21 1 21 34 8z m-91 -36
c27 -10 20 -24 -13 -24 -24 0 -30 4 -30 21 0 13 5 19 13 15 6 -3 20 -9 30 -12z
m117 -51 c0 -7 -6 -13 -13 -13 -19 0 -57 29 -57 44 0 18 69 -14 70 -31z m314
22 c26 -17 35 -45 15 -45 -18 0 -109 52 -109 63 0 14 64 2 94 -18z m159 0 c22
-9 22 -25 1 -25 -26 0 -94 22 -94 31 0 19 38 16 93 -6z m76 -34 c-1 -32 1 -63
5 -69 4 -6 -2 -20 -12 -30 -18 -18 -65 -145 -68 -184 -1 -10 -7 -24 -14 -33
-7 -8 -10 -21 -7 -29 3 -7 0 -19 -6 -25 -7 -7 -12 -35 -13 -62 -1 -47 -8 -61
-38 -72 -5 -2 -2 -13 5 -26 12 -19 12 -23 -4 -32 -12 -7 -15 -17 -11 -35 5
-18 2 -24 -10 -24 -51 0 23 -47 88 -56 45 -7 57 -16 36 -29 -5 -3 -37 1 -71 9
-75 20 -79 20 -79 1 0 -8 17 -19 43 -25 92 -24 95 -30 15 -27 -81 2 -105 -11
-46 -26 97 -24 110 -29 101 -38 -5 -5 -31 -2 -66 8 -32 9 -60 13 -63 10 -13
-12 10 -27 64 -43 62 -18 89 -34 56 -34 -27 0 -145 39 -162 53 -19 15 -8 101
34 267 34 134 108 370 139 444 9 21 15 39 13 40 -2 2 -24 9 -51 16 -63 17 -74
35 -16 27 24 -4 53 -9 64 -12 17 -5 23 2 39 44 10 28 22 51 27 51 5 0 9 -26 8
-59z m-418 19 c16 -12 28 -24 25 -27 -8 -8 -106 30 -119 46 -19 23 56 7 94
-19z m1822 -67 c-9 -72 -10 -116 -3 -167 12 -75 7 -95 -11 -50 -12 30 -7 263
6 297 17 42 20 10 8 -80z m-2072 38 c13 -11 21 -23 16 -27 -4 -4 -13 -2 -19 4
-7 7 -16 12 -20 12 -14 0 -8 -20 13 -41 16 -16 19 -27 13 -52 -8 -41 -8 -41
-33 -27 -17 9 -21 20 -21 65 0 56 7 85 20 85 4 0 18 -9 31 -19z m220 -22 c27
-12 49 -28 49 -35 0 -8 -3 -14 -7 -14 -19 1 -97 46 -101 58 -5 16 1 15 59 -9z
m-117 -5 c18 -17 21 -34 7 -34 -24 0 -61 21 -61 35 0 20 34 19 54 -1z m339 1
c17 -7 9 -95 -9 -102 -22 -8 -61 5 -91 32 -33 28 -26 30 40 10 38 -11 47 -12
47 -1 0 8 -12 19 -27 25 -16 6 -39 21 -53 32 l-25 21 53 -7 c29 -3 58 -8 65
-10z m-343 -75 c0 -6 -5 -10 -11 -10 -20 0 -49 21 -49 36 0 13 4 13 30 -1 17
-9 30 -20 30 -25z m114 19 c40 -16 56 -27 56 -41 0 -17 -2 -17 -36 -3 -35 14
-94 53 -94 61 0 8 19 4 74 -17z m320 1 c14 -5 26 -14 26 -20 0 -14 -50 -2 -70
16 -12 12 -12 14 2 14 9 0 28 -4 42 -10z m-453 -70 c14 -11 18 -19 11 -20 -19
0 -52 19 -52 30 0 16 16 12 41 -10z m156 -11 c29 -11 38 -28 18 -35 -20 -8
-68 12 -92 38 -18 20 -18 20 17 13 19 -4 45 -11 57 -16z m287 15 c26 -10 18
-24 -14 -24 -20 0 -30 5 -30 15 0 16 17 19 44 9z m-98 -24 c26 -10 31 -25 11
-33 -18 -7 -100 25 -105 42 -4 11 3 12 33 7 20 -4 48 -11 61 -16z m1055 -46
c-23 -132 -52 -528 -44 -601 l6 -53 -36 -15 c-50 -21 -97 -10 -97 21 0 24 127
560 156 662 20 69 28 61 15 -14z m-1500 36 c19 -15 20 -19 8 -20 -9 0 -27 9
-40 20 -19 15 -20 19 -8 20 9 0 27 -9 40 -20z m716 -6 c-3 -3 -12 -4 -19 -1
-8 3 -5 6 6 6 11 1 17 -2 13 -5z m-626 -23 c13 -11 22 -22 19 -25 -8 -7 -53
17 -58 32 -6 18 12 15 39 -7z m181 -33 c22 -36 1 -36 -63 -1 -68 37 -66 60 3
33 28 -11 55 -25 60 -32z m268 32 c0 -5 -7 -10 -15 -10 -8 0 -15 5 -15 10 0 6
7 10 15 10 8 0 15 -4 15 -10z m-544 -24 c10 -8 16 -17 12 -21 -8 -8 -68 16
-68 27 0 13 35 9 56 -6z m420 3 c39 -10 45 -15 40 -33 -3 -12 -6 -28 -6 -36
-1 -40 -16 -43 -74 -17 -32 15 -56 32 -56 41 0 13 5 13 41 1 68 -24 78 -17 22
15 -29 17 -53 33 -53 35 0 8 39 5 86 -6z m314 3 c0 -8 -43 -32 -55 -32 -15 0
-1 22 18 30 29 11 37 12 37 2z m-636 -53 c16 -15 0 -20 -28 -10 -32 13 -36 35
-3 26 12 -4 26 -11 31 -16z m154 -15 c22 -18 31 -29 23 -32 -17 -6 -131 48
-131 61 0 18 72 -2 108 -29z m-270 10 c27 -19 29 -34 3 -27 -27 7 -60 43 -40
43 8 0 25 -7 37 -16z m731 -20 c2 -2 2 -7 -2 -10 -8 -9 -47 6 -47 17 0 9 37 3
49 -7z m-741 -40 l27 -26 -27 6 c-33 7 -37 -8 -8 -24 11 -6 20 -18 20 -26 0
-12 -7 -14 -31 -9 -24 5 -30 4 -27 -6 2 -8 14 -18 26 -24 30 -14 28 -27 -3
-15 -14 5 -25 6 -25 3 0 -4 -5 -2 -11 4 -12 12 9 143 23 143 5 0 21 -12 36
-26z m97 14 c24 -11 34 -28 16 -28 -23 0 -62 21 -56 30 8 13 9 12 40 -2z m140
-14 c57 -27 71 -39 57 -48 -11 -7 -114 46 -120 62 -5 17 0 16 63 -14z m175
-20 c43 -17 58 -51 18 -38 -34 10 -76 32 -83 44 -9 15 19 12 65 -6z m310 -4
c-20 -13 -50 -13 -50 0 0 6 15 10 33 10 24 0 28 -3 17 -10z m-619 -29 c13 -11
20 -23 16 -27 -10 -10 -59 16 -65 34 -6 18 23 14 49 -7z m142 -22 c20 -11 37
-26 37 -34 0 -12 -9 -11 -47 6 -52 22 -73 37 -73 51 0 11 31 2 83 -23z m467
-9 c0 -15 -27 -23 -47 -16 -15 6 -15 8 -3 16 20 13 50 12 50 0z m-270 -26 c12
-12 11 -14 -10 -14 -25 1 -60 21 -60 35 0 11 53 -4 70 -21z m-355 -4 c33 -13
23 -32 -13 -24 -34 8 -36 10 -27 23 8 13 8 13 40 1z m120 -11 c24 -11 50 -28
57 -37 12 -14 9 -15 -20 -9 -36 7 -92 42 -92 58 0 13 4 12 55 -12z m485 -18
c0 -11 -38 -21 -56 -14 -8 3 -11 9 -8 14 7 12 64 12 64 0z m-251 -36 c14 -13
13 -15 -7 -15 -24 0 -82 26 -82 37 0 11 74 -6 89 -22z m-485 9 c23 -9 20 -23
-4 -17 -11 3 -20 9 -20 14 0 11 3 11 24 3z m117 -14 c19 -11 26 -30 10 -30 -5
0 -19 9 -32 20 -26 21 -11 27 22 10z m157 -20 c28 -17 43 -40 26 -40 -15 0
-104 44 -104 51 0 16 44 9 78 -11z m152 -16 c37 -15 54 -34 29 -34 -18 0 -79
32 -79 41 0 12 3 12 50 -7z m300 6 c0 -5 -16 -10 -35 -10 -19 0 -35 5 -35 10
0 6 16 10 35 10 19 0 35 -4 35 -10z m-720 -30 c13 -9 13 -10 0 -10 -8 0 -22 5
-30 10 -13 9 -13 10 0 10 8 0 22 -5 30 -10z m263 -26 c28 -15 36 -34 15 -34
-21 0 -118 48 -118 59 0 11 61 -4 103 -25z m-153 11 c8 -9 8 -15 2 -15 -18 0
-42 12 -42 21 0 14 26 10 40 -6z m328 -31 c27 -11 45 -34 26 -34 -16 0 -104
44 -104 52 0 10 23 5 78 -18z m271 20 c37 -8 31 -24 -9 -24 -34 0 -60 9 -60
21 0 11 25 12 69 3z m-439 -76 c0 -5 -12 -8 -27 -8 -34 0 -93 34 -93 54 0 12
13 9 60 -12 32 -15 59 -30 60 -34z m-180 32 c8 -5 12 -12 9 -15 -8 -8 -39 5
-39 16 0 11 11 11 30 -1z m336 -37 c35 -15 37 -17 15 -21 -27 -4 -101 26 -101
41 0 11 32 4 86 -20z m-481 -13 c3 -5 1 -10 -4 -10 -6 0 -11 5 -11 10 0 6 2
10 4 10 3 0 8 -4 11 -10z m136 -16 c11 -14 10 -15 -11 -12 -13 1 -25 9 -28 16
-5 17 23 15 39 -4z m129 -4 c41 -21 52 -40 25 -40 -22 0 -95 39 -95 50 0 16
28 12 70 -10z m195 -24 c41 -17 48 -41 10 -32 -14 4 -40 15 -58 26 -29 18 -30
20 -9 20 12 0 38 -7 57 -14z m2467 -23 c9 -8 24 -46 34 -85 24 -101 68 -211
120 -301 43 -74 74 -146 74 -171 0 -7 -22 -10 -67 -8 -123 6 -295 -46 -374
-113 -41 -34 -82 -43 -254 -55 -190 -13 -352 -36 -482 -66 -123 -29 -141 -30
-263 -15 -113 14 -138 22 -92 30 45 8 42 23 -10 40 l-43 14 35 16 c31 13 33
15 13 19 -32 5 -29 18 8 31 34 12 31 31 -7 31 -37 0 -29 18 16 36 44 18 44 34
0 34 -41 0 -47 18 -10 27 35 9 41 26 10 31 -30 5 -24 20 12 30 46 12 48 32 4
32 -45 0 -46 12 -3 29 34 13 31 17 -27 35 -35 12 -7 19 104 26 159 11 168 30
15 30 -143 0 -181 14 -68 24 69 6 319 52 334 61 3 2 55 9 115 15 60 6 132 17
159 25 28 7 94 17 147 21 54 4 95 11 92 15 -10 17 -169 10 -249 -11 -81 -21
-99 -20 -74 5 29 28 143 57 250 64 97 5 109 8 145 36 32 25 48 30 94 30 30 0
71 -3 91 -8 34 -7 36 -5 58 34 20 36 26 40 50 34 14 -4 33 -13 43 -22z m-2815
1 c-3 -3 -12 -4 -19 -1 -8 3 -5 6 6 6 11 1 17 -2 13 -5z m166 -33 c20 -20 -2
-23 -57 -7 -53 16 -64 24 -50 39 7 7 93 -18 107 -32z m197 -33 c0 -4 -7 -8
-16 -8 -24 0 -54 19 -54 35 0 12 5 12 35 -2 19 -9 35 -20 35 -25z m-374 10 c3
-5 4 -12 1 -14 -7 -7 -47 15 -47 25 0 11 38 2 46 -11z m2169 2 c-3 -5 -11 -10
-16 -10 -6 0 -7 5 -4 10 3 6 11 10 16 10 6 0 7 -4 4 -10z m189 4 c9 -3 16 -12
16 -20 0 -10 -15 -14 -57 -14 -36 0 -85 -10 -128 -26 -109 -39 -108 -39 -103
-23 12 41 218 104 272 83z m-2214 -42 l25 -17 -23 -3 c-25 -4 -72 22 -72 39 0
13 36 3 70 -19z m1895 18 c-3 -5 -30 -10 -58 -9 -38 0 -47 3 -32 9 29 12 98
12 90 0z m-1 -49 c6 -9 -65 -21 -130 -21 -24 0 -44 4 -44 9 0 16 165 28 174
12z m-329 -11 c-11 -5 -47 -9 -80 -9 -42 0 -54 3 -40 9 11 5 47 9 80 9 42 0
54 -3 40 -9z m-1293 -23 c-6 -7 -7 -18 -3 -25 9 -15 65 -32 103 -32 16 0 28
-5 28 -11 0 -8 -14 -9 -42 -5 -76 12 -118 26 -118 41 0 25 12 45 27 45 11 0
13 -3 5 -13z m113 -2 l40 -13 -35 -1 c-19 0 -48 6 -65 14 -29 13 -29 13 -5 13
14 0 43 -5 65 -13z m1002 -1 c-3 -3 -12 -4 -19 -1 -8 3 -5 6 6 6 11 1 17 -2
13 -5z m173 -23 c-16 -9 -155 -31 -197 -31 -17 0 -23 4 -17 9 5 6 54 14 109
19 55 5 105 10 110 10 6 1 3 -2 -5 -7z m312 -5 c15 -11 5 -14 -75 -19 -50 -3
-123 -16 -162 -27 -67 -21 -308 -42 -294 -26 4 4 62 16 130 26 68 11 165 29
214 39 109 23 164 25 187 7z m-1879 -25 c8 -8 -7 -9 -53 -5 -36 4 -69 11 -75
17 -7 6 11 8 54 4 35 -3 68 -10 74 -16z m94 13 c-3 -3 -12 -4 -19 -1 -8 3 -5
6 6 6 11 1 17 -2 13 -5z m1143 -14 c0 -5 -9 -10 -21 -10 -11 0 -17 5 -14 10 3
6 13 10 21 10 8 0 14 -4 14 -10z m-430 -29 c-18 -10 -258 -26 -248 -16 11 11
100 23 183 24 48 0 74 -3 65 -8z m-880 -11 c11 -7 4 -10 -27 -10 -24 0 -43 5
-43 10 0 13 50 13 70 0z m412 -5 c46 -7 76 -20 67 -29 -8 -8 -120 21 -132 34
-9 10 -8 12 4 7 9 -3 37 -8 61 -12z m-322 -15 c8 -5 12 -11 9 -14 -3 -3 -14 1
-25 9 -21 16 -8 20 16 5z m1210 0 c0 -5 -11 -10 -25 -10 -14 0 -25 5 -25 10 0
6 11 10 25 10 14 0 25 -4 25 -10z m-435 -27 c-22 -2 -89 -10 -149 -19 -100
-13 -128 -13 -114 1 9 9 149 22 228 22 41 0 57 -2 35 -4z m-857 -10 c-10 -2
-28 -2 -40 0 -13 2 -5 4 17 4 22 1 32 -1 23 -4z m395 -9 c57 -7 90 -24 45 -24
-31 0 -137 26 -146 35 -4 4 4 5 18 2 14 -4 52 -9 83 -13z m882 -4 c-3 -5 -25
-10 -48 -10 -31 0 -38 3 -27 10 20 13 83 13 75 0z m-170 -30 c-3 -5 -21 -10
-38 -10 -24 0 -28 3 -17 10 20 13 63 13 55 0z m-1100 -10 c16 -7 13 -9 -15 -8
-19 0 -46 4 -60 8 -21 7 -19 8 15 8 22 0 49 -3 60 -8z m418 -20 c15 0 27 -4
27 -10 0 -21 -170 4 -177 26 -2 7 16 7 59 -2 35 -8 75 -14 91 -14z m492 21
c-11 -10 -323 -26 -313 -16 12 12 109 22 218 24 60 0 100 -3 95 -8z m355 -11
c-20 -13 -80 -13 -80 -1 0 9 79 20 90 13 2 -2 -2 -7 -10 -12z m-1251 -50 c53
-18 131 -57 131 -65 0 -2 -26 7 -57 20 -32 12 -78 26 -103 29 -83 13 -100 18
-94 27 9 15 61 10 123 -11z m880 5 c12 -12 -12 -17 -54 -11 -28 5 -43 11 -39
18 6 9 82 4 93 -7z m206 5 c-16 -4 -39 -8 -50 -8 l-20 -1 20 9 c11 5 34 8 50
8 l30 0 -30 -8z m-791 -15 c27 -8 62 -15 78 -15 15 0 28 -5 28 -10 0 -6 -10
-8 -22 -6 -13 3 -49 10 -80 16 -32 6 -58 16 -58 21 0 11 -4 12 54 -6z m451 6
c-15 -13 -175 -25 -175 -12 0 5 28 12 63 14 34 2 75 4 92 5 17 1 25 -2 20 -7z
m495 -1 c0 -5 -14 -10 -31 -10 -17 0 -28 4 -24 10 3 6 17 10 31 10 13 0 24 -4
24 -10z m-130 -39 c-14 -9 -74 -15 -95 -11 -18 4 39 18 75 19 25 0 31 -2 20
-8z m-1071 -25 c12 -11 20 -20 19 -22 -2 -1 -46 8 -98 22 l-95 23 77 -2 c59
-2 81 -7 97 -21z m299 -5 c39 -8 72 -19 72 -23 0 -14 -37 -10 -157 17 -13 3
-23 13 -23 21 0 12 5 14 18 8 9 -4 50 -14 90 -23z m536 10 c6 -9 -140 -21
-238 -20 -76 1 -62 7 40 18 110 12 192 13 198 2z m376 -1 c0 -5 -13 -10 -29
-10 -16 0 -36 -3 -45 -6 -9 -3 -16 -1 -16 4 0 12 22 19 63 21 15 0 27 -3 27
-9z m-135 -40 c-3 -5 -27 -9 -53 -9 -42 1 -44 2 -17 9 45 11 77 11 70 0z m135
-8 c0 -5 -18 -14 -40 -21 -53 -16 -51 -27 5 -23 50 4 62 -12 15 -21 -39 -8
-38 -23 1 -31 36 -7 31 -21 -11 -29 -42 -9 -37 -23 11 -33 46 -10 53 -27 12
-32 -43 -5 -52 -22 -12 -23 18 0 43 -4 54 -9 27 -11 16 -14 -118 -40 -118 -22
-177 -25 -177 -10 0 6 5 10 10 10 6 0 10 7 10 15 0 8 -4 15 -10 15 -18 0 -10
18 10 23 23 6 27 27 5 27 -24 0 -17 17 10 24 34 9 31 25 -5 33 -37 7 -31 15
23 28 57 14 60 35 5 36 -42 0 -41 1 47 34 87 32 155 44 155 27z m-402 -11 c14
-8 -33 -15 -205 -27 -67 -5 -93 -4 -93 5 0 6 19 11 48 12 26 0 70 4 97 9 70
10 138 11 153 1z m-547 -19 c-13 -2 -27 0 -32 5 -6 6 3 7 23 4 28 -4 29 -6 9
-9z m32 -60 c37 -9 67 -20 67 -25 0 -16 -127 16 -155 39 -20 16 -20 16 0 9 11
-4 50 -14 88 -23z m545 13 c11 -11 -7 -13 -180 -20 -117 -4 -178 -3 -178 3 0
6 37 13 83 16 45 4 102 8 127 10 52 4 140 -1 148 -9z m2087 -18 c0 -1 31 -35
68 -75 72 -78 81 -103 48 -143 -16 -20 -27 -24 -78 -23 -64 2 -161 34 -187 63
-15 17 -15 20 5 45 l22 28 -49 -7 -49 -6 30 25 c33 28 17 35 -25 11 -14 -8
-34 -14 -45 -15 -16 0 -14 5 15 32 29 26 32 33 18 36 -25 5 -22 21 5 27 51 11
86 13 152 8 39 -3 70 -5 70 -6z m-2702 -36 c21 -11 60 -22 87 -26 64 -9 65
-25 2 -25 -39 0 -58 6 -90 30 -36 26 -50 40 -39 40 1 0 20 -9 40 -19z m601
-12 c-3 -5 -80 -9 -171 -9 -92 0 -164 2 -161 6 8 7 233 20 290 16 27 -2 45 -8
42 -13z m1836 12 c0 -12 -42 -42 -49 -36 -5 6 29 45 41 45 4 0 8 -4 8 -9z
m-2600 -52 c-30 -4 -71 -4 -90 1 -27 6 -14 8 55 8 85 0 87 -1 35 -9z m755 -10
c5 -7 -8 -8 -41 -3 -64 9 -68 14 -11 14 25 0 49 -5 52 -11z m-182 -6 c-7 -2
-19 -2 -25 0 -7 3 -2 5 12 5 14 0 19 -2 13 -5z m2167 -137 c102 -33 191 -42
245 -27 43 12 59 4 49 -23 -4 -12 -10 -14 -19 -6 -8 7 -22 7 -44 -1 -62 -22
-259 25 -358 86 -45 27 -41 40 5 16 20 -10 75 -31 122 -45z m-96 -26 c49 -23
128 -52 175 -65 72 -20 80 -24 47 -24 -50 -1 -199 49 -296 100 -163 85 -116
78 74 -11z m-149 10 c3 -5 1 -10 -4 -10 -6 0 -11 5 -11 10 0 6 2 10 4 10 3 0
8 -4 11 -10z m95 -50 c13 -8 13 -10 -2 -10 -9 0 -20 5 -23 10 -8 13 5 13 25 0z
m405 -30 c-3 -5 -10 -10 -16 -10 -5 0 -9 5 -9 10 0 6 7 10 16 10 8 0 12 -4 9
-10z m-251 -25 c100 -28 122 -39 56 -30 -47 7 -170 44 -170 51 0 8 27 3 114
-21z"/>
<path d="M3593 8915 c-18 -8 -33 -16 -33 -19 0 -7 63 15 75 25 14 13 -5 10
-42 -6z"/>
<path d="M3488 8864 c-16 -8 -28 -17 -28 -19 0 -11 19 -4 41 15 29 23 24 25
-13 4z"/>
<path d="M3530 8824 l-25 -15 25 7 c14 3 32 10 40 15 13 7 13 8 0 8 -8 0 -26
-6 -40 -15z"/>
<path d="M3496 8755 c-11 -8 -17 -17 -14 -20 3 -3 16 3 29 14 27 23 14 28 -15
6z"/>
<path d="M3470 8630 c-9 -6 -10 -10 -3 -10 6 0 15 5 18 10 8 12 4 12 -15 0z"/>
<path d="M3215 8416 c-57 -14 -122 -43 -132 -59 -4 -7 0 -8 13 -2 10 5 55 21
99 36 44 16 85 31 90 33 20 9 -21 4 -70 -8z"/>
<path d="M3275 8380 c-3 -5 1 -10 9 -10 9 0 16 5 16 10 0 6 -4 10 -9 10 -6 0
-13 -4 -16 -10z"/>
<path d="M3328 8313 c7 -3 16 -2 19 1 4 3 -2 6 -13 5 -11 0 -14 -3 -6 -6z"/>
<path d="M3855 8410 c-11 -5 -43 -9 -72 -9 -56 -1 -83 -8 -83 -22 0 -5 27 -9
60 -9 33 0 60 -4 60 -9 0 -8 -120 -51 -145 -51 -7 0 -16 -4 -20 -9 -3 -6 9 -8
29 -4 28 4 41 0 66 -21 54 -45 100 -28 100 38 0 44 10 56 49 57 20 0 30 3 24
6 -7 2 -13 13 -13 24 0 20 -21 24 -55 9z m-71 -115 c3 -9 0 -15 -9 -15 -8 0
-15 7 -15 15 0 8 4 15 9 15 5 0 11 -7 15 -15z"/>
<path d="M3730 8230 c0 -5 5 -10 10 -10 6 0 10 5 10 10 0 6 -4 10 -10 10 -5 0
-10 -4 -10 -10z"/>
<path d="M3408 8177 c-12 -29 -10 -63 3 -50 6 6 9 23 7 39 -2 24 -4 26 -10 11z"/>
<path d="M4823 7933 c-13 -2 -23 -9 -23 -14 0 -15 123 -7 128 9 4 12 -53 15
-105 5z"/>
<path d="M4754 7822 c-33 -21 -65 -147 -39 -154 6 -1 20 26 33 62 23 66 26
105 6 92z"/>
<path d="M4881 7808 c-18 -34 -50 -46 -66 -25 -10 14 -14 8 -23 -34 -7 -28
-12 -63 -11 -77 0 -25 1 -25 13 8 10 27 18 35 37 35 19 0 25 -6 29 -33 12 -81
43 -2 38 98 -3 54 -3 55 -17 28z"/>
<path d="M3129 7259 c27 -22 49 -26 32 -5 -6 8 -22 16 -34 19 -22 6 -22 6 2
-14z"/>
<path d="M3226 7203 c-6 -6 89 -103 101 -103 2 0 3 8 3 18 0 10 -15 26 -32 37
-26 16 -29 20 -15 23 14 3 16 7 6 18 -12 15 -51 19 -63 7z"/>
<path d="M3351 7181 c-24 -13 -29 -20 -19 -24 8 -3 21 -1 29 4 24 15 39 10 39
-14 0 -13 11 -34 25 -47 36 -34 31 -42 -15 -24 -40 16 -41 16 -60 -9 -14 -17
-26 -23 -40 -20 -23 6 -28 -15 -8 -35 16 -16 38 -15 38 1 0 8 9 22 20 32 20
18 22 18 66 -3 53 -26 70 -27 78 -7 9 24 -3 42 -40 64 -24 14 -34 28 -34 45 0
59 -20 68 -79 37z"/>
<path d="M3185 7120 c10 -11 23 -20 28 -20 6 0 2 9 -8 20 -10 11 -23 20 -28
20 -6 0 -2 -9 8 -20z"/>
<path d="M3184 7871 c3 -5 16 -11 28 -14 22 -6 22 -5 4 8 -22 17 -40 20 -32 6z"/>
<path d="M3145 7830 c10 -15 65 -42 78 -37 7 2 -7 14 -30 25 -47 24 -57 27
-48 12z"/>
<path d="M3277 7760 c18 -11 45 -22 60 -25 25 -6 23 -3 -12 19 -22 14 -49 26
-60 26 -16 0 -13 -4 12 -20z"/>
<path d="M3080 7641 c0 -11 67 -71 80 -71 17 0 11 15 -12 37 -30 27 -68 46
-68 34z"/>
<path d="M3870 7460 c0 -9 39 -25 46 -18 2 3 -7 10 -21 16 -14 6 -25 7 -25 2z"/>
<path d="M3840 7425 c0 -3 14 -11 30 -20 17 -9 30 -11 30 -6 0 5 -13 14 -30
20 -16 5 -30 8 -30 6z"/>
<path d="M5275 5670 c9 -130 17 -190 26 -190 12 0 11 36 -2 144 -15 124 -31
154 -24 46z"/>
<path d="M2883 6553 c9 -9 20 -13 24 -9 4 4 1 11 -7 16 -25 16 -35 11 -17 -7z"/>
<path d="M3162 5850 c0 -14 2 -19 5 -12 2 6 2 18 0 25 -3 6 -5 1 -5 -13z"/>
<path d="M3160 5781 c0 -8 9 -98 21 -200 23 -198 23 -350 0 -711 -12 -209 -21
-895 -10 -855 6 24 50 798 49 868 0 15 5 17 30 12 38 -8 38 4 0 30 -36 24 -40
55 -8 55 l21 0 -22 24 c-24 25 -21 46 5 46 20 0 18 14 -6 35 -24 21 -26 35 -6
35 23 0 29 20 12 39 -17 19 -22 57 -8 63 8 3 6 41 -17 288 -6 67 -6 99 2 108
8 11 7 16 -5 23 -10 5 -22 34 -28 67 -13 59 -29 100 -30 73z"/>
<path d="M3255 4820 c3 -5 8 -10 11 -10 2 0 4 5 4 10 0 6 -5 10 -11 10 -5 0
-7 -4 -4 -10z"/>
<path d="M3250 4750 c0 -5 7 -10 15 -10 8 0 15 5 15 10 0 6 -7 10 -15 10 -8 0
-15 -4 -15 -10z"/>
<path d="M3250 4680 c0 -12 40 -34 48 -26 3 4 -3 13 -14 21 -22 17 -34 19 -34
5z"/>
<path d="M3252 4598 c5 -15 50 -39 58 -32 5 6 -40 43 -53 44 -5 0 -7 -6 -5
-12z"/>
<path d="M3232 4528 c6 -17 65 -51 80 -46 7 3 -6 16 -27 31 -43 29 -59 34 -53
15z"/>
<path d="M3230 4453 c0 -8 64 -53 75 -53 17 0 -1 19 -35 39 -22 12 -40 19 -40
14z"/>
<path d="M3225 4370 c9 -15 95 -63 101 -57 7 6 -80 67 -96 67 -6 0 -8 -4 -5
-10z"/>
<path d="M3231 4274 c21 -25 109 -67 109 -51 0 16 -78 67 -103 67 -17 0 -18
-2 -6 -16z"/>
<path d="M3210 4212 c0 -11 109 -76 116 -69 6 5 -95 77 -108 77 -5 0 -8 -4 -8
-8z"/>
<path d="M3229 4117 c13 -17 111 -71 116 -65 6 5 -105 78 -118 78 -5 0 -5 -5
2 -13z"/>
<path d="M3220 4053 c0 -11 92 -73 109 -73 10 0 11 3 2 13 -15 19 -111 70
-111 60z"/>
<path d="M3224 3971 c9 -14 97 -63 103 -57 3 3 -16 19 -43 35 -48 31 -70 39
-60 22z"/>
<path d="M3230 3890 c0 -5 27 -23 60 -40 58 -29 76 -55 46 -66 -8 -3 -39 9
-70 26 -78 44 -70 18 9 -31 95 -60 84 -99 -11 -43 -25 15 -48 23 -52 20 -9 -9
46 -53 86 -68 19 -7 32 -19 32 -29 0 -25 -21 -29 -50 -9 -14 10 -36 21 -50 25
-24 7 -25 7 -7 -12 10 -11 35 -28 57 -38 34 -15 40 -23 40 -49 0 -60 -40 -352
-56 -406 -26 -91 -45 -140 -58 -153 -22 -22 -37 -141 -41 -322 -4 -188 -3
-185 25 83 8 79 24 144 66 270 69 206 82 279 94 507 14 260 13 306 -4 299 -8
-3 -37 6 -65 20 -28 15 -51 22 -51 16z"/>
<path d="M3205 3600 c8 -14 86 -53 92 -47 6 7 -68 57 -85 57 -7 0 -10 -5 -7
-10z"/>
<path d="M3392 5769 c2 -7 10 -15 17 -17 8 -3 12 1 9 9 -2 7 -10 15 -17 17 -8
3 -12 -1 -9 -9z"/>
<path d="M3410 5679 c0 -5 5 -7 10 -4 6 3 10 8 10 11 0 2 -4 4 -10 4 -5 0 -10
-5 -10 -11z"/>
<path d="M3420 5541 c0 -5 7 -12 16 -15 24 -9 28 -7 14 9 -14 17 -30 20 -30 6z"/>
<path d="M3420 5461 c0 -10 25 -21 48 -21 15 1 14 3 -2 15 -22 17 -46 20 -46
6z"/>
<path d="M3420 5381 c0 -13 22 -27 53 -35 33 -8 36 7 5 28 -24 17 -58 21 -58
7z"/>
<path d="M3430 5066 c0 -8 20 -21 45 -29 55 -19 58 -8 6 21 -46 26 -51 27 -51
8z"/>
<path d="M3370 6820 c8 -5 22 -10 30 -10 13 0 13 1 0 10 -8 5 -22 10 -30 10
-13 0 -13 -1 0 -10z"/>
<path d="M3365 6750 c3 -5 13 -10 21 -10 8 0 12 5 9 10 -3 6 -13 10 -21 10 -8
0 -12 -4 -9 -10z"/>
<path d="M3706 5610 c5 -101 26 -254 49 -360 l14 -65 -4 70 c-7 97 -44 384
-55 420 -7 21 -8 0 -4 -65z"/>
<path d="M2240 6110 c0 -5 5 -10 10 -10 6 0 10 5 10 10 0 6 -4 10 -10 10 -5 0
-10 -4 -10 -10z"/>
<path d="M4584 5865 c3 -11 19 -90 36 -175 18 -85 36 -159 42 -165 6 -6 7 7 3
35 -10 70 -64 290 -76 308 -9 15 -9 14 -5 -3z"/>
<path d="M4405 5769 c-4 -6 -5 -12 -2 -15 7 -7 37 7 37 17 0 13 -27 11 -35 -2z"/>
<path d="M4420 5692 c0 -14 11 -21 26 -15 21 8 17 23 -6 23 -11 0 -20 -4 -20
-8z"/>
<path d="M4657 5140 c-11 -40 -24 -191 -16 -183 11 11 31 147 27 180 l-4 28
-7 -25z"/>
<path d="M4512 4579 c2 -7 10 -15 17 -17 8 -3 12 1 9 9 -2 7 -10 15 -17 17 -8
3 -12 -1 -9 -9z"/>
<path d="M4650 6101 c-7 -15 -7 -21 0 -21 12 0 25 28 17 36 -3 3 -10 -4 -17
-15z"/>
<path d="M2820 5861 c0 -11 25 -21 53 -21 21 1 21 1 -3 15 -29 16 -50 19 -50
6z"/>
<path d="M4150 4411 c0 -21 143 -51 154 -32 5 7 -3 11 -22 11 -16 0 -51 7 -78
15 -58 18 -54 17 -54 6z"/>
<path d="M4184 4335 c11 -8 38 -15 60 -14 l41 1 -50 14 c-63 17 -75 17 -51 -1z"/>
<path d="M4180 4271 c14 -9 83 -15 105 -11 17 4 -47 18 -85 19 -25 0 -31 -2
-20 -8z"/>
<path d="M4120 3895 c0 -14 5 -25 10 -25 6 0 10 11 10 25 0 14 -4 25 -10 25
-5 0 -10 -11 -10 -25z"/>
<path d="M4211 3570 c-7 -23 -18 -40 -26 -40 -8 0 -15 -5 -15 -11 0 -6 10 -9
22 -7 14 2 25 14 33 37 12 38 19 34 30 -17 4 -22 15 -36 31 -42 31 -12 31 -26
0 -34 -19 -5 -26 -15 -31 -48 -10 -60 -17 -67 -31 -33 l-13 30 -1 -42 c0 -38
3 -43 23 -43 20 0 25 7 33 53 9 51 10 52 44 52 25 0 36 5 38 18 5 25 -25 67
-48 67 -19 0 -26 14 -32 70 -2 17 -10 26 -24 28 -16 2 -23 -5 -33 -38z"/>
<path d="M4132 3470 c0 -19 2 -27 5 -17 2 9 2 25 0 35 -3 9 -5 1 -5 -18z"/>
<path d="M4170 3466 c0 -13 39 -30 48 -21 8 7 -20 35 -34 35 -8 0 -14 -6 -14
-14z"/>
<path d="M3021 4054 c0 -11 3 -14 6 -6 3 7 2 16 -1 19 -3 4 -6 -2 -5 -13z"/>
<path d="M2996 3923 c-11 -11 -6 -23 9 -23 8 0 15 4 15 9 0 13 -16 22 -24 14z"/>
<path d="M2980 3841 c0 -11 31 -24 39 -16 3 3 -1 10 -9 15 -19 12 -30 12 -30
1z"/>
<path d="M2967 3774 c-10 -11 3 -24 24 -24 23 0 25 15 3 24 -19 7 -19 7 -27 0z"/>
<path d="M2950 3632 c0 -5 9 -12 21 -15 13 -3 19 -1 16 6 -5 15 -37 22 -37 9z"/>
<path d="M2950 3440 c0 -5 5 -10 11 -10 5 0 7 5 4 10 -3 6 -8 10 -11 10 -2 0
-4 -4 -4 -10z"/>
<path d="M2935 3370 c3 -5 16 -10 28 -10 18 0 19 2 7 10 -20 13 -43 13 -35 0z"/>
<path d="M2950 3285 c0 -8 9 -15 20 -15 24 0 27 15 4 24 -22 9 -24 8 -24 -9z"/>
<path d="M2910 3231 c0 -13 24 -31 42 -31 28 0 21 14 -12 27 -16 6 -30 8 -30
4z"/>
<path d="M2900 3141 c0 -10 24 -21 47 -21 13 0 13 3 3 15 -13 16 -50 21 -50 6z"/>
<path d="M2908 2993 c7 -3 16 -2 19 1 4 3 -2 6 -13 5 -11 0 -14 -3 -6 -6z"/>
<path d="M2895 2930 c3 -5 14 -10 23 -10 15 0 15 2 2 10 -20 13 -33 13 -25 0z"/>
<path d="M3890 4060 c0 -5 9 -10 20 -10 11 0 20 5 20 10 0 6 -9 10 -20 10 -11
0 -20 -4 -20 -10z"/>
<path d="M3898 3983 c7 -3 16 -2 19 1 4 3 -2 6 -13 5 -11 0 -14 -3 -6 -6z"/>
<path d="M3888 3908 c9 -9 15 -9 24 0 9 9 7 12 -12 12 -19 0 -21 -3 -12 -12z"/>
<path d="M3890 3850 c0 -5 9 -10 20 -10 11 0 20 5 20 10 0 6 -9 10 -20 10 -11
0 -20 -4 -20 -10z"/>
<path d="M3898 3773 c6 -2 18 -2 25 0 6 3 1 5 -13 5 -14 0 -19 -2 -12 -5z"/>
<path d="M3900 3630 c0 -5 7 -10 15 -10 8 0 15 5 15 10 0 6 -7 10 -15 10 -8 0
-15 -4 -15 -10z"/>
<path d="M4410 3120 c0 -5 7 -10 15 -10 8 0 15 5 15 10 0 6 -7 10 -15 10 -8 0
-15 -4 -15 -10z"/>
<path d="M4400 2920 c0 -5 11 -10 25 -10 14 0 25 5 25 10 0 6 -11 10 -25 10
-14 0 -25 -4 -25 -10z"/>
<path d="M4418 2853 c6 -2 18 -2 25 0 6 3 1 5 -13 5 -14 0 -19 -2 -12 -5z"/>
<path d="M4435 2790 c-4 -6 5 -10 19 -10 14 0 26 5 26 10 0 6 -9 10 -19 10
-11 0 -23 -4 -26 -10z"/>
<path d="M4438 2443 c12 -2 32 -2 45 0 12 2 2 4 -23 4 -25 0 -35 -2 -22 -4z"/>
<path d="M4475 2370 c3 -5 15 -10 26 -10 11 0 17 5 14 10 -3 6 -15 10 -26 10
-11 0 -17 -4 -14 -10z"/>
<path d="M4460 2320 c0 -5 6 -10 13 -10 6 0 23 -3 37 -6 17 -5 22 -3 15 3 -15
15 -65 25 -65 13z"/>
<path d="M4456 2261 c6 -6 28 -14 50 -18 29 -4 36 -3 28 6 -6 6 -28 14 -50 18
-29 4 -36 3 -28 -6z"/>
<path d="M4490 2190 c20 -13 63 -13 55 0 -3 6 -21 10 -38 10 -24 0 -28 -3 -17
-10z"/>
<path d="M4494 2139 c-3 -5 1 -9 8 -9 7 0 24 -3 37 -7 16 -4 22 -2 18 4 -9 14
-56 23 -63 12z"/>
<path d="M4490 2082 c0 -11 11 -15 65 -26 28 -6 29 -5 11 9 -11 8 -25 15 -32
15 -7 0 -19 3 -28 6 -9 3 -16 1 -16 -4z"/>
<path d="M1970 2677 c0 -27 13 -36 26 -16 3 6 -1 18 -10 27 -15 15 -16 14 -16
-11z"/>
<path d="M4240 1764 c-14 -2 -56 -9 -95 -16 -38 -6 -83 -12 -100 -12 -20 -1
-31 -7 -33 -18 -4 -23 11 -23 98 1 38 11 107 23 152 27 99 8 139 24 58 22 -30
0 -66 -2 -80 -4z"/>
<path d="M3774 1685 c-14 -11 -15 -14 -4 -15 26 0 60 12 60 21 0 14 -34 10
-56 -6z"/>
<path d="M4155 1680 c-26 -7 -23 -8 20 -8 28 0 59 3 70 8 26 11 -46 11 -90 0z"/>
<path d="M3800 1635 c-41 -13 -85 -24 -97 -24 -13 -1 -23 -6 -23 -12 0 -23
219 25 235 51 10 16 -34 10 -115 -15z"/>
<path d="M4190 1627 c-47 -6 -76 -13 -66 -15 32 -7 206 9 206 19 0 11 -25 10
-140 -4z"/>
<path d="M3833 1573 c-13 -2 -23 -9 -23 -14 0 -9 62 -3 110 12 20 6 15 7 -20
7 -25 0 -55 -3 -67 -5z"/>
<path d="M3735 1560 c-3 -5 1 -10 9 -10 9 0 16 5 16 10 0 6 -4 10 -9 10 -6 0
-13 -4 -16 -10z"/>
<path d="M4161 1559 c-24 -5 -47 -11 -50 -15 -7 -7 127 4 199 16 40 7 37 8
-30 8 -41 0 -95 -4 -119 -9z"/>
<path d="M3797 1499 c7 -7 24 -8 54 -1 l44 10 -54 1 c-40 1 -52 -2 -44 -10z"/>
<path d="M4187 1500 c-63 -8 -102 -30 -54 -30 61 0 226 23 221 31 -6 10 -83
10 -167 -1z"/>
<path d="M3718 1473 c7 -3 16 -2 19 1 4 3 -2 6 -13 5 -11 0 -14 -3 -6 -6z"/>
<path d="M3818 1433 c6 -2 18 -2 25 0 6 3 1 5 -13 5 -14 0 -19 -2 -12 -5z"/>
<path d="M4171 1427 c-30 -7 -57 -18 -59 -26 -3 -9 0 -12 10 -9 8 4 50 12 94
18 155 24 167 28 84 28 -41 0 -99 -5 -129 -11z"/>
<path d="M3718 1413 c7 -3 16 -2 19 1 4 3 -2 6 -13 5 -11 0 -14 -3 -6 -6z"/>
<path d="M3843 1383 c-13 -2 -23 -9 -23 -15 0 -6 10 -8 23 -4 12 3 25 6 30 6
4 0 7 5 7 10 0 6 -3 9 -7 9 -5 -1 -18 -4 -30 -6z"/>
<path d="M3743 1367 c-40 -12 -45 -32 -5 -22 27 6 49 22 41 28 -2 2 -19 -1
-36 -6z"/>
<path d="M4151 1359 c-24 -5 -46 -11 -49 -13 -5 -5 51 -2 203 13 l80 8 -95 1
c-52 0 -115 -4 -139 -9z"/>
<path d="M3843 1314 c-28 -12 -11 -24 33 -24 32 0 44 4 42 13 -5 13 -54 20
-75 11z"/>
<path d="M4248 1311 c-53 -3 -100 -9 -104 -14 -9 -9 196 -9 251 0 31 5 35 8
20 14 -22 8 -27 8 -167 0z"/>
<path d="M3734 1285 c-14 -11 -15 -14 -4 -15 26 0 60 12 60 21 0 14 -34 10
-56 -6z"/>
<path d="M3915 1259 c-76 -18 -66 -32 18 -25 84 7 107 13 107 27 0 11 -72 10
-125 -2z"/>
<path d="M3759 1224 c-12 -14 -11 -16 5 -13 11 2 21 10 24 17 5 17 -13 15 -29
-4z"/>
<path d="M4905 1200 c-3 -5 3 -10 14 -10 12 0 21 5 21 10 0 6 -6 10 -14 10 -8
0 -18 -4 -21 -10z"/>
</g>
</svg>
