<?xml version="1.0" standalone="no"?>
<!DOCTYPE svg PUBLIC "-//W3C//DTD SVG 20010904//EN"
 "http://www.w3.org/TR/2001/REC-SVG-20010904/DTD/svg10.dtd">
<svg version="1.0" xmlns="http://www.w3.org/2000/svg"
 width="900.000000pt" height="1800.000000pt" viewBox="0 0 900.000000 1800.000000"
 preserveAspectRatio="xMidYMid meet">

<g transform="translate(0.000000,1800.000000) scale(0.100000,-0.100000)"
fill="#000000" stroke="none">
<path d="M5013 17991 c-17 -4 -49 -17 -70 -28 -21 -11 -60 -31 -88 -45 -64
-33 -155 -53 -335 -73 -295 -32 -846 -106 -867 -115 -21 -9 -23 -16 -23 -80 0
-80 -10 -108 -69 -199 -22 -35 -41 -76 -41 -91 0 -34 47 -108 91 -141 19 -14
76 -52 126 -83 135 -83 140 -99 57 -208 -162 -212 -198 -413 -99 -544 43 -57
91 -67 277 -61 109 3 180 10 213 21 28 9 51 16 53 16 2 0 -9 -23 -24 -51 -40
-73 -119 -141 -208 -178 -41 -17 -170 -55 -288 -85 -254 -65 -392 -108 -473
-148 -152 -77 -505 -440 -624 -643 -55 -93 -67 -137 -96 -355 -75 -576 -141
-836 -331 -1317 -126 -319 -213 -502 -288 -601 -30 -40 -81 -121 -113 -179
-32 -58 -85 -136 -118 -173 -65 -72 -156 -225 -198 -330 -30 -76 -44 -154 -52
-300 -10 -168 -22 -216 -81 -341 -34 -71 -59 -140 -65 -180 -7 -42 -8 -164 -4
-354 8 -339 8 -336 -91 -623 -35 -101 -73 -227 -83 -280 -43 -213 -53 -753
-17 -886 22 -77 49 -121 86 -136 28 -12 50 -34 109 -111 16 -20 53 -45 100
-66 53 -24 96 -54 146 -101 45 -44 95 -79 140 -100 132 -63 143 -85 155 -301
4 -86 16 -198 26 -248 l18 -92 -27 -67 c-31 -75 -46 -193 -47 -369 -1 -141
-19 -323 -69 -671 -50 -347 -57 -413 -76 -699 -22 -338 -43 -572 -65 -730 -26
-187 -57 -468 -70 -640 -17 -223 -28 -316 -65 -540 -19 -115 -46 -295 -60
-400 -14 -104 -41 -298 -60 -430 -18 -132 -46 -357 -60 -500 -27 -272 -49
-436 -65 -495 -6 -19 -15 -111 -20 -203 -6 -93 -24 -275 -40 -404 -33 -260
-36 -312 -18 -380 14 -59 60 -104 163 -165 163 -96 265 -128 493 -158 84 -12
155 -26 169 -35 13 -9 36 -36 51 -61 23 -37 44 -53 113 -88 46 -24 116 -60
154 -80 88 -46 130 -54 507 -102 275 -34 312 -37 364 -26 77 16 105 44 112
111 2 28 9 54 13 57 11 6 227 -42 248 -55 25 -16 1 -31 -48 -31 -58 0 -86 -18
-76 -49 4 -12 18 -26 32 -32 36 -14 164 -23 207 -15 42 8 48 32 11 46 -54 21
-12 43 104 55 l64 7 -7 122 c-10 167 4 217 37 139 26 -63 36 -102 81 -325 51
-247 69 -301 139 -406 98 -146 240 -262 323 -262 17 0 43 -9 58 -21 56 -44
180 -33 297 26 81 41 190 74 377 115 221 47 317 90 381 167 17 21 52 87 77
148 26 60 56 121 68 133 33 37 95 70 166 88 81 20 116 11 188 -50 29 -25 94
-70 145 -100 104 -61 141 -97 218 -210 117 -172 375 -412 528 -489 220 -113
323 -125 556 -64 246 64 322 122 333 253 4 53 3 57 -52 137 -31 45 -69 116
-85 158 -16 42 -56 130 -89 195 -33 66 -74 160 -91 209 -38 107 -57 130 -121
145 -59 14 -90 43 -72 68 44 62 46 73 23 178 -12 55 -28 169 -36 254 -8 85
-23 193 -34 240 -26 108 -56 326 -76 550 -26 294 -55 583 -64 636 -4 28 -6
370 -3 760 5 724 -6 1307 -34 1904 -8 179 -19 669 -25 1090 -5 421 -12 789
-15 818 l-6 53 46 -33 c44 -31 53 -33 151 -36 62 -3 117 0 138 7 60 20 144
121 209 251 39 78 81 143 131 201 136 163 206 335 227 559 17 186 -8 664 -45
855 -5 23 1 41 24 75 46 70 54 139 55 470 1 291 1 296 -28 415 -15 66 -64 217
-108 335 l-80 215 36 115 c42 133 61 217 76 349 20 160 12 190 -149 569 -104
245 -143 378 -192 652 -69 385 -79 424 -173 650 -49 118 -49 124 14 117 28 -3
63 -2 78 4 37 14 90 66 114 113 86 166 -41 564 -261 822 -98 115 -139 223
-192 514 -41 224 -74 351 -115 441 -19 42 -34 82 -34 88 0 32 -59 121 -119
180 -107 107 -353 273 -582 393 -158 84 -277 133 -354 147 -49 9 -65 17 -90
46 -18 21 -59 48 -105 69 -100 44 -106 52 -92 121 15 71 48 135 112 215 75 93
104 159 96 218 -11 73 -41 158 -100 274 -61 121 -74 182 -56 260 11 42 26 65
86 130 127 135 192 249 178 311 -13 61 -104 88 -297 88 -76 1 -140 -1 -143 -3
-2 -3 -8 -123 -14 -268 -6 -169 -14 -267 -21 -276 -12 -15 -92 -19 -148 -8
l-31 7 1 236 c0 130 4 245 8 256 8 19 8 19 19 -1 6 -12 23 -86 37 -165 57
-318 70 -309 82 53 l6 196 -34 21 c-19 12 -56 28 -84 37 -59 18 -206 27 -252
15z m102 -186 c9 -44 27 -165 40 -269 22 -164 23 -192 11 -204 -33 -33 -39
-10 -61 233 -8 94 -20 199 -26 234 -10 65 -4 110 12 94 5 -5 16 -45 24 -88z
m460 -118 c0 -34 -4 -71 -8 -82 -8 -20 -9 -20 -23 -1 -17 23 -19 118 -3 148
18 34 34 4 34 -65z m122 -4 c-2 -16 -4 -5 -4 22 0 28 2 40 4 28 2 -13 2 -35 0
-50z m-1287 -71 c0 -9 20 -100 45 -202 50 -207 52 -218 28 -227 -26 -10 -50
31 -63 109 -6 40 -22 117 -36 171 -28 116 -29 135 -8 158 19 21 34 16 34 -9z
m594 11 c4 -9 10 -69 13 -133 6 -110 8 -116 35 -142 32 -30 35 -43 12 -52 -33
-13 -73 -6 -84 13 -11 21 -14 249 -4 300 7 34 18 40 28 14z m-994 -46 c0 -40
-17 -24 -26 23 -7 32 -6 34 9 21 9 -7 17 -27 17 -44z m130 22 c0 -17 -4 -28
-10 -24 -5 3 -10 17 -10 31 0 13 5 24 10 24 6 0 10 -14 10 -31z m-361 -57 c18
-35 24 -116 9 -136 -13 -17 -15 -17 -31 -1 -12 11 -17 33 -17 70 0 80 17 108
39 67z m507 -7 c7 -18 -14 -47 -27 -39 -5 3 -9 16 -9 30 0 27 27 34 36 9z
m582 -22 c11 -22 32 -139 32 -179 0 -16 -5 -36 -10 -44 -18 -29 -41 12 -51 90
-13 108 3 183 29 133z m-264 -64 c37 -124 43 -229 12 -229 -28 0 -49 63 -54
161 -7 141 12 170 42 68z m134 -14 c25 -55 27 -175 3 -175 -20 0 -48 141 -36
179 8 28 19 27 33 -4z m-701 -137 c13 -12 23 -25 23 -30 0 -9 -101 -11 -124
-2 -21 8 -20 31 2 43 29 17 74 12 99 -11z m158 -37 c8 -26 -5 -53 -24 -49 -29
6 -27 68 3 68 8 0 17 -8 21 -19z m139 -33 c14 -20 14 -24 1 -38 -21 -20 -49
-2 -53 34 -3 20 1 26 17 26 11 0 27 -10 35 -22z m1123 -30 c8 -7 13 -25 11
-47 l-3 -36 -69 -11 c-90 -15 -116 -41 -116 -118 0 -68 20 -134 83 -276 41
-94 50 -126 51 -175 1 -58 0 -60 -27 -63 -15 -2 -62 7 -103 19 -86 26 -119 20
-143 -23 -26 -46 -7 -76 88 -138 96 -63 87 -77 -26 -39 -59 19 -72 21 -113 10
-99 -27 -170 -90 -140 -126 18 -21 73 -19 100 5 27 23 63 35 84 27 32 -13 76
-120 76 -188 0 -80 -159 -112 -315 -65 -77 24 -114 51 -135 101 -13 31 -37 58
-82 92 -67 52 -282 239 -310 270 -17 18 -16 31 7 243 36 340 42 360 119 405
118 69 294 107 626 135 69 6 143 12 165 14 62 6 156 -3 172 -16z m-1203 -124
c24 -9 19 -30 -11 -52 -25 -18 -27 -25 -28 -93 -1 -54 -8 -89 -24 -126 -44
-99 -69 -47 -51 104 14 119 19 141 37 158 15 16 50 19 77 9z m1262 -299 c17
-26 13 -88 -7 -101 -27 -16 -71 84 -48 112 17 21 36 17 55 -11z m-1376 -335
c0 -16 -7 -20 -30 -20 -32 0 -37 9 -18 28 19 19 48 15 48 -8z m1393 -236 c18
-9 50 -29 72 -44 66 -45 177 -98 223 -105 81 -13 137 -92 130 -186 -3 -39 -6
-44 -29 -47 -35 -4 -39 -20 -39 -172 -1 -179 -17 -355 -39 -425 -10 -33 -44
-130 -76 -215 -78 -212 -118 -329 -149 -432 -34 -112 -88 -230 -94 -205 -6 29
16 268 34 354 20 100 67 240 109 323 18 36 43 99 55 140 12 41 33 93 45 115
64 111 72 285 20 460 -41 139 -65 175 -185 275 -134 113 -162 142 -154 163 8
21 36 22 77 1z m-1225 -66 c19 -19 14 -46 -8 -53 -21 -7 -70 17 -70 33 0 15
24 32 45 32 12 0 26 -5 33 -12z m1138 -93 c20 -50 -1 -97 -51 -113 -23 -7 -53
-28 -72 -50 -24 -29 -34 -34 -43 -25 -15 14 11 72 72 164 46 68 73 75 94 24z
m-1168 -57 c17 -17 15 -28 -6 -28 -19 0 -42 18 -42 32 0 12 35 9 48 -4z m1892
-73 c60 -31 139 -298 215 -730 98 -554 108 -650 124 -1155 5 -157 12 -293 16
-302 11 -27 34 -22 46 10 6 15 16 137 22 271 20 460 -15 820 -129 1321 -84
370 -96 440 -75 440 14 0 59 -39 83 -72 12 -18 25 -50 28 -72 l5 -41 53 -2
c63 -2 103 -25 147 -86 26 -36 29 -50 32 -124 3 -89 27 -224 62 -340 36 -120
49 -98 58 95 10 221 26 187 78 -168 52 -358 75 -577 84 -823 9 -223 16 -267
47 -267 24 0 33 42 44 198 10 151 17 192 30 192 20 0 24 -49 25 -247 0 -223 4
-241 44 -228 31 9 49 52 72 168 12 56 25 106 30 111 11 12 37 -49 52 -121 10
-49 9 -55 -12 -84 -14 -18 -26 -55 -31 -90 -14 -97 -35 -107 -127 -64 -72 33
-146 45 -282 45 -126 0 -138 -4 -221 -67 -24 -18 -52 -33 -63 -33 -30 0 -212
-92 -319 -162 -71 -46 -105 -76 -126 -108 -28 -45 -95 -110 -111 -110 -14 0
-60 59 -67 86 -3 13 1 42 10 64 58 146 40 1055 -26 1300 -30 110 -31 131 -14
190 9 30 16 72 16 94 0 23 4 47 9 55 25 39 54 -45 81 -236 44 -310 52 -461 54
-925 1 -393 3 -449 17 -463 14 -15 18 -14 37 2 16 14 24 37 32 98 17 127 25
738 11 895 -16 184 -87 610 -114 684 -19 53 -22 81 -22 218 0 234 25 235 80 5
35 -145 92 -504 109 -692 36 -380 61 -836 51 -926 -5 -45 -3 -59 10 -72 65
-66 81 65 65 548 -20 615 -66 898 -235 1440 -85 274 -86 322 -5 280z m-1912
-99 c45 -51 54 -116 17 -116 -25 0 -83 118 -69 141 9 16 21 10 52 -25z m-63
-140 c89 -176 117 -215 140 -196 8 6 17 32 21 56 3 24 9 44 13 44 3 0 25 -38
49 -85 42 -82 93 -140 116 -132 6 2 16 19 23 38 17 49 33 41 109 -57 15 -20
26 -25 39 -21 15 6 17 15 11 68 l-7 60 51 -58 c63 -70 101 -104 112 -97 4 3 5
36 2 75 -9 95 2 94 76 -8 16 -24 38 -43 47 -43 14 0 15 10 10 80 -4 44 -4 80
-1 80 4 0 19 -11 36 -25 30 -26 53 -32 62 -16 16 25 -66 216 -109 253 -32 27
-35 82 -6 98 47 24 132 -5 146 -50 10 -31 -1 -36 -40 -17 -49 23 -55 22 -45
-13 13 -45 98 -202 139 -256 49 -66 66 -67 91 -9 19 45 20 46 42 31 26 -19
123 -21 180 -6 75 21 143 134 136 227 -5 60 0 67 41 58 42 -9 51 -41 51 -179
0 -149 -17 -221 -90 -391 -29 -66 -75 -174 -102 -240 l-51 -120 -7 -160 c-5
-88 -11 -335 -15 -550 -9 -565 -20 -777 -44 -847 -31 -90 -136 -287 -193 -363
l-53 -70 -195 -100 c-108 -55 -264 -140 -348 -189 -84 -48 -175 -97 -204 -108
-49 -18 -183 -34 -351 -40 l-78 -3 -78 85 c-176 193 -401 530 -353 530 13 0
73 -40 171 -114 244 -183 421 -256 621 -256 104 0 155 12 165 37 9 26 -6 33
-121 54 -223 41 -373 81 -430 115 -86 52 -219 159 -332 268 -101 98 -181 204
-235 312 -40 79 -96 251 -103 313 -9 81 -27 119 -60 127 -37 10 -61 -21 -69
-91 -8 -61 -29 -74 -40 -25 -16 73 18 169 79 226 35 31 48 53 61 100 9 32 37
113 62 179 26 66 75 206 111 310 35 105 70 197 79 207 12 13 14 45 11 176 -1
89 1 164 5 168 11 11 35 -26 43 -63 3 -18 10 -33 14 -33 5 0 21 24 37 53 40
74 57 73 140 -5 94 -88 124 -104 259 -139 147 -37 164 -48 164 -107 0 -18 -13
-83 -30 -145 -16 -62 -37 -157 -46 -212 -20 -120 -22 -355 -5 -505 6 -58 18
-197 26 -310 7 -113 21 -232 30 -264 31 -116 64 -159 91 -121 20 27 18 149 -6
405 -11 118 -23 276 -26 350 -6 135 -3 183 36 543 11 103 21 228 22 278 3 100
10 86 -82 157 -17 14 -34 39 -40 61 -10 40 -36 66 -143 150 -63 49 -102 95
-132 155 -14 28 -32 47 -57 58 -46 22 -55 51 -38 125 20 90 26 88 240 -71 280
-207 535 -351 680 -382 132 -28 397 -9 580 43 69 19 152 63 147 77 -7 20 -144
17 -342 -9 -170 -21 -210 -24 -281 -15 -240 30 -453 128 -695 322 -192 152
-247 228 -209 288 14 23 40 3 77 -61 52 -90 88 -134 111 -137 43 -6 47 74 6
119 -22 25 -33 123 -13 117 8 -2 50 -75 94 -162z m235 104 c11 -11 20 -31 20
-44 0 -12 11 -44 25 -70 42 -79 28 -106 -19 -36 -28 43 -66 132 -66 155 0 21
16 19 40 -5z m201 -72 c19 -38 26 -128 10 -128 -10 0 -51 61 -69 103 -13 30
-16 80 -5 90 10 10 43 -23 64 -65z m270 -24 c27 -44 52 -96 55 -114 7 -31 6
-32 -15 -20 -23 12 -103 128 -121 175 -6 15 -7 31 -4 36 14 23 39 -1 85 -77z
m-1556 26 c4 -6 -7 -10 -25 -10 -18 0 -29 4 -25 10 3 6 15 10 25 10 10 0 22
-4 25 -10z m2665 -92 c0 -38 -3 -49 -10 -38 -16 25 -11 90 7 90 2 0 3 -24 3
-52z m-2792 -105 c2 -42 -3 -61 -32 -114 -70 -128 -133 -361 -108 -398 24 -35
58 14 112 160 16 45 37 93 46 107 15 22 17 23 32 8 14 -14 15 -23 5 -70 -14
-64 -61 -162 -103 -216 -16 -21 -50 -47 -74 -59 -49 -23 -54 -28 -76 -85 -18
-48 -40 -59 -40 -21 0 43 88 458 116 548 40 124 83 202 108 194 6 -2 12 -26
14 -54z m450 -85 c17 -17 15 -63 -3 -78 -12 -10 -21 -10 -41 -2 -31 15 -40 37
-26 68 13 26 49 33 70 12z m-708 -140 c-1 -37 -47 -291 -59 -321 -31 -80 -42
50 -15 180 23 113 75 211 74 141z m-152 -154 l-13 -29 -3 46 c-1 25 3 58 10
75 l13 29 3 -46 c1 -25 -3 -58 -10 -75z m319 -426 c5 -75 3 -104 -9 -130 -9
-18 -19 -69 -23 -113 -12 -145 -76 -227 -83 -106 -4 74 11 170 55 344 42 167
50 168 60 5z m-270 65 c-4 -17 -4 -17 -12 0 -4 9 -4 25 0 35 8 16 8 16 12 0 3
-10 3 -26 0 -35z m3074 -180 c4 -861 -10 -1094 -77 -1226 -58 -117 -165 -230
-212 -225 -15 2 -28 10 -30 18 -1 8 25 49 59 90 66 80 89 123 89 167 0 15 11
71 24 123 40 156 58 318 60 520 0 102 -3 223 -8 270 -6 58 -5 104 3 140 20 95
73 270 82 270 5 0 9 -66 10 -147z m-3095 -213 c6 -41 -9 -71 -27 -53 -14 14
-25 135 -14 160 6 14 11 9 22 -27 7 -25 16 -61 19 -80z m2892 62 c4 -26 -27
-94 -39 -86 -12 7 -11 71 2 95 13 25 33 20 37 -9z m-53 -217 c3 -19 7 -51 10
-70 5 -26 12 -36 30 -41 13 -3 30 -13 37 -21 17 -21 -14 -43 -62 -43 -51 0
-60 14 -60 91 0 103 32 164 45 84z m-2685 -100 c0 -14 -4 -25 -10 -25 -5 0
-10 11 -10 25 0 14 5 25 10 25 6 0 10 -11 10 -25z m-371 -80 c11 -44 27 -123
36 -175 17 -106 32 -320 21 -320 -3 0 -15 5 -26 12 -10 7 -22 9 -25 6 -18 -18
-25 -96 -19 -218 5 -114 3 -138 -10 -155 -23 -30 -32 -8 -39 98 -4 51 -20 164
-37 252 -37 191 -38 278 -3 283 29 4 39 -18 46 -100 7 -76 23 -116 39 -100 6
6 9 52 6 115 -3 98 -5 106 -33 141 -66 82 -80 138 -50 196 17 33 56 63 67 52
4 -4 16 -43 27 -87z m4387 -406 c9 -16 -59 -142 -116 -214 -60 -76 -135 -209
-210 -372 -32 -71 -74 -162 -94 -203 -20 -41 -36 -89 -36 -107 0 -18 -14 -60
-31 -93 -37 -74 -157 -433 -170 -509 -10 -65 -25 -84 -43 -59 -27 37 26 255
121 498 36 91 85 224 110 295 25 72 71 180 104 241 62 118 80 183 59 209 -12
14 -17 13 -43 -12 -45 -42 -92 -121 -111 -186 -9 -31 -50 -135 -90 -230 -88
-206 -151 -384 -160 -452 -4 -27 -18 -72 -31 -100 -14 -29 -35 -111 -50 -195
-15 -79 -28 -147 -31 -150 -6 -6 -38 33 -61 75 -25 45 -29 198 -8 329 46 298
136 561 250 736 50 77 87 114 135 134 52 22 83 59 151 186 75 139 95 167 134
179 43 13 212 13 221 0z m-3814 -71 c-9 -9 -12 -4 -11 23 0 32 1 33 11 11 8
-17 8 -26 0 -34z m-762 -38 c6 -11 20 -64 32 -117 17 -80 21 -135 22 -298 l1
-200 -35 -5 c-23 -3 -36 -11 -38 -23 -5 -25 25 -67 48 -67 41 0 52 -69 21
-135 -10 -22 -26 -86 -35 -142 -17 -112 -56 -239 -71 -235 -6 1 -9 57 -6 150
4 175 -9 324 -50 568 -30 184 -35 304 -12 311 20 7 34 -36 43 -132 14 -138 47
-206 86 -174 21 17 17 91 -11 214 -26 115 -42 262 -32 289 9 22 24 20 37 -4z
m684 -26 c3 -9 6 -28 6 -42 0 -15 7 -38 15 -52 40 -69 66 -160 46 -160 -22 0
-91 188 -91 249 0 25 15 28 24 5z m3995 -13 c22 -14 6 -54 -49 -118 -28 -32
-73 -103 -102 -158 -58 -113 -230 -529 -317 -770 -70 -192 -104 -276 -137
-332 -41 -72 -61 -49 -39 44 51 219 207 635 369 988 51 110 98 218 104 241 22
76 121 137 171 105z m-3849 -74 c0 -33 -25 -12 -28 24 -2 32 -1 33 13 15 8
-11 15 -28 15 -39z m3940 -106 c5 -11 10 -29 10 -41 0 -11 19 -71 41 -131 47
-124 47 -124 -16 -199 -75 -89 -208 -394 -381 -875 -87 -243 -161 -406 -210
-464 -50 -59 -147 -94 -186 -67 -12 9 -39 16 -59 16 -30 0 -43 -8 -83 -52 -63
-70 -70 -61 -74 98 l-4 125 89 85 c156 149 271 217 289 170 9 -24 -8 -40 -133
-117 -86 -53 -120 -81 -140 -112 -14 -23 -39 -57 -54 -75 -86 -99 27 -74 149
33 35 30 66 55 70 55 4 -1 22 -21 40 -45 38 -52 53 -55 80 -17 29 40 45 81
137 347 46 132 95 271 109 309 42 109 33 136 -33 102 -19 -10 -31 -28 -40 -58
-16 -53 -106 -234 -122 -244 -17 -10 -30 17 -23 51 4 17 17 48 29 70 13 22 60
142 104 266 204 572 360 864 411 770z m-1321 -123 c-17 -60 -102 -172 -224
-294 -174 -175 -304 -256 -407 -256 -51 1 -108 18 -108 32 0 5 38 27 84 49 62
30 94 53 121 86 35 42 41 45 84 45 79 0 162 66 366 293 77 85 99 97 84 45z
m-3009 -121 c19 -37 53 -86 76 -109 22 -24 45 -55 51 -69 17 -40 26 -116 15
-123 -15 -9 -35 21 -41 62 -5 30 -14 41 -43 57 -21 11 -46 32 -57 46 -12 15
-31 29 -45 33 -13 3 -26 16 -30 28 -15 59 2 154 27 146 6 -2 28 -34 47 -71z
m-630 -124 c35 -127 74 -483 52 -483 -42 0 -102 314 -87 454 3 36 11 66 15 66
5 0 14 -17 20 -37z m5126 -106 c-5 -48 -13 -65 -69 -144 -85 -122 -407 -1020
-407 -1136 0 -51 19 -83 44 -74 25 10 46 64 129 332 80 257 155 454 218 574
21 41 39 87 39 102 0 40 20 79 41 79 27 0 49 -41 59 -107 19 -132 115 -441
201 -645 67 -159 79 -239 57 -385 -20 -131 -73 -316 -133 -469 -50 -127 -53
-140 -26 -149 25 -8 49 3 56 26 8 23 47 25 69 3 18 -18 22 -32 35 -134 6 -41
24 -120 41 -175 48 -155 63 -260 64 -445 1 -138 -2 -173 -17 -212 -10 -27 -23
-48 -28 -48 -5 0 -9 28 -9 63 0 66 -8 107 -20 107 -12 0 -36 -101 -65 -265
-14 -82 -37 -193 -50 -245 -13 -52 -26 -115 -30 -140 -28 -191 -46 -149 -56
137 -4 131 -12 263 -18 294 -28 163 -121 475 -186 629 -17 41 -35 89 -38 106
-12 62 -86 219 -117 247 -29 26 -73 36 -84 18 -6 -9 55 -181 127 -356 100
-244 193 -581 248 -902 18 -109 20 -135 9 -147 -18 -23 -53 -20 -78 7 -20 22
-94 193 -127 297 -57 178 -235 451 -392 601 -92 88 -115 98 -149 64 -45 -45
-28 -172 46 -337 70 -154 44 -192 -67 -100 -75 62 -108 82 -132 82 -43 0 -29
-69 26 -123 39 -39 87 -71 193 -130 98 -54 114 -75 151 -207 35 -124 46 -267
22 -291 -19 -19 -50 7 -227 188 l-161 165 -80 -7 c-181 -15 -321 -52 -359 -94
-20 -22 -33 -81 -18 -81 6 0 41 8 79 17 47 11 113 17 218 17 144 1 152 0 206
-26 53 -27 79 -57 79 -94 0 -9 14 -50 31 -92 72 -179 59 -294 -68 -581 -30
-69 -62 -134 -71 -143 -18 -21 -87 -24 -99 -5 -4 6 -11 91 -14 187 -6 167 -17
230 -38 230 -29 0 -71 -156 -71 -264 0 -34 9 -96 20 -137 32 -121 22 -160 -27
-106 -34 36 -43 92 -43 272 0 176 -12 299 -31 322 -18 20 -46 15 -54 -9 -3
-13 -8 -135 -11 -273 -5 -267 -10 -335 -24 -335 -23 0 -32 55 -41 238 -11 245
-17 295 -34 318 -13 18 -15 18 -31 2 -14 -14 -20 -49 -30 -171 -6 -85 -15
-163 -18 -175 -19 -60 -46 11 -46 121 0 44 10 155 21 246 17 134 19 174 10
209 -16 63 -14 75 20 108 34 32 59 74 59 99 0 8 -11 20 -25 25 -15 6 -25 17
-25 29 0 49 135 255 252 388 56 63 65 86 44 118 -25 38 -70 31 -126 -20 -81
-74 -108 -14 -51 117 10 24 42 127 71 229 66 230 143 459 174 513 51 89 54
156 8 156 -10 0 -23 5 -30 12 -48 48 59 215 187 293 117 70 168 151 221 344
17 62 39 129 49 149 17 35 43 106 147 397 25 72 92 238 148 370 56 132 113
271 126 308 14 38 35 80 48 95 l25 26 19 -25 c16 -19 19 -33 14 -72z m-5258
-54 c2 -17 -4 -46 -12 -64 l-14 -34 -1 68 c-1 51 2 68 12 65 6 -3 13 -18 15
-35z m-138 -22 c12 -45 26 -213 22 -254 -6 -47 -34 -29 -52 33 -10 30 -29 83
-44 118 -30 72 -28 90 15 127 37 30 45 26 59 -24z m1213 -48 c20 -18 44 -33
53 -33 8 0 48 -33 87 -73 85 -86 249 -200 381 -263 107 -52 234 -79 421 -90
160 -10 228 10 631 182 182 77 239 90 450 104 88 5 186 17 219 26 101 28 104
28 112 9 7 -19 -1 -59 -35 -187 -21 -77 -87 -525 -118 -793 -12 -104 -17 -280
-21 -690 -5 -553 11 -1658 26 -1792 9 -77 35 -126 71 -136 30 -8 38 24 28 108
-4 39 -11 522 -14 1075 -7 1096 -1 1317 42 1639 13 102 40 310 59 461 39 308
49 365 71 397 23 36 187 113 199 93 3 -4 -2 -41 -10 -82 -23 -109 -43 -240
-55 -363 -6 -60 -19 -155 -30 -210 -27 -137 -37 -294 -51 -756 -13 -452 -7
-897 17 -1180 18 -208 15 -263 -16 -279 -25 -13 -37 9 -51 88 -13 74 -12 1025
1 1427 13 391 24 553 61 888 30 270 33 357 13 364 -22 7 -61 -112 -84 -257
-13 -86 -87 -1062 -95 -1260 -10 -248 45 -1615 75 -1880 6 -47 14 -142 20
-211 13 -173 27 -202 117 -256 37 -21 49 -38 89 -121 25 -54 58 -113 72 -132
26 -33 27 -40 24 -138 -1 -58 3 -112 8 -123 13 -23 45 -24 95 -3 23 9 51 13
69 10 47 -9 103 -61 134 -124 23 -46 33 -57 53 -57 20 0 27 8 40 50 9 30 22
51 32 53 15 3 17 -6 15 -76 -3 -83 8 -112 42 -112 23 0 37 39 45 124 3 38 10
77 15 86 14 26 149 94 154 78 3 -7 6 -59 9 -115 2 -62 9 -108 17 -118 15 -18
46 -20 56 -4 4 6 11 70 15 143 12 168 31 280 59 342 19 43 23 46 30 29 4 -12
13 -135 19 -275 6 -140 13 -302 16 -360 3 -58 10 -388 15 -735 5 -346 18 -832
29 -1080 40 -902 46 -1155 46 -1965 0 -755 -1 -825 -20 -955 -26 -188 -27
-694 -2 -885 20 -152 77 -386 150 -615 64 -203 81 -270 73 -291 -6 -15 -8 -15
-26 1 -48 43 -156 261 -211 424 -77 227 -88 372 -114 1506 -27 1172 -63 1796
-160 2785 -41 418 -88 703 -119 730 -42 34 -51 -116 -22 -352 35 -284 86 -827
95 -1018 6 -114 18 -255 27 -315 13 -84 15 -143 10 -250 -11 -238 -20 -244
-34 -25 -32 486 -86 1012 -147 1445 -13 94 -33 261 -45 372 -20 207 -33 264
-51 246 -45 -45 3 -728 106 -1508 19 -143 37 -278 39 -300 6 -49 -5 -107 -21
-112 -17 -6 -29 52 -48 232 -9 88 -24 221 -35 295 -10 74 -26 194 -36 265 -9
72 -25 163 -35 203 -31 121 -48 364 -69 957 -16 444 -55 1027 -76 1132 -7 34
-30 61 -42 49 -21 -22 2 -1221 29 -1471 16 -150 23 -496 10 -527 -6 -16 -15
-28 -20 -28 -26 0 -34 77 -42 445 -18 842 -61 1511 -100 1550 -18 17 -37 -23
-44 -89 -6 -57 -1 -194 25 -646 5 -91 14 -379 20 -640 17 -766 31 -1163 42
-1183 25 -47 43 36 52 238 4 77 9 159 12 182 7 50 28 83 43 68 34 -34 56
-1082 47 -2275 -6 -866 -9 -984 -26 -1309 -7 -126 -16 -192 -31 -243 -29 -95
-21 -171 32 -303 22 -55 43 -122 45 -150 8 -79 13 -94 35 -105 30 -17 76 -2
120 37 l38 34 15 -23 c22 -33 33 -93 51 -268 24 -245 51 -339 97 -348 23 -4
30 22 36 136 2 57 8 100 13 95 4 -4 30 -58 58 -120 59 -132 103 -200 201 -308
75 -83 100 -126 119 -209 13 -54 45 -106 65 -106 39 0 52 71 32 168 -23 109
-75 198 -184 315 -118 126 -145 168 -177 276 -41 138 -63 197 -131 352 -35 80
-66 161 -70 180 l-5 34 18 -22 c10 -12 26 -34 36 -48 23 -31 49 -29 58 5 4 14
5 241 2 505 -3 264 -3 478 0 475 6 -6 31 -228 47 -420 15 -187 36 -339 71
-520 36 -190 42 -207 86 -273 19 -29 76 -122 126 -207 49 -85 132 -219 183
-298 206 -314 385 -666 388 -762 1 -31 -3 -37 -49 -62 -65 -36 -177 -61 -232
-53 -84 12 -405 132 -499 186 -60 35 -280 197 -337 249 -48 43 -84 96 -73 107
7 8 136 -38 263 -93 56 -24 111 -44 122 -44 20 0 51 24 51 40 0 18 -45 39
-117 55 -39 9 -82 25 -95 37 -13 11 -95 55 -183 98 -95 46 -184 98 -220 127
-58 47 -175 177 -175 195 0 5 18 -1 41 -12 22 -12 50 -20 62 -18 32 4 33 58 3
202 -31 146 -56 222 -94 285 -15 25 -43 93 -61 151 -18 58 -61 175 -96 261
-62 153 -82 215 -105 334 -7 33 -35 130 -62 215 -145 456 -310 1251 -428 2070
-11 80 -36 240 -55 355 -39 237 -61 415 -105 825 -17 157 -65 553 -106 880
-118 934 -104 803 -179 1655 -125 1420 -122 1393 -231 2053 -26 158 -57 276
-75 288 -6 3 -22 3 -36 -1 -26 -6 -26 -6 -19 -83 3 -42 26 -216 51 -386 66
-459 111 -834 140 -1171 53 -621 65 -763 76 -870 23 -246 61 -588 80 -713 10
-74 39 -296 64 -495 25 -199 63 -490 85 -647 77 -554 93 -698 200 -1770 21
-211 25 -310 11 -294 -21 23 -56 225 -116 669 -31 228 -80 645 -95 795 -24
249 -82 667 -141 1010 -34 201 -59 407 -89 735 -12 127 -41 413 -65 636 -25
224 -54 505 -65 625 -51 553 -70 725 -115 1079 -13 105 -40 350 -60 545 -51
505 -75 642 -118 679 -51 42 -61 -80 -28 -330 22 -164 42 -354 71 -684 11
-126 38 -372 60 -545 22 -173 65 -562 95 -865 30 -302 64 -624 74 -715 40
-336 82 -928 111 -1545 32 -696 39 -838 65 -1285 42 -714 64 -1007 90 -1220 8
-63 17 -162 21 -219 6 -87 5 -103 -7 -99 -48 15 -112 427 -159 1028 -12 146
-25 269 -31 274 -36 37 -47 -123 -30 -420 25 -434 75 -761 146 -969 18 -55 47
-166 64 -248 18 -93 41 -170 59 -210 32 -65 55 -184 67 -332 10 -140 36 -359
46 -397 5 -21 16 -117 24 -215 17 -205 25 -270 65 -558 37 -262 50 -405 50
-566 0 -90 -4 -129 -12 -136 -73 -53 -525 -233 -586 -233 -28 0 -332 123 -405
164 -75 42 -89 62 -113 163 -50 214 -68 588 -58 1181 l7 432 68 0 c91 0 116
11 139 62 40 89 27 154 -80 393 -103 230 -126 287 -204 498 -98 265 -190 559
-264 837 -87 324 -110 380 -148 349 -23 -19 -14 -69 52 -305 31 -110 71 -266
90 -349 68 -293 177 -640 270 -852 144 -328 206 -495 191 -510 -14 -13 -136
-16 -166 -4 -36 16 -56 43 -140 195 -114 206 -204 454 -301 831 -104 401 -125
530 -150 930 -22 352 -41 595 -60 755 -31 264 -73 909 -90 1384 -16 431 -54
1109 -70 1246 -6 47 -19 283 -30 525 -11 242 -28 530 -38 640 -24 286 -24
1639 1 2010 36 531 49 810 51 1065 l1 265 -28 79 c-31 85 -31 137 0 155 22 12
40 4 86 -36z m-1353 -112 c13 -25 13 -121 0 -141 -27 -40 -75 93 -51 139 15
26 37 27 51 2z m1035 -141 c9 -14 -13 -50 -30 -50 -18 0 -20 31 -3 48 15 15
25 15 33 2z m-1179 -147 c18 -78 30 -273 17 -273 -14 0 -49 83 -62 150 -16 78
-16 167 -1 185 18 22 30 7 46 -62z m379 -86 c32 -14 65 -34 72 -43 24 -33 9
-104 -22 -104 -8 0 -29 13 -47 29 -18 16 -42 30 -53 32 -25 5 -65 64 -65 97 0
21 4 24 28 19 15 -3 54 -16 87 -30z m-188 -56 c4 -25 7 -75 8 -111 0 -54 -3
-65 -18 -68 -27 -5 -48 57 -50 148 -1 54 3 83 13 95 13 16 15 16 27 0 7 -10
16 -38 20 -64z m3953 -134 c0 -13 11 -46 25 -73 14 -27 25 -58 25 -69 -1 -28
-26 -59 -44 -52 -25 10 -47 157 -30 201 9 24 24 19 24 -7z m-3035 -76 c-11
-80 -25 -83 -25 -5 0 39 3 74 7 78 14 14 24 -27 18 -73z m-528 -70 c-12 -145
-62 -187 -62 -52 0 76 18 121 48 121 18 0 19 -5 14 -69z m-581 -281 c0 -122 7
-218 28 -365 64 -466 103 -707 152 -930 37 -168 49 -305 27 -312 -21 -7 -32
38 -88 338 -126 675 -215 1373 -181 1427 4 7 20 12 34 10 l27 -3 1 -165z m136
130 c4 -19 12 -145 18 -280 12 -296 12 -293 61 -600 39 -244 52 -300 71 -300
6 0 24 11 40 25 17 14 36 24 42 22 7 -2 11 -30 11 -69 0 -55 -4 -71 -29 -106
-27 -40 -29 -48 -37 -204 -14 -262 -37 -225 -59 92 -5 88 -21 191 -44 297 -22
100 -41 223 -50 325 -8 89 -19 184 -25 209 -23 101 -48 460 -42 597 2 46 32
40 43 -8z m131 -25 c10 -78 5 -210 -8 -210 -21 0 -39 64 -43 152 -5 103 0 126
25 121 14 -2 20 -18 26 -63z m3987 -24 c20 -104 8 -641 -16 -754 -5 -22 -9
-26 -18 -17 -13 13 -16 792 -3 824 11 28 25 9 37 -53z m-3181 -174 c1 -167
-15 -586 -28 -750 -6 -71 -13 -102 -26 -117 -10 -11 -22 -17 -26 -14 -16 9
-10 223 16 581 25 354 31 425 42 478 l6 30 8 -25 c4 -14 7 -96 8 -183z m-668
77 c18 -79 4 -279 -15 -224 -25 74 -34 184 -20 238 9 30 27 23 35 -14z m829
-131 c0 -67 -19 -106 -33 -70 -7 19 12 107 24 107 5 0 9 -17 9 -37z m3678 -60
c-4 -22 -145 -93 -199 -100 -69 -10 -41 25 61 77 84 43 144 52 138 23z m-388
-74 c0 -28 -29 -52 -46 -38 -20 16 -17 56 3 68 21 12 43 -3 43 -30z m-4213
-109 c5 -105 -6 -140 -32 -106 -18 24 -21 169 -4 213 10 26 11 27 21 8 6 -10
13 -62 15 -115z m3827 -95 c39 -415 53 -729 37 -806 -15 -70 -34 -100 -53 -81
-9 9 -15 85 -21 280 -10 278 -1 800 13 785 5 -4 15 -84 24 -178z m-3685 -10
c0 -27 -6 -68 -13 -90 l-12 -40 -7 55 c-3 30 -5 64 -2 75 2 11 4 40 5 65 l2
45 13 -30 c8 -16 14 -52 14 -80z m749 -17 l-4 -33 -8 37 c-5 21 -5 50 0 65 l8
28 4 -32 c2 -18 2 -48 0 -65z m-1318 -57 c10 -20 15 -169 5 -159 -3 3 -10 32
-15 64 -5 33 -12 71 -16 87 -7 31 10 37 26 8z m473 -243 c-10 -40 -11 -37 -11
42 0 79 1 82 11 43 7 -29 7 -57 0 -85z m823 -313 c-6 -185 -13 -236 -34 -243
-21 -7 -11 377 15 568 7 55 7 55 16 -45 4 -55 6 -181 3 -280z m-256 334 c0
-10 -4 -19 -10 -19 -5 0 -10 12 -10 26 0 14 4 23 10 19 6 -3 10 -15 10 -26z
m-980 -135 c14 -37 33 -124 86 -409 26 -137 57 -304 70 -370 38 -196 28 -243
-20 -97 -14 42 -37 128 -51 191 -34 149 -125 648 -125 684 0 35 27 36 40 1z
m974 -50 c10 -26 7 -150 -4 -180 -15 -40 -31 -18 -37 52 -8 87 22 179 41 128z
m-1073 -220 c4 -22 9 -57 9 -80 0 -71 30 -222 91 -461 54 -214 63 -273 37
-257 -22 14 -50 100 -108 335 -53 209 -62 261 -67 366 -3 66 -3 129 1 139 9
24 25 6 37 -42z m1175 -289 c-4 -126 -14 -331 -22 -455 -27 -388 -28 -896 -5
-1535 27 -729 46 -1206 71 -1775 35 -829 43 -1208 37 -1835 -4 -330 -8 -611
-11 -625 -2 -14 -7 -104 -11 -200 -6 -186 -26 -469 -50 -740 -59 -641 -98
-948 -130 -1011 -15 -29 -107 -360 -109 -394 -1 -17 6 -21 40 -23 57 -4 75 21
103 150 12 56 42 180 66 273 59 227 68 287 100 640 62 698 68 970 61 2590 -3
792 -8 1571 -11 1730 -4 211 -2 283 6 265 6 -14 16 -205 25 -450 8 -234 19
-481 25 -550 6 -69 15 -483 19 -920 5 -437 13 -858 19 -935 6 -77 22 -412 36
-745 14 -333 32 -765 40 -960 14 -315 35 -625 64 -935 l10 -99 -36 -61 c-62
-103 -130 -199 -159 -227 -16 -15 -54 -36 -85 -47 -30 -12 -70 -32 -88 -45
l-33 -25 -32 33 c-18 20 -56 42 -93 56 -106 38 -109 64 -11 100 53 19 77 37
149 109 159 160 217 306 234 593 7 116 -2 181 -27 186 -20 4 -30 -29 -53 -183
-49 -327 -130 -500 -287 -606 -109 -74 -190 -103 -227 -80 -23 15 -3 45 49 74
27 16 50 32 50 37 0 13 -46 43 -137 89 -96 48 -87 22 -103 281 -29 463 -24
920 20 1705 30 538 58 1093 75 1495 16 380 35 731 60 1080 8 113 26 410 40
660 14 250 30 518 35 595 5 77 10 159 10 183 0 71 17 47 25 -35 8 -90 25 -155
42 -160 24 -8 40 127 72 632 34 528 43 822 31 1006 -10 136 -23 193 -56 232
-40 48 -28 107 22 107 43 0 55 78 79 520 15 283 31 467 42 498 5 12 8 10 16
-9 5 -14 7 -118 3 -254z m-1328 223 c-3 -48 -23 -61 -39 -25 -13 29 2 67 27
67 12 0 14 -10 12 -42z m5516 -263 c120 -140 308 -494 370 -696 37 -121 86
-181 195 -241 40 -22 41 -59 6 -153 -14 -36 -41 -132 -61 -212 -39 -159 -52
-195 -68 -190 -6 2 -31 37 -55 78 -24 41 -82 134 -129 208 -51 80 -91 154 -99
184 -7 28 -20 135 -28 237 -24 291 -30 313 -128 535 -57 130 -120 312 -112
325 10 16 62 -20 109 -75z m-4049 -93 c0 -81 -6 -320 -12 -532 -7 -212 -13
-738 -13 -1169 0 -836 -11 -1005 -30 -456 -15 468 -13 1304 5 1710 9 193 18
410 21 483 5 100 9 131 18 122 7 -7 11 -61 11 -158z m-1427 81 c5 -10 13 -49
17 -87 4 -37 15 -93 26 -124 20 -59 25 -128 9 -152 -7 -12 -11 -9 -19 11 -21
57 -61 260 -61 313 0 56 11 71 28 39z m4648 -52 c-9 -16 -20 -60 -25 -96 -10
-68 -42 -135 -81 -170 l-23 -20 6 56 c5 57 51 168 105 259 23 38 27 42 30 23
2 -12 -4 -35 -12 -52z m-4541 -423 c21 -54 33 -144 17 -134 -13 8 -52 127 -52
157 0 32 17 21 35 -23z m6224 -203 c19 -40 30 -289 25 -600 -3 -260 -11 -323
-42 -358 -22 -25 -32 -5 -32 68 0 74 -8 105 -27 105 -28 0 -43 -67 -49 -218
-7 -161 -17 -220 -41 -229 -27 -10 -33 19 -33 165 0 79 -5 152 -10 163 -8 14
-21 19 -48 19 -42 0 -79 21 -68 38 4 7 15 12 25 12 22 0 53 33 79 85 27 53 39
105 47 194 7 83 18 111 43 112 9 0 31 2 47 2 l30 2 -1 65 c0 36 -2 135 -5 221
-3 124 -1 159 10 173 18 22 33 16 50 -19z m-754 -486 c96 -104 415 -543 415
-571 0 -13 -73 -9 -126 7 -56 17 -162 93 -245 175 -63 63 -74 93 -109 299 -30
175 -23 184 65 90z m-4492 -248 c2 -10 1 -25 -4 -32 -6 -10 -9 -4 -9 19 0 36
5 42 13 13z m-293 -150 c13 -25 13 -78 1 -86 -15 -8 -31 29 -31 69 0 39 13 47
30 17z m749 -373 c12 -171 22 -402 51 -1158 11 -283 25 -600 30 -705 28 -524
38 -1160 21 -1280 -5 -39 -8 -18 -14 100 -3 83 -15 344 -27 580 -58 1249 -104
2581 -92 2660 l6 40 7 -42 c4 -23 12 -111 18 -195z m-761 138 c2 -34 -3 -274
-12 -532 -9 -258 -20 -615 -26 -794 -17 -556 -23 -638 -96 -1385 -8 -82 -23
-249 -34 -370 -11 -121 -36 -373 -55 -560 -19 -187 -48 -493 -65 -680 -39
-429 -51 -514 -79 -551 -44 -60 -74 -319 -75 -656 -1 -225 4 -251 43 -203 36
47 51 28 51 -64 0 -114 -24 -211 -46 -188 -3 2 -8 48 -13 101 -4 53 -11 99
-15 103 -17 17 -28 -24 -33 -128 -6 -124 4 -172 34 -168 45 4 48 -2 78 -146
20 -94 36 -123 76 -137 52 -18 35 -46 -68 -113 -103 -68 -145 -104 -137 -116
3 -5 23 -9 44 -9 48 0 58 -14 33 -48 -24 -32 -73 -50 -140 -51 -28 -1 -55 -5
-58 -11 -11 -18 24 -68 56 -79 41 -14 234 -14 260 0 11 5 24 22 30 36 8 20 12
23 24 13 20 -17 31 -96 15 -115 -18 -21 -111 -19 -231 5 -170 35 -269 83 -269
131 0 44 72 139 166 220 109 93 124 117 131 211 10 141 -27 165 -102 67 -30
-38 -53 -59 -64 -57 -25 5 -19 253 13 508 42 335 45 369 56 520 5 80 23 224
39 320 16 97 33 209 37 250 10 107 23 131 23 45 2 -159 51 -203 53 -48 1 75
-9 116 -40 177 -22 42 -26 66 -30 162 -4 104 -3 116 19 156 22 40 24 53 24
213 0 94 -3 274 -5 402 -4 203 -3 234 11 248 15 15 16 9 22 -69 7 -88 14 -116
27 -116 11 0 18 32 29 150 18 178 28 373 61 1090 16 354 64 1022 100 1395 52
542 95 931 103 943 18 23 31 -5 35 -72z m4996 30 c39 -14 106 -29 149 -35 101
-14 114 -22 122 -71 10 -58 -6 -73 -68 -67 -62 6 -238 92 -289 142 -62 60 -31
71 86 31z m-108 -127 c109 -78 154 -103 259 -144 39 -15 75 -34 82 -42 24 -31
-22 -155 -77 -208 -27 -25 -40 -30 -99 -33 -76 -5 -153 14 -233 54 l-47 24 1
147 c0 82 -5 172 -11 202 -19 93 -5 93 125 0z m-4606 1 c0 -16 -4 -30 -10 -30
-5 0 -10 14 -10 30 0 17 5 30 10 30 6 0 10 -13 10 -30z m-593 -2502 c-2 -18
-4 -6 -4 27 0 33 2 48 4 33 2 -15 2 -42 0 -60z m280 -95 c-2 -16 -4 -5 -4 22
0 28 2 40 4 28 2 -13 2 -35 0 -50z m4170 -205 c4 -54 2 -78 -5 -78 -18 0 -32
70 -31 160 l0 85 15 -45 c8 -25 18 -80 21 -122z m43 -304 c12 -31 13 -212 1
-198 -12 13 -31 119 -31 176 0 52 15 63 30 22z m152 -131 c13 -32 15 -223 3
-243 -17 -27 -29 27 -33 148 -3 87 -1 122 7 122 6 0 17 -12 23 -27z m-3445
-270 c4 -30 2 -43 -6 -43 -19 0 -31 47 -30 113 l1 62 14 -45 c8 -25 17 -64 21
-87z m3555 -48 c19 -72 54 -633 40 -647 -17 -17 -32 1 -32 38 0 23 -5 34 -14
34 -25 0 -29 -18 -27 -140 1 -116 -11 -167 -23 -93 -17 110 -27 243 -25 366 1
143 2 137 -46 203 -13 19 6 48 33 52 36 5 52 40 52 112 0 76 8 112 23 107 6
-2 14 -16 19 -32z m-188 -186 c15 -62 -15 -181 -40 -156 -11 11 -18 120 -10
162 9 48 37 44 50 -6z m-3335 -424 c6 -132 15 -465 21 -740 5 -275 15 -602 21
-727 7 -124 9 -238 5 -254 -7 -27 -7 -27 -27 -8 -10 11 -24 45 -29 77 -20 105
-35 1376 -22 1802 5 185 19 119 31 -150z m3311 208 c0 -5 4 -35 10 -67 40
-245 95 -1208 75 -1312 -14 -74 -22 -25 -50 321 -3 33 -10 198 -15 367 -7 189
-16 333 -25 375 -17 79 -21 323 -5 323 6 0 10 -3 10 -7z m-1316 -313 c21 -72
33 -220 18 -220 -23 0 -68 221 -55 271 8 28 18 14 37 -51z m1516 -210 c16 -30
31 -401 23 -578 -3 -85 -9 -148 -13 -140 -4 7 -11 123 -15 258 -4 135 -10 288
-14 340 -6 90 -4 140 4 140 3 0 9 -9 15 -20z m-1447 -160 c37 -109 45 -154 28
-164 -14 -9 -27 14 -49 86 -24 76 -39 188 -26 188 5 0 26 -49 47 -110z m-1795
16 c6 -25 40 -109 76 -188 35 -79 85 -197 111 -263 62 -160 224 -486 287 -581
40 -60 51 -84 51 -116 0 -40 -13 -58 -42 -58 -8 0 -34 20 -57 45 -73 75 -384
734 -384 812 0 16 -9 63 -20 104 -10 41 -24 108 -30 149 -6 41 -13 90 -16 108
-7 48 10 39 24 -12z m-118 -267 c13 -343 17 -363 72 -325 47 33 79 10 93 -69
7 -42 154 -339 229 -465 25 -41 68 -104 97 -139 28 -35 56 -78 61 -95 6 -17
13 -176 15 -352 6 -386 3 -401 -73 -330 -60 56 -124 54 -124 -4 0 -16 9 -52
20 -81 28 -70 48 -250 31 -285 -12 -26 -13 -26 -82 -20 -39 4 -88 14 -109 21
-22 8 -79 18 -128 24 -96 10 -159 31 -210 68 -63 47 -15 56 96 19 39 -14 97
-28 129 -31 32 -4 78 -16 102 -26 52 -23 100 -24 127 -4 18 14 18 16 -12 43
-22 21 -60 37 -135 57 -165 45 -194 65 -243 163 -31 61 -34 104 -16 228 12 91
12 92 -14 149 -30 67 -32 82 -10 106 24 27 32 189 38 854 7 607 13 772 28 757
5 -5 13 -124 18 -263z m-1253 -46 c-2 -21 -4 -4 -4 37 0 41 2 58 4 38 2 -21 2
-55 0 -75z m3021 32 c33 -48 58 -133 43 -148 -29 -29 -77 45 -88 132 -7 62 10
69 45 16z m332 -51 c0 -13 -4 -24 -10 -24 -5 0 -10 14 -10 31 0 17 4 28 10 24
6 -3 10 -17 10 -31z m-120 6 c6 -11 15 -57 20 -103 5 -45 25 -145 44 -222 19
-77 63 -252 97 -390 74 -303 112 -422 196 -625 36 -85 73 -180 83 -210 10 -30
34 -91 54 -135 34 -77 47 -145 26 -145 -61 0 -329 740 -435 1200 -98 426 -139
731 -85 630z m155 -149 c9 -18 11 -32 5 -36 -10 -6 -30 26 -30 49 0 24 8 19
25 -13z m-3413 -436 c-6 -164 -17 -202 -26 -89 -6 61 6 401 16 484 6 49 14
-279 10 -395z m3173 304 c8 -23 -1 -39 -20 -39 -16 0 -31 43 -21 59 9 15 34 2
41 -20z m44 -134 c6 -24 11 -61 11 -82 0 -21 9 -57 21 -78 11 -22 25 -74 30
-115 6 -41 16 -84 23 -95 21 -32 28 -81 21 -136 -4 -28 -9 -48 -12 -46 -8 9
-93 340 -113 445 -24 126 -26 180 -6 163 8 -6 19 -31 25 -56z m296 -143 c17
-65 20 -131 5 -116 -14 14 -50 162 -49 203 l1 36 14 -33 c8 -18 21 -59 29 -90z
m-368 -183 c22 -53 32 -156 14 -144 -11 6 -47 114 -57 169 -10 57 16 43 43
-25z m468 -150 c8 -15 22 -62 30 -105 9 -42 37 -141 61 -218 46 -145 68 -266
45 -252 -22 14 -53 89 -58 145 -3 31 -16 74 -28 96 -13 22 -26 64 -29 94 -4
30 -20 96 -37 146 -16 51 -29 105 -29 120 0 24 2 26 16 14 8 -7 22 -25 29 -40z
m-4072 -294 c-5 -100 -11 -127 -26 -122 -33 11 -29 284 5 364 11 25 13 18 18
-67 4 -52 5 -131 3 -175z m3690 70 c15 -44 56 -199 92 -345 67 -276 112 -392
174 -457 l26 -28 3 40 c2 27 -18 111 -63 260 -97 322 -148 599 -115 620 5 3
21 -34 35 -82 109 -366 202 -638 247 -728 24 -47 53 -85 160 -208 43 -49 78
-98 78 -108 0 -19 -10 -22 -310 -85 -91 -20 -184 -38 -207 -41 -49 -6 -46 -16
-62 157 -5 63 -24 223 -40 355 -51 415 -65 578 -62 720 1 43 15 21 44 -70z
m-2053 46 c11 -22 14 -90 4 -115 -10 -25 -33 -19 -45 12 -10 25 -6 93 7 114 9
14 23 9 34 -11z m2730 -686 c33 -58 39 -95 15 -95 -18 0 -75 113 -75 149 0 20
2 21 15 11 8 -7 28 -36 45 -65z m-3567 -204 c51 -27 124 -59 162 -71 153 -49
157 -68 19 -77 -154 -10 -225 18 -300 115 -73 96 -24 109 119 33z m756 -112
c43 -42 86 -118 74 -130 -10 -10 -308 6 -390 22 -86 17 -76 61 16 72 28 3 81
20 118 36 92 41 141 41 182 0z m2400 -286 c19 -37 -18 -175 -60 -219 -37 -39
-139 -76 -308 -110 -195 -40 -212 -45 -316 -95 -44 -21 -126 -51 -183 -66
l-103 -26 -67 23 c-116 40 -222 123 -239 188 -11 45 10 46 111 3 121 -52 182
-65 267 -58 77 7 255 63 349 111 36 18 88 44 115 58 28 14 88 44 135 67 47 23
127 64 178 91 51 28 97 50 102 50 5 0 13 -8 19 -17z"/>
<path d="M4896 17089 c-91 -13 -264 -57 -315 -80 -58 -25 -101 -66 -101 -95 0
-26 41 -44 99 -44 20 0 49 -9 66 -20 16 -11 50 -22 75 -26 35 -5 54 -16 82
-45 49 -52 74 -60 123 -43 76 25 172 159 207 288 19 71 12 76 -89 75 -48 -1
-114 -5 -147 -10z"/>
<path d="M6564 15486 c-10 -26 2 -139 40 -388 53 -336 72 -538 91 -943 10
-212 22 -305 41 -326 18 -20 49 -25 59 -9 17 27 -1 530 -30 830 -26 260 -75
523 -120 638 -8 20 -22 71 -30 112 -17 81 -39 118 -51 86z"/>
<path d="M6856 14793 c-18 -112 1 -871 24 -912 16 -32 58 -28 71 7 24 62 -28
861 -61 922 -16 30 -27 24 -34 -17z"/>
<path d="M5602 15417 c-26 -27 -29 -65 -6 -74 19 -7 71 42 76 72 5 31 -42 32
-70 2z"/>
<path d="M6441 13153 c-40 -48 -152 -277 -181 -368 -13 -38 -32 -88 -43 -110
-38 -75 -24 -229 17 -185 14 16 97 239 177 479 27 80 58 155 70 167 21 22 21
54 0 54 -5 0 -23 -17 -40 -37z"/>
<path d="M7132 13147 c-32 -39 -17 -116 20 -102 21 8 51 66 47 90 -5 24 -51
32 -67 12z"/>
<path d="M7030 12940 c-11 -11 -20 -33 -20 -50 0 -17 -13 -57 -30 -89 -47 -95
-89 -271 -64 -271 19 0 65 82 93 168 12 34 37 92 56 128 40 74 44 109 16 124
-26 13 -28 13 -51 -10z"/>
<path d="M7256 12093 c-26 -53 -105 -292 -137 -416 -23 -89 -22 -125 3 -140
41 -26 82 58 140 283 46 179 61 320 35 320 -10 0 -27 -20 -41 -47z"/>
<path d="M6215 9376 c-109 -35 -131 -54 -119 -101 9 -36 32 -38 125 -9 63 19
117 27 221 33 75 3 140 10 145 14 16 16 -16 43 -78 64 -87 31 -199 30 -294 -1z"/>
<path d="M3916 9567 c-36 -36 -41 -98 -22 -276 16 -162 28 -328 46 -661 46
-843 106 -1314 266 -2071 68 -323 119 -636 139 -851 8 -92 20 -179 25 -194 9
-24 13 -26 25 -13 25 24 34 140 25 292 -10 153 -39 337 -94 592 -67 312 -97
495 -156 969 -82 652 -95 804 -120 1346 -28 616 -40 794 -60 846 -5 13 -18 28
-30 34 -17 9 -24 7 -44 -13z"/>
<path d="M5459 8843 c-17 -20 -17 -112 -1 -632 12 -374 17 -1069 7 -1060 -7 8
-24 247 -40 589 -25 518 -40 665 -70 690 -12 10 -16 9 -22 -6 -12 -28 -8 -607
6 -919 30 -703 57 -1190 71 -1285 6 -36 19 -191 30 -345 11 -154 36 -440 55
-635 47 -490 53 -556 70 -790 25 -331 51 -506 81 -531 19 -16 34 25 35 99 4
186 19 110 99 -518 45 -345 66 -479 81 -496 7 -8 24 -14 38 -12 25 3 26 6 29
71 2 42 -7 121 -22 205 -58 314 -93 955 -111 1997 -24 1378 -86 2842 -131
3058 -13 62 -22 18 -29 -140 -9 -201 2 -1330 15 -1563 14 -248 24 -655 16
-675 -28 -75 -44 166 -81 1290 -37 1106 -61 1584 -81 1616 -8 14 -30 11 -45
-8z m39 -1970 c19 -48 22 -90 32 -398 9 -297 15 -362 64 -730 36 -262 64 -594
77 -885 10 -244 5 -460 -12 -460 -5 0 -9 3 -9 8 0 4 -4 45 -10 92 -5 47 -17
198 -25 335 -8 138 -22 318 -30 400 -29 303 -66 644 -85 795 -19 159 -48 824
-37 854 9 24 23 19 35 -11z"/>
<path d="M3286 8624 c-19 -49 5 -201 59 -376 20 -62 55 -210 80 -329 61 -297
83 -387 185 -744 94 -328 98 -339 166 -482 43 -91 72 -179 61 -189 -9 -10 -56
27 -76 60 -10 17 -21 46 -25 64 -8 46 -70 167 -117 229 -30 40 -47 54 -73 59
-44 8 -85 -6 -104 -34 -13 -19 -11 -23 12 -47 15 -15 36 -25 53 -25 30 0 73
-24 73 -41 0 -6 35 -81 78 -167 125 -248 172 -312 233 -312 54 0 67 85 24 166
-15 27 -25 64 -25 88 -1 25 -12 65 -30 101 -17 33 -30 69 -30 80 0 11 -23 106
-50 210 -88 332 -207 804 -245 975 -35 159 -124 495 -166 630 -28 88 -66 127
-83 84z"/>
<path d="M5742 8548 c-32 -32 -1 -114 59 -157 46 -34 69 -39 69 -16 0 27 -38
116 -65 151 -28 36 -43 42 -63 22z"/>
<path d="M6544 8189 c-29 -57 -34 -87 -18 -104 35 -34 85 38 68 97 -13 43 -30
45 -50 7z"/>
<path d="M3474 6714 c-13 -53 45 -201 179 -453 47 -88 109 -196 136 -238 28
-42 51 -84 51 -93 0 -24 -28 -45 -78 -59 -102 -29 -99 -105 18 -358 101 -217
200 -417 290 -583 104 -191 111 -217 121 -467 10 -239 27 -376 65 -508 33
-119 38 -145 26 -145 -15 0 -32 24 -62 89 -15 32 -46 76 -68 97 -22 21 -50 61
-61 87 -26 61 -79 127 -102 127 -52 0 -35 -61 68 -231 47 -79 103 -178 125
-219 42 -79 88 -134 152 -181 71 -53 116 -32 116 53 0 70 -20 141 -99 351
-113 300 -125 400 -62 529 52 107 48 121 -176 553 -86 165 -182 347 -214 405
-66 119 -109 226 -109 270 0 55 33 36 144 -82 166 -176 206 -198 206 -113 0
32 -9 56 -42 106 -22 35 -114 201 -203 369 -89 168 -197 365 -239 438 -42 73
-92 163 -111 201 -38 77 -61 94 -71 55z m868 -3006 c-11 -11 -42 1 -42 16 0
23 13 26 32 9 10 -9 15 -20 10 -25z"/>
<path d="M6060 5456 c-23 -60 -5 -205 22 -178 14 14 13 181 -2 196 -6 6 -13
-1 -20 -18z"/>
<path d="M3530 4853 c0 -43 45 -130 105 -204 29 -36 75 -99 101 -140 78 -122
133 -168 151 -124 23 62 -277 493 -344 495 -8 0 -13 -12 -13 -27z"/>
<path d="M6049 4283 c-7 -21 -13 -83 -13 -138 -1 -91 1 -100 18 -103 44 -9 59
75 35 204 -14 76 -24 85 -40 37z"/>
<path d="M3646 3535 c-3 -9 -6 -44 -6 -77 0 -53 11 -86 90 -277 50 -119 98
-227 109 -241 50 -68 61 13 15 121 -15 35 -59 158 -98 274 -50 148 -76 211
-87 213 -9 2 -19 -4 -23 -13z"/>
<path d="M1856 4648 c-18 -88 -13 -209 6 -174 15 26 23 196 10 196 -7 0 -14
-10 -16 -22z"/>
<path d="M3301 2728 c-17 -45 -23 -224 -23 -681 0 -445 5 -577 22 -577 15 0
31 67 46 187 31 245 28 938 -4 1057 -10 38 -29 44 -41 14z"/>
</g>
</svg>
